<?xml version="1.0" encoding="UTF-8" standalone="no"?>
<!DOCTYPE svg PUBLIC "-//W3C//DTD SVG 1.1//EN"
 "http://www.w3.org/Graphics/SVG/1.1/DTD/svg11.dtd">
<!-- Generated by graphviz version 2.38.0 (20140413.2041)
 -->
<!-- Title: G Pages: 1 -->
<svg width="2876pt" height="1349pt"
 viewBox="0.00 0.00 2876.00 1349.00" xmlns="http://www.w3.org/2000/svg" xmlns:xlink="http://www.w3.org/1999/xlink">
<g id="graph0" class="graph" transform="scale(1 1) rotate(0) translate(4 1345)">
<title>G</title>
<polygon fill="white" stroke="none" points="-4,4 -4,-1345 2872,-1345 2872,4 -4,4"/>
<!-- 2414 -->
<g id="node1" class="node"><title>2414</title>
<polygon fill="none" stroke="black" points="1802,-1167 1662,-1167 1662,-1131 1802,-1131 1802,-1167"/>
<text text-anchor="middle" x="1732" y="-1145.3" font-family="Times,serif" font-size="14.00">2414: /usr/bin/realpath</text>
</g>
<!-- 2271 -->
<g id="node2" class="node"><title>2271</title>
<polygon fill="none" stroke="black" points="1846.5,-1080 1745.5,-1080 1745.5,-1044 1846.5,-1044 1846.5,-1080"/>
<text text-anchor="middle" x="1796" y="-1058.3" font-family="Times,serif" font-size="14.00">2271: /bin/bash</text>
</g>
<!-- 2414&#45;&gt;2271 -->
<g id="edge1" class="edge"><title>2414&#45;&gt;2271</title>
<path fill="none" stroke="black" d="M1756.47,-1130.82C1762.74,-1125.61 1769.09,-1119.52 1774,-1113 1779.27,-1106 1783.6,-1097.53 1786.99,-1089.58"/>
<polygon fill="black" stroke="black" points="1790.25,-1090.84 1790.65,-1080.26 1783.74,-1088.29 1790.25,-1090.84"/>
<text text-anchor="middle" x="1803.5" y="-1101.8" font-family="Times,serif" font-size="14.00">437710</text>
</g>
<!-- 2271&#45;&gt;2414 -->
<g id="edge21" class="edge"><title>2271&#45;&gt;2414</title>
<path fill="none" stroke="black" d="M1747.15,-1080.19C1739.91,-1084.86 1733.42,-1090.7 1729,-1098 1724.97,-1104.65 1724.12,-1112.75 1724.72,-1120.48"/>
<polygon fill="black" stroke="black" points="1721.3,-1121.26 1726.28,-1130.61 1728.22,-1120.2 1721.3,-1121.26"/>
<text text-anchor="middle" x="1749.5" y="-1101.8" font-family="Times,serif" font-size="14.00">437709</text>
</g>
<!-- 2275 -->
<g id="node3" class="node"><title>2275</title>
<polygon fill="none" stroke="black" points="1287,-993 1187,-993 1187,-957 1287,-957 1287,-993"/>
<text text-anchor="middle" x="1237" y="-971.3" font-family="Times,serif" font-size="14.00">2275: /bin/ping</text>
</g>
<!-- 2271&#45;&gt;2275 -->
<g id="edge22" class="edge"><title>2271&#45;&gt;2275</title>
<path fill="none" stroke="black" d="M1745.05,-1059.79C1607.18,-1056.27 1235.94,-1045.06 1218,-1026 1211.74,-1019.35 1213.1,-1010.42 1217.14,-1001.95"/>
<polygon fill="black" stroke="black" points="1220.31,-1003.47 1222.36,-993.07 1214.28,-999.922 1220.31,-1003.47"/>
<text text-anchor="middle" x="1238.5" y="-1014.8" font-family="Times,serif" font-size="14.00">407525</text>
</g>
<!-- 2348 -->
<g id="node4" class="node"><title>2348</title>
<polygon fill="none" stroke="black" points="1536,-645 1420,-645 1420,-609 1536,-609 1536,-645"/>
<text text-anchor="middle" x="1478" y="-623.3" font-family="Times,serif" font-size="14.00">2348: /usr/bin/gpg</text>
</g>
<!-- 2271&#45;&gt;2348 -->
<g id="edge25" class="edge"><title>2271&#45;&gt;2348</title>
<path fill="none" stroke="black" d="M1745.35,-1056.76C1715.78,-1052.43 1678.75,-1043.68 1650,-1026 1621.81,-1008.67 1610.32,-987.964 1622,-957 1673.4,-820.774 1912.37,-808.548 1820,-696 1786.07,-654.659 1636.06,-637.992 1546.37,-631.632"/>
<polygon fill="black" stroke="black" points="1546.49,-628.133 1536.27,-630.942 1546.01,-635.116 1546.49,-628.133"/>
<text text-anchor="middle" x="1763.5" y="-840.8" font-family="Times,serif" font-size="14.00">432744</text>
</g>
<!-- 2285 -->
<g id="node8" class="node"><title>2285</title>
<polygon fill="none" stroke="black" points="1731,-993 1631,-993 1631,-957 1731,-957 1731,-993"/>
<text text-anchor="middle" x="1681" y="-971.3" font-family="Times,serif" font-size="14.00">2285: /bin/ping</text>
</g>
<!-- 2271&#45;&gt;2285 -->
<g id="edge27" class="edge"><title>2271&#45;&gt;2285</title>
<path fill="none" stroke="black" d="M1745.42,-1054.82C1710.32,-1049.37 1667.98,-1040.08 1657,-1026 1651.29,-1018.67 1653.29,-1009.77 1658.01,-1001.51"/>
<polygon fill="black" stroke="black" points="1660.91,-1003.46 1663.69,-993.239 1655.14,-999.499 1660.91,-1003.46"/>
<text text-anchor="middle" x="1677.5" y="-1014.8" font-family="Times,serif" font-size="14.00">407605</text>
</g>
<!-- 2383 -->
<g id="node13" class="node"><title>2383</title>
<polygon fill="none" stroke="black" points="2574.5,-993 2411.5,-993 2411.5,-957 2574.5,-957 2574.5,-993"/>
<text text-anchor="middle" x="2493" y="-971.3" font-family="Times,serif" font-size="14.00">2383: /tmp/john/unshadow</text>
</g>
<!-- 2271&#45;&gt;2383 -->
<g id="edge28" class="edge"><title>2271&#45;&gt;2383</title>
<path fill="none" stroke="black" d="M1846.67,-1060.78C1970.43,-1059.79 2285.28,-1054.47 2386,-1026 2399.59,-1022.16 2401.32,-1017.2 2414,-1011 2423.5,-1006.36 2433.76,-1001.62 2443.63,-997.191"/>
<polygon fill="black" stroke="black" points="2445.23,-1000.31 2452.95,-993.051 2442.39,-993.914 2445.23,-1000.31"/>
<text text-anchor="middle" x="2434.5" y="-1014.8" font-family="Times,serif" font-size="14.00">437527</text>
</g>
<!-- 2289 -->
<g id="node14" class="node"><title>2289</title>
<polygon fill="none" stroke="black" points="1849,-993 1749,-993 1749,-957 1849,-957 1849,-993"/>
<text text-anchor="middle" x="1799" y="-971.3" font-family="Times,serif" font-size="14.00">2289: /bin/ping</text>
</g>
<!-- 2271&#45;&gt;2289 -->
<g id="edge30" class="edge"><title>2271&#45;&gt;2289</title>
<path fill="none" stroke="black" d="M1773,-1043.97C1763.51,-1034.75 1755.81,-1022.84 1761,-1011 1762.62,-1007.32 1764.83,-1003.85 1767.39,-1000.64"/>
<polygon fill="black" stroke="black" points="1770.06,-1002.9 1774.29,-993.192 1764.92,-998.143 1770.06,-1002.9"/>
<text text-anchor="middle" x="1781.5" y="-1014.8" font-family="Times,serif" font-size="14.00">407636</text>
</g>
<!-- 2301 -->
<g id="node15" class="node"><title>2301</title>
<polygon fill="none" stroke="black" points="2043,-993 1943,-993 1943,-957 2043,-957 2043,-993"/>
<text text-anchor="middle" x="1993" y="-971.3" font-family="Times,serif" font-size="14.00">2301: /bin/ping</text>
</g>
<!-- 2271&#45;&gt;2301 -->
<g id="edge31" class="edge"><title>2271&#45;&gt;2301</title>
<path fill="none" stroke="black" d="M1846.87,-1058.76C1897.89,-1055.34 1971.48,-1046.86 1990,-1026 1995.44,-1019.87 1997.28,-1011.48 1997.44,-1003.33"/>
<polygon fill="black" stroke="black" points="2000.93,-1003.1 1996.88,-993.307 1993.94,-1003.49 2000.93,-1003.1"/>
<text text-anchor="middle" x="2017.5" y="-1014.8" font-family="Times,serif" font-size="14.00">407717</text>
</g>
<!-- 2309 -->
<g id="node16" class="node"><title>2309</title>
<polygon fill="none" stroke="black" points="758,-993 636,-993 636,-957 758,-957 758,-993"/>
<text text-anchor="middle" x="697" y="-971.3" font-family="Times,serif" font-size="14.00">2309: /usr/bin/wget</text>
</g>
<!-- 2271&#45;&gt;2309 -->
<g id="edge33" class="edge"><title>2271&#45;&gt;2309</title>
<path fill="none" stroke="black" d="M1745.47,-1061.31C1615.96,-1061.57 1261.75,-1058.94 969,-1026 900.277,-1018.27 822.782,-1003.41 768.141,-991.889"/>
<polygon fill="black" stroke="black" points="768.72,-988.435 758.211,-989.78 767.265,-995.282 768.72,-988.435"/>
<text text-anchor="middle" x="989.5" y="-1014.8" font-family="Times,serif" font-size="14.00">407787</text>
</g>
<!-- 2281 -->
<g id="node17" class="node"><title>2281</title>
<polygon fill="none" stroke="black" points="1575,-993 1475,-993 1475,-957 1575,-957 1575,-993"/>
<text text-anchor="middle" x="1525" y="-971.3" font-family="Times,serif" font-size="14.00">2281: /bin/ping</text>
</g>
<!-- 2271&#45;&gt;2281 -->
<g id="edge34" class="edge"><title>2271&#45;&gt;2281</title>
<path fill="none" stroke="black" d="M1745.42,-1058.81C1663.1,-1054.73 1507.61,-1044.62 1491,-1026 1483.97,-1018.12 1487.71,-1008.72 1494.84,-1000.21"/>
<polygon fill="black" stroke="black" points="1497.36,-1002.63 1501.8,-993.012 1492.33,-997.769 1497.36,-1002.63"/>
<text text-anchor="middle" x="1511.5" y="-1014.8" font-family="Times,serif" font-size="14.00">407573</text>
</g>
<!-- 2388 -->
<g id="node18" class="node"><title>2388</title>
<polygon fill="none" stroke="black" points="2008,-297 1876,-297 1876,-261 2008,-261 2008,-297"/>
<text text-anchor="middle" x="1942" y="-275.3" font-family="Times,serif" font-size="14.00">2388: /tmp/john/john</text>
</g>
<!-- 2271&#45;&gt;2388 -->
<g id="edge20" class="edge"><title>2271&#45;&gt;2388</title>
<path fill="none" stroke="black" d="M1846.51,-1060.06C1909.81,-1057.84 2013.47,-1050.47 2042,-1026 2069.31,-1002.57 2053,-1073.72 2053,-671.5 2053,-671.5 2053,-671.5 2053,-365 2053,-335.689 2028.3,-315.117 2002.2,-301.561"/>
<polygon fill="black" stroke="black" points="2003.47,-298.288 1992.95,-297.056 2000.41,-304.581 2003.47,-298.288"/>
<text text-anchor="middle" x="2074.5" y="-666.8" font-family="Times,serif" font-size="14.00">437538</text>
</g>
<!-- 2416 -->
<g id="node20" class="node"><title>2416</title>
<polygon fill="none" stroke="black" points="2144,-123 2012,-123 2012,-87 2144,-87 2144,-123"/>
<text text-anchor="middle" x="2078" y="-101.3" font-family="Times,serif" font-size="14.00">2416: /tmp/john/john</text>
</g>
<!-- 2271&#45;&gt;2416 -->
<g id="edge23" class="edge"><title>2271&#45;&gt;2416</title>
<path fill="none" stroke="black" d="M1846.63,-1060.03C1914.46,-1057.79 2030.25,-1050.4 2064,-1026 2101.37,-998.977 2109,-978.618 2109,-932.5 2109,-932.5 2109,-932.5 2109,-713 2109,-658.254 2096.33,-645.574 2092,-591 2090.24,-568.843 2091,-563.227 2091,-541 2091,-541 2091,-541 2091,-408.5 2091,-306.914 2083.59,-186.316 2079.96,-133.301"/>
<polygon fill="black" stroke="black" points="2083.43,-132.779 2079.25,-123.046 2076.45,-133.264 2083.43,-132.779"/>
<text text-anchor="middle" x="2112.5" y="-579.8" font-family="Times,serif" font-size="14.00">437713</text>
</g>
<!-- 2305 -->
<g id="node21" class="node"><title>2305</title>
<polygon fill="none" stroke="black" points="2275,-993 2175,-993 2175,-957 2275,-957 2275,-993"/>
<text text-anchor="middle" x="2225" y="-971.3" font-family="Times,serif" font-size="14.00">2305: /bin/ping</text>
</g>
<!-- 2271&#45;&gt;2305 -->
<g id="edge24" class="edge"><title>2271&#45;&gt;2305</title>
<path fill="none" stroke="black" d="M1846.68,-1059.3C1928.87,-1055.96 2087.27,-1046.96 2139,-1026 2148.97,-1021.96 2148.97,-1016.85 2158,-1011 2164.89,-1006.53 2172.42,-1002.16 2179.86,-998.101"/>
<polygon fill="black" stroke="black" points="2181.99,-1000.93 2189.18,-993.143 2178.71,-994.75 2181.99,-1000.93"/>
<text text-anchor="middle" x="2178.5" y="-1014.8" font-family="Times,serif" font-size="14.00">407756</text>
</g>
<!-- 2293 -->
<g id="node22" class="node"><title>2293</title>
<polygon fill="none" stroke="black" points="2393,-993 2293,-993 2293,-957 2393,-957 2393,-993"/>
<text text-anchor="middle" x="2343" y="-971.3" font-family="Times,serif" font-size="14.00">2293: /bin/ping</text>
</g>
<!-- 2271&#45;&gt;2293 -->
<g id="edge26" class="edge"><title>2271&#45;&gt;2293</title>
<path fill="none" stroke="black" d="M1846.62,-1060.17C1950.65,-1057.99 2185.09,-1050.43 2261,-1026 2271.09,-1022.75 2291.4,-1010.39 2309.28,-998.771"/>
<polygon fill="black" stroke="black" points="2311.37,-1001.59 2317.8,-993.17 2307.52,-995.735 2311.37,-1001.59"/>
<text text-anchor="middle" x="2310.5" y="-1014.8" font-family="Times,serif" font-size="14.00">407668</text>
</g>
<!-- 2333 -->
<g id="node23" class="node"><title>2333</title>
<polygon fill="none" stroke="black" points="1038,-819 916,-819 916,-783 1038,-783 1038,-819"/>
<text text-anchor="middle" x="977" y="-797.3" font-family="Times,serif" font-size="14.00">2333: /usr/bin/wget</text>
</g>
<!-- 2271&#45;&gt;2333 -->
<g id="edge29" class="edge"><title>2271&#45;&gt;2333</title>
<path fill="none" stroke="black" d="M1745.26,-1059.08C1651.22,-1055.08 1457.18,-1044.66 1433,-1026 1400.38,-1000.83 1413.03,-978.403 1401,-939 1387.37,-894.36 1411.43,-867.388 1376,-837 1351.74,-816.195 1156.6,-807.222 1048.49,-803.816"/>
<polygon fill="black" stroke="black" points="1048.41,-800.312 1038.3,-803.504 1048.19,-807.309 1048.41,-800.312"/>
<text text-anchor="middle" x="1421.5" y="-927.8" font-family="Times,serif" font-size="14.00">411004</text>
</g>
<!-- 2362 -->
<g id="node24" class="node"><title>2362</title>
<polygon fill="none" stroke="black" points="1618,-471 1492,-471 1492,-435 1618,-435 1618,-471"/>
<text text-anchor="middle" x="1555" y="-449.3" font-family="Times,serif" font-size="14.00">2362: /usr/bin/unzip</text>
</g>
<!-- 2271&#45;&gt;2362 -->
<g id="edge32" class="edge"><title>2271&#45;&gt;2362</title>
<path fill="none" stroke="black" d="M1832.44,-1043.81C1839.78,-1038.94 1846.82,-1033.01 1852,-1026 1877.58,-991.414 1877,-975.515 1877,-932.5 1877,-932.5 1877,-932.5 1877,-539 1877,-487.887 1723.4,-466.831 1628.38,-458.696"/>
<polygon fill="black" stroke="black" points="1628.49,-455.193 1618.23,-457.857 1627.91,-462.169 1628.49,-455.193"/>
<text text-anchor="middle" x="1897.5" y="-753.8" font-family="Times,serif" font-size="14.00">435393</text>
</g>
<!-- 2275&#45;&gt;2271 -->
<g id="edge2" class="edge"><title>2275&#45;&gt;2271</title>
<path fill="none" stroke="black" d="M1246.97,-993.081C1254.69,-1004.55 1266.48,-1018.84 1281,-1026 1320.81,-1045.65 1607.49,-1055.85 1735.06,-1059.46"/>
<polygon fill="black" stroke="black" points="1734.97,-1062.95 1745.06,-1059.73 1735.17,-1055.96 1734.97,-1062.95"/>
<text text-anchor="middle" x="1301.5" y="-1014.8" font-family="Times,serif" font-size="14.00">407526</text>
</g>
<!-- 2348&#45;&gt;2271 -->
<g id="edge3" class="edge"><title>2348&#45;&gt;2271</title>
<path fill="none" stroke="black" d="M1419.84,-637.349C1385.38,-646.205 1344.38,-663.281 1323,-696 1314.25,-709.395 1318.17,-716.748 1323,-732 1340.25,-786.423 1367.37,-788.198 1397,-837 1419.59,-874.212 1424.81,-884.007 1442,-924 1446.04,-933.391 1465.82,-1013.79 1484,-1026 1523.78,-1052.73 1656.13,-1059.25 1735.11,-1060.72"/>
<polygon fill="black" stroke="black" points="1735.35,-1064.22 1745.41,-1060.88 1735.46,-1057.22 1735.35,-1064.22"/>
<text text-anchor="middle" x="1426.5" y="-840.8" font-family="Times,serif" font-size="14.00">432745</text>
</g>
<!-- 2355 -->
<g id="node39" class="node"><title>2355</title>
<ellipse fill="none" stroke="black" cx="1536" cy="-540" rx="81.4863" ry="18"/>
<text text-anchor="middle" x="1536" y="-536.3" font-family="Times,serif" font-size="14.00">2355: /tmp/john.zip</text>
</g>
<!-- 2348&#45;&gt;2355 -->
<g id="edge67" class="edge"><title>2348&#45;&gt;2355</title>
<path fill="none" stroke="black" d="M1489.74,-608.799C1498.05,-596.622 1509.33,-580.089 1518.67,-566.398"/>
<polygon fill="black" stroke="black" points="1521.73,-568.118 1524.48,-557.885 1515.95,-564.173 1521.73,-568.118"/>
<text text-anchor="middle" x="1531.5" y="-579.8" font-family="Times,serif" font-size="14.00">432773</text>
</g>
<!-- 751 -->
<g id="node5" class="node"><title>751</title>
<polygon fill="none" stroke="black" points="2868,-645 2684,-645 2684,-609 2868,-609 2868,-645"/>
<text text-anchor="middle" x="2776" y="-623.3" font-family="Times,serif" font-size="14.00">751: /var/www/cgi&#45;bin/env.cgi</text>
</g>
<!-- 754 -->
<g id="node6" class="node"><title>754</title>
<polygon fill="none" stroke="black" points="2815.5,-732 2738.5,-732 2738.5,-696 2815.5,-696 2815.5,-732"/>
<text text-anchor="middle" x="2777" y="-710.3" font-family="Times,serif" font-size="14.00">754: /tmp/t</text>
</g>
<!-- 751&#45;&gt;754 -->
<g id="edge4" class="edge"><title>751&#45;&gt;754</title>
<path fill="none" stroke="black" d="M2778.34,-645.056C2779.02,-650.751 2779.67,-657.138 2780,-663 2780.42,-670.35 2780.23,-678.307 2779.8,-685.665"/>
<polygon fill="black" stroke="black" points="2776.29,-685.64 2779.02,-695.877 2783.27,-686.172 2776.29,-685.64"/>
<text text-anchor="middle" x="2795" y="-666.8" font-family="Times,serif" font-size="14.00">5748</text>
</g>
<!-- 694 -->
<g id="node7" class="node"><title>694</title>
<polygon fill="none" stroke="black" points="2844.5,-558 2705.5,-558 2705.5,-522 2844.5,-522 2844.5,-558"/>
<text text-anchor="middle" x="2775" y="-536.3" font-family="Times,serif" font-size="14.00">694: /usr/sbin/apache2</text>
</g>
<!-- 751&#45;&gt;694 -->
<g id="edge5" class="edge"><title>751&#45;&gt;694</title>
<path fill="none" stroke="black" d="M2760.42,-608.649C2756.59,-603.349 2753.01,-597.258 2751,-591 2748.41,-582.917 2750.45,-574.471 2754.24,-566.872"/>
<polygon fill="black" stroke="black" points="2757.36,-568.472 2759.53,-558.103 2751.37,-564.854 2757.36,-568.472"/>
<text text-anchor="middle" x="2765" y="-579.8" font-family="Times,serif" font-size="14.00">5729</text>
</g>
<!-- 754&#45;&gt;751 -->
<g id="edge41" class="edge"><title>754&#45;&gt;751</title>
<path fill="none" stroke="black" d="M2758.66,-695.642C2754.33,-690.429 2750.3,-684.384 2748,-678 2745.04,-669.793 2747.4,-661.342 2751.77,-653.777"/>
<polygon fill="black" stroke="black" points="2754.78,-655.575 2757.63,-645.371 2749.04,-651.569 2754.78,-655.575"/>
<text text-anchor="middle" x="2762" y="-666.8" font-family="Times,serif" font-size="14.00">5749</text>
</g>
<!-- 758 -->
<g id="node11" class="node"><title>758</title>
<polygon fill="none" stroke="black" points="2850,-819 2706,-819 2706,-783 2850,-783 2850,-819"/>
<text text-anchor="middle" x="2778" y="-797.3" font-family="Times,serif" font-size="14.00">758: /usr/local/bin/bash</text>
</g>
<!-- 754&#45;&gt;758 -->
<g id="edge40" class="edge"><title>754&#45;&gt;758</title>
<path fill="none" stroke="black" d="M2779.34,-732.056C2780.02,-737.751 2780.67,-744.138 2781,-750 2781.42,-757.35 2781.23,-765.307 2780.8,-772.665"/>
<polygon fill="black" stroke="black" points="2777.29,-772.64 2780.02,-782.877 2784.27,-773.172 2777.29,-772.64"/>
<text text-anchor="middle" x="2796" y="-753.8" font-family="Times,serif" font-size="14.00">5762</text>
</g>
<!-- 694&#45;&gt;751 -->
<g id="edge44" class="edge"><title>694&#45;&gt;751</title>
<path fill="none" stroke="black" d="M2777.34,-558.056C2778.02,-563.751 2778.67,-570.138 2779,-576 2779.42,-583.35 2779.23,-591.307 2778.8,-598.665"/>
<polygon fill="black" stroke="black" points="2775.29,-598.64 2778.02,-608.877 2782.27,-599.172 2775.29,-598.64"/>
<text text-anchor="middle" x="2794" y="-579.8" font-family="Times,serif" font-size="14.00">5728</text>
</g>
<!-- 2285&#45;&gt;2271 -->
<g id="edge6" class="edge"><title>2285&#45;&gt;2271</title>
<path fill="none" stroke="black" d="M1689.42,-993.137C1695.35,-1003.76 1704.16,-1017.04 1715,-1026 1721.45,-1031.33 1728.84,-1035.98 1736.46,-1040"/>
<polygon fill="black" stroke="black" points="1734.97,-1043.16 1745.49,-1044.42 1738.05,-1036.88 1734.97,-1043.16"/>
<text text-anchor="middle" x="1735.5" y="-1014.8" font-family="Times,serif" font-size="14.00">407606</text>
</g>
<!-- 2137 -->
<g id="node9" class="node"><title>2137</title>
<polygon fill="none" stroke="black" points="2141,-1254 2019,-1254 2019,-1218 2141,-1218 2141,-1254"/>
<text text-anchor="middle" x="2080" y="-1232.3" font-family="Times,serif" font-size="14.00">2137: /usr/bin/wget</text>
</g>
<!-- 1666 -->
<g id="node10" class="node"><title>1666</title>
<polygon fill="none" stroke="black" points="2828.5,-1080 2727.5,-1080 2727.5,-1044 2828.5,-1044 2828.5,-1080"/>
<text text-anchor="middle" x="2778" y="-1058.3" font-family="Times,serif" font-size="14.00">1666: /bin/bash</text>
</g>
<!-- 2137&#45;&gt;1666 -->
<g id="edge7" class="edge"><title>2137&#45;&gt;1666</title>
<path fill="none" stroke="black" d="M2141.1,-1233.64C2303.34,-1229.4 2735.56,-1213.78 2778,-1167 2796.6,-1146.5 2792.92,-1113.25 2786.98,-1089.88"/>
<polygon fill="black" stroke="black" points="2790.34,-1088.9 2784.26,-1080.23 2783.6,-1090.8 2790.34,-1088.9"/>
<text text-anchor="middle" x="2812.5" y="-1145.3" font-family="Times,serif" font-size="14.00">406408</text>
</g>
<!-- 2140 -->
<g id="node27" class="node"><title>2140</title>
<ellipse fill="none" stroke="black" cx="1932" cy="-1149" rx="111.581" ry="18"/>
<text text-anchor="middle" x="1932" y="-1145.3" font-family="Times,serif" font-size="14.00">2140: /tmp/crack_passwd.sh</text>
</g>
<!-- 2137&#45;&gt;2140 -->
<g id="edge68" class="edge"><title>2137&#45;&gt;2140</title>
<path fill="none" stroke="black" d="M2050.05,-1217.8C2026.88,-1204.49 1994.65,-1185.98 1969.72,-1171.66"/>
<polygon fill="black" stroke="black" points="1971.31,-1168.54 1960.9,-1166.6 1967.83,-1174.61 1971.31,-1168.54"/>
<text text-anchor="middle" x="2035.5" y="-1188.8" font-family="Times,serif" font-size="14.00">406450</text>
</g>
<!-- 1845 -->
<g id="node31" class="node"><title>1845</title>
<ellipse fill="none" stroke="black" cx="154" cy="-888" rx="88.2844" ry="18"/>
<text text-anchor="middle" x="154" y="-884.3" font-family="Times,serif" font-size="14.00">1845: /root/.wget&#45;hsts</text>
</g>
<!-- 2137&#45;&gt;1845 -->
<g id="edge69" class="edge"><title>2137&#45;&gt;1845</title>
<path fill="none" stroke="black" d="M2018.88,-1234.14C1675.31,-1229.1 0,-1201.9 0,-1150 0,-1150 0,-1150 0,-974 0,-935.15 38.0315,-913.921 76.2951,-902.395"/>
<polygon fill="black" stroke="black" points="77.3235,-905.741 86.0051,-899.668 75.4312,-899.002 77.3235,-905.741"/>
<text text-anchor="middle" x="20.5" y="-1058.3" font-family="Times,serif" font-size="14.00">406512</text>
</g>
<!-- 756 -->
<g id="node34" class="node"><title>756</title>
<polygon fill="none" stroke="black" points="2769.35,-1167 2267.7,-1167 2138.65,-1131 2640.3,-1131 2769.35,-1167"/>
<text text-anchor="middle" x="2454" y="-1145.3" font-family="Times,serif" font-size="14.00">756: 192.168.29.207/32:43694&#45;&gt;192.168.29.113/32:9999</text>
</g>
<!-- 2137&#45;&gt;756 -->
<g id="edge70" class="edge"><title>2137&#45;&gt;756</title>
<path fill="none" stroke="black" d="M2141.34,-1221.06C2203.36,-1206.96 2299.7,-1185.07 2369.05,-1169.31"/>
<polygon fill="black" stroke="black" points="2370.11,-1172.66 2379.08,-1167.03 2368.56,-1165.83 2370.11,-1172.66"/>
<text text-anchor="middle" x="2310.5" y="-1188.8" font-family="Times,serif" font-size="14.00">406425</text>
</g>
<!-- 1666&#45;&gt;2137 -->
<g id="edge16" class="edge"><title>1666&#45;&gt;2137</title>
<path fill="none" stroke="black" d="M2727.42,-1078.08C2724.25,-1078.79 2721.09,-1079.44 2718,-1080 2649,-1092.45 2138.72,-1081.55 2089,-1131 2069.28,-1150.62 2069.97,-1184.1 2073.69,-1207.76"/>
<polygon fill="black" stroke="black" points="2070.29,-1208.66 2075.54,-1217.86 2077.18,-1207.4 2070.29,-1208.66"/>
<text text-anchor="middle" x="2109.5" y="-1145.3" font-family="Times,serif" font-size="14.00">406407</text>
</g>
<!-- 1414 -->
<g id="node19" class="node"><title>1414</title>
<polygon fill="none" stroke="black" points="2822,-993 2734,-993 2734,-957 2822,-957 2822,-993"/>
<text text-anchor="middle" x="2778" y="-971.3" font-family="Times,serif" font-size="14.00">1414: /bin/su</text>
</g>
<!-- 1666&#45;&gt;1414 -->
<g id="edge17" class="edge"><title>1666&#45;&gt;1414</title>
<path fill="none" stroke="black" d="M2758.42,-1043.83C2753.79,-1038.62 2749.48,-1032.53 2747,-1026 2743.76,-1017.44 2746.58,-1008.75 2751.62,-1001.07"/>
<polygon fill="black" stroke="black" points="2754.38,-1003.22 2757.78,-993.18 2748.87,-998.908 2754.38,-1003.22"/>
<text text-anchor="middle" x="2767.5" y="-1014.8" font-family="Times,serif" font-size="14.00">170339</text>
</g>
<!-- 758&#45;&gt;754 -->
<g id="edge9" class="edge"><title>758&#45;&gt;754</title>
<path fill="none" stroke="black" d="M2762.42,-782.649C2758.59,-777.349 2755.01,-771.258 2753,-765 2750.41,-756.917 2752.45,-748.471 2756.24,-740.872"/>
<polygon fill="black" stroke="black" points="2759.36,-742.472 2761.53,-732.103 2753.37,-738.854 2759.36,-742.472"/>
<text text-anchor="middle" x="2767" y="-753.8" font-family="Times,serif" font-size="14.00">5763</text>
</g>
<!-- 1395 -->
<g id="node12" class="node"><title>1395</title>
<polygon fill="none" stroke="black" points="2839,-906 2717,-906 2717,-870 2839,-870 2839,-906"/>
<text text-anchor="middle" x="2778" y="-884.3" font-family="Times,serif" font-size="14.00">1395: /usr/bin/sudo</text>
</g>
<!-- 758&#45;&gt;1395 -->
<g id="edge8" class="edge"><title>758&#45;&gt;1395</title>
<path fill="none" stroke="black" d="M2783.96,-819.241C2785.61,-824.835 2787.18,-831.117 2788,-837 2789.05,-844.508 2788.28,-852.588 2786.79,-860.018"/>
<polygon fill="black" stroke="black" points="2783.33,-859.41 2784.31,-869.96 2790.13,-861.101 2783.33,-859.41"/>
<text text-anchor="middle" x="2809.5" y="-840.8" font-family="Times,serif" font-size="14.00">167922</text>
</g>
<!-- 1395&#45;&gt;758 -->
<g id="edge37" class="edge"><title>1395&#45;&gt;758</title>
<path fill="none" stroke="black" d="M2755.57,-869.863C2750.48,-864.73 2745.76,-858.669 2743,-852 2739.43,-843.373 2742.46,-834.761 2747.98,-827.175"/>
<polygon fill="black" stroke="black" points="2750.82,-829.238 2754.74,-819.395 2745.54,-824.645 2750.82,-829.238"/>
<text text-anchor="middle" x="2763.5" y="-840.8" font-family="Times,serif" font-size="14.00">167923</text>
</g>
<!-- 1395&#45;&gt;1414 -->
<g id="edge38" class="edge"><title>1395&#45;&gt;1414</title>
<path fill="none" stroke="black" d="M2783.96,-906.241C2785.61,-911.835 2787.18,-918.117 2788,-924 2789.05,-931.508 2788.28,-939.588 2786.79,-947.018"/>
<polygon fill="black" stroke="black" points="2783.33,-946.41 2784.31,-956.96 2790.13,-948.101 2783.33,-946.41"/>
<text text-anchor="middle" x="2809.5" y="-927.8" font-family="Times,serif" font-size="14.00">168041</text>
</g>
<!-- 2383&#45;&gt;2271 -->
<g id="edge10" class="edge"><title>2383&#45;&gt;2271</title>
<path fill="none" stroke="black" d="M2486.27,-993.05C2480.77,-1004.51 2471.8,-1018.78 2459,-1026 2407.37,-1055.09 2010.84,-1060.03 1856.86,-1060.85"/>
<polygon fill="black" stroke="black" points="1856.62,-1057.35 1846.64,-1060.9 1856.66,-1064.35 1856.62,-1057.35"/>
<text text-anchor="middle" x="2495.5" y="-1014.8" font-family="Times,serif" font-size="14.00">437528</text>
</g>
<!-- 2386 -->
<g id="node35" class="node"><title>2386</title>
<ellipse fill="none" stroke="black" cx="2291" cy="-366" rx="107.781" ry="18"/>
<text text-anchor="middle" x="2291" y="-362.3" font-family="Times,serif" font-size="14.00">2386: /tmp/john/mypasswd</text>
</g>
<!-- 2383&#45;&gt;2386 -->
<g id="edge71" class="edge"><title>2383&#45;&gt;2386</title>
<path fill="none" stroke="black" d="M2448.99,-956.927C2421.78,-943.178 2392,-920.856 2392,-889 2392,-889 2392,-889 2392,-452 2392,-422.581 2366.61,-401.294 2341.28,-387.38"/>
<polygon fill="black" stroke="black" points="2342.86,-384.255 2332.37,-382.765 2339.64,-390.471 2342.86,-384.255"/>
<text text-anchor="middle" x="2412.5" y="-666.8" font-family="Times,serif" font-size="14.00">437535</text>
</g>
<!-- 2289&#45;&gt;2271 -->
<g id="edge11" class="edge"><title>2289&#45;&gt;2271</title>
<path fill="none" stroke="black" d="M1803.77,-993.124C1805.86,-1002.78 1807.53,-1015.06 1806,-1026 1805.64,-1028.57 1805.14,-1031.22 1804.55,-1033.86"/>
<polygon fill="black" stroke="black" points="1801.1,-1033.2 1801.96,-1043.76 1807.87,-1034.97 1801.1,-1033.2"/>
<text text-anchor="middle" x="1827.5" y="-1014.8" font-family="Times,serif" font-size="14.00">407637</text>
</g>
<!-- 2301&#45;&gt;2271 -->
<g id="edge12" class="edge"><title>2301&#45;&gt;2271</title>
<path fill="none" stroke="black" d="M1971.8,-993.198C1955.98,-1005.76 1935.53,-1021.37 1926,-1026 1904.3,-1036.54 1878.96,-1044.27 1856.45,-1049.74"/>
<polygon fill="black" stroke="black" points="1855.6,-1046.35 1846.66,-1052.03 1857.19,-1053.16 1855.6,-1046.35"/>
<text text-anchor="middle" x="1968.5" y="-1014.8" font-family="Times,serif" font-size="14.00">407718</text>
</g>
<!-- 2309&#45;&gt;2271 -->
<g id="edge13" class="edge"><title>2309&#45;&gt;2271</title>
<path fill="none" stroke="black" d="M758.009,-983.444C847.869,-994.186 1021.16,-1014.05 1169,-1026 1376.33,-1042.76 1622.89,-1053.98 1735.04,-1058.61"/>
<polygon fill="black" stroke="black" points="1735.01,-1062.11 1745.15,-1059.02 1735.3,-1055.11 1735.01,-1062.11"/>
<text text-anchor="middle" x="1189.5" y="-1014.8" font-family="Times,serif" font-size="14.00">407788</text>
</g>
<!-- 2321 -->
<g id="node29" class="node"><title>2321</title>
<polygon fill="none" stroke="black" points="1333.93,-906 914.077,-906 806.072,-870 1225.92,-870 1333.93,-906"/>
<text text-anchor="middle" x="1070" y="-884.3" font-family="Times,serif" font-size="14.00">2321: 10.0.2.15/32:44856&#45;&gt;162.125.6.6/32:443</text>
</g>
<!-- 2309&#45;&gt;2321 -->
<g id="edge78" class="edge"><title>2309&#45;&gt;2321</title>
<path fill="none" stroke="black" d="M731.344,-956.904C754.899,-945.88 787.168,-932.132 817,-924 843.597,-916.75 872.197,-910.957 900.258,-906.341"/>
<polygon fill="black" stroke="black" points="900.836,-909.793 910.157,-904.757 899.73,-902.881 900.836,-909.793"/>
<text text-anchor="middle" x="837.5" y="-927.8" font-family="Times,serif" font-size="14.00">407943</text>
</g>
<!-- 2309&#45;&gt;1845 -->
<g id="edge77" class="edge"><title>2309&#45;&gt;1845</title>
<path fill="none" stroke="black" d="M635.961,-971.623C562.563,-967.979 435.893,-959.177 329,-939 287.458,-931.159 241.539,-917.857 207.164,-906.943"/>
<polygon fill="black" stroke="black" points="207.928,-903.513 197.337,-903.789 205.789,-910.178 207.928,-903.513"/>
<text text-anchor="middle" x="349.5" y="-927.8" font-family="Times,serif" font-size="14.00">411001</text>
</g>
<!-- 2311 -->
<g id="node41" class="node"><title>2311</title>
<polygon fill="none" stroke="black" points="787.928,-906 368.077,-906 260.072,-870 679.923,-870 787.928,-906"/>
<text text-anchor="middle" x="524" y="-884.3" font-family="Times,serif" font-size="14.00">2311: 10.0.2.15/32:59648&#45;&gt;162.125.6.1/32:443</text>
</g>
<!-- 2309&#45;&gt;2311 -->
<g id="edge76" class="edge"><title>2309&#45;&gt;2311</title>
<path fill="none" stroke="black" d="M670.755,-956.878C654.491,-946.65 632.963,-933.786 613,-924 602.853,-919.026 591.811,-914.222 581.066,-909.851"/>
<polygon fill="black" stroke="black" points="582.315,-906.581 571.73,-906.127 579.722,-913.083 582.315,-906.581"/>
<text text-anchor="middle" x="660.5" y="-927.8" font-family="Times,serif" font-size="14.00">407896</text>
</g>
<!-- 2281&#45;&gt;2271 -->
<g id="edge14" class="edge"><title>2281&#45;&gt;2271</title>
<path fill="none" stroke="black" d="M1528.41,-993.058C1531.57,-1004.21 1537.42,-1018.13 1548,-1026 1576.74,-1047.4 1671.28,-1055.75 1734.97,-1058.99"/>
<polygon fill="black" stroke="black" points="1735.15,-1062.5 1745.31,-1059.48 1735.48,-1055.51 1735.15,-1062.5"/>
<text text-anchor="middle" x="1568.5" y="-1014.8" font-family="Times,serif" font-size="14.00">407574</text>
</g>
<!-- 2388&#45;&gt;2271 -->
<g id="edge15" class="edge"><title>2388&#45;&gt;2271</title>
<path fill="none" stroke="black" d="M1939.1,-297.2C1936.47,-314.33 1933,-341.405 1933,-365 1933,-715 1933,-715 1933,-715 1933,-840.164 1927.14,-874.115 1888,-993 1882.84,-1008.67 1882.89,-1014.56 1871,-1026 1865.99,-1030.82 1860.2,-1035.07 1854.09,-1038.78"/>
<polygon fill="black" stroke="black" points="1852.01,-1035.94 1844.98,-1043.86 1855.42,-1042.05 1852.01,-1035.94"/>
<text text-anchor="middle" x="1953.5" y="-666.8" font-family="Times,serif" font-size="14.00">437539</text>
</g>
<!-- 2407 -->
<g id="node30" class="node"><title>2407</title>
<ellipse fill="none" stroke="black" cx="1949" cy="-192" rx="99.3824" ry="18"/>
<text text-anchor="middle" x="1949" y="-188.3" font-family="Times,serif" font-size="14.00">2407: /tmp/john/john.pot</text>
</g>
<!-- 2388&#45;&gt;2407 -->
<g id="edge65" class="edge"><title>2388&#45;&gt;2407</title>
<path fill="none" stroke="black" d="M1943.42,-260.799C1944.37,-249.163 1945.66,-233.548 1946.76,-220.237"/>
<polygon fill="black" stroke="black" points="1950.25,-220.429 1947.59,-210.175 1943.28,-219.854 1950.25,-220.429"/>
<text text-anchor="middle" x="1966.5" y="-231.8" font-family="Times,serif" font-size="14.00">437691</text>
</g>
<!-- 1414&#45;&gt;1666 -->
<g id="edge42" class="edge"><title>1414&#45;&gt;1666</title>
<path fill="none" stroke="black" d="M2783.96,-993.241C2785.61,-998.835 2787.18,-1005.12 2788,-1011 2789.05,-1018.51 2788.28,-1026.59 2786.79,-1034.02"/>
<polygon fill="black" stroke="black" points="2783.33,-1033.41 2784.31,-1043.96 2790.13,-1035.1 2783.33,-1033.41"/>
<text text-anchor="middle" x="2809.5" y="-1014.8" font-family="Times,serif" font-size="14.00">170338</text>
</g>
<!-- 1414&#45;&gt;1395 -->
<g id="edge43" class="edge"><title>1414&#45;&gt;1395</title>
<path fill="none" stroke="black" d="M2754.74,-956.605C2745.52,-947.468 2738.13,-935.747 2743,-924 2744.47,-920.457 2746.49,-917.086 2748.82,-913.934"/>
<polygon fill="black" stroke="black" points="2751.67,-915.988 2755.57,-906.137 2746.38,-911.405 2751.67,-915.988"/>
<text text-anchor="middle" x="2763.5" y="-927.8" font-family="Times,serif" font-size="14.00">168042</text>
</g>
<!-- 2416&#45;&gt;2271 -->
<g id="edge18" class="edge"><title>2416&#45;&gt;2271</title>
<path fill="none" stroke="black" d="M2084.98,-123.032C2087.27,-128.725 2089.79,-135.117 2092,-141 2120.78,-217.728 2138.39,-234.366 2153,-315 2160.41,-355.899 2155,-366.935 2155,-408.5 2155,-715 2155,-715 2155,-715 2155,-1055.57 2133.65,-1009.21 2114,-1026 2094.86,-1042.36 1943.3,-1053.1 1856.51,-1057.98"/>
<polygon fill="black" stroke="black" points="1856.31,-1054.48 1846.52,-1058.53 1856.69,-1061.47 1856.31,-1054.48"/>
<text text-anchor="middle" x="2175.5" y="-579.8" font-family="Times,serif" font-size="14.00">437714</text>
</g>
<!-- 2417 -->
<g id="node42" class="node"><title>2417</title>
<ellipse fill="none" stroke="black" cx="2078" cy="-18" rx="138.375" ry="18"/>
<text text-anchor="middle" x="2078" y="-14.3" font-family="Times,serif" font-size="14.00">2417: /tmp/john/password_crack.txt</text>
</g>
<!-- 2416&#45;&gt;2417 -->
<g id="edge66" class="edge"><title>2416&#45;&gt;2417</title>
<path fill="none" stroke="black" d="M2078,-86.799C2078,-75.1626 2078,-59.5479 2078,-46.2368"/>
<polygon fill="black" stroke="black" points="2081.5,-46.1754 2078,-36.1754 2074.5,-46.1755 2081.5,-46.1754"/>
<text text-anchor="middle" x="2098.5" y="-57.8" font-family="Times,serif" font-size="14.00">437731</text>
</g>
<!-- 2305&#45;&gt;2271 -->
<g id="edge19" class="edge"><title>2305&#45;&gt;2271</title>
<path fill="none" stroke="black" d="M2222.07,-993.222C2219.21,-1004.45 2213.64,-1018.38 2203,-1026 2175.54,-1045.64 1963.77,-1055.43 1857.05,-1059.15"/>
<polygon fill="black" stroke="black" points="1856.63,-1055.67 1846.75,-1059.51 1856.87,-1062.66 1856.63,-1055.67"/>
<text text-anchor="middle" x="2236.5" y="-1014.8" font-family="Times,serif" font-size="14.00">407757</text>
</g>
<!-- 2293&#45;&gt;2271 -->
<g id="edge35" class="edge"><title>2293&#45;&gt;2271</title>
<path fill="none" stroke="black" d="M2343.71,-993.016C2343.17,-1004.15 2340.42,-1018.06 2331,-1026 2295.45,-1055.96 1989.52,-1060.47 1856.9,-1061.01"/>
<polygon fill="black" stroke="black" points="1856.88,-1057.51 1846.9,-1061.05 1856.91,-1064.51 1856.88,-1057.51"/>
<text text-anchor="middle" x="2361.5" y="-1014.8" font-family="Times,serif" font-size="14.00">407669</text>
</g>
<!-- 2333&#45;&gt;2271 -->
<g id="edge36" class="edge"><title>2333&#45;&gt;2271</title>
<path fill="none" stroke="black" d="M1038.17,-804.961C1131.21,-810.8 1301.86,-827.187 1343,-870 1364.47,-892.343 1341.46,-910.241 1353,-939 1370.68,-983.066 1373.83,-1002.34 1415,-1026 1468.01,-1056.47 1641.81,-1061.21 1735.26,-1061.48"/>
<polygon fill="black" stroke="black" points="1735.42,-1064.98 1745.42,-1061.49 1735.43,-1057.98 1735.42,-1064.98"/>
<text text-anchor="middle" x="1373.5" y="-927.8" font-family="Times,serif" font-size="14.00">411005</text>
</g>
<!-- 2334 -->
<g id="node28" class="node"><title>2334</title>
<polygon fill="none" stroke="black" points="1092.19,-732 579.66,-732 447.813,-696 960.34,-696 1092.19,-732"/>
<text text-anchor="middle" x="770" y="-710.3" font-family="Times,serif" font-size="14.00">2334: 192.168.29.207/32:56368&#45;&gt;192.168.29.113/32:8000</text>
</g>
<!-- 2333&#45;&gt;2334 -->
<g id="edge73" class="edge"><title>2333&#45;&gt;2334</title>
<path fill="none" stroke="black" d="M949.473,-782.895C931.802,-772.419 908.104,-759.286 886,-750 873.047,-744.558 858.957,-739.574 845.205,-735.178"/>
<polygon fill="black" stroke="black" points="845.861,-731.716 835.273,-732.083 843.779,-738.4 845.861,-731.716"/>
<text text-anchor="middle" x="937.5" y="-753.8" font-family="Times,serif" font-size="14.00">411027</text>
</g>
<!-- 2335 -->
<g id="node36" class="node"><title>2335</title>
<ellipse fill="none" stroke="black" cx="1193" cy="-714" rx="83.3857" ry="18"/>
<text text-anchor="middle" x="1193" y="-710.3" font-family="Times,serif" font-size="14.00">2335: /tmp/libfoo.so</text>
</g>
<!-- 2333&#45;&gt;2335 -->
<g id="edge72" class="edge"><title>2333&#45;&gt;2335</title>
<path fill="none" stroke="black" d="M1020.45,-782.901C1056.53,-768.705 1107.78,-748.536 1145.05,-733.87"/>
<polygon fill="black" stroke="black" points="1146.66,-736.997 1154.68,-730.079 1144.1,-730.484 1146.66,-736.997"/>
<text text-anchor="middle" x="1118.5" y="-753.8" font-family="Times,serif" font-size="14.00">411037</text>
</g>
<!-- 2362&#45;&gt;2271 -->
<g id="edge39" class="edge"><title>2362&#45;&gt;2271</title>
<path fill="none" stroke="black" d="M1491.75,-454.182C1204.64,-455.414 38,-464.976 38,-539 38,-976 38,-976 38,-976 38,-1062.86 1425.35,-1062.48 1735.15,-1061.31"/>
<polygon fill="black" stroke="black" points="1735.3,-1064.81 1745.28,-1061.27 1735.27,-1057.81 1735.3,-1064.81"/>
<text text-anchor="middle" x="58.5" y="-753.8" font-family="Times,serif" font-size="14.00">435394</text>
</g>
<!-- 2380 -->
<g id="node32" class="node"><title>2380</title>
<ellipse fill="none" stroke="black" cx="1555" cy="-366" rx="103.982" ry="18"/>
<text text-anchor="middle" x="1555" y="-362.3" font-family="Times,serif" font-size="14.00">2380: /tmp/john/john.conf</text>
</g>
<!-- 2362&#45;&gt;2380 -->
<g id="edge75" class="edge"><title>2362&#45;&gt;2380</title>
<path fill="none" stroke="black" d="M1555,-434.799C1555,-423.163 1555,-407.548 1555,-394.237"/>
<polygon fill="black" stroke="black" points="1558.5,-394.175 1555,-384.175 1551.5,-394.175 1558.5,-394.175"/>
<text text-anchor="middle" x="1575.5" y="-405.8" font-family="Times,serif" font-size="14.00">437518</text>
</g>
<!-- 2366 -->
<g id="node40" class="node"><title>2366</title>
<ellipse fill="none" stroke="black" cx="1791" cy="-366" rx="114.28" ry="18"/>
<text text-anchor="middle" x="1791" y="-362.3" font-family="Times,serif" font-size="14.00">2366: /tmp/john/password.lst</text>
</g>
<!-- 2362&#45;&gt;2366 -->
<g id="edge74" class="edge"><title>2362&#45;&gt;2366</title>
<path fill="none" stroke="black" d="M1602.47,-434.901C1641.6,-420.809 1697.07,-400.83 1737.71,-386.192"/>
<polygon fill="black" stroke="black" points="1738.96,-389.462 1747.19,-382.78 1736.59,-382.876 1738.96,-389.462"/>
<text text-anchor="middle" x="1708.5" y="-405.8" font-family="Times,serif" font-size="14.00">435501</text>
</g>
<!-- 2353 -->
<g id="node25" class="node"><title>2353</title>
<ellipse fill="none" stroke="black" cx="1452" cy="-714" rx="120.479" ry="18"/>
<text text-anchor="middle" x="1452" y="-710.3" font-family="Times,serif" font-size="14.00">2353: /root/.gnupg/secring.gpg</text>
</g>
<!-- 2353&#45;&gt;2348 -->
<g id="edge45" class="edge"><title>2353&#45;&gt;2348</title>
<path fill="none" stroke="black" d="M1457.26,-695.799C1460.86,-684.047 1465.69,-668.238 1469.79,-654.842"/>
<polygon fill="black" stroke="black" points="1473.17,-655.762 1472.75,-645.175 1466.47,-653.714 1473.17,-655.762"/>
<text text-anchor="middle" x="1487.5" y="-666.8" font-family="Times,serif" font-size="14.00">432758</text>
</g>
<!-- 2384 -->
<g id="node26" class="node"><title>2384</title>
<ellipse fill="none" stroke="black" cx="2468" cy="-1062" rx="75.2868" ry="18"/>
<text text-anchor="middle" x="2468" y="-1058.3" font-family="Times,serif" font-size="14.00">2384: /etc/shadow</text>
</g>
<!-- 2384&#45;&gt;2383 -->
<g id="edge46" class="edge"><title>2384&#45;&gt;2383</title>
<path fill="none" stroke="black" d="M2503.21,-1045.93C2511.11,-1040.81 2518.48,-1034.23 2523,-1026 2527.44,-1017.92 2524.92,-1009.26 2519.84,-1001.46"/>
<polygon fill="black" stroke="black" points="2522.44,-999.109 2513.52,-993.395 2516.93,-1003.43 2522.44,-999.109"/>
<text text-anchor="middle" x="2546.5" y="-1014.8" font-family="Times,serif" font-size="14.00">437531</text>
</g>
<!-- 2140&#45;&gt;2271 -->
<g id="edge47" class="edge"><title>2140&#45;&gt;2271</title>
<path fill="none" stroke="black" d="M1905.45,-1131.41C1884.48,-1118.3 1855,-1099.87 1831.91,-1085.45"/>
<polygon fill="black" stroke="black" points="1833.75,-1082.46 1823.41,-1080.13 1830.04,-1088.4 1833.75,-1082.46"/>
<text text-anchor="middle" x="1893.5" y="-1101.8" font-family="Times,serif" font-size="14.00">407511</text>
</g>
<!-- 2334&#45;&gt;2333 -->
<g id="edge48" class="edge"><title>2334&#45;&gt;2333</title>
<path fill="none" stroke="black" d="M791.519,-732.131C805.937,-742.887 825.741,-756.316 845,-765 864.131,-773.626 885.813,-780.471 905.996,-785.736"/>
<polygon fill="black" stroke="black" points="905.213,-789.148 915.765,-788.194 906.921,-782.36 905.213,-789.148"/>
<text text-anchor="middle" x="865.5" y="-753.8" font-family="Times,serif" font-size="14.00">411029</text>
</g>
<!-- 2321&#45;&gt;2309 -->
<g id="edge49" class="edge"><title>2321&#45;&gt;2309</title>
<path fill="none" stroke="black" d="M995.283,-906.027C929.051,-921.12 833.011,-943.005 767.943,-957.833"/>
<polygon fill="black" stroke="black" points="767.148,-954.425 758.176,-960.059 768.703,-961.25 767.148,-954.425"/>
<text text-anchor="middle" x="926.5" y="-927.8" font-family="Times,serif" font-size="14.00">408178</text>
</g>
<!-- 2407&#45;&gt;2416 -->
<g id="edge50" class="edge"><title>2407&#45;&gt;2416</title>
<path fill="none" stroke="black" d="M1973.22,-174.392C1987.62,-164.579 2006.27,-151.969 2023,-141 2029.18,-136.946 2035.79,-132.682 2042.2,-128.58"/>
<polygon fill="black" stroke="black" points="2044.22,-131.446 2050.77,-123.121 2040.46,-125.543 2044.22,-131.446"/>
<text text-anchor="middle" x="2043.5" y="-144.8" font-family="Times,serif" font-size="14.00">437727</text>
</g>
<!-- 1845&#45;&gt;2309 -->
<g id="edge52" class="edge"><title>1845&#45;&gt;2309</title>
<path fill="none" stroke="black" d="M218.143,-900.449C229.098,-902.345 240.371,-904.258 251,-906 383.159,-927.653 537.733,-950.716 625.828,-963.646"/>
<polygon fill="black" stroke="black" points="625.572,-967.146 635.974,-965.134 626.587,-960.22 625.572,-967.146"/>
<text text-anchor="middle" x="479.5" y="-927.8" font-family="Times,serif" font-size="14.00">407801</text>
</g>
<!-- 1845&#45;&gt;2333 -->
<g id="edge51" class="edge"><title>1845&#45;&gt;2333</title>
<path fill="none" stroke="black" d="M216.761,-875.244C228.132,-873.33 239.901,-871.49 251,-870 489.822,-837.94 774.865,-815.962 905.363,-806.798"/>
<polygon fill="black" stroke="black" points="905.889,-810.27 915.621,-806.081 905.401,-803.287 905.889,-810.27"/>
<text text-anchor="middle" x="550.5" y="-840.8" font-family="Times,serif" font-size="14.00">411018</text>
</g>
<!-- 2380&#45;&gt;2388 -->
<g id="edge53" class="edge"><title>2380&#45;&gt;2388</title>
<path fill="none" stroke="black" d="M1616.75,-351.438C1684.42,-336.575 1793.02,-312.722 1865.9,-296.715"/>
<polygon fill="black" stroke="black" points="1866.92,-300.074 1875.94,-294.51 1865.42,-293.237 1866.92,-300.074"/>
<text text-anchor="middle" x="1792.5" y="-318.8" font-family="Times,serif" font-size="14.00">437542</text>
</g>
<!-- 2380&#45;&gt;2416 -->
<g id="edge54" class="edge"><title>2380&#45;&gt;2416</title>
<path fill="none" stroke="black" d="M1575.19,-348.242C1620.18,-311.669 1733.2,-223.975 1841,-174 1892.57,-150.09 1954.42,-132.687 2002,-121.475"/>
<polygon fill="black" stroke="black" points="2002.97,-124.842 2011.93,-119.176 2001.4,-118.022 2002.97,-124.842"/>
<text text-anchor="middle" x="1763.5" y="-231.8" font-family="Times,serif" font-size="14.00">437717</text>
</g>
<!-- 2352 -->
<g id="node33" class="node"><title>2352</title>
<ellipse fill="none" stroke="black" cx="1701" cy="-714" rx="110.48" ry="18"/>
<text text-anchor="middle" x="1701" y="-710.3" font-family="Times,serif" font-size="14.00">2352: /root/.gnupg/gpg.conf</text>
</g>
<!-- 2352&#45;&gt;2348 -->
<g id="edge55" class="edge"><title>2352&#45;&gt;2348</title>
<path fill="none" stroke="black" d="M1659.58,-697.211C1623.7,-683.535 1571.54,-663.653 1532.32,-648.704"/>
<polygon fill="black" stroke="black" points="1533.23,-645.308 1522.64,-645.016 1530.74,-651.848 1533.23,-645.308"/>
<text text-anchor="middle" x="1623.5" y="-666.8" font-family="Times,serif" font-size="14.00">432754</text>
</g>
<!-- 756&#45;&gt;1666 -->
<g id="edge56" class="edge"><title>756&#45;&gt;1666</title>
<path fill="none" stroke="black" d="M2521.94,-1130.98C2573.04,-1118.06 2645.02,-1099.64 2717.52,-1080.1"/>
<polygon fill="black" stroke="black" points="2718.54,-1083.45 2727.28,-1077.46 2716.72,-1076.69 2718.54,-1083.45"/>
<text text-anchor="middle" x="2666.5" y="-1101.8" font-family="Times,serif" font-size="14.00">259790</text>
</g>
<!-- 2386&#45;&gt;2388 -->
<g id="edge57" class="edge"><title>2386&#45;&gt;2388</title>
<path fill="none" stroke="black" d="M2232.59,-350.773C2173.74,-336.44 2082.65,-314.255 2018.16,-298.55"/>
<polygon fill="black" stroke="black" points="2018.59,-295.053 2008.05,-296.087 2016.94,-301.854 2018.59,-295.053"/>
<text text-anchor="middle" x="2158.5" y="-318.8" font-family="Times,serif" font-size="14.00">437552</text>
</g>
<!-- 2386&#45;&gt;2416 -->
<g id="edge58" class="edge"><title>2386&#45;&gt;2416</title>
<path fill="none" stroke="black" d="M2287.37,-347.945C2277.67,-306.416 2247.23,-199.198 2181,-141 2172.96,-133.937 2163.44,-128.286 2153.48,-123.768"/>
<polygon fill="black" stroke="black" points="2154.82,-120.534 2144.24,-119.929 2152.13,-126.998 2154.82,-120.534"/>
<text text-anchor="middle" x="2272.5" y="-231.8" font-family="Times,serif" font-size="14.00">437729</text>
</g>
<!-- 2335&#45;&gt;2348 -->
<g id="edge59" class="edge"><title>2335&#45;&gt;2348</title>
<path fill="none" stroke="black" d="M1207.35,-695.81C1217.73,-684.596 1232.73,-670.665 1249,-663 1299.51,-639.207 1362.57,-630.926 1409.73,-628.331"/>
<polygon fill="black" stroke="black" points="1410.02,-631.821 1419.84,-627.847 1409.68,-624.829 1410.02,-631.821"/>
<text text-anchor="middle" x="1269.5" y="-666.8" font-family="Times,serif" font-size="14.00">432760</text>
</g>
<!-- 2138 -->
<g id="node37" class="node"><title>2138</title>
<polygon fill="none" stroke="black" points="2402.19,-1341 1889.66,-1341 1757.81,-1305 2270.34,-1305 2402.19,-1341"/>
<text text-anchor="middle" x="2080" y="-1319.3" font-family="Times,serif" font-size="14.00">2138: 192.168.29.207/32:56362&#45;&gt;192.168.29.113/32:8000</text>
</g>
<!-- 2138&#45;&gt;2137 -->
<g id="edge60" class="edge"><title>2138&#45;&gt;2137</title>
<path fill="none" stroke="black" d="M2080,-1304.8C2080,-1293.16 2080,-1277.55 2080,-1264.24"/>
<polygon fill="black" stroke="black" points="2083.5,-1264.18 2080,-1254.18 2076.5,-1264.18 2083.5,-1264.18"/>
<text text-anchor="middle" x="2100.5" y="-1275.8" font-family="Times,serif" font-size="14.00">406432</text>
</g>
<!-- 2385 -->
<g id="node38" class="node"><title>2385</title>
<ellipse fill="none" stroke="black" cx="2635" cy="-1062" rx="74.187" ry="18"/>
<text text-anchor="middle" x="2635" y="-1058.3" font-family="Times,serif" font-size="14.00">2385: /etc/passwd</text>
</g>
<!-- 2385&#45;&gt;2383 -->
<g id="edge61" class="edge"><title>2385&#45;&gt;2383</title>
<path fill="none" stroke="black" d="M2616.27,-1044.4C2603.96,-1034 2587.18,-1020.75 2571,-1011 2562.89,-1006.11 2553.97,-1001.48 2545.16,-997.289"/>
<polygon fill="black" stroke="black" points="2546.59,-994.097 2536.04,-993.086 2543.66,-1000.45 2546.59,-994.097"/>
<text text-anchor="middle" x="2612.5" y="-1014.8" font-family="Times,serif" font-size="14.00">437533</text>
</g>
<!-- 2355&#45;&gt;2362 -->
<g id="edge62" class="edge"><title>2355&#45;&gt;2362</title>
<path fill="none" stroke="black" d="M1539.84,-521.799C1542.45,-510.163 1545.94,-494.548 1548.91,-481.237"/>
<polygon fill="black" stroke="black" points="1552.39,-481.698 1551.16,-471.175 1545.56,-480.171 1552.39,-481.698"/>
<text text-anchor="middle" x="1567.5" y="-492.8" font-family="Times,serif" font-size="14.00">436436</text>
</g>
<!-- 2366&#45;&gt;2388 -->
<g id="edge63" class="edge"><title>2366&#45;&gt;2388</title>
<path fill="none" stroke="black" d="M1819.52,-348.408C1836.46,-338.601 1858.4,-325.991 1878,-315 1885.54,-310.771 1893.61,-306.308 1901.4,-302.036"/>
<polygon fill="black" stroke="black" points="1903.26,-305.007 1910.35,-297.136 1899.9,-298.867 1903.26,-305.007"/>
<text text-anchor="middle" x="1898.5" y="-318.8" font-family="Times,serif" font-size="14.00">437682</text>
</g>
<!-- 2311&#45;&gt;2309 -->
<g id="edge64" class="edge"><title>2311&#45;&gt;2309</title>
<path fill="none" stroke="black" d="M536.497,-906.119C545.289,-917.008 557.959,-930.594 572,-939 588.39,-948.812 607.631,-955.963 626.038,-961.14"/>
<polygon fill="black" stroke="black" points="625.297,-964.565 635.86,-963.744 627.091,-957.798 625.297,-964.565"/>
<text text-anchor="middle" x="592.5" y="-927.8" font-family="Times,serif" font-size="14.00">407890</text>
</g>
</g>
</svg>
