<?xml version="1.0" encoding="UTF-8" standalone="no"?>
<!DOCTYPE svg PUBLIC "-//W3C//DTD SVG 1.1//EN"
 "http://www.w3.org/Graphics/SVG/1.1/DTD/svg11.dtd">
<!-- Generated by graphviz version 2.38.0 (20140413.2041)
 -->
<!-- Title: G Pages: 1 -->
<svg width="3133pt" height="305pt"
 viewBox="0.00 0.00 3132.78 305.00" xmlns="http://www.w3.org/2000/svg" xmlns:xlink="http://www.w3.org/1999/xlink">
<g id="graph0" class="graph" transform="scale(1 1) rotate(0) translate(4 301)">
<title>G</title>
<polygon fill="white" stroke="none" points="-4,4 -4,-301 3128.78,-301 3128.78,4 -4,4"/>
<!-- 108789 -->
<g id="node1" class="node"><title>108789</title>
<polygon fill="none" stroke="black" points="1193.25,-297 1080.25,-297 1080.25,-261 1193.25,-261 1193.25,-297"/>
<text text-anchor="middle" x="1136.75" y="-275.3" font-family="Times,serif" font-size="14.00">108789: /bin/ping</text>
</g>
<!-- 108782 -->
<g id="node2" class="node"><title>108782</title>
<polygon fill="none" stroke="black" points="1406.75,-210 1292.75,-210 1292.75,-174 1406.75,-174 1406.75,-210"/>
<text text-anchor="middle" x="1349.75" y="-188.3" font-family="Times,serif" font-size="14.00">108782: /bin/bash</text>
</g>
<!-- 108789&#45;&gt;108782 -->
<g id="edge1" class="edge"><title>108789&#45;&gt;108782</title>
<path fill="none" stroke="black" d="M1173.69,-260.979C1195.86,-250.966 1224.73,-238.292 1250.75,-228 1263.25,-223.059 1276.76,-218.061 1289.66,-213.449"/>
<polygon fill="black" stroke="black" points="1291.12,-216.644 1299.38,-210.005 1288.78,-210.046 1291.12,-216.644"/>
<text text-anchor="middle" x="1278.25" y="-231.8" font-family="Times,serif" font-size="14.00">22087380</text>
</g>
<!-- 1238 -->
<g id="node21" class="node"><title>1238</title>
<ellipse fill="none" stroke="black" cx="1172.75" cy="-18" rx="72.2875" ry="18"/>
<text text-anchor="middle" x="1172.75" y="-14.3" font-family="Times,serif" font-size="14.00">1238: /dev/pts/11</text>
</g>
<!-- 108789&#45;&gt;1238 -->
<g id="edge35" class="edge"><title>108789&#45;&gt;1238</title>
<path fill="none" stroke="black" d="M1080.19,-276.843C895.103,-272.012 324.199,-248.336 410.752,-141 415.195,-135.491 652.802,-88.335 659.752,-87 746.934,-70.2544 768.823,-66.2245 856.752,-54 938.486,-42.6368 1032.53,-32.609 1096.63,-26.2323"/>
<polygon fill="black" stroke="black" points="1097.04,-29.7082 1106.65,-25.2406 1096.35,-22.7422 1097.04,-29.7082"/>
<text text-anchor="middle" x="438.252" y="-144.8" font-family="Times,serif" font-size="14.00">22087454</text>
</g>
<!-- 108782&#45;&gt;108789 -->
<g id="edge7" class="edge"><title>108782&#45;&gt;108789</title>
<path fill="none" stroke="black" d="M1292.29,-197.46C1243.44,-202.314 1178.09,-211.661 1157.75,-228 1150.58,-233.764 1145.82,-242.416 1142.68,-250.91"/>
<polygon fill="black" stroke="black" points="1139.29,-250.039 1139.69,-260.627 1145.98,-252.099 1139.29,-250.039"/>
<text text-anchor="middle" x="1185.25" y="-231.8" font-family="Times,serif" font-size="14.00">22087379</text>
</g>
<!-- 108787 -->
<g id="node3" class="node"><title>108787</title>
<polygon fill="none" stroke="black" points="1796.25,-123 1683.25,-123 1683.25,-87 1796.25,-87 1796.25,-123"/>
<text text-anchor="middle" x="1739.75" y="-101.3" font-family="Times,serif" font-size="14.00">108787: /bin/ping</text>
</g>
<!-- 108782&#45;&gt;108787 -->
<g id="edge11" class="edge"><title>108782&#45;&gt;108787</title>
<path fill="none" stroke="black" d="M1407.01,-190.548C1518.07,-189.073 1754.06,-182.786 1778.75,-156 1786.21,-147.905 1781.89,-138.505 1773.86,-130.055"/>
<polygon fill="black" stroke="black" points="1776.15,-127.407 1766.42,-123.229 1771.42,-132.567 1776.15,-127.407"/>
<text text-anchor="middle" x="1810.25" y="-144.8" font-family="Times,serif" font-size="14.00">22087260</text>
</g>
<!-- 1237 -->
<g id="node4" class="node"><title>1237</title>
<polygon fill="none" stroke="black" points="1350.25,-123 1249.25,-123 1249.25,-87 1350.25,-87 1350.25,-123"/>
<text text-anchor="middle" x="1299.75" y="-101.3" font-family="Times,serif" font-size="14.00">1237: /bin/bash</text>
</g>
<!-- 108782&#45;&gt;1237 -->
<g id="edge14" class="edge"><title>108782&#45;&gt;1237</title>
<path fill="none" stroke="black" d="M1292.53,-176.397C1283.12,-171.447 1274.56,-164.833 1268.75,-156 1263.45,-147.934 1266.29,-139.01 1271.98,-130.96"/>
<polygon fill="black" stroke="black" points="1274.68,-133.18 1278.42,-123.266 1269.32,-128.685 1274.68,-133.18"/>
<text text-anchor="middle" x="1296.25" y="-144.8" font-family="Times,serif" font-size="14.00">22087045</text>
</g>
<!-- 108827 -->
<g id="node5" class="node"><title>108827</title>
<polygon fill="none" stroke="black" points="782.252,-123 669.252,-123 669.252,-87 782.252,-87 782.252,-123"/>
<text text-anchor="middle" x="725.752" y="-101.3" font-family="Times,serif" font-size="14.00">108827: /bin/ping</text>
</g>
<!-- 108782&#45;&gt;108827 -->
<g id="edge16" class="edge"><title>108782&#45;&gt;108827</title>
<path fill="none" stroke="black" d="M1292.32,-191.455C1169.28,-191.774 884.091,-188.817 793.752,-156 778.086,-150.309 762.916,-139.804 750.895,-129.886"/>
<polygon fill="black" stroke="black" points="752.969,-127.054 743.108,-123.18 748.402,-132.358 752.969,-127.054"/>
<text text-anchor="middle" x="821.252" y="-144.8" font-family="Times,serif" font-size="14.00">22091912</text>
</g>
<!-- 27049 -->
<g id="node6" class="node"><title>27049</title>
<polygon fill="none" stroke="black" points="2442.75,-123 2284.75,-123 2284.75,-87 2442.75,-87 2442.75,-123"/>
<text text-anchor="middle" x="2363.75" y="-101.3" font-family="Times,serif" font-size="14.00">27049: /usr/bin/python3.7</text>
</g>
<!-- 108782&#45;&gt;27049 -->
<g id="edge15" class="edge"><title>108782&#45;&gt;27049</title>
<path fill="none" stroke="black" d="M1406.86,-191.398C1568.38,-192.074 2026.23,-190.779 2171.75,-156 2187.42,-152.255 2189.47,-146.093 2204.75,-141 2226.94,-133.606 2251.4,-127.334 2274.34,-122.233"/>
<polygon fill="black" stroke="black" points="2275.39,-125.588 2284.42,-120.045 2273.9,-118.747 2275.39,-125.588"/>
<text text-anchor="middle" x="2232.25" y="-144.8" font-family="Times,serif" font-size="14.00">22135035</text>
</g>
<!-- 108829 -->
<g id="node7" class="node"><title>108829</title>
<polygon fill="none" stroke="black" points="467.252,-123 354.252,-123 354.252,-87 467.252,-87 467.252,-123"/>
<text text-anchor="middle" x="410.752" y="-101.3" font-family="Times,serif" font-size="14.00">108829: /bin/ping</text>
</g>
<!-- 108782&#45;&gt;108829 -->
<g id="edge17" class="edge"><title>108782&#45;&gt;108829</title>
<path fill="none" stroke="black" d="M1292.63,-190.718C1112.47,-189.546 563.639,-183.715 488.752,-156 478.662,-152.266 478.621,-147.091 469.752,-141 463.543,-136.735 456.8,-132.441 450.167,-128.393"/>
<polygon fill="black" stroke="black" points="451.627,-125.187 441.25,-123.05 448.029,-131.192 451.627,-125.187"/>
<text text-anchor="middle" x="516.252" y="-144.8" font-family="Times,serif" font-size="14.00">22091975</text>
</g>
<!-- 108804 -->
<g id="node8" class="node"><title>108804</title>
<polygon fill="none" stroke="black" points="938.252,-123 825.252,-123 825.252,-87 938.252,-87 938.252,-123"/>
<text text-anchor="middle" x="881.752" y="-101.3" font-family="Times,serif" font-size="14.00">108804: /bin/ping</text>
</g>
<!-- 108782&#45;&gt;108804 -->
<g id="edge8" class="edge"><title>108782&#45;&gt;108804</title>
<path fill="none" stroke="black" d="M1292.73,-190.723C1194.57,-189.5 998.195,-183.56 935.752,-156 922.84,-150.301 911.016,-140.21 901.746,-130.579"/>
<polygon fill="black" stroke="black" points="904.207,-128.083 894.887,-123.046 899.031,-132.796 904.207,-128.083"/>
<text text-anchor="middle" x="963.252" y="-144.8" font-family="Times,serif" font-size="14.00">22088422</text>
</g>
<!-- 108802 -->
<g id="node9" class="node"><title>108802</title>
<polygon fill="none" stroke="black" points="1094.25,-123 981.252,-123 981.252,-87 1094.25,-87 1094.25,-123"/>
<text text-anchor="middle" x="1037.75" y="-101.3" font-family="Times,serif" font-size="14.00">108802: /bin/ping</text>
</g>
<!-- 108782&#45;&gt;108802 -->
<g id="edge9" class="edge"><title>108782&#45;&gt;108802</title>
<path fill="none" stroke="black" d="M1292.65,-189.291C1222.31,-186.256 1107.69,-178.005 1071.75,-156 1062.49,-150.326 1055.16,-141.068 1049.71,-132.05"/>
<polygon fill="black" stroke="black" points="1052.76,-130.342 1044.89,-123.255 1046.63,-133.706 1052.76,-130.342"/>
<text text-anchor="middle" x="1099.25" y="-144.8" font-family="Times,serif" font-size="14.00">22088379</text>
</g>
<!-- 108800 -->
<g id="node10" class="node"><title>108800</title>
<polygon fill="none" stroke="black" points="1952.25,-123 1839.25,-123 1839.25,-87 1952.25,-87 1952.25,-123"/>
<text text-anchor="middle" x="1895.75" y="-101.3" font-family="Times,serif" font-size="14.00">108800: /bin/ping</text>
</g>
<!-- 108782&#45;&gt;108800 -->
<g id="edge10" class="edge"><title>108782&#45;&gt;108800</title>
<path fill="none" stroke="black" d="M1406.76,-189.779C1553.34,-186.361 1933.22,-175.643 1951.75,-156 1960.69,-146.526 1954.12,-136.829 1942.78,-128.527"/>
<polygon fill="black" stroke="black" points="1944.59,-125.533 1934.3,-123.022 1940.78,-131.404 1944.59,-125.533"/>
<text text-anchor="middle" x="1984.25" y="-144.8" font-family="Times,serif" font-size="14.00">22088335</text>
</g>
<!-- 108916 -->
<g id="node11" class="node"><title>108916</title>
<polygon fill="none" stroke="black" points="2119.75,-123 1983.75,-123 1983.75,-87 2119.75,-87 2119.75,-123"/>
<text text-anchor="middle" x="2051.75" y="-101.3" font-family="Times,serif" font-size="14.00">108916: /usr/bin/wget</text>
</g>
<!-- 108782&#45;&gt;108916 -->
<g id="edge12" class="edge"><title>108782&#45;&gt;108916</title>
<path fill="none" stroke="black" d="M1406.79,-190.494C1579.04,-188.691 2083.63,-181.263 2107.75,-156 2116.75,-146.58 2110.19,-136.894 2098.84,-128.587"/>
<polygon fill="black" stroke="black" points="2100.65,-125.588 2090.36,-123.076 2096.84,-131.458 2100.65,-125.588"/>
<text text-anchor="middle" x="2140.25" y="-144.8" font-family="Times,serif" font-size="14.00">22105470</text>
</g>
<!-- 108791 -->
<g id="node12" class="node"><title>108791</title>
<polygon fill="none" stroke="black" points="1229.25,-123 1116.25,-123 1116.25,-87 1229.25,-87 1229.25,-123"/>
<text text-anchor="middle" x="1172.75" y="-101.3" font-family="Times,serif" font-size="14.00">108791: /bin/ping</text>
</g>
<!-- 108782&#45;&gt;108791 -->
<g id="edge13" class="edge"><title>108782&#45;&gt;108791</title>
<path fill="none" stroke="black" d="M1292.69,-186.334C1265.11,-181.846 1232.67,-173.082 1207.75,-156 1198.93,-149.953 1191.62,-140.902 1186.01,-132.155"/>
<polygon fill="black" stroke="black" points="1188.87,-130.123 1180.78,-123.289 1182.85,-133.68 1188.87,-130.123"/>
<text text-anchor="middle" x="1235.25" y="-144.8" font-family="Times,serif" font-size="14.00">22087727</text>
</g>
<!-- 108832 -->
<g id="node13" class="node"><title>108832</title>
<polygon fill="none" stroke="black" points="1482.25,-123 1369.25,-123 1369.25,-87 1482.25,-87 1482.25,-123"/>
<text text-anchor="middle" x="1425.75" y="-101.3" font-family="Times,serif" font-size="14.00">108832: /bin/ping</text>
</g>
<!-- 108782&#45;&gt;108832 -->
<g id="edge18" class="edge"><title>108782&#45;&gt;108832</title>
<path fill="none" stroke="black" d="M1406.79,-183.16C1438.73,-177.472 1474.05,-168.559 1483.75,-156 1491.47,-146.009 1485.48,-136.551 1474.89,-128.605"/>
<polygon fill="black" stroke="black" points="1476.78,-125.659 1466.5,-123.1 1472.95,-131.512 1476.78,-125.659"/>
<text text-anchor="middle" x="1515.25" y="-144.8" font-family="Times,serif" font-size="14.00">22092055</text>
</g>
<!-- 108797 -->
<g id="node14" class="node"><title>108797</title>
<polygon fill="none" stroke="black" points="1640.25,-123 1527.25,-123 1527.25,-87 1640.25,-87 1640.25,-123"/>
<text text-anchor="middle" x="1583.75" y="-101.3" font-family="Times,serif" font-size="14.00">108797: /bin/ping</text>
</g>
<!-- 108782&#45;&gt;108797 -->
<g id="edge19" class="edge"><title>108782&#45;&gt;108797</title>
<path fill="none" stroke="black" d="M1406.92,-188.112C1487.01,-183.471 1624.59,-173.1 1639.75,-156 1648.17,-146.504 1642.08,-136.999 1631.31,-128.865"/>
<polygon fill="black" stroke="black" points="1633.04,-125.815 1622.78,-123.204 1629.17,-131.648 1633.04,-125.815"/>
<text text-anchor="middle" x="1671.25" y="-144.8" font-family="Times,serif" font-size="14.00">22088018</text>
</g>
<!-- 108787&#45;&gt;108782 -->
<g id="edge2" class="edge"><title>108787&#45;&gt;108782</title>
<path fill="none" stroke="black" d="M1731.68,-123.387C1725.45,-134.689 1715.71,-148.644 1702.75,-156 1655.48,-182.831 1505.58,-189.301 1417.05,-190.733"/>
<polygon fill="black" stroke="black" points="1416.78,-187.236 1406.83,-190.88 1416.88,-194.235 1416.78,-187.236"/>
<text text-anchor="middle" x="1747.25" y="-144.8" font-family="Times,serif" font-size="14.00">22087261</text>
</g>
<!-- 108787&#45;&gt;1238 -->
<g id="edge36" class="edge"><title>108787&#45;&gt;1238</title>
<path fill="none" stroke="black" d="M1690.15,-86.96C1654.8,-75.5856 1605.91,-61.4038 1561.75,-54 1426.52,-31.3274 1389.67,-54.1325 1253.75,-36 1247.15,-35.1191 1240.28,-33.9998 1233.46,-32.7573"/>
<polygon fill="black" stroke="black" points="1234.02,-29.3005 1223.54,-30.8621 1232.71,-36.1762 1234.02,-29.3005"/>
<text text-anchor="middle" x="1654.25" y="-57.8" font-family="Times,serif" font-size="14.00">22087336</text>
</g>
<!-- 1237&#45;&gt;108782 -->
<g id="edge3" class="edge"><title>1237&#45;&gt;108782</title>
<path fill="none" stroke="black" d="M1314.94,-123.149C1319.38,-128.634 1324.04,-134.877 1327.75,-141 1332.17,-148.3 1336.21,-156.648 1339.58,-164.403"/>
<polygon fill="black" stroke="black" points="1336.4,-165.892 1343.47,-173.787 1342.87,-163.209 1336.4,-165.892"/>
<text text-anchor="middle" x="1363.25" y="-144.8" font-family="Times,serif" font-size="14.00">22087044</text>
</g>
<!-- 108827&#45;&gt;108782 -->
<g id="edge4" class="edge"><title>108827&#45;&gt;108782</title>
<path fill="none" stroke="black" d="M669.148,-123.046C650.006,-131.58 636.283,-142.893 648.752,-156 670.383,-178.738 1111.29,-187.547 1282.55,-190.119"/>
<polygon fill="black" stroke="black" points="1282.65,-193.621 1292.7,-190.269 1282.76,-186.622 1282.65,-193.621"/>
<text text-anchor="middle" x="676.252" y="-144.8" font-family="Times,serif" font-size="14.00">22091913</text>
</g>
<!-- 108827&#45;&gt;1238 -->
<g id="edge38" class="edge"><title>108827&#45;&gt;1238</title>
<path fill="none" stroke="black" d="M782.443,-88.3435C822.745,-77.6123 878.283,-63.6306 927.752,-54 984.746,-42.9046 1049.84,-33.7702 1098.6,-27.6183"/>
<polygon fill="black" stroke="black" points="1099.26,-31.0634 1108.75,-26.3512 1098.39,-24.1173 1099.26,-31.0634"/>
<text text-anchor="middle" x="955.252" y="-57.8" font-family="Times,serif" font-size="14.00">22091930</text>
</g>
<!-- 27049&#45;&gt;108782 -->
<g id="edge5" class="edge"><title>27049&#45;&gt;108782</title>
<path fill="none" stroke="black" d="M2337.39,-123.09C2317.91,-134.726 2290.26,-149.203 2263.75,-156 2182.62,-176.799 1614.45,-187.088 1417.1,-190.063"/>
<polygon fill="black" stroke="black" points="1416.81,-186.567 1406.86,-190.216 1416.92,-193.566 1416.81,-186.567"/>
<text text-anchor="middle" x="2332.25" y="-144.8" font-family="Times,serif" font-size="14.00">22135036</text>
</g>
<!-- 109034 -->
<g id="node22" class="node"><title>109034</title>
<ellipse fill="none" stroke="black" cx="2746.75" cy="-18" rx="211.762" ry="18"/>
<text text-anchor="middle" x="2746.75" y="-14.3" font-family="Times,serif" font-size="14.00">109034: /home/feishao/sysdigscripts/case5/target_file.txt</text>
</g>
<!-- 27049&#45;&gt;109034 -->
<g id="edge37" class="edge"><title>27049&#45;&gt;109034</title>
<path fill="none" stroke="black" d="M2440.8,-86.9012C2505.73,-72.4912 2598.39,-51.9274 2664.69,-37.2116"/>
<polygon fill="black" stroke="black" points="2665.68,-40.5768 2674.69,-34.9932 2664.17,-33.743 2665.68,-40.5768"/>
<text text-anchor="middle" x="2606.25" y="-57.8" font-family="Times,serif" font-size="14.00">22146717</text>
</g>
<!-- 108829&#45;&gt;108782 -->
<g id="edge6" class="edge"><title>108829&#45;&gt;108782</title>
<path fill="none" stroke="black" d="M467.533,-118.808C492.365,-124.845 521.711,-132.571 547.752,-141 565.027,-146.592 567.997,-152.2 585.752,-156 717.643,-184.232 1121.37,-189.697 1282.41,-190.75"/>
<polygon fill="black" stroke="black" points="1282.64,-194.252 1292.66,-190.814 1282.68,-187.252 1282.64,-194.252"/>
<text text-anchor="middle" x="613.252" y="-144.8" font-family="Times,serif" font-size="14.00">22091976</text>
</g>
<!-- 108830 -->
<g id="node16" class="node"><title>108830</title>
<polygon fill="none" stroke="black" points="617.257,-36 126.495,-36 0.247503,-1.42109e-14 491.01,-3.55271e-15 617.257,-36"/>
<text text-anchor="middle" x="308.752" y="-14.3" font-family="Times,serif" font-size="14.00">108830: 129.22.31.135/32:44630&#45;&gt;129.22.104.25/32:53</text>
</g>
<!-- 108829&#45;&gt;108830 -->
<g id="edge50" class="edge"><title>108829&#45;&gt;108830</title>
<path fill="none" stroke="black" d="M375.107,-86.9438C366.054,-81.8095 356.66,-75.7284 348.752,-69 340.37,-61.8683 332.489,-52.7749 325.975,-44.3037"/>
<polygon fill="black" stroke="black" points="328.702,-42.1045 319.949,-36.1355 323.069,-46.2604 328.702,-42.1045"/>
<text text-anchor="middle" x="376.252" y="-57.8" font-family="Times,serif" font-size="14.00">22092037</text>
</g>
<!-- 108829&#45;&gt;1238 -->
<g id="edge39" class="edge"><title>108829&#45;&gt;1238</title>
<path fill="none" stroke="black" d="M411.454,-86.8008C412.9,-75.5833 416.77,-61.6516 426.752,-54 439.801,-43.9978 900.752,-27.8654 1091.44,-21.6025"/>
<polygon fill="black" stroke="black" points="1091.81,-25.0925 1101.69,-21.2669 1091.58,-18.0962 1091.81,-25.0925"/>
<text text-anchor="middle" x="454.252" y="-57.8" font-family="Times,serif" font-size="14.00">22091995</text>
</g>
<!-- 108804&#45;&gt;108782 -->
<g id="edge22" class="edge"><title>108804&#45;&gt;108782</title>
<path fill="none" stroke="black" d="M863.165,-123.177C854.136,-133.552 846.949,-146.551 855.752,-156 884.213,-186.548 1153.88,-190.889 1282.34,-191.206"/>
<polygon fill="black" stroke="black" points="1282.45,-194.706 1292.46,-191.223 1282.46,-187.706 1282.45,-194.706"/>
<text text-anchor="middle" x="883.252" y="-144.8" font-family="Times,serif" font-size="14.00">22088423</text>
</g>
<!-- 108804&#45;&gt;1238 -->
<g id="edge45" class="edge"><title>108804&#45;&gt;1238</title>
<path fill="none" stroke="black" d="M929.752,-86.9328C959.043,-76.7849 997.35,-63.9869 1031.75,-54 1057.62,-46.4912 1086.44,-39.1567 1111.25,-33.1576"/>
<polygon fill="black" stroke="black" points="1112.35,-36.493 1121.26,-30.7571 1110.72,-29.6861 1112.35,-36.493"/>
<text text-anchor="middle" x="1059.25" y="-57.8" font-family="Times,serif" font-size="14.00">22088443</text>
</g>
<!-- 108802&#45;&gt;108782 -->
<g id="edge23" class="edge"><title>108802&#45;&gt;108782</title>
<path fill="none" stroke="black" d="M1010.59,-123.089C998.201,-132.952 988.201,-145.452 997.752,-156 1016.46,-176.664 1185.71,-185.623 1282.54,-189.085"/>
<polygon fill="black" stroke="black" points="1282.42,-192.583 1292.54,-189.432 1282.67,-185.587 1282.42,-192.583"/>
<text text-anchor="middle" x="1025.25" y="-144.8" font-family="Times,serif" font-size="14.00">22088380</text>
</g>
<!-- 108802&#45;&gt;1238 -->
<g id="edge46" class="edge"><title>108802&#45;&gt;1238</title>
<path fill="none" stroke="black" d="M1063.24,-86.806C1077.91,-77.0204 1096.74,-64.6319 1113.75,-54 1121.16,-49.3719 1129.16,-44.5242 1136.81,-39.9622"/>
<polygon fill="black" stroke="black" points="1138.75,-42.8782 1145.57,-34.7682 1135.18,-36.8565 1138.75,-42.8782"/>
<text text-anchor="middle" x="1141.25" y="-57.8" font-family="Times,serif" font-size="14.00">22088397</text>
</g>
<!-- 108800&#45;&gt;108782 -->
<g id="edge24" class="edge"><title>108800&#45;&gt;108782</title>
<path fill="none" stroke="black" d="M1882.65,-123.113C1872.78,-134.6 1858.16,-148.887 1841.75,-156 1767.3,-188.272 1533.41,-191.943 1416.98,-191.674"/>
<polygon fill="black" stroke="black" points="1416.77,-188.173 1406.76,-191.639 1416.75,-195.173 1416.77,-188.173"/>
<text text-anchor="middle" x="1891.25" y="-144.8" font-family="Times,serif" font-size="14.00">22088336</text>
</g>
<!-- 108800&#45;&gt;1238 -->
<g id="edge47" class="edge"><title>108800&#45;&gt;1238</title>
<path fill="none" stroke="black" d="M1839.16,-90.6892C1811.58,-84.1829 1777.92,-76.2175 1747.75,-69 1720.18,-62.4044 1713.83,-57.9423 1685.75,-54 1495.45,-27.278 1444.44,-59.8169 1253.75,-36 1247.05,-35.1624 1240.07,-34.0588 1233.15,-32.8152"/>
<polygon fill="black" stroke="black" points="1233.57,-29.3318 1223.09,-30.9077 1232.26,-36.2093 1233.57,-29.3318"/>
<text text-anchor="middle" x="1775.25" y="-57.8" font-family="Times,serif" font-size="14.00">22088364</text>
</g>
<!-- 108916&#45;&gt;108782 -->
<g id="edge20" class="edge"><title>108916&#45;&gt;108782</title>
<path fill="none" stroke="black" d="M2044.37,-123.075C2038.43,-134.544 2028.9,-148.825 2015.75,-156 1964.2,-184.142 1575.92,-189.661 1417.13,-190.739"/>
<polygon fill="black" stroke="black" points="1416.98,-187.24 1407.01,-190.804 1417.03,-194.24 1416.98,-187.24"/>
<text text-anchor="middle" x="2060.25" y="-144.8" font-family="Times,serif" font-size="14.00">22105471</text>
</g>
<!-- 108926 -->
<g id="node15" class="node"><title>108926</title>
<polygon fill="none" stroke="black" points="2516.26,-36 2025.5,-36 1899.25,-1.42109e-14 2390.01,-3.55271e-15 2516.26,-36"/>
<text text-anchor="middle" x="2207.75" y="-14.3" font-family="Times,serif" font-size="14.00">108926: 129.22.31.135/32:34074&#45;&gt;162.125.6.18/32:443</text>
</g>
<!-- 108916&#45;&gt;108926 -->
<g id="edge40" class="edge"><title>108916&#45;&gt;108926</title>
<path fill="none" stroke="black" d="M2054.15,-86.8854C2056.56,-75.9971 2061.33,-62.4115 2070.75,-54 2076.42,-48.9416 2082.71,-44.5947 2089.41,-40.8611"/>
<polygon fill="black" stroke="black" points="2091.41,-43.7719 2098.76,-36.1408 2088.25,-37.5231 2091.41,-43.7719"/>
<text text-anchor="middle" x="2098.25" y="-57.8" font-family="Times,serif" font-size="14.00">22106405</text>
</g>
<!-- 108978 -->
<g id="node18" class="node"><title>108978</title>
<polygon fill="none" stroke="black" points="1880.26,-36 1389.5,-36 1263.25,-1.42109e-14 1754.01,-3.55271e-15 1880.26,-36"/>
<text text-anchor="middle" x="1571.75" y="-14.3" font-family="Times,serif" font-size="14.00">108978: 129.22.31.135/32:37140&#45;&gt;162.125.6.15/32:443</text>
</g>
<!-- 108916&#45;&gt;108978 -->
<g id="edge42" class="edge"><title>108916&#45;&gt;108978</title>
<path fill="none" stroke="black" d="M2026.22,-86.8713C2006.48,-73.9662 1980.59,-57.8575 1968.75,-54 1947.94,-47.216 1913.15,-41.6472 1872.58,-37.1074"/>
<polygon fill="black" stroke="black" points="1872.75,-33.6054 1862.43,-36.0054 1871.99,-40.5645 1872.75,-33.6054"/>
<text text-anchor="middle" x="2023.25" y="-57.8" font-family="Times,serif" font-size="14.00">22112973</text>
</g>
<!-- 108916&#45;&gt;1238 -->
<g id="edge41" class="edge"><title>108916&#45;&gt;1238</title>
<path fill="none" stroke="black" d="M1983.74,-90.8872C1976,-89.5153 1968.21,-88.1896 1960.75,-87 1900.54,-77.3983 1881.71,-90.764 1824.75,-69 1813.7,-64.7757 1814,-57.6732 1802.75,-54 1744.73,-35.0564 1314.35,-43.2957 1253.75,-36 1247.04,-35.1922 1240.06,-34.1074 1233.14,-32.8747"/>
<polygon fill="black" stroke="black" points="1233.56,-29.3909 1223.08,-30.9778 1232.26,-36.2698 1233.56,-29.3909"/>
<text text-anchor="middle" x="1852.25" y="-57.8" font-family="Times,serif" font-size="14.00">22106345</text>
</g>
<!-- 108791&#45;&gt;108782 -->
<g id="edge25" class="edge"><title>108791&#45;&gt;108782</title>
<path fill="none" stroke="black" d="M1146.12,-123.182C1134.22,-132.964 1124.69,-145.352 1133.75,-156 1152.61,-178.163 1226.27,-186.334 1282.37,-189.323"/>
<polygon fill="black" stroke="black" points="1282.47,-192.831 1292.63,-189.823 1282.81,-185.84 1282.47,-192.831"/>
<text text-anchor="middle" x="1161.25" y="-144.8" font-family="Times,serif" font-size="14.00">22087728</text>
</g>
<!-- 108791&#45;&gt;1238 -->
<g id="edge48" class="edge"><title>108791&#45;&gt;1238</title>
<path fill="none" stroke="black" d="M1172.75,-86.799C1172.75,-75.1626 1172.75,-59.5479 1172.75,-46.2368"/>
<polygon fill="black" stroke="black" points="1176.25,-46.1754 1172.75,-36.1754 1169.25,-46.1755 1176.25,-46.1754"/>
<text text-anchor="middle" x="1200.25" y="-57.8" font-family="Times,serif" font-size="14.00">22087745</text>
</g>
<!-- 108832&#45;&gt;108782 -->
<g id="edge21" class="edge"><title>108832&#45;&gt;108782</title>
<path fill="none" stroke="black" d="M1417.07,-123.239C1411.49,-133.387 1403.63,-146.127 1394.75,-156 1391.2,-159.947 1387.17,-163.775 1383,-167.363"/>
<polygon fill="black" stroke="black" points="1380.48,-164.905 1374.93,-173.931 1384.9,-170.334 1380.48,-164.905"/>
<text text-anchor="middle" x="1433.25" y="-144.8" font-family="Times,serif" font-size="14.00">22092056</text>
</g>
<!-- 108832&#45;&gt;1238 -->
<g id="edge43" class="edge"><title>108832&#45;&gt;1238</title>
<path fill="none" stroke="black" d="M1374.86,-86.9012C1330.86,-72.1181 1267.58,-50.8584 1223.59,-36.0805"/>
<polygon fill="black" stroke="black" points="1224.55,-32.7115 1213.96,-32.8444 1222.32,-39.347 1224.55,-32.7115"/>
<text text-anchor="middle" x="1342.25" y="-57.8" font-family="Times,serif" font-size="14.00">22092087</text>
</g>
<!-- 108832&#45;&gt;1238 -->
<g id="edge44" class="edge"><title>108832&#45;&gt;1238</title>
<path fill="none" stroke="black" d="M1412.68,-86.7881C1403.16,-75.5649 1389.26,-61.6317 1373.75,-54 1325.36,-30.1864 1306.83,-45.5427 1253.75,-36 1247.86,-34.9413 1241.75,-33.7772 1235.63,-32.57"/>
<polygon fill="black" stroke="black" points="1235.88,-29.0498 1225.39,-30.5088 1234.5,-35.9123 1235.88,-29.0498"/>
<text text-anchor="middle" x="1423.25" y="-57.8" font-family="Times,serif" font-size="14.00">22105187</text>
</g>
<!-- 108797&#45;&gt;108782 -->
<g id="edge26" class="edge"><title>108797&#45;&gt;108782</title>
<path fill="none" stroke="black" d="M1575.49,-123.073C1569.18,-134.234 1559.42,-148.15 1546.75,-156 1525.39,-169.239 1465.23,-178.694 1416.96,-184.413"/>
<polygon fill="black" stroke="black" points="1416.4,-180.955 1406.86,-185.577 1417.2,-187.909 1416.4,-180.955"/>
<text text-anchor="middle" x="1591.25" y="-144.8" font-family="Times,serif" font-size="14.00">22088019</text>
</g>
<!-- 108797&#45;&gt;1238 -->
<g id="edge49" class="edge"><title>108797&#45;&gt;1238</title>
<path fill="none" stroke="black" d="M1547.92,-86.975C1522.5,-75.6845 1487.26,-61.5965 1454.75,-54 1367.41,-33.5926 1342.46,-49.2342 1253.75,-36 1247.41,-35.0539 1240.82,-33.921 1234.26,-32.6953"/>
<polygon fill="black" stroke="black" points="1234.49,-29.1758 1224.01,-30.7062 1233.16,-36.0476 1234.49,-29.1758"/>
<text text-anchor="middle" x="1530.25" y="-57.8" font-family="Times,serif" font-size="14.00">22088079</text>
</g>
<!-- 108926&#45;&gt;108916 -->
<g id="edge27" class="edge"><title>108926&#45;&gt;108916</title>
<path fill="none" stroke="black" d="M2183.03,-36.183C2167.97,-46.3118 2148.14,-59.05 2129.75,-69 2120.94,-73.7672 2111.35,-78.4538 2102.01,-82.7708"/>
<polygon fill="black" stroke="black" points="2100.45,-79.6356 2092.79,-86.9539 2103.34,-86.0104 2100.45,-79.6356"/>
<text text-anchor="middle" x="2182.25" y="-57.8" font-family="Times,serif" font-size="14.00">22106413</text>
</g>
<!-- 108830&#45;&gt;108829 -->
<g id="edge28" class="edge"><title>108830&#45;&gt;108829</title>
<path fill="none" stroke="black" d="M282.767,-36.209C271.371,-45.8902 262.298,-58.1718 270.752,-69 280.213,-81.1169 312.775,-89.6597 344.115,-95.2706"/>
<polygon fill="black" stroke="black" points="343.772,-98.7623 354.217,-96.9901 344.947,-91.8616 343.772,-98.7623"/>
<text text-anchor="middle" x="298.252" y="-57.8" font-family="Times,serif" font-size="14.00">22092038</text>
</g>
<!-- 109012 -->
<g id="node17" class="node"><title>109012</title>
<ellipse fill="none" stroke="black" cx="2866.75" cy="-192" rx="258.054" ry="18"/>
<text text-anchor="middle" x="2866.75" y="-188.3" font-family="Times,serif" font-size="14.00">109012: /home/feishao/sysdigscripts/case5/sysrep_random_data?dl=0</text>
</g>
<!-- 109012&#45;&gt;27049 -->
<g id="edge29" class="edge"><title>109012&#45;&gt;27049</title>
<path fill="none" stroke="black" d="M2773.32,-175.211C2681.72,-159.732 2543.07,-136.303 2452.96,-121.074"/>
<polygon fill="black" stroke="black" points="2453.47,-117.612 2443.03,-119.397 2452.31,-124.514 2453.47,-117.612"/>
<text text-anchor="middle" x="2673.25" y="-144.8" font-family="Times,serif" font-size="14.00">22137256</text>
</g>
<!-- 108978&#45;&gt;108916 -->
<g id="edge30" class="edge"><title>108978&#45;&gt;108916</title>
<path fill="none" stroke="black" d="M1805.27,-36.0686C1832.02,-40.7068 1858.66,-46.5768 1883.75,-54 1898.05,-58.2296 1899.78,-63.8042 1913.75,-69 1932.78,-76.075 1953.8,-82.2126 1973.58,-87.2862"/>
<polygon fill="black" stroke="black" points="1972.93,-90.7318 1983.48,-89.766 1974.63,-83.9415 1972.93,-90.7318"/>
<text text-anchor="middle" x="1941.25" y="-57.8" font-family="Times,serif" font-size="14.00">22112991</text>
</g>
<!-- 108783 -->
<g id="node19" class="node"><title>108783</title>
<ellipse fill="none" stroke="black" cx="1405.75" cy="-279" rx="194.166" ry="18"/>
<text text-anchor="middle" x="1405.75" y="-275.3" font-family="Times,serif" font-size="14.00">108783: /home/feishao/sysdigscripts/case5/case5.sh</text>
</g>
<!-- 108783&#45;&gt;108782 -->
<g id="edge31" class="edge"><title>108783&#45;&gt;108782</title>
<path fill="none" stroke="black" d="M1333.92,-262.21C1325.22,-257.409 1317.42,-251.152 1311.75,-243 1305.8,-234.431 1309.61,-225.28 1316.71,-217.182"/>
<polygon fill="black" stroke="black" points="1319.27,-219.577 1323.98,-210.086 1314.38,-214.569 1319.27,-219.577"/>
<text text-anchor="middle" x="1339.25" y="-231.8" font-family="Times,serif" font-size="14.00">22087078</text>
</g>
<!-- 108783&#45;&gt;108782 -->
<g id="edge32" class="edge"><title>108783&#45;&gt;108782</title>
<path fill="none" stroke="black" d="M1394.42,-260.799C1386.45,-248.702 1375.65,-232.305 1366.66,-218.667"/>
<polygon fill="black" stroke="black" points="1369.49,-216.6 1361.07,-210.175 1363.65,-220.452 1369.49,-216.6"/>
<text text-anchor="middle" x="1409.25" y="-231.8" font-family="Times,serif" font-size="14.00">22105193</text>
</g>
<!-- 108783&#45;&gt;108782 -->
<g id="edge33" class="edge"><title>108783&#45;&gt;108782</title>
<path fill="none" stroke="black" d="M1429.51,-260.928C1439.95,-251.29 1448.31,-239.005 1440.75,-228 1434.59,-219.026 1425.78,-212.353 1416.04,-207.39"/>
<polygon fill="black" stroke="black" points="1417.45,-204.183 1406.89,-203.296 1414.59,-210.573 1417.45,-204.183"/>
<text text-anchor="middle" x="1471.25" y="-231.8" font-family="Times,serif" font-size="14.00">22187498</text>
</g>
<!-- 109011 -->
<g id="node20" class="node"><title>109011</title>
<ellipse fill="none" stroke="black" cx="2363.75" cy="-192" rx="226.66" ry="18"/>
<text text-anchor="middle" x="2363.75" y="-188.3" font-family="Times,serif" font-size="14.00">109011: /home/feishao/sysdigscripts/case5/read_exp_data.py</text>
</g>
<!-- 109011&#45;&gt;27049 -->
<g id="edge34" class="edge"><title>109011&#45;&gt;27049</title>
<path fill="none" stroke="black" d="M2363.75,-173.799C2363.75,-162.163 2363.75,-146.548 2363.75,-133.237"/>
<polygon fill="black" stroke="black" points="2367.25,-133.175 2363.75,-123.175 2360.25,-133.175 2367.25,-133.175"/>
<text text-anchor="middle" x="2391.25" y="-144.8" font-family="Times,serif" font-size="14.00">22137219</text>
</g>
</g>
</svg>
