<?xml version="1.0" encoding="UTF-8" standalone="no"?>
<!DOCTYPE svg PUBLIC "-//W3C//DTD SVG 1.1//EN"
 "http://www.w3.org/Graphics/SVG/1.1/DTD/svg11.dtd">
<!-- Generated by graphviz version 2.38.0 (20140413.2041)
 -->
<!-- Title: G Pages: 1 -->
<svg width="3133pt" height="305pt"
 viewBox="0.00 0.00 3132.78 305.00" xmlns="http://www.w3.org/2000/svg" xmlns:xlink="http://www.w3.org/1999/xlink">
<g id="graph0" class="graph" transform="scale(1 1) rotate(0) translate(4 301)">
<title>G</title>
<polygon fill="white" stroke="none" points="-4,4 -4,-301 3128.78,-301 3128.78,4 -4,4"/>
<!-- 108789 -->
<g id="node1" class="node"><title>108789</title>
<polygon fill="none" stroke="black" points="1204.25,-297 1091.25,-297 1091.25,-261 1204.25,-261 1204.25,-297"/>
<text text-anchor="middle" x="1147.75" y="-275.3" font-family="Times,serif" font-size="14.00">108789: /bin/ping</text>
</g>
<!-- 108782 -->
<g id="node2" class="node"><title>108782</title>
<polygon fill="none" stroke="black" points="1406.75,-210 1292.75,-210 1292.75,-174 1406.75,-174 1406.75,-210"/>
<text text-anchor="middle" x="1349.75" y="-188.3" font-family="Times,serif" font-size="14.00">108782: /bin/bash</text>
</g>
<!-- 108789&#45;&gt;108782 -->
<g id="edge1" class="edge"><title>108789&#45;&gt;108782</title>
<path fill="none" stroke="black" d="M1163.44,-260.791C1174.31,-249.863 1189.67,-236.268 1205.75,-228 1229.49,-215.796 1257.63,-207.736 1282.71,-202.465"/>
<polygon fill="black" stroke="black" points="1283.4,-205.897 1292.52,-200.51 1282.03,-199.032 1283.4,-205.897"/>
<text text-anchor="middle" x="1233.25" y="-231.8" font-family="Times,serif" font-size="14.00">22087380</text>
</g>
<!-- 1238 -->
<g id="node21" class="node"><title>1238</title>
<ellipse fill="none" stroke="black" cx="1138.75" cy="-18" rx="72.2875" ry="18"/>
<text text-anchor="middle" x="1138.75" y="-14.3" font-family="Times,serif" font-size="14.00">1238: /dev/pts/11</text>
</g>
<!-- 108789&#45;&gt;1238 -->
<g id="edge33" class="edge"><title>108789&#45;&gt;1238</title>
<path fill="none" stroke="black" d="M1091.21,-277.625C934.164,-275.269 498.412,-259.363 410.752,-156 406.44,-150.916 406.568,-146.19 410.752,-141 415.195,-135.491 652.807,-88.3621 659.752,-87 742.999,-70.6736 763.831,-66.403 847.752,-54 920.915,-43.1871 1004.8,-33.3705 1063.65,-26.9043"/>
<polygon fill="black" stroke="black" points="1064.05,-30.382 1073.61,-25.8161 1063.29,-23.4235 1064.05,-30.382"/>
<text text-anchor="middle" x="438.252" y="-144.8" font-family="Times,serif" font-size="14.00">22087454</text>
</g>
<!-- 108782&#45;&gt;108789 -->
<g id="edge7" class="edge"><title>108782&#45;&gt;108789</title>
<path fill="none" stroke="black" d="M1322.85,-210.087C1305.58,-220.557 1282.41,-233.688 1260.75,-243 1245.91,-249.383 1229.52,-255.148 1213.93,-260.072"/>
<polygon fill="black" stroke="black" points="1212.87,-256.735 1204.35,-263.028 1214.94,-263.424 1212.87,-256.735"/>
<text text-anchor="middle" x="1319.25" y="-231.8" font-family="Times,serif" font-size="14.00">22087379</text>
</g>
<!-- 108787 -->
<g id="node3" class="node"><title>108787</title>
<polygon fill="none" stroke="black" points="1796.25,-123 1683.25,-123 1683.25,-87 1796.25,-87 1796.25,-123"/>
<text text-anchor="middle" x="1739.75" y="-101.3" font-family="Times,serif" font-size="14.00">108787: /bin/ping</text>
</g>
<!-- 108782&#45;&gt;108787 -->
<g id="edge11" class="edge"><title>108782&#45;&gt;108787</title>
<path fill="none" stroke="black" d="M1407.01,-190.548C1518.07,-189.073 1754.06,-182.786 1778.75,-156 1786.21,-147.905 1781.89,-138.505 1773.86,-130.055"/>
<polygon fill="black" stroke="black" points="1776.15,-127.407 1766.42,-123.229 1771.42,-132.567 1776.15,-127.407"/>
<text text-anchor="middle" x="1810.25" y="-144.8" font-family="Times,serif" font-size="14.00">22087260</text>
</g>
<!-- 1237 -->
<g id="node4" class="node"><title>1237</title>
<polygon fill="none" stroke="black" points="1349.25,-123 1248.25,-123 1248.25,-87 1349.25,-87 1349.25,-123"/>
<text text-anchor="middle" x="1298.75" y="-101.3" font-family="Times,serif" font-size="14.00">1237: /bin/bash</text>
</g>
<!-- 108782&#45;&gt;1237 -->
<g id="edge14" class="edge"><title>108782&#45;&gt;1237</title>
<path fill="none" stroke="black" d="M1292.53,-176.397C1283.12,-171.447 1274.56,-164.833 1268.75,-156 1263.55,-148.089 1266.16,-139.286 1271.55,-131.298"/>
<polygon fill="black" stroke="black" points="1274.42,-133.318 1277.98,-123.34 1268.97,-128.92 1274.42,-133.318"/>
<text text-anchor="middle" x="1296.25" y="-144.8" font-family="Times,serif" font-size="14.00">22087045</text>
</g>
<!-- 108827 -->
<g id="node5" class="node"><title>108827</title>
<polygon fill="none" stroke="black" points="782.252,-123 669.252,-123 669.252,-87 782.252,-87 782.252,-123"/>
<text text-anchor="middle" x="725.752" y="-101.3" font-family="Times,serif" font-size="14.00">108827: /bin/ping</text>
</g>
<!-- 108782&#45;&gt;108827 -->
<g id="edge16" class="edge"><title>108782&#45;&gt;108827</title>
<path fill="none" stroke="black" d="M1292.3,-191.683C1168.49,-192.468 880.368,-190.399 789.752,-156 774.902,-150.363 760.728,-140.004 749.511,-130.171"/>
<polygon fill="black" stroke="black" points="751.63,-127.366 741.898,-123.179 746.895,-132.522 751.63,-127.366"/>
<text text-anchor="middle" x="817.252" y="-144.8" font-family="Times,serif" font-size="14.00">22091912</text>
</g>
<!-- 27049 -->
<g id="node6" class="node"><title>27049</title>
<polygon fill="none" stroke="black" points="2442.75,-123 2284.75,-123 2284.75,-87 2442.75,-87 2442.75,-123"/>
<text text-anchor="middle" x="2363.75" y="-101.3" font-family="Times,serif" font-size="14.00">27049: /usr/bin/python3.7</text>
</g>
<!-- 108782&#45;&gt;27049 -->
<g id="edge15" class="edge"><title>108782&#45;&gt;27049</title>
<path fill="none" stroke="black" d="M1406.86,-191.398C1568.38,-192.074 2026.23,-190.779 2171.75,-156 2187.42,-152.255 2189.47,-146.093 2204.75,-141 2226.94,-133.606 2251.4,-127.334 2274.34,-122.233"/>
<polygon fill="black" stroke="black" points="2275.39,-125.588 2284.42,-120.045 2273.9,-118.747 2275.39,-125.588"/>
<text text-anchor="middle" x="2232.25" y="-144.8" font-family="Times,serif" font-size="14.00">22135035</text>
</g>
<!-- 108829 -->
<g id="node7" class="node"><title>108829</title>
<polygon fill="none" stroke="black" points="467.252,-123 354.252,-123 354.252,-87 467.252,-87 467.252,-123"/>
<text text-anchor="middle" x="410.752" y="-101.3" font-family="Times,serif" font-size="14.00">108829: /bin/ping</text>
</g>
<!-- 108782&#45;&gt;108829 -->
<g id="edge17" class="edge"><title>108782&#45;&gt;108829</title>
<path fill="none" stroke="black" d="M1292.63,-190.718C1112.47,-189.546 563.639,-183.715 488.752,-156 478.662,-152.266 478.621,-147.091 469.752,-141 463.543,-136.735 456.8,-132.441 450.167,-128.393"/>
<polygon fill="black" stroke="black" points="451.627,-125.187 441.25,-123.05 448.029,-131.192 451.627,-125.187"/>
<text text-anchor="middle" x="516.252" y="-144.8" font-family="Times,serif" font-size="14.00">22091975</text>
</g>
<!-- 108804 -->
<g id="node8" class="node"><title>108804</title>
<polygon fill="none" stroke="black" points="938.252,-123 825.252,-123 825.252,-87 938.252,-87 938.252,-123"/>
<text text-anchor="middle" x="881.752" y="-101.3" font-family="Times,serif" font-size="14.00">108804: /bin/ping</text>
</g>
<!-- 108782&#45;&gt;108804 -->
<g id="edge8" class="edge"><title>108782&#45;&gt;108804</title>
<path fill="none" stroke="black" d="M1292.52,-191.178C1192.94,-190.678 992.427,-185.849 929.752,-156 917.87,-150.341 907.379,-140.391 899.26,-130.849"/>
<polygon fill="black" stroke="black" points="901.993,-128.663 893.019,-123.033 896.523,-133.031 901.993,-128.663"/>
<text text-anchor="middle" x="957.252" y="-144.8" font-family="Times,serif" font-size="14.00">22088422</text>
</g>
<!-- 108802 -->
<g id="node9" class="node"><title>108802</title>
<polygon fill="none" stroke="black" points="1085.25,-123 972.252,-123 972.252,-87 1085.25,-87 1085.25,-123"/>
<text text-anchor="middle" x="1028.75" y="-101.3" font-family="Times,serif" font-size="14.00">108802: /bin/ping</text>
</g>
<!-- 108782&#45;&gt;108802 -->
<g id="edge9" class="edge"><title>108782&#45;&gt;108802</title>
<path fill="none" stroke="black" d="M1292.67,-189.031C1221.61,-185.709 1105.03,-177.144 1067.75,-156 1057.74,-150.32 1049.4,-140.937 1043.03,-131.824"/>
<polygon fill="black" stroke="black" points="1045.9,-129.815 1037.55,-123.299 1040.02,-133.603 1045.9,-129.815"/>
<text text-anchor="middle" x="1095.25" y="-144.8" font-family="Times,serif" font-size="14.00">22088379</text>
</g>
<!-- 108800 -->
<g id="node10" class="node"><title>108800</title>
<polygon fill="none" stroke="black" points="1952.25,-123 1839.25,-123 1839.25,-87 1952.25,-87 1952.25,-123"/>
<text text-anchor="middle" x="1895.75" y="-101.3" font-family="Times,serif" font-size="14.00">108800: /bin/ping</text>
</g>
<!-- 108782&#45;&gt;108800 -->
<g id="edge10" class="edge"><title>108782&#45;&gt;108800</title>
<path fill="none" stroke="black" d="M1406.76,-189.779C1553.34,-186.361 1933.22,-175.643 1951.75,-156 1960.69,-146.526 1954.12,-136.829 1942.78,-128.527"/>
<polygon fill="black" stroke="black" points="1944.59,-125.533 1934.3,-123.022 1940.78,-131.404 1944.59,-125.533"/>
<text text-anchor="middle" x="1984.25" y="-144.8" font-family="Times,serif" font-size="14.00">22088335</text>
</g>
<!-- 108916 -->
<g id="node11" class="node"><title>108916</title>
<polygon fill="none" stroke="black" points="2119.75,-123 1983.75,-123 1983.75,-87 2119.75,-87 2119.75,-123"/>
<text text-anchor="middle" x="2051.75" y="-101.3" font-family="Times,serif" font-size="14.00">108916: /usr/bin/wget</text>
</g>
<!-- 108782&#45;&gt;108916 -->
<g id="edge12" class="edge"><title>108782&#45;&gt;108916</title>
<path fill="none" stroke="black" d="M1406.79,-190.494C1579.04,-188.691 2083.63,-181.263 2107.75,-156 2116.75,-146.58 2110.19,-136.894 2098.84,-128.587"/>
<polygon fill="black" stroke="black" points="2100.65,-125.588 2090.36,-123.076 2096.84,-131.458 2100.65,-125.588"/>
<text text-anchor="middle" x="2140.25" y="-144.8" font-family="Times,serif" font-size="14.00">22105470</text>
</g>
<!-- 108791 -->
<g id="node12" class="node"><title>108791</title>
<polygon fill="none" stroke="black" points="1216.25,-123 1103.25,-123 1103.25,-87 1216.25,-87 1216.25,-123"/>
<text text-anchor="middle" x="1159.75" y="-101.3" font-family="Times,serif" font-size="14.00">108791: /bin/ping</text>
</g>
<!-- 108782&#45;&gt;108791 -->
<g id="edge13" class="edge"><title>108782&#45;&gt;108791</title>
<path fill="none" stroke="black" d="M1292.72,-184.453C1265.62,-179.518 1233.59,-170.92 1207.75,-156 1196.79,-149.67 1186.73,-140.1 1178.69,-131.022"/>
<polygon fill="black" stroke="black" points="1181.28,-128.664 1172.16,-123.264 1175.92,-133.17 1181.28,-128.664"/>
<text text-anchor="middle" x="1235.25" y="-144.8" font-family="Times,serif" font-size="14.00">22087727</text>
</g>
<!-- 108832 -->
<g id="node13" class="node"><title>108832</title>
<polygon fill="none" stroke="black" points="1484.25,-123 1371.25,-123 1371.25,-87 1484.25,-87 1484.25,-123"/>
<text text-anchor="middle" x="1427.75" y="-101.3" font-family="Times,serif" font-size="14.00">108832: /bin/ping</text>
</g>
<!-- 108782&#45;&gt;108832 -->
<g id="edge18" class="edge"><title>108782&#45;&gt;108832</title>
<path fill="none" stroke="black" d="M1406.79,-183.16C1438.73,-177.472 1474.05,-168.559 1483.75,-156 1491.31,-146.218 1485.58,-136.823 1475.38,-128.869"/>
<polygon fill="black" stroke="black" points="1477.09,-125.801 1466.85,-123.086 1473.16,-131.595 1477.09,-125.801"/>
<text text-anchor="middle" x="1515.25" y="-144.8" font-family="Times,serif" font-size="14.00">22092055</text>
</g>
<!-- 108797 -->
<g id="node14" class="node"><title>108797</title>
<polygon fill="none" stroke="black" points="1640.25,-123 1527.25,-123 1527.25,-87 1640.25,-87 1640.25,-123"/>
<text text-anchor="middle" x="1583.75" y="-101.3" font-family="Times,serif" font-size="14.00">108797: /bin/ping</text>
</g>
<!-- 108782&#45;&gt;108797 -->
<g id="edge19" class="edge"><title>108782&#45;&gt;108797</title>
<path fill="none" stroke="black" d="M1406.92,-188.112C1487.01,-183.471 1624.59,-173.1 1639.75,-156 1648.17,-146.504 1642.08,-136.999 1631.31,-128.865"/>
<polygon fill="black" stroke="black" points="1633.04,-125.815 1622.78,-123.204 1629.17,-131.648 1633.04,-125.815"/>
<text text-anchor="middle" x="1671.25" y="-144.8" font-family="Times,serif" font-size="14.00">22088018</text>
</g>
<!-- 108787&#45;&gt;108782 -->
<g id="edge2" class="edge"><title>108787&#45;&gt;108782</title>
<path fill="none" stroke="black" d="M1731.68,-123.387C1725.45,-134.689 1715.71,-148.644 1702.75,-156 1655.48,-182.831 1505.58,-189.301 1417.05,-190.733"/>
<polygon fill="black" stroke="black" points="1416.78,-187.236 1406.83,-190.88 1416.88,-194.235 1416.78,-187.236"/>
<text text-anchor="middle" x="1747.25" y="-144.8" font-family="Times,serif" font-size="14.00">22087261</text>
</g>
<!-- 108787&#45;&gt;1238 -->
<g id="edge34" class="edge"><title>108787&#45;&gt;1238</title>
<path fill="none" stroke="black" d="M1682.96,-90.1862C1633.33,-78.6625 1559.19,-62.7595 1493.75,-54 1372.79,-37.8092 1340.66,-52.575 1219.75,-36 1213.15,-35.0953 1206.29,-33.9607 1199.47,-32.7093"/>
<polygon fill="black" stroke="black" points="1200.03,-29.2529 1189.55,-30.8053 1198.71,-36.1275 1200.03,-29.2529"/>
<text text-anchor="middle" x="1610.25" y="-57.8" font-family="Times,serif" font-size="14.00">22087336</text>
</g>
<!-- 1237&#45;&gt;108782 -->
<g id="edge3" class="edge"><title>1237&#45;&gt;108782</title>
<path fill="none" stroke="black" d="M1314.51,-123.083C1319.12,-128.565 1323.94,-134.823 1327.75,-141 1332.24,-148.262 1336.29,-156.598 1339.65,-164.355"/>
<polygon fill="black" stroke="black" points="1336.48,-165.841 1343.54,-173.746 1342.95,-163.168 1336.48,-165.841"/>
<text text-anchor="middle" x="1363.25" y="-144.8" font-family="Times,serif" font-size="14.00">22087044</text>
</g>
<!-- 108827&#45;&gt;108782 -->
<g id="edge4" class="edge"><title>108827&#45;&gt;108782</title>
<path fill="none" stroke="black" d="M669.148,-123.046C650.006,-131.58 636.283,-142.893 648.752,-156 670.383,-178.738 1111.29,-187.547 1282.55,-190.119"/>
<polygon fill="black" stroke="black" points="1282.65,-193.621 1292.7,-190.269 1282.76,-186.622 1282.65,-193.621"/>
<text text-anchor="middle" x="676.252" y="-144.8" font-family="Times,serif" font-size="14.00">22091913</text>
</g>
<!-- 108827&#45;&gt;1238 -->
<g id="edge36" class="edge"><title>108827&#45;&gt;1238</title>
<path fill="none" stroke="black" d="M782.558,-87.2155C819.661,-76.6692 869.298,-63.3418 913.752,-54 964.18,-43.403 1021.59,-34.5235 1065.79,-28.3598"/>
<polygon fill="black" stroke="black" points="1066.44,-31.803 1075.87,-26.9693 1065.49,-24.8687 1066.44,-31.803"/>
<text text-anchor="middle" x="941.252" y="-57.8" font-family="Times,serif" font-size="14.00">22091930</text>
</g>
<!-- 27049&#45;&gt;108782 -->
<g id="edge5" class="edge"><title>27049&#45;&gt;108782</title>
<path fill="none" stroke="black" d="M2337.39,-123.09C2317.91,-134.726 2290.26,-149.203 2263.75,-156 2182.62,-176.799 1614.45,-187.088 1417.1,-190.063"/>
<polygon fill="black" stroke="black" points="1416.81,-186.567 1406.86,-190.216 1416.92,-193.566 1416.81,-186.567"/>
<text text-anchor="middle" x="2332.25" y="-144.8" font-family="Times,serif" font-size="14.00">22135036</text>
</g>
<!-- 109034 -->
<g id="node22" class="node"><title>109034</title>
<ellipse fill="none" stroke="black" cx="2712.75" cy="-18" rx="211.762" ry="18"/>
<text text-anchor="middle" x="2712.75" y="-14.3" font-family="Times,serif" font-size="14.00">109034: /home/feishao/sysdigscripts/case5/target_file.txt</text>
</g>
<!-- 27049&#45;&gt;109034 -->
<g id="edge35" class="edge"><title>27049&#45;&gt;109034</title>
<path fill="none" stroke="black" d="M2433.96,-86.9012C2492.69,-72.5963 2576.33,-52.227 2636.65,-37.5346"/>
<polygon fill="black" stroke="black" points="2637.61,-40.9026 2646.5,-35.1356 2635.96,-34.1014 2637.61,-40.9026"/>
<text text-anchor="middle" x="2587.25" y="-57.8" font-family="Times,serif" font-size="14.00">22151691</text>
</g>
<!-- 108829&#45;&gt;108782 -->
<g id="edge6" class="edge"><title>108829&#45;&gt;108782</title>
<path fill="none" stroke="black" d="M467.533,-118.808C492.365,-124.845 521.711,-132.571 547.752,-141 565.027,-146.592 567.997,-152.2 585.752,-156 717.643,-184.232 1121.37,-189.697 1282.41,-190.75"/>
<polygon fill="black" stroke="black" points="1282.64,-194.252 1292.66,-190.814 1282.68,-187.252 1282.64,-194.252"/>
<text text-anchor="middle" x="613.252" y="-144.8" font-family="Times,serif" font-size="14.00">22091976</text>
</g>
<!-- 108830 -->
<g id="node16" class="node"><title>108830</title>
<polygon fill="none" stroke="black" points="617.257,-36 126.495,-36 0.247503,-1.42109e-14 491.01,-3.55271e-15 617.257,-36"/>
<text text-anchor="middle" x="308.752" y="-14.3" font-family="Times,serif" font-size="14.00">108830: 129.22.31.135/32:44630&#45;&gt;129.22.104.25/32:53</text>
</g>
<!-- 108829&#45;&gt;108830 -->
<g id="edge47" class="edge"><title>108829&#45;&gt;108830</title>
<path fill="none" stroke="black" d="M375.107,-86.9438C366.054,-81.8095 356.66,-75.7284 348.752,-69 340.37,-61.8683 332.489,-52.7749 325.975,-44.3037"/>
<polygon fill="black" stroke="black" points="328.702,-42.1045 319.949,-36.1355 323.069,-46.2604 328.702,-42.1045"/>
<text text-anchor="middle" x="376.252" y="-57.8" font-family="Times,serif" font-size="14.00">22092037</text>
</g>
<!-- 108829&#45;&gt;1238 -->
<g id="edge37" class="edge"><title>108829&#45;&gt;1238</title>
<path fill="none" stroke="black" d="M411.46,-86.8079C412.908,-75.5936 416.779,-61.6628 426.752,-54 439.116,-44.5013 873.405,-28.2626 1057.54,-21.7861"/>
<polygon fill="black" stroke="black" points="1057.84,-25.2779 1067.71,-21.4294 1057.59,-18.2822 1057.84,-25.2779"/>
<text text-anchor="middle" x="454.252" y="-57.8" font-family="Times,serif" font-size="14.00">22091995</text>
</g>
<!-- 108804&#45;&gt;108782 -->
<g id="edge22" class="edge"><title>108804&#45;&gt;108782</title>
<path fill="none" stroke="black" d="M860.582,-123.418C850.655,-133.63 842.779,-146.374 851.752,-156 880.487,-186.825 1152.98,-191.014 1282.28,-191.248"/>
<polygon fill="black" stroke="black" points="1282.46,-194.748 1292.46,-191.259 1282.47,-187.748 1282.46,-194.748"/>
<text text-anchor="middle" x="879.252" y="-144.8" font-family="Times,serif" font-size="14.00">22088423</text>
</g>
<!-- 108804&#45;&gt;1238 -->
<g id="edge42" class="edge"><title>108804&#45;&gt;1238</title>
<path fill="none" stroke="black" d="M923.576,-86.889C949.122,-76.7254 982.575,-63.9262 1012.75,-54 1034.63,-46.8043 1058.95,-39.816 1080.35,-34.0004"/>
<polygon fill="black" stroke="black" points="1081.52,-37.3082 1090.27,-31.3294 1079.7,-30.5488 1081.52,-37.3082"/>
<text text-anchor="middle" x="1040.25" y="-57.8" font-family="Times,serif" font-size="14.00">22088443</text>
</g>
<!-- 108802&#45;&gt;108782 -->
<g id="edge23" class="edge"><title>108802&#45;&gt;108782</title>
<path fill="none" stroke="black" d="M1003.56,-123.089C991.862,-133.066 982.393,-145.682 991.752,-156 1010.87,-177.081 1184.3,-185.887 1282.57,-189.209"/>
<polygon fill="black" stroke="black" points="1282.61,-192.712 1292.72,-189.542 1282.84,-185.716 1282.61,-192.712"/>
<text text-anchor="middle" x="1019.25" y="-144.8" font-family="Times,serif" font-size="14.00">22088380</text>
</g>
<!-- 108802&#45;&gt;1238 -->
<g id="edge43" class="edge"><title>108802&#45;&gt;1238</title>
<path fill="none" stroke="black" d="M1048.81,-86.9914C1060.59,-77.1552 1075.84,-64.6552 1089.75,-54 1095.33,-49.73 1101.35,-45.2906 1107.21,-41.0647"/>
<polygon fill="black" stroke="black" points="1109.49,-43.7348 1115.59,-35.0707 1105.42,-38.0411 1109.49,-43.7348"/>
<text text-anchor="middle" x="1117.25" y="-57.8" font-family="Times,serif" font-size="14.00">22088397</text>
</g>
<!-- 108800&#45;&gt;108782 -->
<g id="edge24" class="edge"><title>108800&#45;&gt;108782</title>
<path fill="none" stroke="black" d="M1882.65,-123.113C1872.78,-134.6 1858.16,-148.887 1841.75,-156 1767.3,-188.272 1533.41,-191.943 1416.98,-191.674"/>
<polygon fill="black" stroke="black" points="1416.77,-188.173 1406.76,-191.639 1416.75,-195.173 1416.77,-188.173"/>
<text text-anchor="middle" x="1891.25" y="-144.8" font-family="Times,serif" font-size="14.00">22088336</text>
</g>
<!-- 108800&#45;&gt;1238 -->
<g id="edge44" class="edge"><title>108800&#45;&gt;1238</title>
<path fill="none" stroke="black" d="M1839.07,-91.8003C1776.33,-78.4818 1679.13,-58.4498 1641.75,-54 1455.34,-31.8071 1406.02,-59.3583 1219.75,-36 1213.05,-35.1591 1206.07,-34.0535 1199.15,-32.8086"/>
<polygon fill="black" stroke="black" points="1199.57,-29.3252 1189.09,-30.8999 1198.26,-36.2026 1199.57,-29.3252"/>
<text text-anchor="middle" x="1750.25" y="-57.8" font-family="Times,serif" font-size="14.00">22088364</text>
</g>
<!-- 108916&#45;&gt;108782 -->
<g id="edge20" class="edge"><title>108916&#45;&gt;108782</title>
<path fill="none" stroke="black" d="M2044.37,-123.075C2038.43,-134.544 2028.9,-148.825 2015.75,-156 1964.2,-184.142 1575.92,-189.661 1417.13,-190.739"/>
<polygon fill="black" stroke="black" points="1416.98,-187.24 1407.01,-190.804 1417.03,-194.24 1416.98,-187.24"/>
<text text-anchor="middle" x="2060.25" y="-144.8" font-family="Times,serif" font-size="14.00">22105471</text>
</g>
<!-- 108926 -->
<g id="node15" class="node"><title>108926</title>
<polygon fill="none" stroke="black" points="1846.26,-36 1355.5,-36 1229.25,-1.42109e-14 1720.01,-3.55271e-15 1846.26,-36"/>
<text text-anchor="middle" x="1537.75" y="-14.3" font-family="Times,serif" font-size="14.00">108926: 129.22.31.135/32:34074&#45;&gt;162.125.6.18/32:443</text>
</g>
<!-- 108916&#45;&gt;108926 -->
<g id="edge38" class="edge"><title>108916&#45;&gt;108926</title>
<path fill="none" stroke="black" d="M1983.6,-91.5793C1947.38,-84.5224 1906.88,-75.7724 1889.75,-69 1877.7,-64.2347 1877.04,-58.1194 1864.75,-54 1845.35,-47.495 1811.18,-41.889 1772.03,-37.1884"/>
<polygon fill="black" stroke="black" points="1772.32,-33.6979 1761.98,-36.0128 1771.5,-40.6505 1772.32,-33.6979"/>
<text text-anchor="middle" x="1917.25" y="-57.8" font-family="Times,serif" font-size="14.00">22106405</text>
</g>
<!-- 108978 -->
<g id="node18" class="node"><title>108978</title>
<polygon fill="none" stroke="black" points="2482.26,-36 1991.5,-36 1865.25,-1.42109e-14 2356.01,-3.55271e-15 2482.26,-36"/>
<text text-anchor="middle" x="2173.75" y="-14.3" font-family="Times,serif" font-size="14.00">108978: 129.22.31.135/32:37140&#45;&gt;162.125.6.15/32:443</text>
</g>
<!-- 108916&#45;&gt;108978 -->
<g id="edge40" class="edge"><title>108916&#45;&gt;108978</title>
<path fill="none" stroke="black" d="M2047.73,-86.5306C2046.38,-76.0458 2046.69,-63.0346 2053.75,-54 2057.34,-49.4051 2061.5,-45.3892 2066.07,-41.8814"/>
<polygon fill="black" stroke="black" points="2068.35,-44.5728 2074.71,-36.1007 2064.45,-38.7562 2068.35,-44.5728"/>
<text text-anchor="middle" x="2081.25" y="-57.8" font-family="Times,serif" font-size="14.00">22112973</text>
</g>
<!-- 108916&#45;&gt;1238 -->
<g id="edge39" class="edge"><title>108916&#45;&gt;1238</title>
<path fill="none" stroke="black" d="M1983.27,-90.6819C1975.68,-89.3632 1968.06,-88.1059 1960.75,-87 1892.18,-76.6261 1871.2,-91.9386 1805.75,-69 1793.88,-64.8395 1793.79,-57.6608 1781.75,-54 1662.21,-17.6343 1343.81,-50.8896 1219.75,-36 1213.04,-35.1947 1206.06,-34.1116 1199.14,-32.8798"/>
<polygon fill="black" stroke="black" points="1199.56,-29.396 1189.08,-30.9838 1198.26,-36.275 1199.56,-29.396"/>
<text text-anchor="middle" x="1833.25" y="-57.8" font-family="Times,serif" font-size="14.00">22113965</text>
</g>
<!-- 108791&#45;&gt;108782 -->
<g id="edge25" class="edge"><title>108791&#45;&gt;108782</title>
<path fill="none" stroke="black" d="M1138.89,-123.139C1129.08,-133.253 1121.21,-145.99 1129.75,-156 1149.14,-178.721 1225.24,-186.766 1282.54,-189.573"/>
<polygon fill="black" stroke="black" points="1282.5,-193.074 1292.65,-190.024 1282.81,-186.081 1282.5,-193.074"/>
<text text-anchor="middle" x="1157.25" y="-144.8" font-family="Times,serif" font-size="14.00">22087728</text>
</g>
<!-- 108791&#45;&gt;1238 -->
<g id="edge45" class="edge"><title>108791&#45;&gt;1238</title>
<path fill="none" stroke="black" d="M1155.5,-86.799C1152.63,-75.1626 1148.77,-59.5479 1145.48,-46.2368"/>
<polygon fill="black" stroke="black" points="1148.79,-45.0441 1143,-36.1754 1142,-46.723 1148.79,-45.0441"/>
<text text-anchor="middle" x="1178.25" y="-57.8" font-family="Times,serif" font-size="14.00">22087745</text>
</g>
<!-- 108832&#45;&gt;108782 -->
<g id="edge21" class="edge"><title>108832&#45;&gt;108782</title>
<path fill="none" stroke="black" d="M1418.31,-123.201C1412.3,-133.337 1403.93,-146.075 1394.75,-156 1391.15,-159.896 1387.08,-163.695 1382.9,-167.268"/>
<polygon fill="black" stroke="black" points="1380.38,-164.807 1374.81,-173.824 1384.79,-170.244 1380.38,-164.807"/>
<text text-anchor="middle" x="1434.25" y="-144.8" font-family="Times,serif" font-size="14.00">22092056</text>
</g>
<!-- 108832&#45;&gt;1238 -->
<g id="edge41" class="edge"><title>108832&#45;&gt;1238</title>
<path fill="none" stroke="black" d="M1371,-87.3082C1319.53,-72.1691 1244.15,-49.9987 1193.35,-35.0595"/>
<polygon fill="black" stroke="black" points="1194.12,-31.6363 1183.54,-32.1723 1192.14,-38.3519 1194.12,-31.6363"/>
<text text-anchor="middle" x="1328.25" y="-57.8" font-family="Times,serif" font-size="14.00">22092087</text>
</g>
<!-- 108797&#45;&gt;108782 -->
<g id="edge26" class="edge"><title>108797&#45;&gt;108782</title>
<path fill="none" stroke="black" d="M1575.49,-123.073C1569.18,-134.234 1559.42,-148.15 1546.75,-156 1525.39,-169.239 1465.23,-178.694 1416.96,-184.413"/>
<polygon fill="black" stroke="black" points="1416.4,-180.955 1406.86,-185.577 1417.2,-187.909 1416.4,-180.955"/>
<text text-anchor="middle" x="1591.25" y="-144.8" font-family="Times,serif" font-size="14.00">22088019</text>
</g>
<!-- 108797&#45;&gt;1238 -->
<g id="edge46" class="edge"><title>108797&#45;&gt;1238</title>
<path fill="none" stroke="black" d="M1526.96,-89.809C1481.85,-78.9053 1417.05,-64.0567 1359.75,-54 1297.96,-43.1552 1281.61,-46.451 1219.75,-36 1213.62,-34.9632 1207.24,-33.7906 1200.87,-32.5579"/>
<polygon fill="black" stroke="black" points="1201.41,-29.0969 1190.92,-30.582 1200.05,-35.9629 1201.41,-29.0969"/>
<text text-anchor="middle" x="1462.25" y="-57.8" font-family="Times,serif" font-size="14.00">22088327</text>
</g>
<!-- 108926&#45;&gt;108916 -->
<g id="edge27" class="edge"><title>108926&#45;&gt;108916</title>
<path fill="none" stroke="black" d="M1824.24,-36.0178C1876.55,-40.8844 1922.77,-46.8536 1948.75,-54 1971.65,-60.2977 1995.6,-71.6046 2014.64,-81.8748"/>
<polygon fill="black" stroke="black" points="2013.12,-85.0342 2023.57,-86.8068 2016.51,-78.9072 2013.12,-85.0342"/>
<text text-anchor="middle" x="2015.25" y="-57.8" font-family="Times,serif" font-size="14.00">22106413</text>
</g>
<!-- 108830&#45;&gt;108829 -->
<g id="edge28" class="edge"><title>108830&#45;&gt;108829</title>
<path fill="none" stroke="black" d="M282.767,-36.209C271.371,-45.8902 262.298,-58.1718 270.752,-69 280.213,-81.1169 312.775,-89.6597 344.115,-95.2706"/>
<polygon fill="black" stroke="black" points="343.772,-98.7623 354.217,-96.9901 344.947,-91.8616 343.772,-98.7623"/>
<text text-anchor="middle" x="298.252" y="-57.8" font-family="Times,serif" font-size="14.00">22092038</text>
</g>
<!-- 109012 -->
<g id="node17" class="node"><title>109012</title>
<ellipse fill="none" stroke="black" cx="2866.75" cy="-192" rx="258.054" ry="18"/>
<text text-anchor="middle" x="2866.75" y="-188.3" font-family="Times,serif" font-size="14.00">109012: /home/feishao/sysdigscripts/case5/sysrep_random_data?dl=0</text>
</g>
<!-- 109012&#45;&gt;27049 -->
<g id="edge29" class="edge"><title>109012&#45;&gt;27049</title>
<path fill="none" stroke="black" d="M2773.32,-175.211C2681.72,-159.732 2543.07,-136.303 2452.96,-121.074"/>
<polygon fill="black" stroke="black" points="2453.47,-117.612 2443.03,-119.397 2452.31,-124.514 2453.47,-117.612"/>
<text text-anchor="middle" x="2673.25" y="-144.8" font-family="Times,serif" font-size="14.00">22137256</text>
</g>
<!-- 108978&#45;&gt;108916 -->
<g id="edge30" class="edge"><title>108978&#45;&gt;108916</title>
<path fill="none" stroke="black" d="M2154.62,-36.0692C2142.91,-46.1576 2127.41,-58.8934 2112.75,-69 2106.32,-73.4354 2099.29,-77.8401 2092.37,-81.9523"/>
<polygon fill="black" stroke="black" points="2090.6,-78.9347 2083.71,-86.985 2094.11,-84.9872 2090.6,-78.9347"/>
<text text-anchor="middle" x="2160.25" y="-57.8" font-family="Times,serif" font-size="14.00">22113961</text>
</g>
<!-- 108783 -->
<g id="node19" class="node"><title>108783</title>
<ellipse fill="none" stroke="black" cx="1416.75" cy="-279" rx="194.166" ry="18"/>
<text text-anchor="middle" x="1416.75" y="-275.3" font-family="Times,serif" font-size="14.00">108783: /home/feishao/sysdigscripts/case5/case5.sh</text>
</g>
<!-- 108783&#45;&gt;108782 -->
<g id="edge31" class="edge"><title>108783&#45;&gt;108782</title>
<path fill="none" stroke="black" d="M1403.19,-260.799C1393.57,-248.587 1380.49,-231.992 1369.68,-218.278"/>
<polygon fill="black" stroke="black" points="1372.23,-215.862 1363.29,-210.175 1366.73,-220.196 1372.23,-215.862"/>
<text text-anchor="middle" x="1415.25" y="-231.8" font-family="Times,serif" font-size="14.00">22087078</text>
</g>
<!-- 109011 -->
<g id="node20" class="node"><title>109011</title>
<ellipse fill="none" stroke="black" cx="2363.75" cy="-192" rx="226.66" ry="18"/>
<text text-anchor="middle" x="2363.75" y="-188.3" font-family="Times,serif" font-size="14.00">109011: /home/feishao/sysdigscripts/case5/read_exp_data.py</text>
</g>
<!-- 109011&#45;&gt;27049 -->
<g id="edge32" class="edge"><title>109011&#45;&gt;27049</title>
<path fill="none" stroke="black" d="M2363.75,-173.799C2363.75,-162.163 2363.75,-146.548 2363.75,-133.237"/>
<polygon fill="black" stroke="black" points="2367.25,-133.175 2363.75,-123.175 2360.25,-133.175 2367.25,-133.175"/>
<text text-anchor="middle" x="2391.25" y="-144.8" font-family="Times,serif" font-size="14.00">22137219</text>
</g>
</g>
</svg>
