<?xml version="1.0" encoding="UTF-8" standalone="no"?>
<!DOCTYPE svg PUBLIC "-//W3C//DTD SVG 1.1//EN"
 "http://www.w3.org/Graphics/SVG/1.1/DTD/svg11.dtd">
<!-- Generated by graphviz version 2.38.0 (20140413.2041)
 -->
<!-- Title: G Pages: 1 -->
<svg width="2146pt" height="914pt"
 viewBox="0.00 0.00 2145.63 914.00" xmlns="http://www.w3.org/2000/svg" xmlns:xlink="http://www.w3.org/1999/xlink">
<g id="graph0" class="graph" transform="scale(1 1) rotate(0) translate(4 910)">
<title>G</title>
<polygon fill="white" stroke="none" points="-4,4 -4,-910 2141.63,-910 2141.63,4 -4,4"/>
<!-- 133898 -->
<g id="node1" class="node"><title>133898</title>
<polygon fill="none" stroke="black" points="1190.13,-906 1077.13,-906 1077.13,-870 1190.13,-870 1190.13,-906"/>
<text text-anchor="middle" x="1133.63" y="-884.3" font-family="Times,serif" font-size="14.00">133898: /bin/ping</text>
</g>
<!-- 133896 -->
<g id="node2" class="node"><title>133896</title>
<polygon fill="none" stroke="black" points="1190.63,-819 1076.63,-819 1076.63,-783 1190.63,-783 1190.63,-819"/>
<text text-anchor="middle" x="1133.63" y="-797.3" font-family="Times,serif" font-size="14.00">133896: /bin/bash</text>
</g>
<!-- 133898&#45;&gt;133896 -->
<g id="edge1" class="edge"><title>133898&#45;&gt;133896</title>
<path fill="none" stroke="black" d="M1108.92,-869.808C1103.55,-864.747 1098.59,-858.736 1095.63,-852 1091.69,-843.013 1095.22,-834.166 1101.45,-826.47"/>
<polygon fill="black" stroke="black" points="1104.02,-828.842 1108.41,-819.196 1098.96,-824.004 1104.02,-828.842"/>
<text text-anchor="middle" x="1123.13" y="-840.8" font-family="Times,serif" font-size="14.00">27818830</text>
</g>
<!-- 133896&#45;&gt;133898 -->
<g id="edge20" class="edge"><title>133896&#45;&gt;133898</title>
<path fill="none" stroke="black" d="M1143.91,-819.231C1146.65,-824.72 1149.24,-830.943 1150.63,-837 1152.4,-844.704 1151.05,-852.89 1148.48,-860.36"/>
<polygon fill="black" stroke="black" points="1145.22,-859.091 1144.56,-869.666 1151.67,-861.809 1145.22,-859.091"/>
<text text-anchor="middle" x="1179.13" y="-840.8" font-family="Times,serif" font-size="14.00">27818829</text>
</g>
<!-- 133902 -->
<g id="node3" class="node"><title>133902</title>
<polygon fill="none" stroke="black" points="1111.13,-732 998.133,-732 998.133,-696 1111.13,-696 1111.13,-732"/>
<text text-anchor="middle" x="1054.63" y="-710.3" font-family="Times,serif" font-size="14.00">133902: /bin/ping</text>
</g>
<!-- 133896&#45;&gt;133902 -->
<g id="edge22" class="edge"><title>133896&#45;&gt;133902</title>
<path fill="none" stroke="black" d="M1076.45,-794.419C1057.83,-789.57 1039.04,-780.784 1027.63,-765 1022.14,-757.405 1024.44,-748.561 1029.51,-740.441"/>
<polygon fill="black" stroke="black" points="1032.4,-742.429 1035.58,-732.325 1026.79,-738.236 1032.4,-742.429"/>
<text text-anchor="middle" x="1055.13" y="-753.8" font-family="Times,serif" font-size="14.00">27818845</text>
</g>
<!-- 133893 -->
<g id="node5" class="node"><title>133893</title>
<polygon fill="none" stroke="black" points="449.633,-732 335.633,-732 335.633,-696 449.633,-696 449.633,-732"/>
<text text-anchor="middle" x="392.633" y="-710.3" font-family="Times,serif" font-size="14.00">133893: /bin/bash</text>
</g>
<!-- 133896&#45;&gt;133893 -->
<g id="edge18" class="edge"><title>133896&#45;&gt;133893</title>
<path fill="none" stroke="black" d="M1076.48,-799.404C906.971,-797.362 417.346,-789.369 393.633,-765 387.843,-759.05 386.238,-750.568 386.501,-742.277"/>
<polygon fill="black" stroke="black" points="390.008,-742.412 387.658,-732.081 383.053,-741.623 390.008,-742.412"/>
<text text-anchor="middle" x="421.133" y="-753.8" font-family="Times,serif" font-size="14.00">27818822</text>
</g>
<!-- 133914 -->
<g id="node7" class="node"><title>133914</title>
<polygon fill="none" stroke="black" points="649.133,-732 536.133,-732 536.133,-696 649.133,-696 649.133,-732"/>
<text text-anchor="middle" x="592.633" y="-710.3" font-family="Times,serif" font-size="14.00">133914: /bin/ping</text>
</g>
<!-- 133896&#45;&gt;133914 -->
<g id="edge23" class="edge"><title>133896&#45;&gt;133914</title>
<path fill="none" stroke="black" d="M1076.34,-800.805C964.067,-801.589 719.444,-799.165 643.633,-765 631.268,-759.428 620.16,-749.49 611.491,-739.934"/>
<polygon fill="black" stroke="black" points="613.962,-737.438 604.809,-732.101 608.636,-741.981 613.962,-737.438"/>
<text text-anchor="middle" x="671.133" y="-753.8" font-family="Times,serif" font-size="14.00">27818894</text>
</g>
<!-- 133904 -->
<g id="node9" class="node"><title>133904</title>
<polygon fill="none" stroke="black" points="805.133,-732 692.133,-732 692.133,-696 805.133,-696 805.133,-732"/>
<text text-anchor="middle" x="748.633" y="-710.3" font-family="Times,serif" font-size="14.00">133904: /bin/ping</text>
</g>
<!-- 133896&#45;&gt;133904 -->
<g id="edge13" class="edge"><title>133896&#45;&gt;133904</title>
<path fill="none" stroke="black" d="M1076.38,-798.523C994.163,-795.641 847.307,-787.441 799.633,-765 787.537,-759.307 776.584,-749.54 767.957,-740.142"/>
<polygon fill="black" stroke="black" points="770.473,-737.702 761.282,-732.431 765.181,-742.283 770.473,-737.702"/>
<text text-anchor="middle" x="827.133" y="-753.8" font-family="Times,serif" font-size="14.00">27818853</text>
</g>
<!-- 133912 -->
<g id="node13" class="node"><title>133912</title>
<polygon fill="none" stroke="black" points="948.133,-732 835.133,-732 835.133,-696 948.133,-696 948.133,-732"/>
<text text-anchor="middle" x="891.633" y="-710.3" font-family="Times,serif" font-size="14.00">133912: /bin/ping</text>
</g>
<!-- 133896&#45;&gt;133912 -->
<g id="edge21" class="edge"><title>133896&#45;&gt;133912</title>
<path fill="none" stroke="black" d="M1076.37,-793.692C1043.09,-788.662 1000.9,-779.902 965.633,-765 949.582,-758.218 933.363,-747.754 920.216,-738.149"/>
<polygon fill="black" stroke="black" points="922.148,-735.223 912.053,-732.008 917.94,-740.817 922.148,-735.223"/>
<text text-anchor="middle" x="993.133" y="-753.8" font-family="Times,serif" font-size="14.00">27818886</text>
</g>
<!-- 133916 -->
<g id="node14" class="node"><title>133916</title>
<polygon fill="none" stroke="black" points="1254.13,-732 1141.13,-732 1141.13,-696 1254.13,-696 1254.13,-732"/>
<text text-anchor="middle" x="1197.63" y="-710.3" font-family="Times,serif" font-size="14.00">133916: /bin/ping</text>
</g>
<!-- 133896&#45;&gt;133916 -->
<g id="edge14" class="edge"><title>133896&#45;&gt;133916</title>
<path fill="none" stroke="black" d="M1190.75,-791.131C1205.48,-785.972 1219.69,-777.832 1228.63,-765 1234.15,-757.083 1231.37,-748.198 1225.67,-740.138"/>
<polygon fill="black" stroke="black" points="1228.3,-737.828 1219.19,-732.419 1222.94,-742.329 1228.3,-737.828"/>
<text text-anchor="middle" x="1259.13" y="-753.8" font-family="Times,serif" font-size="14.00">27818902</text>
</g>
<!-- 133900 -->
<g id="node15" class="node"><title>133900</title>
<polygon fill="none" stroke="black" points="1411.13,-732 1298.13,-732 1298.13,-696 1411.13,-696 1411.13,-732"/>
<text text-anchor="middle" x="1354.63" y="-710.3" font-family="Times,serif" font-size="14.00">133900: /bin/ping</text>
</g>
<!-- 133896&#45;&gt;133900 -->
<g id="edge15" class="edge"><title>133896&#45;&gt;133900</title>
<path fill="none" stroke="black" d="M1190.68,-800.364C1256.85,-799.425 1360.01,-793.295 1384.63,-765 1391.18,-757.477 1388.24,-748.339 1382.16,-739.944"/>
<polygon fill="black" stroke="black" points="1384.71,-737.542 1375.56,-732.199 1379.38,-742.082 1384.71,-737.542"/>
<text text-anchor="middle" x="1416.13" y="-753.8" font-family="Times,serif" font-size="14.00">27818837</text>
</g>
<!-- 133906 -->
<g id="node16" class="node"><title>133906</title>
<polygon fill="none" stroke="black" points="1569.13,-732 1456.13,-732 1456.13,-696 1569.13,-696 1569.13,-732"/>
<text text-anchor="middle" x="1512.63" y="-710.3" font-family="Times,serif" font-size="14.00">133906: /bin/ping</text>
</g>
<!-- 133896&#45;&gt;133906 -->
<g id="edge16" class="edge"><title>133896&#45;&gt;133906</title>
<path fill="none" stroke="black" d="M1190.83,-799.273C1297.35,-797.32 1517.47,-790.245 1540.63,-765 1547.36,-757.668 1544.56,-748.431 1538.64,-739.898"/>
<polygon fill="black" stroke="black" points="1541.25,-737.564 1532.23,-732.018 1535.83,-741.983 1541.25,-737.564"/>
<text text-anchor="middle" x="1572.13" y="-753.8" font-family="Times,serif" font-size="14.00">27818861</text>
</g>
<!-- 133910 -->
<g id="node17" class="node"><title>133910</title>
<polygon fill="none" stroke="black" points="1729.13,-732 1616.13,-732 1616.13,-696 1729.13,-696 1729.13,-732"/>
<text text-anchor="middle" x="1672.63" y="-710.3" font-family="Times,serif" font-size="14.00">133910: /bin/ping</text>
</g>
<!-- 133896&#45;&gt;133910 -->
<g id="edge17" class="edge"><title>133896&#45;&gt;133910</title>
<path fill="none" stroke="black" d="M1190.74,-798.535C1330.47,-794.674 1679.49,-783.242 1696.63,-765 1703.16,-758.054 1701.05,-749.002 1696.01,-740.513"/>
<polygon fill="black" stroke="black" points="1698.83,-738.447 1690.2,-732.309 1693.12,-742.493 1698.83,-738.447"/>
<text text-anchor="middle" x="1729.13" y="-753.8" font-family="Times,serif" font-size="14.00">27818877</text>
</g>
<!-- 133908 -->
<g id="node18" class="node"><title>133908</title>
<polygon fill="none" stroke="black" points="1892.13,-732 1779.13,-732 1779.13,-696 1892.13,-696 1892.13,-732"/>
<text text-anchor="middle" x="1835.63" y="-710.3" font-family="Times,serif" font-size="14.00">133908: /bin/ping</text>
</g>
<!-- 133896&#45;&gt;133908 -->
<g id="edge19" class="edge"><title>133896&#45;&gt;133908</title>
<path fill="none" stroke="black" d="M1190.66,-799.344C1356.76,-797.158 1829.91,-788.853 1852.63,-765 1858.86,-758.467 1857.78,-749.568 1854.1,-741.088"/>
<polygon fill="black" stroke="black" points="1857.13,-739.329 1849.31,-732.182 1850.97,-742.647 1857.13,-739.329"/>
<text text-anchor="middle" x="1885.13" y="-753.8" font-family="Times,serif" font-size="14.00">27818869</text>
</g>
<!-- 133902&#45;&gt;133896 -->
<g id="edge2" class="edge"><title>133902&#45;&gt;133896</title>
<path fill="none" stroke="black" d="M1069.88,-732.271C1078.52,-741.972 1089.58,-754.252 1099.63,-765 1102.78,-768.363 1106.12,-771.875 1109.43,-775.322"/>
<polygon fill="black" stroke="black" points="1107.08,-777.927 1116.55,-782.679 1112.11,-773.059 1107.08,-777.927"/>
<text text-anchor="middle" x="1127.13" y="-753.8" font-family="Times,serif" font-size="14.00">27818846</text>
</g>
<!-- 133974 -->
<g id="node4" class="node"><title>133974</title>
<polygon fill="none" stroke="black" points="249.133,-123 142.133,-123 142.133,-87 249.133,-87 249.133,-123"/>
<text text-anchor="middle" x="195.633" y="-101.3" font-family="Times,serif" font-size="14.00">133974: /bin/mv</text>
</g>
<!-- 133974&#45;&gt;133893 -->
<g id="edge3" class="edge"><title>133974&#45;&gt;133893</title>
<path fill="none" stroke="black" d="M195.633,-123.256C195.633,-140.43 195.633,-167.536 195.633,-191 195.633,-628 195.633,-628 195.633,-628 195.633,-685.892 268.242,-704.82 325.298,-710.757"/>
<polygon fill="black" stroke="black" points="325.107,-714.254 335.387,-711.691 325.753,-707.284 325.107,-714.254"/>
<text text-anchor="middle" x="223.133" y="-405.8" font-family="Times,serif" font-size="14.00">27822568</text>
</g>
<!-- 133975 -->
<g id="node26" class="node"><title>133975</title>
<ellipse fill="none" stroke="black" cx="195.633" cy="-18" rx="195.765" ry="18"/>
<text text-anchor="middle" x="195.633" y="-14.3" font-family="Times,serif" font-size="14.00">133975: /home/feishao/sysdigscripts/case7/case7.txt</text>
</g>
<!-- 133974&#45;&gt;133975 -->
<g id="edge42" class="edge"><title>133974&#45;&gt;133975</title>
<path fill="none" stroke="black" d="M195.633,-86.799C195.633,-75.1626 195.633,-59.5479 195.633,-46.2368"/>
<polygon fill="black" stroke="black" points="199.133,-46.1754 195.633,-36.1754 192.133,-46.1755 199.133,-46.1754"/>
<text text-anchor="middle" x="223.133" y="-57.8" font-family="Times,serif" font-size="14.00">27822580</text>
</g>
<!-- 133893&#45;&gt;133896 -->
<g id="edge27" class="edge"><title>133893&#45;&gt;133896</title>
<path fill="none" stroke="black" d="M417.979,-732.218C436.426,-743.755 462.48,-758.058 487.633,-765 594.909,-794.609 923.192,-799.35 1066.04,-799.982"/>
<polygon fill="black" stroke="black" points="1066.4,-803.483 1076.41,-800.022 1066.43,-796.483 1066.4,-803.483"/>
<text text-anchor="middle" x="515.133" y="-753.8" font-family="Times,serif" font-size="14.00">27818821</text>
</g>
<!-- 133893&#45;&gt;133974 -->
<g id="edge26" class="edge"><title>133893&#45;&gt;133974</title>
<path fill="none" stroke="black" d="M335.318,-706.991C254.724,-696.924 117.633,-673.162 117.633,-628 117.633,-628 117.633,-628 117.633,-191 117.633,-165.238 137.324,-143.906 156.918,-129.056"/>
<polygon fill="black" stroke="black" points="159.155,-131.759 165.252,-123.094 155.083,-126.065 159.155,-131.759"/>
<text text-anchor="middle" x="145.133" y="-405.8" font-family="Times,serif" font-size="14.00">27822567</text>
</g>
<!-- 1237 -->
<g id="node6" class="node"><title>1237</title>
<polygon fill="none" stroke="black" points="337.133,-645 236.133,-645 236.133,-609 337.133,-609 337.133,-645"/>
<text text-anchor="middle" x="286.633" y="-623.3" font-family="Times,serif" font-size="14.00">1237: /bin/bash</text>
</g>
<!-- 133893&#45;&gt;1237 -->
<g id="edge29" class="edge"><title>133893&#45;&gt;1237</title>
<path fill="none" stroke="black" d="M335.44,-707.411C296.831,-702.319 250.777,-693.214 238.633,-678 231.347,-668.873 236.485,-659.479 245.673,-651.334"/>
<polygon fill="black" stroke="black" points="247.974,-653.979 253.75,-645.097 243.696,-648.438 247.974,-653.979"/>
<text text-anchor="middle" x="266.133" y="-666.8" font-family="Times,serif" font-size="14.00">27818814</text>
</g>
<!-- 133941 -->
<g id="node8" class="node"><title>133941</title>
<polygon fill="none" stroke="black" points="541.133,-645 434.133,-645 434.133,-609 541.133,-609 541.133,-645"/>
<text text-anchor="middle" x="487.633" y="-623.3" font-family="Times,serif" font-size="14.00">133941: /bin/mv</text>
</g>
<!-- 133893&#45;&gt;133941 -->
<g id="edge31" class="edge"><title>133893&#45;&gt;133941</title>
<path fill="none" stroke="black" d="M393.727,-695.955C395.223,-685.37 398.686,-672.097 406.633,-663 411.805,-657.078 418.16,-652.124 425.015,-647.987"/>
<polygon fill="black" stroke="black" points="426.783,-651.01 433.914,-643.174 423.453,-644.853 426.783,-651.01"/>
<text text-anchor="middle" x="434.133" y="-666.8" font-family="Times,serif" font-size="14.00">27821162</text>
</g>
<!-- 133944 -->
<g id="node12" class="node"><title>133944</title>
<polygon fill="none" stroke="black" points="757.633,-471 603.633,-471 603.633,-435 757.633,-435 757.633,-471"/>
<text text-anchor="middle" x="680.633" y="-449.3" font-family="Times,serif" font-size="14.00">133944: /usr/bin/python3</text>
</g>
<!-- 133893&#45;&gt;133944 -->
<g id="edge28" class="edge"><title>133893&#45;&gt;133944</title>
<path fill="none" stroke="black" d="M449.905,-704.671C473.605,-701.502 501.397,-698.142 526.633,-696 711.474,-680.313 758.621,-691.534 943.633,-678 1202.54,-659.061 1931.75,-750.759 2105.63,-558 2116.35,-546.119 2116.67,-533.58 2105.63,-522 2059.35,-473.451 1070.68,-458.372 767.948,-454.884"/>
<polygon fill="black" stroke="black" points="767.94,-451.384 757.9,-454.77 767.86,-458.384 767.94,-451.384"/>
<text text-anchor="middle" x="2110.13" y="-579.8" font-family="Times,serif" font-size="14.00">27821177</text>
</g>
<!-- 133918 -->
<g id="node19" class="node"><title>133918</title>
<polygon fill="none" stroke="black" points="1219.63,-645 1083.63,-645 1083.63,-609 1219.63,-609 1219.63,-645"/>
<text text-anchor="middle" x="1151.63" y="-623.3" font-family="Times,serif" font-size="14.00">133918: /usr/bin/wget</text>
</g>
<!-- 133893&#45;&gt;133918 -->
<g id="edge30" class="edge"><title>133893&#45;&gt;133918</title>
<path fill="none" stroke="black" d="M449.948,-705.135C473.655,-702.037 501.441,-698.604 526.633,-696 626.42,-685.684 651.836,-688.224 751.633,-678 863.631,-666.526 992.823,-649.728 1073.37,-638.829"/>
<polygon fill="black" stroke="black" points="1074,-642.276 1083.44,-637.463 1073.06,-635.34 1074,-642.276"/>
<text text-anchor="middle" x="912.133" y="-666.8" font-family="Times,serif" font-size="14.00">27818912</text>
</g>
<!-- 1237&#45;&gt;133893 -->
<g id="edge4" class="edge"><title>1237&#45;&gt;133893</title>
<path fill="none" stroke="black" d="M290.295,-645.187C293.346,-655.828 298.68,-669.11 307.633,-678 313.127,-683.456 319.591,-688.1 326.461,-692.046"/>
<polygon fill="black" stroke="black" points="324.852,-695.154 335.337,-696.678 328.091,-688.948 324.852,-695.154"/>
<text text-anchor="middle" x="335.133" y="-666.8" font-family="Times,serif" font-size="14.00">27818813</text>
</g>
<!-- 133914&#45;&gt;133896 -->
<g id="edge5" class="edge"><title>133914&#45;&gt;133896</title>
<path fill="none" stroke="black" d="M563.286,-732.23C550.168,-742.027 539.663,-754.415 549.633,-765 567.12,-783.566 916.767,-794.546 1066.51,-798.413"/>
<polygon fill="black" stroke="black" points="1066.42,-801.912 1076.51,-798.669 1066.6,-794.914 1066.42,-801.912"/>
<text text-anchor="middle" x="577.133" y="-753.8" font-family="Times,serif" font-size="14.00">27818895</text>
</g>
<!-- 133941&#45;&gt;133893 -->
<g id="edge6" class="edge"><title>133941&#45;&gt;133893</title>
<path fill="none" stroke="black" d="M483.427,-645.022C480.085,-655.598 474.471,-668.869 465.633,-678 460.97,-682.817 455.51,-687.055 449.712,-690.761"/>
<polygon fill="black" stroke="black" points="447.909,-687.76 441.028,-695.817 451.431,-693.81 447.909,-687.76"/>
<text text-anchor="middle" x="504.133" y="-666.8" font-family="Times,serif" font-size="14.00">27821163</text>
</g>
<!-- 133942 -->
<g id="node22" class="node"><title>133942</title>
<ellipse fill="none" stroke="black" cx="614.633" cy="-540" rx="209.863" ry="18"/>
<text text-anchor="middle" x="614.633" y="-536.3" font-family="Times,serif" font-size="14.00">133942: /home/feishao/sysdigscripts/case7/malicious.py</text>
</g>
<!-- 133941&#45;&gt;133942 -->
<g id="edge43" class="edge"><title>133941&#45;&gt;133942</title>
<path fill="none" stroke="black" d="M513.333,-608.799C532.826,-595.752 559.791,-577.705 581,-563.51"/>
<polygon fill="black" stroke="black" points="583.04,-566.356 589.404,-557.885 579.147,-560.539 583.04,-566.356"/>
<text text-anchor="middle" x="587.133" y="-579.8" font-family="Times,serif" font-size="14.00">27821174</text>
</g>
<!-- 133904&#45;&gt;133896 -->
<g id="edge7" class="edge"><title>133904&#45;&gt;133896</title>
<path fill="none" stroke="black" d="M719.374,-732.148C706.285,-741.919 695.779,-754.308 705.633,-765 729.541,-790.944 952.088,-797.657 1066.45,-799.394"/>
<polygon fill="black" stroke="black" points="1066.46,-802.894 1076.51,-799.538 1066.56,-795.895 1066.46,-802.894"/>
<text text-anchor="middle" x="733.133" y="-753.8" font-family="Times,serif" font-size="14.00">27818854</text>
</g>
<!-- 133948 -->
<g id="node10" class="node"><title>133948</title>
<polygon fill="none" stroke="black" points="842.133,-384 741.133,-384 741.133,-348 842.133,-348 842.133,-384"/>
<text text-anchor="middle" x="791.633" y="-362.3" font-family="Times,serif" font-size="14.00">133948: &lt;NA&gt;</text>
</g>
<!-- 40252 -->
<g id="node11" class="node"><title>40252</title>
<polygon fill="none" stroke="black" points="591.633,-297 433.633,-297 433.633,-261 591.633,-261 591.633,-297"/>
<text text-anchor="middle" x="512.633" y="-275.3" font-family="Times,serif" font-size="14.00">40252: /usr/bin/python3.7</text>
</g>
<!-- 133948&#45;&gt;40252 -->
<g id="edge8" class="edge"><title>133948&#45;&gt;40252</title>
<path fill="none" stroke="black" d="M762.785,-347.953C743.281,-337.093 716.62,-323.513 691.633,-315 663.078,-305.271 630.987,-297.936 601.946,-292.561"/>
<polygon fill="black" stroke="black" points="602.273,-289.064 591.811,-290.741 601.035,-295.953 602.273,-289.064"/>
<text text-anchor="middle" x="754.133" y="-318.8" font-family="Times,serif" font-size="14.00">27821348</text>
</g>
<!-- 40252&#45;&gt;133948 -->
<g id="edge12" class="edge"><title>40252&#45;&gt;133948</title>
<path fill="none" stroke="black" d="M547.866,-297.062C571.397,-307.858 603.297,-321.359 632.633,-330 673.075,-341.912 686.834,-338.324 730.971,-347.788"/>
<polygon fill="black" stroke="black" points="730.346,-351.235 740.871,-350.016 731.883,-344.406 730.346,-351.235"/>
<text text-anchor="middle" x="660.133" y="-318.8" font-family="Times,serif" font-size="14.00">27821349</text>
</g>
<!-- 133972 -->
<g id="node25" class="node"><title>133972</title>
<ellipse fill="none" stroke="black" cx="459.633" cy="-192" rx="218.261" ry="18"/>
<text text-anchor="middle" x="459.633" y="-188.3" font-family="Times,serif" font-size="14.00">133972: /home/feishao/sysdigscripts/case7/sysrep_random</text>
</g>
<!-- 40252&#45;&gt;133972 -->
<g id="edge46" class="edge"><title>40252&#45;&gt;133972</title>
<path fill="none" stroke="black" d="M501.907,-260.799C494.364,-248.702 484.14,-232.305 475.636,-218.667"/>
<polygon fill="black" stroke="black" points="478.603,-216.809 470.342,-210.175 472.663,-220.513 478.603,-216.809"/>
<text text-anchor="middle" x="517.133" y="-231.8" font-family="Times,serif" font-size="14.00">27822564</text>
</g>
<!-- 133944&#45;&gt;133893 -->
<g id="edge10" class="edge"><title>133944&#45;&gt;133893</title>
<path fill="none" stroke="black" d="M603.306,-461.86C528.035,-471.283 421.338,-489.961 395.633,-522 357.831,-569.116 372.303,-645.877 383.799,-686.246"/>
<polygon fill="black" stroke="black" points="380.474,-687.343 386.697,-695.917 387.179,-685.333 380.474,-687.343"/>
<text text-anchor="middle" x="401.133" y="-579.8" font-family="Times,serif" font-size="14.00">27821178</text>
</g>
<!-- 133944&#45;&gt;133948 -->
<g id="edge9" class="edge"><title>133944&#45;&gt;133948</title>
<path fill="none" stroke="black" d="M703.095,-434.799C719.795,-422.01 742.771,-404.417 761.131,-390.357"/>
<polygon fill="black" stroke="black" points="763.392,-393.034 769.204,-384.175 759.136,-387.476 763.392,-393.034"/>
<text text-anchor="middle" x="771.133" y="-405.8" font-family="Times,serif" font-size="14.00">27821342</text>
</g>
<!-- 133912&#45;&gt;133896 -->
<g id="edge11" class="edge"><title>133912&#45;&gt;133896</title>
<path fill="none" stroke="black" d="M870.668,-732.233C860.813,-742.379 852.941,-755.118 861.633,-765 874.987,-780.183 990.385,-790.627 1066.52,-795.936"/>
<polygon fill="black" stroke="black" points="1066.31,-799.43 1076.53,-796.62 1066.79,-792.446 1066.31,-799.43"/>
<text text-anchor="middle" x="889.133" y="-753.8" font-family="Times,serif" font-size="14.00">27818887</text>
</g>
<!-- 133916&#45;&gt;133896 -->
<g id="edge35" class="edge"><title>133916&#45;&gt;133896</title>
<path fill="none" stroke="black" d="M1183.5,-732.31C1179.01,-737.908 1174.06,-744.174 1169.63,-750 1163.65,-757.883 1157.29,-766.6 1151.6,-774.518"/>
<polygon fill="black" stroke="black" points="1148.71,-772.545 1145.75,-782.718 1154.41,-776.611 1148.71,-772.545"/>
<text text-anchor="middle" x="1197.13" y="-753.8" font-family="Times,serif" font-size="14.00">27818903</text>
</g>
<!-- 133900&#45;&gt;133896 -->
<g id="edge33" class="edge"><title>133900&#45;&gt;133896</title>
<path fill="none" stroke="black" d="M1337.32,-732.02C1325.2,-743.01 1308.1,-756.75 1290.63,-765 1262.62,-778.23 1229.41,-786.566 1200.76,-791.765"/>
<polygon fill="black" stroke="black" points="1200.1,-788.328 1190.84,-793.476 1201.29,-795.226 1200.1,-788.328"/>
<text text-anchor="middle" x="1343.13" y="-753.8" font-family="Times,serif" font-size="14.00">27818838</text>
</g>
<!-- 133906&#45;&gt;133896 -->
<g id="edge24" class="edge"><title>133906&#45;&gt;133896</title>
<path fill="none" stroke="black" d="M1495.81,-732.147C1483.57,-743.493 1465.99,-757.598 1447.63,-765 1404.3,-782.475 1279.6,-792.191 1201.01,-796.736"/>
<polygon fill="black" stroke="black" points="1200.5,-793.26 1190.71,-797.318 1200.89,-800.248 1200.5,-793.26"/>
<text text-anchor="middle" x="1501.13" y="-753.8" font-family="Times,serif" font-size="14.00">27818862</text>
</g>
<!-- 133910&#45;&gt;133896 -->
<g id="edge25" class="edge"><title>133910&#45;&gt;133896</title>
<path fill="none" stroke="black" d="M1654.95,-732.112C1641.9,-743.598 1623.08,-757.885 1603.63,-765 1531.54,-791.374 1312.62,-797.889 1200.85,-799.488"/>
<polygon fill="black" stroke="black" points="1200.65,-795.99 1190.7,-799.623 1200.75,-802.989 1200.65,-795.99"/>
<text text-anchor="middle" x="1658.13" y="-753.8" font-family="Times,serif" font-size="14.00">27818878</text>
</g>
<!-- 133908&#45;&gt;133896 -->
<g id="edge34" class="edge"><title>133908&#45;&gt;133896</title>
<path fill="none" stroke="black" d="M1816.19,-732.225C1801.9,-743.765 1781.42,-758.069 1760.63,-765 1658.6,-799.027 1341.38,-801.393 1201.29,-800.69"/>
<polygon fill="black" stroke="black" points="1201.14,-797.189 1191.12,-800.632 1201.1,-804.189 1201.14,-797.189"/>
<text text-anchor="middle" x="1817.13" y="-753.8" font-family="Times,serif" font-size="14.00">27818870</text>
</g>
<!-- 133918&#45;&gt;133893 -->
<g id="edge32" class="edge"><title>133918&#45;&gt;133893</title>
<path fill="none" stroke="black" d="M1083.4,-631.301C993.583,-636.082 830.879,-646.242 692.633,-663 612.235,-672.745 520.488,-688.761 459.85,-700.035"/>
<polygon fill="black" stroke="black" points="458.834,-696.665 449.647,-701.942 460.12,-703.546 458.834,-696.665"/>
<text text-anchor="middle" x="720.133" y="-666.8" font-family="Times,serif" font-size="14.00">27818913</text>
</g>
<!-- 133919 -->
<g id="node21" class="node"><title>133919</title>
<polygon fill="none" stroke="black" points="2096.14,-558 1605.38,-558 1479.13,-522 1969.89,-522 2096.14,-558"/>
<text text-anchor="middle" x="1787.63" y="-536.3" font-family="Times,serif" font-size="14.00">133919: 129.22.31.135/32:48830&#45;&gt;162.125.6.18/32:443</text>
</g>
<!-- 133918&#45;&gt;133919 -->
<g id="edge44" class="edge"><title>133918&#45;&gt;133919</title>
<path fill="none" stroke="black" d="M1219.71,-623.191C1302.38,-619.108 1445.87,-609.864 1567.63,-591 1616.73,-583.394 1671.17,-571.052 1713.62,-560.533"/>
<polygon fill="black" stroke="black" points="1714.74,-563.862 1723.59,-558.042 1713.04,-557.071 1714.74,-563.862"/>
<text text-anchor="middle" x="1675.13" y="-579.8" font-family="Times,serif" font-size="14.00">27818973</text>
</g>
<!-- 133938 -->
<g id="node24" class="node"><title>133938</title>
<polygon fill="none" stroke="black" points="1460.14,-558 969.375,-558 843.128,-522 1333.89,-522 1460.14,-558"/>
<text text-anchor="middle" x="1151.63" y="-536.3" font-family="Times,serif" font-size="14.00">133938: 129.22.31.135/32:51894&#45;&gt;162.125.6.15/32:443</text>
</g>
<!-- 133918&#45;&gt;133938 -->
<g id="edge45" class="edge"><title>133918&#45;&gt;133938</title>
<path fill="none" stroke="black" d="M1123.94,-608.868C1118.16,-603.873 1112.85,-597.876 1109.63,-591 1105.34,-581.837 1109.15,-572.986 1115.93,-565.343"/>
<polygon fill="black" stroke="black" points="1118.67,-567.563 1123.51,-558.136 1113.85,-562.49 1118.67,-567.563"/>
<text text-anchor="middle" x="1137.13" y="-579.8" font-family="Times,serif" font-size="14.00">27821098</text>
</g>
<!-- 133894 -->
<g id="node20" class="node"><title>133894</title>
<ellipse fill="none" stroke="black" cx="314.633" cy="-801" rx="194.166" ry="18"/>
<text text-anchor="middle" x="314.633" y="-797.3" font-family="Times,serif" font-size="14.00">133894: /home/feishao/sysdigscripts/case7/case7.sh</text>
</g>
<!-- 133894&#45;&gt;133893 -->
<g id="edge36" class="edge"><title>133894&#45;&gt;133893</title>
<path fill="none" stroke="black" d="M310.674,-782.91C309.263,-772.568 309.332,-759.573 315.633,-750 318.761,-745.247 322.706,-741.131 327.15,-737.568"/>
<polygon fill="black" stroke="black" points="329.369,-740.289 335.617,-731.734 325.397,-734.525 329.369,-740.289"/>
<text text-anchor="middle" x="343.133" y="-753.8" font-family="Times,serif" font-size="14.00">27818818</text>
</g>
<!-- 133919&#45;&gt;133918 -->
<g id="edge37" class="edge"><title>133919&#45;&gt;133918</title>
<path fill="none" stroke="black" d="M1660.42,-558.002C1531.85,-575.185 1337.27,-601.191 1229.82,-615.551"/>
<polygon fill="black" stroke="black" points="1229.14,-612.11 1219.7,-616.904 1230.07,-619.048 1229.14,-612.11"/>
<text text-anchor="middle" x="1536.13" y="-579.8" font-family="Times,serif" font-size="14.00">27819021</text>
</g>
<!-- 133942&#45;&gt;133944 -->
<g id="edge38" class="edge"><title>133942&#45;&gt;133944</title>
<path fill="none" stroke="black" d="M627.989,-521.799C637.471,-509.587 650.356,-492.992 661.005,-479.278"/>
<polygon fill="black" stroke="black" points="663.928,-481.221 667.296,-471.175 658.399,-476.927 663.928,-481.221"/>
<text text-anchor="middle" x="679.133" y="-492.8" font-family="Times,serif" font-size="14.00">27821250</text>
</g>
<!-- 133951 -->
<g id="node23" class="node"><title>133951</title>
<ellipse fill="none" stroke="black" cx="473.633" cy="-366" rx="249.656" ry="18"/>
<text text-anchor="middle" x="473.633" y="-362.3" font-family="Times,serif" font-size="14.00">133951: /home/feishao/sysrep_test_temp/write_random_to_cwd.py</text>
</g>
<!-- 133951&#45;&gt;40252 -->
<g id="edge39" class="edge"><title>133951&#45;&gt;40252</title>
<path fill="none" stroke="black" d="M481.525,-347.799C486.97,-335.932 494.313,-319.928 500.497,-306.449"/>
<polygon fill="black" stroke="black" points="503.763,-307.724 504.752,-297.175 497.401,-304.805 503.763,-307.724"/>
<text text-anchor="middle" x="523.133" y="-318.8" font-family="Times,serif" font-size="14.00">27821466</text>
</g>
<!-- 133938&#45;&gt;133918 -->
<g id="edge40" class="edge"><title>133938&#45;&gt;133918</title>
<path fill="none" stroke="black" d="M1161.91,-558.231C1164.65,-563.72 1167.24,-569.943 1168.63,-576 1170.4,-583.704 1169.05,-591.89 1166.48,-599.36"/>
<polygon fill="black" stroke="black" points="1163.22,-598.091 1162.56,-608.666 1169.67,-600.809 1163.22,-598.091"/>
<text text-anchor="middle" x="1197.13" y="-579.8" font-family="Times,serif" font-size="14.00">27821099</text>
</g>
<!-- 133972&#45;&gt;133974 -->
<g id="edge41" class="edge"><title>133972&#45;&gt;133974</title>
<path fill="none" stroke="black" d="M408.104,-174.409C365.326,-160.636 304.313,-140.992 258.635,-126.285"/>
<polygon fill="black" stroke="black" points="259.433,-122.865 248.841,-123.131 257.287,-129.528 259.433,-122.865"/>
<text text-anchor="middle" x="371.133" y="-144.8" font-family="Times,serif" font-size="14.00">27822579</text>
</g>
</g>
</svg>
