<?xml version="1.0" encoding="UTF-8" standalone="no"?>
<!DOCTYPE svg PUBLIC "-//W3C//DTD SVG 1.1//EN"
 "http://www.w3.org/Graphics/SVG/1.1/DTD/svg11.dtd">
<!-- Generated by graphviz version 2.38.0 (20140413.2041)
 -->
<!-- Title: G Pages: 1 -->
<svg width="1262pt" height="305pt"
 viewBox="0.00 0.00 1261.50 305.00" xmlns="http://www.w3.org/2000/svg" xmlns:xlink="http://www.w3.org/1999/xlink">
<g id="graph0" class="graph" transform="scale(1 1) rotate(0) translate(4 301)">
<title>G</title>
<polygon fill="white" stroke="none" points="-4,4 -4,-301 1257.5,-301 1257.5,4 -4,4"/>
<!-- 837215 -->
<g id="node1" class="node"><title>837215</title>
<polygon fill="none" stroke="black" points="454.252,-123 319.252,-123 319.252,-87 454.252,-87 454.252,-123"/>
<text text-anchor="middle" x="386.752" y="-101.3" font-family="Times,serif" font-size="14.00">837215: /var/log/mail</text>
</g>
<!-- 837216 -->
<g id="node2" class="node"><title>837216</title>
<polygon fill="none" stroke="black" points="617.257,-36 126.495,-36 0.247503,-1.42109e-14 491.01,-3.55271e-15 617.257,-36"/>
<text text-anchor="middle" x="308.752" y="-14.3" font-family="Times,serif" font-size="14.00">837216: 128.55.12.110/32:43730&#45;&gt;149.52.198.23/32:80</text>
</g>
<!-- 837215&#45;&gt;837216 -->
<g id="edge1" class="edge"><title>837215&#45;&gt;837216</title>
<path fill="none" stroke="black" d="M319.137,-98.4394C300.519,-93.4254 282.292,-84.5357 270.752,-69 264.48,-60.5565 268.332,-51.3765 275.567,-43.214"/>
<polygon fill="black" stroke="black" points="278.215,-45.5222 282.97,-36.0542 273.348,-40.4905 278.215,-45.5222"/>
<text text-anchor="middle" x="298.252" y="-57.8" font-family="Times,serif" font-size="14.00">36180721</text>
</g>
<!-- 837215&#45;&gt;837216 -->
<g id="edge6" class="edge"><title>837215&#45;&gt;837216</title>
<path fill="none" stroke="black" d="M364.021,-86.82C357.495,-81.4316 350.575,-75.2502 344.752,-69 337.791,-61.5284 331.015,-52.6759 325.255,-44.5115"/>
<polygon fill="black" stroke="black" points="327.979,-42.2946 319.442,-36.0202 322.203,-46.2489 327.979,-42.2946"/>
<text text-anchor="middle" x="372.252" y="-57.8" font-family="Times,serif" font-size="14.00">36180713</text>
</g>
<!-- 837684 -->
<g id="node5" class="node"><title>837684</title>
<polygon fill="none" stroke="black" points="1253.26,-36 762.495,-36 636.248,-1.42109e-14 1127.01,-3.55271e-15 1253.26,-36"/>
<text text-anchor="middle" x="944.752" y="-14.3" font-family="Times,serif" font-size="14.00">837684: 128.55.12.110/32:55048&#45;&gt;128.55.12.110/32:22</text>
</g>
<!-- 837215&#45;&gt;837684 -->
<g id="edge5" class="edge"><title>837215&#45;&gt;837684</title>
<path fill="none" stroke="black" d="M454.338,-93.7047C545.594,-79.8036 709.787,-54.7922 822.876,-37.5654"/>
<polygon fill="black" stroke="black" points="823.614,-40.9935 832.972,-36.0274 822.559,-34.0733 823.614,-40.9935"/>
<text text-anchor="middle" x="726.252" y="-57.8" font-family="Times,serif" font-size="14.00">36218380</text>
</g>
<!-- 837216&#45;&gt;837215 -->
<g id="edge2" class="edge"><title>837216&#45;&gt;837215</title>
<path fill="none" stroke="black" d="M384.08,-36.2407C391.77,-40.8345 398.625,-46.6469 403.752,-54 408.652,-61.0272 407.711,-69.5856 404.539,-77.6213"/>
<polygon fill="black" stroke="black" points="401.346,-76.1813 400.008,-86.6913 407.608,-79.3098 401.346,-76.1813"/>
<text text-anchor="middle" x="435.252" y="-57.8" font-family="Times,serif" font-size="14.00">36180714</text>
</g>
<!-- 837207 -->
<g id="node3" class="node"><title>837207</title>
<ellipse fill="none" stroke="black" cx="386.752" cy="-192" rx="87.9851" ry="18"/>
<text text-anchor="middle" x="386.752" y="-188.3" font-family="Times,serif" font-size="14.00">837207: /var/log/mail</text>
</g>
<!-- 837207&#45;&gt;837215 -->
<g id="edge3" class="edge"><title>837207&#45;&gt;837215</title>
<path fill="none" stroke="black" d="M386.752,-173.799C386.752,-162.163 386.752,-146.548 386.752,-133.237"/>
<polygon fill="black" stroke="black" points="390.252,-133.175 386.752,-123.175 383.252,-133.175 390.252,-133.175"/>
<text text-anchor="middle" x="414.252" y="-144.8" font-family="Times,serif" font-size="14.00">36180707</text>
</g>
<!-- 837206 -->
<g id="node4" class="node"><title>837206</title>
<polygon fill="none" stroke="black" points="475.252,-297 298.252,-297 298.252,-261 475.252,-261 475.252,-297"/>
<text text-anchor="middle" x="386.752" y="-275.3" font-family="Times,serif" font-size="14.00">837206: /home/admin/profile</text>
</g>
<!-- 837206&#45;&gt;837207 -->
<g id="edge4" class="edge"><title>837206&#45;&gt;837207</title>
<path fill="none" stroke="black" d="M386.752,-260.799C386.752,-249.163 386.752,-233.548 386.752,-220.237"/>
<polygon fill="black" stroke="black" points="390.252,-220.175 386.752,-210.175 383.252,-220.175 390.252,-220.175"/>
<text text-anchor="middle" x="414.252" y="-231.8" font-family="Times,serif" font-size="14.00">36180388</text>
</g>
</g>
</svg>
