<?xml version="1.0" encoding="UTF-8" standalone="no"?>
<!DOCTYPE svg PUBLIC "-//W3C//DTD SVG 1.1//EN"
 "http://www.w3.org/Graphics/SVG/1.1/DTD/svg11.dtd">
<!-- Generated by graphviz version 2.38.0 (20140413.2041)
 -->
<!-- Title: G Pages: 1 -->
<svg width="2988pt" height="956pt"
 viewBox="0.00 0.00 2987.68 956.00" xmlns="http://www.w3.org/2000/svg" xmlns:xlink="http://www.w3.org/1999/xlink">
<g id="graph0" class="graph" transform="scale(1 1) rotate(0) translate(4 952)">
<title>G</title>
<polygon fill="white" stroke="none" points="-4,4 -4,-952 2983.68,-952 2983.68,4 -4,4"/>
<!-- 1403 -->
<g id="node1" class="node"><title>1403</title>
<polygon fill="none" stroke="black" points="677,-948 577,-948 577,-912 677,-912 677,-948"/>
<text text-anchor="middle" x="627" y="-926.3" font-family="Times,serif" font-size="14.00">1403: /bin/ping</text>
</g>
<!-- 1336 -->
<g id="node2" class="node"><title>1336</title>
<polygon fill="none" stroke="black" points="906,-861 766,-861 766,-825 906,-825 906,-861"/>
<text text-anchor="middle" x="836" y="-839.3" font-family="Times,serif" font-size="14.00">1336: /usr/bin/python3</text>
</g>
<!-- 1403&#45;&gt;1336 -->
<g id="edge1" class="edge"><title>1403&#45;&gt;1336</title>
<path fill="none" stroke="black" d="M660.935,-911.79C681.525,-901.652 708.476,-888.913 733,-879 745.681,-873.874 759.43,-868.847 772.628,-864.273"/>
<polygon fill="black" stroke="black" points="773.789,-867.576 782.118,-861.028 771.524,-860.952 773.789,-867.576"/>
<text text-anchor="middle" x="750" y="-882.8" font-family="Times,serif" font-size="14.00">58675</text>
</g>
<!-- 1238 -->
<g id="node29" class="node"><title>1238</title>
<ellipse fill="none" stroke="black" cx="254" cy="-540" rx="72.2875" ry="18"/>
<text text-anchor="middle" x="254" y="-536.3" font-family="Times,serif" font-size="14.00">1238: /dev/pts/11</text>
</g>
<!-- 1403&#45;&gt;1238 -->
<g id="edge48" class="edge"><title>1403&#45;&gt;1238</title>
<path fill="none" stroke="black" d="M576.75,-927.453C427.965,-922.211 0,-902.083 0,-844 0,-844 0,-844 0,-647 0,-571.243 97.4199,-548.665 171.594,-542.453"/>
<polygon fill="black" stroke="black" points="172.183,-545.918 181.893,-541.681 171.66,-538.938 172.183,-545.918"/>
<text text-anchor="middle" x="17" y="-752.3" font-family="Times,serif" font-size="14.00">58692</text>
</g>
<!-- 1336&#45;&gt;1403 -->
<g id="edge15" class="edge"><title>1336&#45;&gt;1403</title>
<path fill="none" stroke="black" d="M816.824,-861.217C803.674,-872.148 785.347,-885.743 767,-894 735.998,-907.952 723.688,-903.735 687.026,-911.946"/>
<polygon fill="black" stroke="black" points="686.059,-908.579 677.154,-914.32 687.696,-915.385 686.059,-908.579"/>
<text text-anchor="middle" x="809" y="-882.8" font-family="Times,serif" font-size="14.00">58674</text>
</g>
<!-- 1437 -->
<g id="node3" class="node"><title>1437</title>
<polygon fill="none" stroke="black" points="781,-774 681,-774 681,-738 781,-738 781,-774"/>
<text text-anchor="middle" x="731" y="-752.3" font-family="Times,serif" font-size="14.00">1437: /bin/ping</text>
</g>
<!-- 1336&#45;&gt;1437 -->
<g id="edge8" class="edge"><title>1336&#45;&gt;1437</title>
<path fill="none" stroke="black" d="M765.633,-827.598C755.077,-822.636 745.301,-815.966 738,-807 732.843,-800.667 730.513,-792.321 729.634,-784.266"/>
<polygon fill="black" stroke="black" points="733.121,-783.881 729.201,-774.038 726.128,-784.178 733.121,-783.881"/>
<text text-anchor="middle" x="755" y="-795.8" font-family="Times,serif" font-size="14.00">60620</text>
</g>
<!-- 1237 -->
<g id="node4" class="node"><title>1237</title>
<polygon fill="none" stroke="black" points="308.5,-774 207.5,-774 207.5,-738 308.5,-738 308.5,-774"/>
<text text-anchor="middle" x="258" y="-752.3" font-family="Times,serif" font-size="14.00">1237: /bin/bash</text>
</g>
<!-- 1336&#45;&gt;1237 -->
<g id="edge17" class="edge"><title>1336&#45;&gt;1237</title>
<path fill="none" stroke="black" d="M765.958,-842.313C622.576,-842.295 305.947,-838.626 269,-807 262.471,-801.412 259.305,-792.912 257.893,-784.498"/>
<polygon fill="black" stroke="black" points="261.371,-784.098 256.932,-774.478 254.403,-784.766 261.371,-784.098"/>
<text text-anchor="middle" x="286" y="-795.8" font-family="Times,serif" font-size="14.00">56334</text>
</g>
<!-- 1391 -->
<g id="node5" class="node"><title>1391</title>
<polygon fill="none" stroke="black" points="663,-774 563,-774 563,-738 663,-738 663,-774"/>
<text text-anchor="middle" x="613" y="-752.3" font-family="Times,serif" font-size="14.00">1391: /bin/ping</text>
</g>
<!-- 1336&#45;&gt;1391 -->
<g id="edge18" class="edge"><title>1336&#45;&gt;1391</title>
<path fill="none" stroke="black" d="M765.993,-829.297C742.597,-823.864 716.71,-816.531 694,-807 676.964,-799.85 659.36,-789.41 644.932,-779.916"/>
<polygon fill="black" stroke="black" points="646.643,-776.848 636.394,-774.165 642.733,-782.654 646.643,-776.848"/>
<text text-anchor="middle" x="711" y="-795.8" font-family="Times,serif" font-size="14.00">58452</text>
</g>
<!-- 1661 -->
<g id="node6" class="node"><title>1661</title>
<polygon fill="none" stroke="black" points="1812.5,-612 1725.5,-612 1725.5,-576 1812.5,-576 1812.5,-612"/>
<text text-anchor="middle" x="1769" y="-590.3" font-family="Times,serif" font-size="14.00">1661: &lt;NA&gt;</text>
</g>
<!-- 1336&#45;&gt;1661 -->
<g id="edge10" class="edge"><title>1336&#45;&gt;1661</title>
<path fill="none" stroke="black" d="M906.358,-841.238C1032.38,-839.247 1291.53,-832.136 1378,-807 1456.6,-784.153 1628.72,-668.399 1701,-630 1709.18,-625.654 1717.95,-621.078 1726.39,-616.719"/>
<polygon fill="black" stroke="black" points="1728.07,-619.787 1735.36,-612.096 1724.87,-613.564 1728.07,-619.787"/>
<text text-anchor="middle" x="1536" y="-752.3" font-family="Times,serif" font-size="14.00">70326</text>
</g>
<!-- 1653 -->
<g id="node9" class="node"><title>1653</title>
<polygon fill="none" stroke="black" points="2379.5,-720 2292.5,-720 2292.5,-684 2379.5,-684 2379.5,-720"/>
<text text-anchor="middle" x="2336" y="-698.3" font-family="Times,serif" font-size="14.00">1653: &lt;NA&gt;</text>
</g>
<!-- 1336&#45;&gt;1653 -->
<g id="edge13" class="edge"><title>1336&#45;&gt;1653</title>
<path fill="none" stroke="black" d="M906.168,-842.15C1054.81,-841.817 1412.22,-837.578 1710,-807 1923.4,-785.087 2174.34,-736.34 2282.24,-714.258"/>
<polygon fill="black" stroke="black" points="2283.14,-717.647 2292.23,-712.206 2281.74,-710.79 2283.14,-717.647"/>
<text text-anchor="middle" x="1851" y="-795.8" font-family="Times,serif" font-size="14.00">70309</text>
</g>
<!-- 1435 -->
<g id="node10" class="node"><title>1435</title>
<polygon fill="none" stroke="black" points="189,-774 89,-774 89,-738 189,-738 189,-774"/>
<text text-anchor="middle" x="139" y="-752.3" font-family="Times,serif" font-size="14.00">1435: /bin/ping</text>
</g>
<!-- 1336&#45;&gt;1435 -->
<g id="edge9" class="edge"><title>1336&#45;&gt;1435</title>
<path fill="none" stroke="black" d="M765.956,-840.895C594.544,-837.865 166.271,-828.203 144,-807 137.958,-801.248 135.732,-792.817 135.315,-784.51"/>
<polygon fill="black" stroke="black" points="138.82,-784.361 135.602,-774.267 131.823,-784.165 138.82,-784.361"/>
<text text-anchor="middle" x="161" y="-795.8" font-family="Times,serif" font-size="14.00">60587</text>
</g>
<!-- 1379 -->
<g id="node11" class="node"><title>1379</title>
<polygon fill="none" stroke="black" points="427,-774 327,-774 327,-738 427,-738 427,-774"/>
<text text-anchor="middle" x="377" y="-752.3" font-family="Times,serif" font-size="14.00">1379: /bin/ping</text>
</g>
<!-- 1336&#45;&gt;1379 -->
<g id="edge11" class="edge"><title>1336&#45;&gt;1379</title>
<path fill="none" stroke="black" d="M765.974,-841.582C644.82,-840.145 406.445,-833.89 380,-807 374.169,-801.071 372.276,-792.595 372.192,-784.302"/>
<polygon fill="black" stroke="black" points="375.699,-784.317 372.893,-774.101 368.715,-783.837 375.699,-784.317"/>
<text text-anchor="middle" x="397" y="-795.8" font-family="Times,serif" font-size="14.00">57475</text>
</g>
<!-- 1440 -->
<g id="node12" class="node"><title>1440</title>
<polygon fill="none" stroke="black" points="545,-774 445,-774 445,-738 545,-738 545,-774"/>
<text text-anchor="middle" x="495" y="-752.3" font-family="Times,serif" font-size="14.00">1440: /bin/ping</text>
</g>
<!-- 1336&#45;&gt;1440 -->
<g id="edge12" class="edge"><title>1336&#45;&gt;1440</title>
<path fill="none" stroke="black" d="M765.661,-839.723C671.117,-835.927 512.77,-826.687 495,-807 489.52,-800.929 488.074,-792.554 488.434,-784.393"/>
<polygon fill="black" stroke="black" points="491.921,-784.718 489.69,-774.36 484.975,-783.848 491.921,-784.718"/>
<text text-anchor="middle" x="512" y="-795.8" font-family="Times,serif" font-size="14.00">60657</text>
</g>
<!-- 1566 -->
<g id="node13" class="node"><title>1566</title>
<polygon fill="none" stroke="black" points="1392.5,-774 1305.5,-774 1305.5,-738 1392.5,-738 1392.5,-774"/>
<text text-anchor="middle" x="1349" y="-752.3" font-family="Times,serif" font-size="14.00">1566: &lt;NA&gt;</text>
</g>
<!-- 1336&#45;&gt;1566 -->
<g id="edge14" class="edge"><title>1336&#45;&gt;1566</title>
<path fill="none" stroke="black" d="M906.431,-840.961C1034.05,-838.5 1293.47,-830.624 1327,-807 1334.77,-801.524 1339.83,-792.667 1343.11,-783.918"/>
<polygon fill="black" stroke="black" points="1346.48,-784.86 1346.11,-774.272 1339.8,-782.785 1346.48,-784.86"/>
<text text-anchor="middle" x="1357" y="-795.8" font-family="Times,serif" font-size="14.00">66391</text>
</g>
<!-- 1401 -->
<g id="node14" class="node"><title>1401</title>
<polygon fill="none" stroke="black" points="932,-774 832,-774 832,-738 932,-738 932,-774"/>
<text text-anchor="middle" x="882" y="-752.3" font-family="Times,serif" font-size="14.00">1401: /bin/ping</text>
</g>
<!-- 1336&#45;&gt;1401 -->
<g id="edge16" class="edge"><title>1336&#45;&gt;1401</title>
<path fill="none" stroke="black" d="M857.109,-824.771C862.336,-819.559 867.451,-813.482 871,-807 874.815,-800.032 877.307,-791.836 878.935,-784.117"/>
<polygon fill="black" stroke="black" points="882.421,-784.497 880.662,-774.049 875.522,-783.313 882.421,-784.497"/>
<text text-anchor="middle" x="894" y="-795.8" font-family="Times,serif" font-size="14.00">58643</text>
</g>
<!-- 1405 -->
<g id="node15" class="node"><title>1405</title>
<polygon fill="none" stroke="black" points="1050,-774 950,-774 950,-738 1050,-738 1050,-774"/>
<text text-anchor="middle" x="1000" y="-752.3" font-family="Times,serif" font-size="14.00">1405: /bin/ping</text>
</g>
<!-- 1336&#45;&gt;1405 -->
<g id="edge19" class="edge"><title>1336&#45;&gt;1405</title>
<path fill="none" stroke="black" d="M906.032,-832.401C938.803,-826.578 973.196,-818.108 985,-807 991.381,-800.995 995.082,-792.394 997.217,-784.014"/>
<polygon fill="black" stroke="black" points="1000.67,-784.572 999.119,-774.091 993.799,-783.254 1000.67,-784.572"/>
<text text-anchor="middle" x="1012" y="-795.8" font-family="Times,serif" font-size="14.00">58705</text>
</g>
<!-- 1393 -->
<g id="node16" class="node"><title>1393</title>
<polygon fill="none" stroke="black" points="1168,-774 1068,-774 1068,-738 1168,-738 1168,-774"/>
<text text-anchor="middle" x="1118" y="-752.3" font-family="Times,serif" font-size="14.00">1393: /bin/ping</text>
</g>
<!-- 1336&#45;&gt;1393 -->
<g id="edge20" class="edge"><title>1336&#45;&gt;1393</title>
<path fill="none" stroke="black" d="M906.081,-840.618C973.706,-837.908 1069.98,-829.99 1099,-807 1106.22,-801.28 1110.7,-792.487 1113.47,-783.86"/>
<polygon fill="black" stroke="black" points="1116.91,-784.561 1116.01,-774.004 1110.13,-782.814 1116.91,-784.561"/>
<text text-anchor="middle" x="1128" y="-795.8" font-family="Times,serif" font-size="14.00">58506</text>
</g>
<!-- 1351 -->
<g id="node17" class="node"><title>1351</title>
<polygon fill="none" stroke="black" points="1286,-774 1186,-774 1186,-738 1286,-738 1286,-774"/>
<text text-anchor="middle" x="1236" y="-752.3" font-family="Times,serif" font-size="14.00">1351: /bin/ping</text>
</g>
<!-- 1336&#45;&gt;1351 -->
<g id="edge21" class="edge"><title>1336&#45;&gt;1351</title>
<path fill="none" stroke="black" d="M906.173,-839.25C1008.34,-834.682 1188.59,-824.283 1213,-807 1220.82,-801.464 1226.04,-792.594 1229.5,-783.852"/>
<polygon fill="black" stroke="black" points="1232.87,-784.813 1232.7,-774.22 1226.23,-782.604 1232.87,-784.813"/>
<text text-anchor="middle" x="1243" y="-795.8" font-family="Times,serif" font-size="14.00">56453</text>
</g>
<!-- 1437&#45;&gt;1336 -->
<g id="edge2" class="edge"><title>1437&#45;&gt;1336</title>
<path fill="none" stroke="black" d="M751.83,-774.2C763.59,-783.879 778.576,-796.161 792,-807 796.67,-810.771 801.636,-814.751 806.486,-818.62"/>
<polygon fill="black" stroke="black" points="804.462,-821.483 814.465,-824.973 808.822,-816.006 804.462,-821.483"/>
<text text-anchor="middle" x="809" y="-795.8" font-family="Times,serif" font-size="14.00">60621</text>
</g>
<!-- 1438 -->
<g id="node25" class="node"><title>1438</title>
<polygon fill="none" stroke="black" points="970.228,-666 498.995,-666 377.772,-630 849.005,-630 970.228,-666"/>
<text text-anchor="middle" x="674" y="-644.3" font-family="Times,serif" font-size="14.00">1438: 129.22.31.135/32:43844&#45;&gt;129.22.104.25/32:53</text>
</g>
<!-- 1437&#45;&gt;1438 -->
<g id="edge64" class="edge"><title>1437&#45;&gt;1438</title>
<path fill="none" stroke="black" d="M688.361,-737.808C681.413,-733.084 675.144,-727.215 671,-720 663.508,-706.956 663.833,-690.233 666.228,-676.293"/>
<polygon fill="black" stroke="black" points="669.7,-676.793 668.368,-666.283 662.855,-675.33 669.7,-676.793"/>
<text text-anchor="middle" x="688" y="-698.3" font-family="Times,serif" font-size="14.00">60646</text>
</g>
<!-- 1437&#45;&gt;1238 -->
<g id="edge56" class="edge"><title>1437&#45;&gt;1238</title>
<path fill="none" stroke="black" d="M680.853,-740.292C677.863,-739.496 674.895,-738.725 672,-738 523.435,-700.775 461.133,-752.878 335,-666 316.392,-653.183 285.445,-599.619 267.675,-566.909"/>
<polygon fill="black" stroke="black" points="270.644,-565.038 262.823,-557.891 264.479,-568.355 270.644,-565.038"/>
<text text-anchor="middle" x="352" y="-644.3" font-family="Times,serif" font-size="14.00">60638</text>
</g>
<!-- 1237&#45;&gt;1336 -->
<g id="edge3" class="edge"><title>1237&#45;&gt;1336</title>
<path fill="none" stroke="black" d="M278.365,-774.132C293.3,-785.627 314.624,-799.917 336,-807 411.547,-832.032 634.407,-839.161 755.492,-841.192"/>
<polygon fill="black" stroke="black" points="755.759,-844.696 765.814,-841.356 755.871,-837.697 755.759,-844.696"/>
<text text-anchor="middle" x="353" y="-795.8" font-family="Times,serif" font-size="14.00">56333</text>
</g>
<!-- 1391&#45;&gt;1336 -->
<g id="edge4" class="edge"><title>1391&#45;&gt;1336</title>
<path fill="none" stroke="black" d="M605.965,-774.208C602.855,-784.858 601.403,-798.142 609,-807 627.826,-828.951 698.186,-837.263 755.643,-840.345"/>
<polygon fill="black" stroke="black" points="755.679,-843.851 765.838,-840.846 756.022,-836.86 755.679,-843.851"/>
<text text-anchor="middle" x="626" y="-795.8" font-family="Times,serif" font-size="14.00">58453</text>
</g>
<!-- 1391&#45;&gt;1238 -->
<g id="edge58" class="edge"><title>1391&#45;&gt;1238</title>
<path fill="none" stroke="black" d="M562.954,-739.819C559.939,-739.142 556.938,-738.527 554,-738 500.92,-728.484 359.53,-745.474 312,-720 258.894,-691.537 252.204,-611.17 252.614,-568.466"/>
<polygon fill="black" stroke="black" points="256.118,-568.309 252.856,-558.229 249.12,-568.143 256.118,-568.309"/>
<text text-anchor="middle" x="284" y="-644.3" font-family="Times,serif" font-size="14.00">58470</text>
</g>
<!-- 1661&#45;&gt;1336 -->
<g id="edge6" class="edge"><title>1661&#45;&gt;1336</title>
<path fill="none" stroke="black" d="M1754.12,-612.085C1715.99,-654.479 1609.59,-764.156 1494,-807 1441.14,-826.593 1079.55,-836.764 916.017,-840.407"/>
<polygon fill="black" stroke="black" points="915.931,-836.908 906.01,-840.627 916.085,-843.906 915.931,-836.908"/>
<text text-anchor="middle" x="1631" y="-752.3" font-family="Times,serif" font-size="14.00">70327</text>
</g>
<!-- 1663 -->
<g id="node7" class="node"><title>1663</title>
<polygon fill="none" stroke="black" points="2416,-297 2276,-297 2276,-261 2416,-261 2416,-297"/>
<text text-anchor="middle" x="2346" y="-275.3" font-family="Times,serif" font-size="14.00">1663: /usr/bin/python3</text>
</g>
<!-- 1661&#45;&gt;1663 -->
<g id="edge5" class="edge"><title>1661&#45;&gt;1663</title>
<path fill="none" stroke="black" d="M1812.66,-593.457C1937.84,-594.332 2291.32,-593.599 2328,-558 2363.1,-523.927 2353.97,-370.107 2348.59,-307.071"/>
<polygon fill="black" stroke="black" points="2352.07,-306.734 2347.7,-297.083 2345.1,-307.353 2352.07,-306.734"/>
<text text-anchor="middle" x="2370" y="-449.3" font-family="Times,serif" font-size="14.00">70330</text>
</g>
<!-- 1663&#45;&gt;1661 -->
<g id="edge36" class="edge"><title>1663&#45;&gt;1661</title>
<path fill="none" stroke="black" d="M2275.77,-284.593C2136.57,-294.641 1839,-321.24 1839,-365 1839,-497.5 1839,-497.5 1839,-497.5 1839,-525.684 1836.76,-535.341 1820,-558 1816.89,-562.209 1813.11,-566.084 1809.04,-569.6"/>
<polygon fill="black" stroke="black" points="1806.67,-567.007 1800.93,-575.912 1810.97,-572.53 1806.67,-567.007"/>
<text text-anchor="middle" x="1856" y="-449.3" font-family="Times,serif" font-size="14.00">70331</text>
</g>
<!-- 1666 -->
<g id="node18" class="node"><title>1666</title>
<polygon fill="none" stroke="black" points="2335.5,-210 2248.5,-210 2248.5,-174 2335.5,-174 2335.5,-210"/>
<text text-anchor="middle" x="2292" y="-188.3" font-family="Times,serif" font-size="14.00">1666: &lt;NA&gt;</text>
</g>
<!-- 1663&#45;&gt;1666 -->
<g id="edge37" class="edge"><title>1663&#45;&gt;1666</title>
<path fill="none" stroke="black" d="M2291.04,-260.99C2283.49,-256.336 2276.71,-250.444 2272,-243 2267.4,-235.733 2268.69,-227.232 2272.23,-219.322"/>
<polygon fill="black" stroke="black" points="2275.38,-220.855 2277.2,-210.417 2269.27,-217.442 2275.38,-220.855"/>
<text text-anchor="middle" x="2289" y="-231.8" font-family="Times,serif" font-size="14.00">70411</text>
</g>
<!-- 1672 -->
<g id="node19" class="node"><title>1672</title>
<polygon fill="none" stroke="black" points="2444.5,-210 2357.5,-210 2357.5,-174 2444.5,-174 2444.5,-210"/>
<text text-anchor="middle" x="2401" y="-188.3" font-family="Times,serif" font-size="14.00">1672: &lt;NA&gt;</text>
</g>
<!-- 1663&#45;&gt;1672 -->
<g id="edge38" class="edge"><title>1663&#45;&gt;1672</title>
<path fill="none" stroke="black" d="M2353.81,-260.827C2358.58,-250.936 2365.08,-238.436 2372,-228 2374.19,-224.692 2376.65,-221.332 2379.17,-218.068"/>
<polygon fill="black" stroke="black" points="2381.93,-220.221 2385.49,-210.24 2376.48,-215.826 2381.93,-220.221"/>
<text text-anchor="middle" x="2389" y="-231.8" font-family="Times,serif" font-size="14.00">70498</text>
</g>
<!-- 1656 -->
<g id="node8" class="node"><title>1656</title>
<polygon fill="none" stroke="black" points="2492,-471 2398,-471 2398,-435 2492,-435 2492,-471"/>
<text text-anchor="middle" x="2445" y="-449.3" font-family="Times,serif" font-size="14.00">1656: /bin/mv</text>
</g>
<!-- 1656&#45;&gt;1653 -->
<g id="edge7" class="edge"><title>1656&#45;&gt;1653</title>
<path fill="none" stroke="black" d="M2436.86,-471.302C2425.82,-494.883 2405.56,-538.476 2389,-576 2374.04,-609.886 2357.48,-649.27 2346.92,-674.635"/>
<polygon fill="black" stroke="black" points="2343.65,-673.371 2343.04,-683.949 2350.11,-676.058 2343.65,-673.371"/>
<text text-anchor="middle" x="2406" y="-590.3" font-family="Times,serif" font-size="14.00">70314</text>
</g>
<!-- 1659 -->
<g id="node27" class="node"><title>1659</title>
<ellipse fill="none" stroke="black" cx="2594" cy="-366" rx="219.861" ry="18"/>
<text text-anchor="middle" x="2594" y="-362.3" font-family="Times,serif" font-size="14.00">1659: /home/feishao/sysrep_test_temp/call_others.py?dl=0</text>
</g>
<!-- 1656&#45;&gt;1659 -->
<g id="edge47" class="edge"><title>1656&#45;&gt;1659</title>
<path fill="none" stroke="black" d="M2475.15,-434.799C2498.33,-421.578 2530.5,-403.223 2555.53,-388.944"/>
<polygon fill="black" stroke="black" points="2557.45,-391.881 2564.4,-383.885 2553.98,-385.8 2557.45,-391.881"/>
<text text-anchor="middle" x="2545" y="-405.8" font-family="Times,serif" font-size="14.00">70325</text>
</g>
<!-- 1653&#45;&gt;1336 -->
<g id="edge25" class="edge"><title>1653&#45;&gt;1336</title>
<path fill="none" stroke="black" d="M2292.42,-716.148C2240.34,-731.526 2150.4,-757.034 2072,-774 1983.95,-793.056 1961.65,-798.127 1872,-807 1686.99,-825.311 1125.77,-836.864 916.128,-840.639"/>
<polygon fill="black" stroke="black" points="916.05,-837.14 906.114,-840.819 916.175,-844.139 916.05,-837.14"/>
<text text-anchor="middle" x="2002" y="-795.8" font-family="Times,serif" font-size="14.00">70310</text>
</g>
<!-- 1653&#45;&gt;1656 -->
<g id="edge24" class="edge"><title>1653&#45;&gt;1656</title>
<path fill="none" stroke="black" d="M2359.97,-683.845C2380.41,-667.772 2408.69,-641.803 2423,-612 2443.35,-569.605 2446.39,-513.936 2446.12,-481.255"/>
<polygon fill="black" stroke="black" points="2449.62,-481.036 2445.92,-471.106 2442.62,-481.172 2449.62,-481.036"/>
<text text-anchor="middle" x="2452" y="-590.3" font-family="Times,serif" font-size="14.00">70313</text>
</g>
<!-- 1435&#45;&gt;1336 -->
<g id="edge28" class="edge"><title>1435&#45;&gt;1336</title>
<path fill="none" stroke="black" d="M160.82,-774.214C176.784,-785.748 199.498,-800.05 222,-807 319.32,-837.058 612.632,-841.753 755.734,-842.195"/>
<polygon fill="black" stroke="black" points="755.764,-845.695 765.773,-842.22 755.782,-838.695 755.764,-845.695"/>
<text text-anchor="middle" x="239" y="-795.8" font-family="Times,serif" font-size="14.00">60588</text>
</g>
<!-- 1435&#45;&gt;1238 -->
<g id="edge57" class="edge"><title>1435&#45;&gt;1238</title>
<path fill="none" stroke="black" d="M115.414,-737.746C87.209,-714.814 45.5031,-672.252 60,-630 69.8674,-601.241 76.3701,-592.357 102,-576 124.167,-561.853 151.389,-553.403 176.64,-548.363"/>
<polygon fill="black" stroke="black" points="177.376,-551.786 186.576,-546.53 176.107,-544.902 177.376,-551.786"/>
<text text-anchor="middle" x="77" y="-644.3" font-family="Times,serif" font-size="14.00">60605</text>
</g>
<!-- 1379&#45;&gt;1336 -->
<g id="edge22" class="edge"><title>1379&#45;&gt;1336</title>
<path fill="none" stroke="black" d="M396.218,-774.005C410.339,-785.441 430.553,-799.711 451,-807 505.211,-826.325 659.575,-835.465 755.573,-839.394"/>
<polygon fill="black" stroke="black" points="755.695,-842.902 765.826,-839.803 755.974,-835.907 755.695,-842.902"/>
<text text-anchor="middle" x="468" y="-795.8" font-family="Times,serif" font-size="14.00">57476</text>
</g>
<!-- 1379&#45;&gt;1238 -->
<g id="edge60" class="edge"><title>1379&#45;&gt;1238</title>
<path fill="none" stroke="black" d="M326.722,-740.153C323.445,-739.372 320.183,-738.645 317,-738 253.353,-725.111 228.464,-752.077 172,-720 145.563,-704.982 139.867,-694.759 130,-666 115.675,-624.248 137.037,-602.945 172,-576 180.824,-569.2 191.167,-563.457 201.478,-558.715"/>
<polygon fill="black" stroke="black" points="203.107,-561.823 210.894,-554.639 200.326,-555.399 203.107,-561.823"/>
<text text-anchor="middle" x="147" y="-644.3" font-family="Times,serif" font-size="14.00">58444</text>
</g>
<!-- 1440&#45;&gt;1336 -->
<g id="edge34" class="edge"><title>1440&#45;&gt;1336</title>
<path fill="none" stroke="black" d="M513.698,-774.022C527.218,-785.31 546.472,-799.398 566,-807 626.852,-830.689 700.657,-839.003 755.713,-841.638"/>
<polygon fill="black" stroke="black" points="755.628,-845.137 765.768,-842.066 755.926,-838.143 755.628,-845.137"/>
<text text-anchor="middle" x="583" y="-795.8" font-family="Times,serif" font-size="14.00">60658</text>
</g>
<!-- 1440&#45;&gt;1238 -->
<g id="edge61" class="edge"><title>1440&#45;&gt;1238</title>
<path fill="none" stroke="black" d="M444.942,-739.883C441.93,-739.189 438.933,-738.554 436,-738 393.455,-729.971 279.972,-740.8 242,-720 203.287,-698.794 188.112,-672.51 200,-630 206.59,-606.433 221.315,-582.899 233.726,-565.955"/>
<polygon fill="black" stroke="black" points="236.707,-567.817 239.95,-557.73 231.125,-563.593 236.707,-567.817"/>
<text text-anchor="middle" x="217" y="-644.3" font-family="Times,serif" font-size="14.00">60675</text>
</g>
<!-- 1566&#45;&gt;1336 -->
<g id="edge32" class="edge"><title>1566&#45;&gt;1336</title>
<path fill="none" stroke="black" d="M1319.66,-774.018C1309.89,-779.709 1298.96,-786.105 1289,-792 1277.85,-798.598 1276.34,-803.035 1264,-807 1201.49,-827.092 1022.39,-836.105 916.726,-839.773"/>
<polygon fill="black" stroke="black" points="916.297,-836.285 906.422,-840.122 916.534,-843.281 916.297,-836.285"/>
<text text-anchor="middle" x="1306" y="-795.8" font-family="Times,serif" font-size="14.00">66392</text>
</g>
<!-- 1569 -->
<g id="node21" class="node"><title>1569</title>
<polygon fill="none" stroke="black" points="1429,-666 1307,-666 1307,-630 1429,-630 1429,-666"/>
<text text-anchor="middle" x="1368" y="-644.3" font-family="Times,serif" font-size="14.00">1569: /usr/bin/wget</text>
</g>
<!-- 1566&#45;&gt;1569 -->
<g id="edge31" class="edge"><title>1566&#45;&gt;1569</title>
<path fill="none" stroke="black" d="M1352.05,-737.969C1355.03,-721.378 1359.6,-695.883 1363.08,-676.431"/>
<polygon fill="black" stroke="black" points="1366.57,-676.801 1364.89,-666.341 1359.68,-675.566 1366.57,-676.801"/>
<text text-anchor="middle" x="1379" y="-698.3" font-family="Times,serif" font-size="14.00">66395</text>
</g>
<!-- 1401&#45;&gt;1336 -->
<g id="edge26" class="edge"><title>1401&#45;&gt;1336</title>
<path fill="none" stroke="black" d="M848.784,-774.099C842.431,-778.981 836.636,-784.935 833,-792 829.444,-798.911 828.736,-807.09 829.322,-814.811"/>
<polygon fill="black" stroke="black" points="825.884,-815.493 830.776,-824.891 832.812,-814.494 825.884,-815.493"/>
<text text-anchor="middle" x="850" y="-795.8" font-family="Times,serif" font-size="14.00">58644</text>
</g>
<!-- 1401&#45;&gt;1238 -->
<g id="edge49" class="edge"><title>1401&#45;&gt;1238</title>
<path fill="none" stroke="black" d="M911.943,-737.824C951.293,-713.162 1011.78,-666.652 979,-630 883.154,-522.823 477.992,-580.618 336,-558 329.44,-556.955 322.61,-555.742 315.815,-554.453"/>
<polygon fill="black" stroke="black" points="316.406,-551.002 305.92,-552.523 315.065,-557.873 316.406,-551.002"/>
<text text-anchor="middle" x="1006" y="-644.3" font-family="Times,serif" font-size="14.00">58661</text>
</g>
<!-- 1405&#45;&gt;1336 -->
<g id="edge27" class="edge"><title>1405&#45;&gt;1336</title>
<path fill="none" stroke="black" d="M972.885,-774.025C956.409,-784.098 934.799,-796.833 915,-807 905.797,-811.725 895.82,-816.445 886.154,-820.818"/>
<polygon fill="black" stroke="black" points="884.723,-817.624 877.016,-824.895 887.574,-824.017 884.723,-817.624"/>
<text text-anchor="middle" x="959" y="-795.8" font-family="Times,serif" font-size="14.00">58706</text>
</g>
<!-- 1405&#45;&gt;1238 -->
<g id="edge55" class="edge"><title>1405&#45;&gt;1238</title>
<path fill="none" stroke="black" d="M1011.02,-737.912C1025.84,-712.539 1048.06,-664.223 1027,-630 999.08,-584.635 971.624,-589.132 920,-576 794.168,-543.991 464.942,-573.236 336,-558 329.112,-557.186 321.944,-556.085 314.84,-554.833"/>
<polygon fill="black" stroke="black" points="314.988,-551.3 304.516,-552.905 313.703,-558.181 314.988,-551.3"/>
<text text-anchor="middle" x="1053" y="-644.3" font-family="Times,serif" font-size="14.00">60579</text>
</g>
<!-- 1393&#45;&gt;1336 -->
<g id="edge33" class="edge"><title>1393&#45;&gt;1336</title>
<path fill="none" stroke="black" d="M1089.89,-774.204C1067.55,-787.767 1039.06,-804.761 1033,-807 995.917,-820.695 952.874,-829.131 916.498,-834.277"/>
<polygon fill="black" stroke="black" points="915.864,-830.83 906.425,-835.642 916.805,-837.767 915.864,-830.83"/>
<text text-anchor="middle" x="1076" y="-795.8" font-family="Times,serif" font-size="14.00">58507</text>
</g>
<!-- 1393&#45;&gt;1238 -->
<g id="edge59" class="edge"><title>1393&#45;&gt;1238</title>
<path fill="none" stroke="black" d="M1115.79,-737.789C1111.68,-711.824 1100.7,-662.251 1074,-630 1043.52,-593.186 1026.97,-589.07 981,-576 912.038,-556.395 407.211,-566.309 336,-558 329.111,-557.196 321.943,-556.102 314.837,-554.853"/>
<polygon fill="black" stroke="black" points="314.985,-551.32 304.513,-552.928 313.702,-558.201 314.985,-551.32"/>
<text text-anchor="middle" x="1113" y="-644.3" font-family="Times,serif" font-size="14.00">58546</text>
</g>
<!-- 1351&#45;&gt;1336 -->
<g id="edge39" class="edge"><title>1351&#45;&gt;1336</title>
<path fill="none" stroke="black" d="M1206.21,-774.076C1196.28,-779.771 1185.16,-786.155 1175,-792 1163.44,-798.653 1161.67,-802.837 1149,-807 1072.57,-832.102 980.604,-839.911 916.208,-842.013"/>
<polygon fill="black" stroke="black" points="916.012,-838.518 906.116,-842.304 916.213,-845.515 916.012,-838.518"/>
<text text-anchor="middle" x="1192" y="-795.8" font-family="Times,serif" font-size="14.00">56454</text>
</g>
<!-- 1351&#45;&gt;1238 -->
<g id="edge63" class="edge"><title>1351&#45;&gt;1238</title>
<path fill="none" stroke="black" d="M1225.21,-737.846C1208.27,-711.956 1173.29,-662.479 1134,-630 1095.07,-597.819 1082.81,-589.008 1034,-576 959.035,-556.021 413.068,-566.91 336,-558 329.11,-557.203 321.941,-556.114 314.836,-554.867"/>
<polygon fill="black" stroke="black" points="314.983,-551.334 304.511,-552.945 313.702,-558.216 314.983,-551.334"/>
<text text-anchor="middle" x="1187" y="-644.3" font-family="Times,serif" font-size="14.00">56471</text>
</g>
<!-- 1666&#45;&gt;1663 -->
<g id="edge23" class="edge"><title>1666&#45;&gt;1663</title>
<path fill="none" stroke="black" d="M2300.34,-210.058C2305.37,-219.911 2312.12,-232.411 2319,-243 2321.09,-246.214 2323.39,-249.506 2325.74,-252.723"/>
<polygon fill="black" stroke="black" points="2323.14,-255.094 2331.97,-260.959 2328.73,-250.872 2323.14,-255.094"/>
<text text-anchor="middle" x="2336" y="-231.8" font-family="Times,serif" font-size="14.00">70412</text>
</g>
<!-- 1672&#45;&gt;1663 -->
<g id="edge29" class="edge"><title>1672&#45;&gt;1663</title>
<path fill="none" stroke="black" d="M2409.64,-210.246C2413.44,-220.398 2415.85,-233.137 2410,-243 2407.36,-247.448 2403.94,-251.367 2400.05,-254.813"/>
<polygon fill="black" stroke="black" points="2397.92,-252.037 2392.07,-260.872 2402.15,-257.612 2397.92,-252.037"/>
<text text-anchor="middle" x="2430" y="-231.8" font-family="Times,serif" font-size="14.00">70499</text>
</g>
<!-- 1674 -->
<g id="node20" class="node"><title>1674</title>
<polygon fill="none" stroke="black" points="2528,-123 2388,-123 2388,-87 2528,-87 2528,-123"/>
<text text-anchor="middle" x="2458" y="-101.3" font-family="Times,serif" font-size="14.00">1674: /usr/bin/python3</text>
</g>
<!-- 1672&#45;&gt;1674 -->
<g id="edge30" class="edge"><title>1672&#45;&gt;1674</title>
<path fill="none" stroke="black" d="M2420.56,-173.988C2426.01,-168.604 2431.63,-162.383 2436,-156 2440.89,-148.845 2445.1,-140.425 2448.48,-132.556"/>
<polygon fill="black" stroke="black" points="2451.83,-133.603 2452.32,-123.019 2445.34,-130.991 2451.83,-133.603"/>
<text text-anchor="middle" x="2461" y="-144.8" font-family="Times,serif" font-size="14.00">70502</text>
</g>
<!-- 1674&#45;&gt;1672 -->
<g id="edge35" class="edge"><title>1674&#45;&gt;1672</title>
<path fill="none" stroke="black" d="M2415.36,-123.192C2408.41,-127.916 2402.14,-133.785 2398,-141 2394.13,-147.74 2393.33,-155.868 2393.92,-163.593"/>
<polygon fill="black" stroke="black" points="2390.5,-164.342 2395.44,-173.71 2397.42,-163.301 2390.5,-164.342"/>
<text text-anchor="middle" x="2415" y="-144.8" font-family="Times,serif" font-size="14.00">70503</text>
</g>
<!-- 1706 -->
<g id="node31" class="node"><title>1706</title>
<ellipse fill="none" stroke="black" cx="2458" cy="-18" rx="139.976" ry="18"/>
<text text-anchor="middle" x="2458" y="-14.3" font-family="Times,serif" font-size="14.00">1706: /home/feishao/sysrep_random</text>
</g>
<!-- 1674&#45;&gt;1706 -->
<g id="edge62" class="edge"><title>1674&#45;&gt;1706</title>
<path fill="none" stroke="black" d="M2458,-86.799C2458,-75.1626 2458,-59.5479 2458,-46.2368"/>
<polygon fill="black" stroke="black" points="2461.5,-46.1754 2458,-36.1754 2454.5,-46.1755 2461.5,-46.1754"/>
<text text-anchor="middle" x="2475" y="-57.8" font-family="Times,serif" font-size="14.00">72549</text>
</g>
<!-- 1578 -->
<g id="node22" class="node"><title>1578</title>
<polygon fill="none" stroke="black" points="1811.23,-558 1340,-558 1218.77,-522 1690,-522 1811.23,-558"/>
<text text-anchor="middle" x="1515" y="-536.3" font-family="Times,serif" font-size="14.00">1578: 129.22.31.135/32:33288&#45;&gt;162.125.6.18/32:443</text>
</g>
<!-- 1569&#45;&gt;1578 -->
<g id="edge53" class="edge"><title>1569&#45;&gt;1578</title>
<path fill="none" stroke="black" d="M1429.23,-641.408C1451.07,-636.602 1474.36,-627.848 1491,-612 1502.98,-600.591 1508.98,-583.002 1511.98,-568.185"/>
<polygon fill="black" stroke="black" points="1515.49,-568.455 1513.69,-558.015 1508.58,-567.3 1515.49,-568.455"/>
<text text-anchor="middle" x="1527" y="-590.3" font-family="Times,serif" font-size="14.00">66454</text>
</g>
<!-- 1644 -->
<g id="node26" class="node"><title>1644</title>
<polygon fill="none" stroke="black" points="937.228,-558 465.995,-558 344.772,-522 816.005,-522 937.228,-558"/>
<text text-anchor="middle" x="641" y="-536.3" font-family="Times,serif" font-size="14.00">1644: 129.22.31.135/32:36352&#45;&gt;162.125.6.15/32:443</text>
</g>
<!-- 1569&#45;&gt;1644 -->
<g id="edge52" class="edge"><title>1569&#45;&gt;1644</title>
<path fill="none" stroke="black" d="M1306.93,-632.37C1294.42,-627.373 1282.03,-620.747 1272,-612 1258.37,-600.106 1268.22,-585.78 1253,-576 1252.1,-575.424 1098.66,-566.649 945.664,-558.031"/>
<polygon fill="black" stroke="black" points="945.77,-554.532 935.589,-557.464 945.376,-561.521 945.77,-554.532"/>
<text text-anchor="middle" x="1289" y="-590.3" font-family="Times,serif" font-size="14.00">70173</text>
</g>
<!-- 1651 -->
<g id="node28" class="node"><title>1651</title>
<ellipse fill="none" stroke="black" cx="2093" cy="-540" rx="225.56" ry="18"/>
<text text-anchor="middle" x="2093" y="-536.3" font-family="Times,serif" font-size="14.00">1651: /home/feishao/sysdigscripts/case1/call_others.py?dl=0</text>
</g>
<!-- 1569&#45;&gt;1651 -->
<g id="edge50" class="edge"><title>1569&#45;&gt;1651</title>
<path fill="none" stroke="black" d="M1429.05,-636.234C1464,-629.794 1508.61,-621.109 1548,-612 1608.08,-598.106 1621.26,-586.658 1682,-576 1726.36,-568.216 1826.35,-559.631 1916.6,-552.912"/>
<polygon fill="black" stroke="black" points="1916.99,-556.393 1926.7,-552.165 1916.47,-549.412 1916.99,-556.393"/>
<text text-anchor="middle" x="1699" y="-590.3" font-family="Times,serif" font-size="14.00">70298</text>
</g>
<!-- 1569&#45;&gt;1238 -->
<g id="edge54" class="edge"><title>1569&#45;&gt;1238</title>
<path fill="none" stroke="black" d="M1306.74,-638.307C1270.72,-632.19 1229.48,-623.122 1215,-612 1200.65,-600.979 1211.39,-585.503 1196,-576 1155.34,-550.898 383.485,-563.373 336,-558 329.109,-557.22 321.938,-556.141 314.832,-554.9"/>
<polygon fill="black" stroke="black" points="314.977,-551.368 304.507,-552.984 313.7,-558.25 314.977,-551.368"/>
<text text-anchor="middle" x="1232" y="-590.3" font-family="Times,serif" font-size="14.00">66516</text>
</g>
<!-- 1575 -->
<g id="node30" class="node"><title>1575</title>
<ellipse fill="none" stroke="black" cx="1078" cy="-540" rx="122.379" ry="18"/>
<text text-anchor="middle" x="1078" y="-536.3" font-family="Times,serif" font-size="14.00">1575: /home/feishao/.wget&#45;hsts</text>
</g>
<!-- 1569&#45;&gt;1575 -->
<g id="edge51" class="edge"><title>1569&#45;&gt;1575</title>
<path fill="none" stroke="black" d="M1373.49,-629.798C1377.42,-613.805 1379.98,-590.353 1367,-576 1343.44,-549.957 1244.86,-562.243 1210,-558 1199,-556.661 1187.49,-555.228 1176.05,-553.782"/>
<polygon fill="black" stroke="black" points="1176.38,-550.296 1166.02,-552.51 1175.5,-557.241 1176.38,-550.296"/>
<text text-anchor="middle" x="1394" y="-590.3" font-family="Times,serif" font-size="14.00">70308</text>
</g>
<!-- 1578&#45;&gt;1569 -->
<g id="edge40" class="edge"><title>1578&#45;&gt;1569</title>
<path fill="none" stroke="black" d="M1482.39,-558.087C1473.74,-563.299 1464.67,-569.411 1457,-576 1441.2,-589.568 1442.85,-598.491 1427,-612 1421.76,-616.463 1415.88,-620.695 1409.92,-624.572"/>
<polygon fill="black" stroke="black" points="1407.84,-621.742 1401.19,-629.984 1411.53,-627.692 1407.84,-621.742"/>
<text text-anchor="middle" x="1474" y="-590.3" font-family="Times,serif" font-size="14.00">66512</text>
</g>
<!-- 1675 -->
<g id="node23" class="node"><title>1675</title>
<ellipse fill="none" stroke="black" cx="2721" cy="-192" rx="258.854" ry="18"/>
<text text-anchor="middle" x="2721" y="-188.3" font-family="Times,serif" font-size="14.00">1675: /home/feishao/sysrep_test_temp/python_write_random_data.py</text>
</g>
<!-- 1675&#45;&gt;1674 -->
<g id="edge41" class="edge"><title>1675&#45;&gt;1674</title>
<path fill="none" stroke="black" d="M2669.35,-174.308C2626.71,-160.525 2566.03,-140.913 2520.62,-126.237"/>
<polygon fill="black" stroke="black" points="2521.47,-122.835 2510.88,-123.09 2519.32,-129.496 2521.47,-122.835"/>
<text text-anchor="middle" x="2622" y="-144.8" font-family="Times,serif" font-size="14.00">70575</text>
</g>
<!-- 1337 -->
<g id="node24" class="node"><title>1337</title>
<ellipse fill="none" stroke="black" cx="882" cy="-930" rx="186.567" ry="18"/>
<text text-anchor="middle" x="882" y="-926.3" font-family="Times,serif" font-size="14.00">1337: /home/feishao/sysdigscripts/case1/case1.py</text>
</g>
<!-- 1337&#45;&gt;1336 -->
<g id="edge42" class="edge"><title>1337&#45;&gt;1336</title>
<path fill="none" stroke="black" d="M872.691,-911.799C866.207,-899.817 857.44,-883.617 850.101,-870.057"/>
<polygon fill="black" stroke="black" points="853.133,-868.304 845.295,-861.175 846.976,-871.636 853.133,-868.304"/>
<text text-anchor="middle" x="879" y="-882.8" font-family="Times,serif" font-size="14.00">56407</text>
</g>
<!-- 1438&#45;&gt;1437 -->
<g id="edge43" class="edge"><title>1438&#45;&gt;1437</title>
<path fill="none" stroke="black" d="M694.388,-666.071C699.736,-671.366 705.093,-677.525 709,-684 717.129,-697.471 722.505,-714.215 725.906,-728.059"/>
<polygon fill="black" stroke="black" points="722.528,-728.989 728.136,-737.978 729.358,-727.454 722.528,-728.989"/>
<text text-anchor="middle" x="741" y="-698.3" font-family="Times,serif" font-size="14.00">60647</text>
</g>
<!-- 1644&#45;&gt;1569 -->
<g id="edge44" class="edge"><title>1644&#45;&gt;1569</title>
<path fill="none" stroke="black" d="M935.366,-557.386C939.268,-557.593 943.148,-557.797 947,-558 987.327,-560.12 1275.94,-554.298 1310,-576 1325.26,-585.723 1317.87,-597.736 1329,-612 1331.85,-615.649 1335.1,-619.23 1338.49,-622.626"/>
<polygon fill="black" stroke="black" points="1336.34,-625.408 1346.02,-629.719 1341.14,-620.314 1336.34,-625.408"/>
<text text-anchor="middle" x="1346" y="-590.3" font-family="Times,serif" font-size="14.00">70175</text>
</g>
<!-- 1659&#45;&gt;1663 -->
<g id="edge45" class="edge"><title>1659&#45;&gt;1663</title>
<path fill="none" stroke="black" d="M2545.59,-348.409C2505.49,-334.665 2448.33,-315.074 2405.45,-300.377"/>
<polygon fill="black" stroke="black" points="2406.58,-297.063 2395.98,-297.131 2404.31,-303.685 2406.58,-297.063"/>
<text text-anchor="middle" x="2501" y="-318.8" font-family="Times,serif" font-size="14.00">70404</text>
</g>
<!-- 1651&#45;&gt;1656 -->
<g id="edge46" class="edge"><title>1651&#45;&gt;1656</title>
<path fill="none" stroke="black" d="M2165.56,-522.939C2224.56,-509.665 2309.87,-489.983 2384,-471 2385.26,-470.678 2386.53,-470.349 2387.81,-470.015"/>
<polygon fill="black" stroke="black" points="2389,-473.323 2397.76,-467.376 2387.2,-466.556 2389,-473.323"/>
<text text-anchor="middle" x="2321" y="-492.8" font-family="Times,serif" font-size="14.00">70324</text>
</g>
</g>
</svg>
