<?xml version="1.0" encoding="UTF-8" standalone="no"?>
<!DOCTYPE svg PUBLIC "-//W3C//DTD SVG 1.1//EN"
 "http://www.w3.org/Graphics/SVG/1.1/DTD/svg11.dtd">
<!-- Generated by graphviz version 2.38.0 (20140413.2041)
 -->
<!-- Title: G Pages: 1 -->
<svg width="3450pt" height="218pt"
 viewBox="0.00 0.00 3450.00 218.00" xmlns="http://www.w3.org/2000/svg" xmlns:xlink="http://www.w3.org/1999/xlink">
<g id="graph0" class="graph" transform="scale(1 1) rotate(0) translate(4 214)">
<title>G</title>
<polygon fill="white" stroke="none" points="-4,4 -4,-214 3446,-214 3446,4 -4,4"/>
<!-- 582261 -->
<g id="node1" class="node"><title>582261</title>
<polygon fill="none" stroke="black" points="3442,-123 2768,-123 2768,-87 3442,-87 3442,-123"/>
<text text-anchor="middle" x="3105" y="-101.3" font-family="Times,serif" font-size="14.00">582261: &quot;C:Program FilesMozilla Firefoxadd&#45;onpass_mgr.exe&quot; &quot;C:Program FilesMozilla Firefoxadd&#45;onpass_mgr.json&quot;</text>
</g>
<!-- 582231 -->
<g id="node2" class="node"><title>582231</title>
<ellipse fill="none" stroke="black" cx="3105" cy="-18" rx="298.947" ry="18"/>
<text text-anchor="middle" x="3105" y="-14.3" font-family="Times,serif" font-size="14.00">582231: DeviceHarddiskVolume2Program FilesMozilla Firefoxadd&#45;onhJauWl01</text>
</g>
<!-- 582261&#45;&gt;582231 -->
<g id="edge1" class="edge"><title>582261&#45;&gt;582231</title>
<path fill="none" stroke="black" d="M3041.45,-86.8971C3033.78,-82.2824 3026.93,-76.4274 3022,-69 3014.18,-57.2126 3020.45,-47.774 3032.4,-40.413"/>
<polygon fill="black" stroke="black" points="3034.26,-43.3937 3041.48,-35.6455 3031,-37.1962 3034.26,-43.3937"/>
<text text-anchor="middle" x="3052.5" y="-57.8" font-family="Times,serif" font-size="14.00">101146155</text>
</g>
<!-- 582261&#45;&gt;582231 -->
<g id="edge12" class="edge"><title>582261&#45;&gt;582231</title>
<path fill="none" stroke="black" d="M3105,-86.799C3105,-75.1626 3105,-59.5479 3105,-46.2368"/>
<polygon fill="black" stroke="black" points="3108.5,-46.1754 3105,-36.1754 3101.5,-46.1755 3108.5,-46.1754"/>
<text text-anchor="middle" x="3135.5" y="-57.8" font-family="Times,serif" font-size="14.00">101146132</text>
</g>
<!-- 582261&#45;&gt;582231 -->
<g id="edge17" class="edge"><title>582261&#45;&gt;582231</title>
<path fill="none" stroke="black" d="M3149.34,-86.8405C3156.4,-82.1307 3162.76,-76.2587 3167,-69 3173.22,-58.342 3167.57,-49.0382 3157.57,-41.4398"/>
<polygon fill="black" stroke="black" points="3159.48,-38.5086 3149.19,-35.9675 3155.65,-44.3681 3159.48,-38.5086"/>
<text text-anchor="middle" x="3200.5" y="-57.8" font-family="Times,serif" font-size="14.00">101146139</text>
</g>
<!-- 13259 -->
<g id="node3" class="node"><title>13259</title>
<ellipse fill="none" stroke="black" cx="337" cy="-192" rx="307.345" ry="18"/>
<text text-anchor="middle" x="337" y="-188.3" font-family="Times,serif" font-size="14.00">13259: DeviceHarddiskVolume2WindowsPrefetchPASS_MGR.EXE&#45;8B30272C.pf</text>
</g>
<!-- 581317 -->
<g id="node4" class="node"><title>581317</title>
<polygon fill="none" stroke="black" points="674,-123 0,-123 0,-87 674,-87 674,-123"/>
<text text-anchor="middle" x="337" y="-101.3" font-family="Times,serif" font-size="14.00">581317: &quot;C:Program FilesMozilla Firefoxadd&#45;onpass_mgr.exe&quot; &quot;C:Program FilesMozilla Firefoxadd&#45;onpass_mgr.json&quot;</text>
</g>
<!-- 13259&#45;&gt;581317 -->
<g id="edge2" class="edge"><title>13259&#45;&gt;581317</title>
<path fill="none" stroke="black" d="M337,-173.799C337,-162.163 337,-146.548 337,-133.237"/>
<polygon fill="black" stroke="black" points="340.5,-133.175 337,-123.175 333.5,-133.175 340.5,-133.175"/>
<text text-anchor="middle" x="367.5" y="-144.8" font-family="Times,serif" font-size="14.00">101051473</text>
</g>
<!-- 65126 -->
<g id="node5" class="node"><title>65126</title>
<ellipse fill="none" stroke="black" cx="1553" cy="-192" rx="316.544" ry="18"/>
<text text-anchor="middle" x="1553" y="-188.3" font-family="Times,serif" font-size="14.00">65126: DeviceHarddiskVolume2Program FilesMozilla Firefoxadd&#45;onpasswordfile.dat</text>
</g>
<!-- 581317&#45;&gt;65126 -->
<g id="edge10" class="edge"><title>581317&#45;&gt;65126</title>
<path fill="none" stroke="black" d="M479.896,-123.012C575.248,-133.839 703.484,-147.395 817,-156 969.442,-167.555 1139.95,-175.949 1278.44,-181.615"/>
<polygon fill="black" stroke="black" points="1278.64,-185.126 1288.78,-182.036 1278.93,-178.132 1278.64,-185.126"/>
<text text-anchor="middle" x="847.5" y="-144.8" font-family="Times,serif" font-size="14.00">101052093</text>
</g>
<!-- 581317&#45;&gt;65126 -->
<g id="edge15" class="edge"><title>581317&#45;&gt;65126</title>
<path fill="none" stroke="black" d="M628.431,-123.008C709.294,-128.23 797.093,-134.366 878,-141 945.216,-146.511 961.79,-150.419 1029,-156 1128.61,-164.272 1239.01,-171.878 1332.68,-177.871"/>
<polygon fill="black" stroke="black" points="1332.65,-181.376 1342.85,-178.52 1333.09,-174.391 1332.65,-181.376"/>
<text text-anchor="middle" x="1059.5" y="-144.8" font-family="Times,serif" font-size="14.00">101052102</text>
</g>
<!-- 65126&#45;&gt;582261 -->
<g id="edge7" class="edge"><title>65126&#45;&gt;582261</title>
<path fill="none" stroke="black" d="M1808.8,-181.382C1966.82,-175.064 2173.73,-166.113 2357,-156 2525.48,-146.703 2715.15,-133.999 2861.34,-123.723"/>
<polygon fill="black" stroke="black" points="2861.62,-127.212 2871.35,-123.019 2861.13,-120.23 2861.62,-127.212"/>
<text text-anchor="middle" x="2634.5" y="-144.8" font-family="Times,serif" font-size="14.00">101146120</text>
</g>
<!-- 65126&#45;&gt;581317 -->
<g id="edge5" class="edge"><title>65126&#45;&gt;581317</title>
<path fill="none" stroke="black" d="M1250.43,-186.706C1006.81,-182.071 684.41,-172.953 555,-156 504.815,-149.426 449.219,-136.584 406.732,-125.561"/>
<polygon fill="black" stroke="black" points="407.611,-122.173 397.051,-123.022 405.836,-128.945 407.611,-122.173"/>
<text text-anchor="middle" x="585.5" y="-144.8" font-family="Times,serif" font-size="14.00">101052082</text>
</g>
<!-- 581432 -->
<g id="node6" class="node"><title>581432</title>
<polygon fill="none" stroke="black" points="1366,-123 692,-123 692,-87 1366,-87 1366,-123"/>
<text text-anchor="middle" x="1029" y="-101.3" font-family="Times,serif" font-size="14.00">581432: &quot;C:Program FilesMozilla Firefoxadd&#45;onpass_mgr.exe&quot; &quot;C:Program FilesMozilla Firefoxadd&#45;onpass_mgr.json&quot;</text>
</g>
<!-- 65126&#45;&gt;581432 -->
<g id="edge3" class="edge"><title>65126&#45;&gt;581432</title>
<path fill="none" stroke="black" d="M1325.42,-179.474C1246.82,-173.91 1169.18,-166.187 1132,-156 1109.1,-149.725 1085.14,-138.42 1066.11,-128.145"/>
<polygon fill="black" stroke="black" points="1067.62,-124.986 1057.18,-123.21 1064.24,-131.112 1067.62,-124.986"/>
<text text-anchor="middle" x="1162.5" y="-144.8" font-family="Times,serif" font-size="14.00">101060791</text>
</g>
<!-- 581509 -->
<g id="node7" class="node"><title>581509</title>
<polygon fill="none" stroke="black" points="2058,-123 1384,-123 1384,-87 2058,-87 2058,-123"/>
<text text-anchor="middle" x="1721" y="-101.3" font-family="Times,serif" font-size="14.00">581509: &quot;C:Program FilesMozilla Firefoxadd&#45;onpass_mgr.exe&quot; &quot;C:Program FilesMozilla Firefoxadd&#45;onpass_mgr.json&quot;</text>
</g>
<!-- 65126&#45;&gt;581509 -->
<g id="edge4" class="edge"><title>65126&#45;&gt;581509</title>
<path fill="none" stroke="black" d="M1548.41,-173.859C1546.65,-163.237 1546.58,-149.957 1554,-141 1558.86,-135.139 1568.5,-130.22 1580.8,-126.102"/>
<polygon fill="black" stroke="black" points="1582.14,-129.354 1590.7,-123.107 1580.11,-122.655 1582.14,-129.354"/>
<text text-anchor="middle" x="1584.5" y="-144.8" font-family="Times,serif" font-size="14.00">101067182</text>
</g>
<!-- 582082 -->
<g id="node8" class="node"><title>582082</title>
<polygon fill="none" stroke="black" points="2750,-123 2076,-123 2076,-87 2750,-87 2750,-123"/>
<text text-anchor="middle" x="2413" y="-101.3" font-family="Times,serif" font-size="14.00">582082: &quot;C:Program FilesMozilla Firefoxadd&#45;onpass_mgr.exe&quot; &quot;C:Program FilesMozilla Firefoxadd&#45;onpass_mgr.json&quot;</text>
</g>
<!-- 65126&#45;&gt;582082 -->
<g id="edge6" class="edge"><title>65126&#45;&gt;582082</title>
<path fill="none" stroke="black" d="M1673.13,-175.337C1756.6,-164.773 1870.45,-150.991 1971,-141 2034.08,-134.733 2102.3,-128.876 2165.85,-123.814"/>
<polygon fill="black" stroke="black" points="2166.31,-127.289 2176,-123.009 2165.76,-120.31 2166.31,-127.289"/>
<text text-anchor="middle" x="2001.5" y="-144.8" font-family="Times,serif" font-size="14.00">101114399</text>
</g>
<!-- 581432&#45;&gt;65126 -->
<g id="edge8" class="edge"><title>581432&#45;&gt;65126</title>
<path fill="none" stroke="black" d="M1133.93,-123.022C1223.68,-137.579 1352.39,-158.458 1443.44,-173.228"/>
<polygon fill="black" stroke="black" points="1443.08,-176.716 1453.52,-174.862 1444.2,-169.806 1443.08,-176.716"/>
<text text-anchor="middle" x="1353.5" y="-144.8" font-family="Times,serif" font-size="14.00">101060944</text>
</g>
<!-- 581432&#45;&gt;65126 -->
<g id="edge13" class="edge"><title>581432&#45;&gt;65126</title>
<path fill="none" stroke="black" d="M1271.34,-123.055C1310.53,-127.696 1350.53,-133.572 1388,-141 1424.85,-148.306 1465.23,-160.467 1496.82,-170.966"/>
<polygon fill="black" stroke="black" points="1495.73,-174.294 1506.33,-174.164 1497.97,-167.659 1495.73,-174.294"/>
<text text-anchor="middle" x="1478.5" y="-144.8" font-family="Times,serif" font-size="14.00">101060802</text>
</g>
<!-- 581509&#45;&gt;65126 -->
<g id="edge9" class="edge"><title>581509&#45;&gt;65126</title>
<path fill="none" stroke="black" d="M1676.38,-123.092C1663.76,-128.388 1650.15,-134.542 1638,-141 1627.22,-146.727 1625.43,-149.664 1615,-156 1608.02,-160.242 1600.51,-164.626 1593.21,-168.797"/>
<polygon fill="black" stroke="black" points="1591.11,-165.965 1584.13,-173.939 1594.56,-172.055 1591.11,-165.965"/>
<text text-anchor="middle" x="1668.5" y="-144.8" font-family="Times,serif" font-size="14.00">101067184</text>
</g>
<!-- 581509&#45;&gt;65126 -->
<g id="edge14" class="edge"><title>581509&#45;&gt;65126</title>
<path fill="none" stroke="black" d="M1717.56,-123.21C1714.49,-134.138 1708.9,-147.733 1699,-156 1691.95,-161.889 1684.07,-166.821 1675.73,-170.946"/>
<polygon fill="black" stroke="black" points="1674.18,-167.804 1666.51,-175.113 1677.06,-174.183 1674.18,-167.804"/>
<text text-anchor="middle" x="1740.5" y="-144.8" font-family="Times,serif" font-size="14.00">101067193</text>
</g>
<!-- 582082&#45;&gt;65126 -->
<g id="edge11" class="edge"><title>582082&#45;&gt;65126</title>
<path fill="none" stroke="black" d="M2296.48,-123.059C2221.15,-133.649 2120.93,-146.923 2032,-156 1946.9,-164.686 1853.07,-172.032 1771.19,-177.716"/>
<polygon fill="black" stroke="black" points="1770.74,-174.238 1761,-178.418 1771.22,-181.222 1770.74,-174.238"/>
<text text-anchor="middle" x="2188.5" y="-144.8" font-family="Times,serif" font-size="14.00">101113753</text>
</g>
<!-- 582082&#45;&gt;65126 -->
<g id="edge16" class="edge"><title>582082&#45;&gt;65126</title>
<path fill="none" stroke="black" d="M2359.98,-123.083C2322.21,-134.478 2270.01,-148.666 2223,-156 2149.31,-167.496 1981.69,-176.248 1832.56,-182.126"/>
<polygon fill="black" stroke="black" points="1832.16,-178.638 1822.31,-182.526 1832.44,-185.633 1832.16,-178.638"/>
<text text-anchor="middle" x="2322.5" y="-144.8" font-family="Times,serif" font-size="14.00">101114412</text>
</g>
</g>
</svg>
