<?xml version="1.0" encoding="UTF-8" standalone="no"?>
<!DOCTYPE svg PUBLIC "-//W3C//DTD SVG 1.1//EN"
 "http://www.w3.org/Graphics/SVG/1.1/DTD/svg11.dtd">
<!-- Generated by graphviz version 2.38.0 (20140413.2041)
 -->
<!-- Title: G Pages: 1 -->
<svg width="943pt" height="218pt"
 viewBox="0.00 0.00 943.33 218.00" xmlns="http://www.w3.org/2000/svg" xmlns:xlink="http://www.w3.org/1999/xlink">
<g id="graph0" class="graph" transform="scale(1 1) rotate(0) translate(4 214)">
<title>G</title>
<polygon fill="white" stroke="none" points="-4,4 -4,-214 939.334,-214 939.334,4 -4,4"/>
<!-- 526 -->
<g id="node1" class="node"><title>526</title>
<ellipse fill="none" stroke="black" cx="377.5" cy="-18" rx="146.774" ry="18"/>
<text text-anchor="middle" x="377.5" y="-14.3" font-family="Times,serif" font-size="14.00">526: /tmp/passwords.tar.bz2 | 0.00000</text>
</g>
<!-- 524 -->
<g id="node2" class="node"><title>524</title>
<polygon fill="none" stroke="black" points="464.5,-123 290.5,-123 290.5,-87 464.5,-87 464.5,-123"/>
<text text-anchor="middle" x="377.5" y="-101.3" font-family="Times,serif" font-size="14.00">524: /usr/bin/bzip2 | 0.00000</text>
</g>
<!-- 524&#45;&gt;526 -->
<g id="edge1" class="edge"><title>524&#45;&gt;526</title>
<path fill="none" stroke="black" d="M377.5,-86.799C377.5,-75.1626 377.5,-59.5479 377.5,-46.2368"/>
<polygon fill="black" stroke="black" points="381,-46.1754 377.5,-36.1754 374,-46.1755 381,-46.1754"/>
<text text-anchor="middle" x="415.5" y="-57.8" font-family="Times,serif" font-size="14.00">15035 | 0.000</text>
</g>
<!-- 521 -->
<g id="node3" class="node"><title>521</title>
<polygon fill="none" stroke="black" points="169,-210 1.42109e-14,-210 1.42109e-14,-174 169,-174 169,-210"/>
<text text-anchor="middle" x="84.5" y="-188.3" font-family="Times,serif" font-size="14.00">521: /usr/bin/dash | 0.00000</text>
</g>
<!-- 521&#45;&gt;524 -->
<g id="edge2" class="edge"><title>521&#45;&gt;524</title>
<path fill="none" stroke="black" d="M143.44,-173.901C191.224,-160.039 258.637,-140.483 308.851,-125.915"/>
<polygon fill="black" stroke="black" points="310.025,-129.219 318.654,-123.071 308.075,-122.496 310.025,-129.219"/>
<text text-anchor="middle" x="287.5" y="-144.8" font-family="Times,serif" font-size="14.00">15031 | 0.000</text>
</g>
<!-- 525 -->
<g id="node4" class="node"><title>525</title>
<ellipse fill="none" stroke="black" cx="377.5" cy="-192" rx="190.366" ry="18"/>
<text text-anchor="middle" x="377.5" y="-188.3" font-family="Times,serif" font-size="14.00">525: /lib/x86_64&#45;linux&#45;gnu/libbz2.so.1.0 | 0.00000</text>
</g>
<!-- 525&#45;&gt;524 -->
<g id="edge3" class="edge"><title>525&#45;&gt;524</title>
<path fill="none" stroke="black" d="M377.5,-173.799C377.5,-162.163 377.5,-146.548 377.5,-133.237"/>
<polygon fill="black" stroke="black" points="381,-133.175 377.5,-123.175 374,-133.175 381,-133.175"/>
<text text-anchor="middle" x="415.5" y="-144.8" font-family="Times,serif" font-size="14.00">15033 | 0.000</text>
</g>
<!-- 100 -->
<g id="node5" class="node"><title>100</title>
<ellipse fill="none" stroke="black" cx="760.5" cy="-192" rx="174.669" ry="18"/>
<text text-anchor="middle" x="760.5" y="-188.3" font-family="Times,serif" font-size="14.00">100: /lib/x86_64&#45;linux&#45;gnu/libc.so.6 | 0.00000</text>
</g>
<!-- 100&#45;&gt;524 -->
<g id="edge4" class="edge"><title>100&#45;&gt;524</title>
<path fill="none" stroke="black" d="M690.252,-175.41C626.547,-161.272 532.43,-140.384 464.093,-125.218"/>
<polygon fill="black" stroke="black" points="464.725,-121.773 454.204,-123.023 463.208,-128.607 464.725,-121.773"/>
<text text-anchor="middle" x="630.5" y="-144.8" font-family="Times,serif" font-size="14.00">15034 | 0.000</text>
</g>
</g>
</svg>
