<?xml version="1.0" encoding="UTF-8" standalone="no"?>
<!DOCTYPE svg PUBLIC "-//W3C//DTD SVG 1.1//EN"
 "http://www.w3.org/Graphics/SVG/1.1/DTD/svg11.dtd">
<!-- Generated by graphviz version 2.38.0 (20140413.2041)
 -->
<!-- Title: G Pages: 1 -->
<svg width="2674pt" height="977pt"
 viewBox="0.00 0.00 2674.03 977.00" xmlns="http://www.w3.org/2000/svg" xmlns:xlink="http://www.w3.org/1999/xlink">
<g id="graph0" class="graph" transform="scale(1 1) rotate(0) translate(4 973)">
<title>G</title>
<polygon fill="white" stroke="none" points="-4,4 -4,-973 2670.03,-973 2670.03,4 -4,4"/>
<!-- 1403 -->
<g id="node1" class="node"><title>1403</title>
<polygon fill="none" stroke="black" points="1662.5,-969 1562.5,-969 1562.5,-933 1662.5,-933 1662.5,-969"/>
<text text-anchor="middle" x="1612.5" y="-947.3" font-family="Times,serif" font-size="14.00">1403: /bin/ping</text>
</g>
<!-- 1336 -->
<g id="node2" class="node"><title>1336</title>
<polygon fill="none" stroke="black" points="1625.5,-882 1485.5,-882 1485.5,-846 1625.5,-846 1625.5,-882"/>
<text text-anchor="middle" x="1555.5" y="-860.3" font-family="Times,serif" font-size="14.00">1336: /usr/bin/python3</text>
</g>
<!-- 1403&#45;&gt;1336 -->
<g id="edge1" class="edge"><title>1403&#45;&gt;1336</title>
<path fill="none" stroke="black" d="M1606.82,-932.981C1603.03,-922.91 1597.46,-910.176 1590.5,-900 1588.04,-896.409 1585.19,-892.87 1582.19,-889.502"/>
<polygon fill="black" stroke="black" points="1584.49,-886.838 1575.06,-882.012 1579.42,-891.666 1584.49,-886.838"/>
<text text-anchor="middle" x="1616.5" y="-903.8" font-family="Times,serif" font-size="14.00">58675</text>
</g>
<!-- 1238 -->
<g id="node29" class="node"><title>1238</title>
<ellipse fill="none" stroke="black" cx="2097.5" cy="-561" rx="72.2875" ry="18"/>
<text text-anchor="middle" x="2097.5" y="-557.3" font-family="Times,serif" font-size="14.00">1238: /dev/pts/11</text>
</g>
<!-- 1403&#45;&gt;1238 -->
<g id="edge48" class="edge"><title>1403&#45;&gt;1238</title>
<path fill="none" stroke="black" d="M1662.79,-950.181C1843.1,-950.173 2446.5,-944.229 2446.5,-865 2446.5,-865 2446.5,-865 2446.5,-668 2446.5,-551.313 2315.21,-594.104 2199.5,-579 2188.14,-577.517 2176.11,-575.718 2164.44,-573.851"/>
<polygon fill="black" stroke="black" points="2164.74,-570.354 2154.31,-572.2 2163.62,-577.263 2164.74,-570.354"/>
<text text-anchor="middle" x="2463.5" y="-773.3" font-family="Times,serif" font-size="14.00">58692</text>
</g>
<!-- 1336&#45;&gt;1403 -->
<g id="edge15" class="edge"><title>1336&#45;&gt;1403</title>
<path fill="none" stroke="black" d="M1549.94,-882.29C1547.73,-892.456 1546.87,-905.197 1552.5,-915 1554.96,-919.284 1558.17,-923.094 1561.83,-926.47"/>
<polygon fill="black" stroke="black" points="1559.84,-929.362 1569.86,-932.808 1564.18,-923.866 1559.84,-929.362"/>
<text text-anchor="middle" x="1569.5" y="-903.8" font-family="Times,serif" font-size="14.00">58674</text>
</g>
<!-- 1437 -->
<g id="node3" class="node"><title>1437</title>
<polygon fill="none" stroke="black" points="1682.5,-795 1582.5,-795 1582.5,-759 1682.5,-759 1682.5,-795"/>
<text text-anchor="middle" x="1632.5" y="-773.3" font-family="Times,serif" font-size="14.00">1437: /bin/ping</text>
</g>
<!-- 1336&#45;&gt;1437 -->
<g id="edge8" class="edge"><title>1336&#45;&gt;1437</title>
<path fill="none" stroke="black" d="M1561.46,-845.945C1565.66,-835.615 1572.04,-822.623 1580.5,-813 1584.23,-808.76 1588.58,-804.801 1593.15,-801.183"/>
<polygon fill="black" stroke="black" points="1595.52,-803.784 1601.52,-795.053 1591.39,-798.135 1595.52,-803.784"/>
<text text-anchor="middle" x="1597.5" y="-816.8" font-family="Times,serif" font-size="14.00">60620</text>
</g>
<!-- 1237 -->
<g id="node4" class="node"><title>1237</title>
<polygon fill="none" stroke="black" points="135,-795 34,-795 34,-759 135,-759 135,-795"/>
<text text-anchor="middle" x="84.5" y="-773.3" font-family="Times,serif" font-size="14.00">1237: /bin/bash</text>
</g>
<!-- 1336&#45;&gt;1237 -->
<g id="edge17" class="edge"><title>1336&#45;&gt;1237</title>
<path fill="none" stroke="black" d="M1485.36,-862.675C1193.42,-861.16 88.6348,-853.731 63.5,-828 56.957,-821.302 58.6672,-812.262 63.2055,-803.71"/>
<polygon fill="black" stroke="black" points="66.2788,-805.402 68.7312,-795.094 60.3865,-801.622 66.2788,-805.402"/>
<text text-anchor="middle" x="80.5" y="-816.8" font-family="Times,serif" font-size="14.00">56334</text>
</g>
<!-- 1391 -->
<g id="node5" class="node"><title>1391</title>
<polygon fill="none" stroke="black" points="1527.5,-795 1427.5,-795 1427.5,-759 1527.5,-759 1527.5,-795"/>
<text text-anchor="middle" x="1477.5" y="-773.3" font-family="Times,serif" font-size="14.00">1391: /bin/ping</text>
</g>
<!-- 1336&#45;&gt;1391 -->
<g id="edge18" class="edge"><title>1336&#45;&gt;1391</title>
<path fill="none" stroke="black" d="M1493.85,-845.901C1486.21,-841.282 1479.38,-835.425 1474.5,-828 1470.12,-821.33 1469.26,-813.016 1469.97,-805.094"/>
<polygon fill="black" stroke="black" points="1473.45,-805.515 1471.63,-795.077 1466.54,-804.368 1473.45,-805.515"/>
<text text-anchor="middle" x="1491.5" y="-816.8" font-family="Times,serif" font-size="14.00">58452</text>
</g>
<!-- 1661 -->
<g id="node6" class="node"><title>1661</title>
<polygon fill="none" stroke="black" points="87,-525 0,-525 0,-489 87,-489 87,-525"/>
<text text-anchor="middle" x="43.5" y="-503.3" font-family="Times,serif" font-size="14.00">1661: &lt;NA&gt;</text>
</g>
<!-- 1336&#45;&gt;1661 -->
<g id="edge10" class="edge"><title>1336&#45;&gt;1661</title>
<path fill="none" stroke="black" d="M1485.21,-862.812C1197.53,-861.856 121.843,-856.391 55.5,-828 26.6075,-815.636 5.5,-809.427 5.5,-778 5.5,-778 5.5,-778 5.5,-614 5.5,-585.519 17.8069,-555.125 28.4132,-534.219"/>
<polygon fill="black" stroke="black" points="31.537,-535.799 33.1163,-525.322 25.3485,-532.527 31.537,-535.799"/>
<text text-anchor="middle" x="22.5" y="-719.3" font-family="Times,serif" font-size="14.00">70326</text>
</g>
<!-- 1653 -->
<g id="node9" class="node"><title>1653</title>
<polygon fill="none" stroke="black" points="2381,-633 2294,-633 2294,-597 2381,-597 2381,-633"/>
<text text-anchor="middle" x="2337.5" y="-611.3" font-family="Times,serif" font-size="14.00">1653: &lt;NA&gt;</text>
</g>
<!-- 1336&#45;&gt;1653 -->
<g id="edge13" class="edge"><title>1336&#45;&gt;1653</title>
<path fill="none" stroke="black" d="M1625.72,-863.231C1803.26,-863.331 2260.32,-860.398 2320.5,-828 2390.89,-790.105 2368.57,-729.309 2352.5,-651 2351.95,-648.3 2351.17,-645.552 2350.27,-642.842"/>
<polygon fill="black" stroke="black" points="2353.47,-641.401 2346.58,-633.353 2346.94,-643.941 2353.47,-641.401"/>
<text text-anchor="middle" x="2386.5" y="-773.3" font-family="Times,serif" font-size="14.00">70309</text>
</g>
<!-- 1435 -->
<g id="node10" class="node"><title>1435</title>
<polygon fill="none" stroke="black" points="1800.5,-795 1700.5,-795 1700.5,-759 1800.5,-759 1800.5,-795"/>
<text text-anchor="middle" x="1750.5" y="-773.3" font-family="Times,serif" font-size="14.00">1435: /bin/ping</text>
</g>
<!-- 1336&#45;&gt;1435 -->
<g id="edge9" class="edge"><title>1336&#45;&gt;1435</title>
<path fill="none" stroke="black" d="M1625.54,-856.234C1667.76,-850.832 1716.41,-841.837 1732.5,-828 1739.26,-822.184 1743.49,-813.629 1746.12,-805.233"/>
<polygon fill="black" stroke="black" points="1749.58,-805.817 1748.61,-795.267 1742.79,-804.119 1749.58,-805.817"/>
<text text-anchor="middle" x="1760.5" y="-816.8" font-family="Times,serif" font-size="14.00">60587</text>
</g>
<!-- 1379 -->
<g id="node11" class="node"><title>1379</title>
<polygon fill="none" stroke="black" points="1918.5,-795 1818.5,-795 1818.5,-759 1918.5,-759 1918.5,-795"/>
<text text-anchor="middle" x="1868.5" y="-773.3" font-family="Times,serif" font-size="14.00">1379: /bin/ping</text>
</g>
<!-- 1336&#45;&gt;1379 -->
<g id="edge11" class="edge"><title>1336&#45;&gt;1379</title>
<path fill="none" stroke="black" d="M1625.53,-862.391C1700.29,-860.403 1812.57,-853.154 1846.5,-828 1854.14,-822.337 1859.17,-813.44 1862.46,-804.711"/>
<polygon fill="black" stroke="black" points="1865.82,-805.698 1865.49,-795.108 1859.14,-803.594 1865.82,-805.698"/>
<text text-anchor="middle" x="1876.5" y="-816.8" font-family="Times,serif" font-size="14.00">57475</text>
</g>
<!-- 1440 -->
<g id="node12" class="node"><title>1440</title>
<polygon fill="none" stroke="black" points="1156.5,-741 1056.5,-741 1056.5,-705 1156.5,-705 1156.5,-741"/>
<text text-anchor="middle" x="1106.5" y="-719.3" font-family="Times,serif" font-size="14.00">1440: /bin/ping</text>
</g>
<!-- 1336&#45;&gt;1440 -->
<g id="edge12" class="edge"><title>1336&#45;&gt;1440</title>
<path fill="none" stroke="black" d="M1485.15,-862.604C1365.47,-861.195 1132.69,-854.976 1107.5,-828 1088.61,-807.768 1091.98,-774.469 1097.73,-751.01"/>
<polygon fill="black" stroke="black" points="1101.12,-751.885 1100.38,-741.317 1094.37,-750.043 1101.12,-751.885"/>
<text text-anchor="middle" x="1124.5" y="-816.8" font-family="Times,serif" font-size="14.00">60657</text>
</g>
<!-- 1566 -->
<g id="node13" class="node"><title>1566</title>
<polygon fill="none" stroke="black" points="1036,-795 949,-795 949,-759 1036,-759 1036,-795"/>
<text text-anchor="middle" x="992.5" y="-773.3" font-family="Times,serif" font-size="14.00">1566: &lt;NA&gt;</text>
</g>
<!-- 1336&#45;&gt;1566 -->
<g id="edge14" class="edge"><title>1336&#45;&gt;1566</title>
<path fill="none" stroke="black" d="M1485.29,-863.816C1342.06,-864.749 1026.84,-862.777 993.5,-828 987.754,-822.007 986.162,-813.514 986.421,-805.226"/>
<polygon fill="black" stroke="black" points="989.927,-805.369 987.567,-795.041 982.971,-804.587 989.927,-805.369"/>
<text text-anchor="middle" x="1010.5" y="-816.8" font-family="Times,serif" font-size="14.00">66391</text>
</g>
<!-- 1401 -->
<g id="node14" class="node"><title>1401</title>
<polygon fill="none" stroke="black" points="2036.5,-795 1936.5,-795 1936.5,-759 2036.5,-759 2036.5,-795"/>
<text text-anchor="middle" x="1986.5" y="-773.3" font-family="Times,serif" font-size="14.00">1401: /bin/ping</text>
</g>
<!-- 1336&#45;&gt;1401 -->
<g id="edge16" class="edge"><title>1336&#45;&gt;1401</title>
<path fill="none" stroke="black" d="M1625.63,-859.2C1710.6,-854.007 1848.5,-843.53 1897.5,-828 1908.34,-824.564 1930.68,-812.006 1950.27,-800.336"/>
<polygon fill="black" stroke="black" points="1952.25,-803.225 1959.02,-795.073 1948.65,-797.226 1952.25,-803.225"/>
<text text-anchor="middle" x="1943.5" y="-816.8" font-family="Times,serif" font-size="14.00">58643</text>
</g>
<!-- 1405 -->
<g id="node15" class="node"><title>1405</title>
<polygon fill="none" stroke="black" points="2154.5,-795 2054.5,-795 2054.5,-759 2154.5,-759 2154.5,-795"/>
<text text-anchor="middle" x="2104.5" y="-773.3" font-family="Times,serif" font-size="14.00">1405: /bin/ping</text>
</g>
<!-- 1336&#45;&gt;1405 -->
<g id="edge19" class="edge"><title>1336&#45;&gt;1405</title>
<path fill="none" stroke="black" d="M1625.94,-861.308C1736.08,-858.043 1943.79,-849.224 2014.5,-828 2025.49,-824.702 2048.08,-812.144 2067.88,-800.439"/>
<polygon fill="black" stroke="black" points="2069.93,-803.289 2076.73,-795.158 2066.34,-797.278 2069.93,-803.289"/>
<text text-anchor="middle" x="2061.5" y="-816.8" font-family="Times,serif" font-size="14.00">58705</text>
</g>
<!-- 1393 -->
<g id="node16" class="node"><title>1393</title>
<polygon fill="none" stroke="black" points="1291.5,-795 1191.5,-795 1191.5,-759 1291.5,-759 1291.5,-795"/>
<text text-anchor="middle" x="1241.5" y="-773.3" font-family="Times,serif" font-size="14.00">1393: /bin/ping</text>
</g>
<!-- 1336&#45;&gt;1393 -->
<g id="edge20" class="edge"><title>1336&#45;&gt;1393</title>
<path fill="none" stroke="black" d="M1485.46,-859.679C1438.47,-855.716 1375.85,-847.03 1323.5,-828 1305.42,-821.429 1286.99,-810.627 1272.19,-800.741"/>
<polygon fill="black" stroke="black" points="1274.15,-797.842 1263.92,-795.066 1270.18,-803.612 1274.15,-797.842"/>
<text text-anchor="middle" x="1340.5" y="-816.8" font-family="Times,serif" font-size="14.00">58506</text>
</g>
<!-- 1351 -->
<g id="node17" class="node"><title>1351</title>
<polygon fill="none" stroke="black" points="1409.5,-795 1309.5,-795 1309.5,-759 1409.5,-759 1409.5,-795"/>
<text text-anchor="middle" x="1359.5" y="-773.3" font-family="Times,serif" font-size="14.00">1351: /bin/ping</text>
</g>
<!-- 1336&#45;&gt;1351 -->
<g id="edge21" class="edge"><title>1336&#45;&gt;1351</title>
<path fill="none" stroke="black" d="M1485.44,-847.287C1467.75,-842.185 1449.08,-835.783 1432.5,-828 1417.1,-820.771 1401.36,-810.44 1388.46,-801.043"/>
<polygon fill="black" stroke="black" points="1390.53,-798.222 1380.43,-795.045 1386.35,-803.832 1390.53,-798.222"/>
<text text-anchor="middle" x="1449.5" y="-816.8" font-family="Times,serif" font-size="14.00">56453</text>
</g>
<!-- 1437&#45;&gt;1336 -->
<g id="edge2" class="edge"><title>1437&#45;&gt;1336</title>
<path fill="none" stroke="black" d="M1631.02,-795.255C1629.37,-805.66 1625.87,-818.661 1618.5,-828 1614.87,-832.592 1610.47,-836.675 1605.69,-840.281"/>
<polygon fill="black" stroke="black" points="1603.7,-837.404 1597.38,-845.904 1607.62,-843.203 1603.7,-837.404"/>
<text text-anchor="middle" x="1643.5" y="-816.8" font-family="Times,serif" font-size="14.00">60621</text>
</g>
<!-- 1438 -->
<g id="node25" class="node"><title>1438</title>
<polygon fill="none" stroke="black" points="1960.73,-687 1489.5,-687 1368.27,-651 1839.5,-651 1960.73,-687"/>
<text text-anchor="middle" x="1664.5" y="-665.3" font-family="Times,serif" font-size="14.00">1438: 129.22.31.135/32:43844&#45;&gt;129.22.104.25/32:53</text>
</g>
<!-- 1437&#45;&gt;1438 -->
<g id="edge65" class="edge"><title>1437&#45;&gt;1438</title>
<path fill="none" stroke="black" d="M1622.41,-758.844C1615.07,-743.94 1607.8,-722.12 1616.5,-705 1618.55,-700.961 1621.32,-697.277 1624.48,-693.946"/>
<polygon fill="black" stroke="black" points="1626.87,-696.511 1631.95,-687.215 1622.18,-691.312 1626.87,-696.511"/>
<text text-anchor="middle" x="1633.5" y="-719.3" font-family="Times,serif" font-size="14.00">60646</text>
</g>
<!-- 1437&#45;&gt;1238 -->
<g id="edge56" class="edge"><title>1437&#45;&gt;1238</title>
<path fill="none" stroke="black" d="M1682.69,-761.439C1685.67,-760.606 1688.62,-759.787 1691.5,-759 1814.61,-725.328 1858.33,-749.695 1969.5,-687 1981.76,-680.085 2040.85,-620.277 2074.29,-585.958"/>
<polygon fill="black" stroke="black" points="2076.94,-588.251 2081.41,-578.643 2071.93,-583.37 2076.94,-588.251"/>
<text text-anchor="middle" x="2025.5" y="-665.3" font-family="Times,serif" font-size="14.00">60638</text>
</g>
<!-- 1237&#45;&gt;1336 -->
<g id="edge3" class="edge"><title>1237&#45;&gt;1336</title>
<path fill="none" stroke="black" d="M90.1834,-795.118C94.9835,-806.607 103.091,-820.894 115.5,-828 174.747,-861.927 1181.06,-863.439 1475.31,-863.152"/>
<polygon fill="black" stroke="black" points="1475.48,-866.652 1485.47,-863.141 1475.47,-859.652 1475.48,-866.652"/>
<text text-anchor="middle" x="132.5" y="-816.8" font-family="Times,serif" font-size="14.00">56333</text>
</g>
<!-- 1391&#45;&gt;1336 -->
<g id="edge4" class="edge"><title>1391&#45;&gt;1336</title>
<path fill="none" stroke="black" d="M1493.26,-795.175C1504.57,-807.497 1519.98,-824.289 1532.63,-838.081"/>
<polygon fill="black" stroke="black" points="1530.38,-840.797 1539.72,-845.799 1535.53,-836.065 1530.38,-840.797"/>
<text text-anchor="middle" x="1538.5" y="-816.8" font-family="Times,serif" font-size="14.00">58453</text>
</g>
<!-- 1391&#45;&gt;1238 -->
<g id="edge58" class="edge"><title>1391&#45;&gt;1238</title>
<path fill="none" stroke="black" d="M1427.45,-758.948C1369.26,-736.556 1285.93,-694.908 1325.5,-651 1428.86,-536.315 1863.97,-602.887 2016.5,-579 2022.74,-578.022 2029.23,-576.879 2035.69,-575.656"/>
<polygon fill="black" stroke="black" points="2036.65,-579.035 2045.79,-573.681 2035.31,-572.165 2036.65,-579.035"/>
<text text-anchor="middle" x="1342.5" y="-665.3" font-family="Times,serif" font-size="14.00">58470</text>
</g>
<!-- 1661&#45;&gt;1336 -->
<g id="edge6" class="edge"><title>1661&#45;&gt;1336</title>
<path fill="none" stroke="black" d="M43.4794,-525.278C44.4116,-541.326 48.3524,-564.816 62.5,-579 361.949,-879.219 565.062,-759.365 983.5,-828 1157.25,-856.5 1364.14,-862.322 1475.3,-863.201"/>
<polygon fill="black" stroke="black" points="1475.41,-866.702 1485.43,-863.269 1475.46,-859.702 1475.41,-866.702"/>
<text text-anchor="middle" x="299.5" y="-719.3" font-family="Times,serif" font-size="14.00">70327</text>
</g>
<!-- 1663 -->
<g id="node7" class="node"><title>1663</title>
<polygon fill="none" stroke="black" points="170.5,-297 30.5,-297 30.5,-261 170.5,-261 170.5,-297"/>
<text text-anchor="middle" x="100.5" y="-275.3" font-family="Times,serif" font-size="14.00">1663: /usr/bin/python3</text>
</g>
<!-- 1661&#45;&gt;1663 -->
<g id="edge5" class="edge"><title>1661&#45;&gt;1663</title>
<path fill="none" stroke="black" d="M50.3688,-488.923C52.6497,-483.227 55.1947,-476.844 57.5,-471 66.9486,-447.045 71.7541,-441.852 78.5,-417 88.6394,-379.647 94.7174,-335.215 97.838,-307.304"/>
<polygon fill="black" stroke="black" points="101.344,-307.433 98.927,-297.118 94.3838,-306.689 101.344,-307.433"/>
<text text-anchor="middle" x="99.5" y="-405.8" font-family="Times,serif" font-size="14.00">70330</text>
</g>
<!-- 1663&#45;&gt;1661 -->
<g id="edge36" class="edge"><title>1663&#45;&gt;1661</title>
<path fill="none" stroke="black" d="M88.8396,-297.22C74.1791,-320.013 49.8044,-361.998 40.5,-402 34.5487,-427.586 36.3273,-457.665 38.9738,-478.875"/>
<polygon fill="black" stroke="black" points="35.5103,-479.38 40.3565,-488.801 42.4434,-478.414 35.5103,-479.38"/>
<text text-anchor="middle" x="57.5" y="-405.8" font-family="Times,serif" font-size="14.00">70331</text>
</g>
<!-- 1666 -->
<g id="node18" class="node"><title>1666</title>
<polygon fill="none" stroke="black" points="90,-210 3,-210 3,-174 90,-174 90,-210"/>
<text text-anchor="middle" x="46.5" y="-188.3" font-family="Times,serif" font-size="14.00">1666: &lt;NA&gt;</text>
</g>
<!-- 1663&#45;&gt;1666 -->
<g id="edge37" class="edge"><title>1663&#45;&gt;1666</title>
<path fill="none" stroke="black" d="M46.2698,-260.869C38.8181,-256.23 32.1425,-250.374 27.5,-243 22.9485,-235.77 24.1222,-227.279 27.494,-219.367"/>
<polygon fill="black" stroke="black" points="30.6295,-220.926 32.2506,-210.456 24.4541,-217.63 30.6295,-220.926"/>
<text text-anchor="middle" x="44.5" y="-231.8" font-family="Times,serif" font-size="14.00">70411</text>
</g>
<!-- 1672 -->
<g id="node19" class="node"><title>1672</title>
<polygon fill="none" stroke="black" points="199,-210 112,-210 112,-174 199,-174 199,-210"/>
<text text-anchor="middle" x="155.5" y="-188.3" font-family="Times,serif" font-size="14.00">1672: &lt;NA&gt;</text>
</g>
<!-- 1663&#45;&gt;1672 -->
<g id="edge38" class="edge"><title>1663&#45;&gt;1672</title>
<path fill="none" stroke="black" d="M108.308,-260.827C113.077,-250.936 119.577,-238.436 126.5,-228 128.695,-224.692 131.147,-221.332 133.671,-218.068"/>
<polygon fill="black" stroke="black" points="136.431,-220.221 139.985,-210.24 130.983,-215.826 136.431,-220.221"/>
<text text-anchor="middle" x="143.5" y="-231.8" font-family="Times,serif" font-size="14.00">70498</text>
</g>
<!-- 1656 -->
<g id="node8" class="node"><title>1656</title>
<polygon fill="none" stroke="black" points="2158.5,-471 2064.5,-471 2064.5,-435 2158.5,-435 2158.5,-471"/>
<text text-anchor="middle" x="2111.5" y="-449.3" font-family="Times,serif" font-size="14.00">1656: /bin/mv</text>
</g>
<!-- 1656&#45;&gt;1653 -->
<g id="edge7" class="edge"><title>1656&#45;&gt;1653</title>
<path fill="none" stroke="black" d="M2126.67,-471.031C2150.73,-497.206 2200.1,-547.58 2250.5,-579 2256.9,-582.992 2270.08,-588.682 2284.28,-594.317"/>
<polygon fill="black" stroke="black" points="2283.11,-597.617 2293.7,-597.993 2285.65,-591.097 2283.11,-597.617"/>
<text text-anchor="middle" x="2267.5" y="-557.3" font-family="Times,serif" font-size="14.00">70314</text>
</g>
<!-- 1659 -->
<g id="node27" class="node"><title>1659</title>
<ellipse fill="none" stroke="black" cx="789.5" cy="-366" rx="219.861" ry="18"/>
<text text-anchor="middle" x="789.5" y="-362.3" font-family="Times,serif" font-size="14.00">1659: /home/feishao/sysrep_test_temp/call_others.py?dl=0</text>
</g>
<!-- 1656&#45;&gt;1659 -->
<g id="edge47" class="edge"><title>1656&#45;&gt;1659</title>
<path fill="none" stroke="black" d="M2064.45,-448.975C1889.98,-437.757 1274.25,-398.168 966.838,-378.402"/>
<polygon fill="black" stroke="black" points="966.687,-374.885 956.483,-377.736 966.238,-381.871 966.687,-374.885"/>
<text text-anchor="middle" x="1547.5" y="-405.8" font-family="Times,serif" font-size="14.00">70325</text>
</g>
<!-- 1653&#45;&gt;1336 -->
<g id="edge25" class="edge"><title>1653&#45;&gt;1336</title>
<path fill="none" stroke="black" d="M2328.17,-633.248C2303.3,-677.042 2230.49,-791.63 2131.5,-828 2042.89,-860.557 1772.57,-864.147 1636.11,-863.775"/>
<polygon fill="black" stroke="black" points="1635.73,-860.274 1625.72,-863.739 1635.71,-867.274 1635.73,-860.274"/>
<text text-anchor="middle" x="2250.5" y="-773.3" font-family="Times,serif" font-size="14.00">70310</text>
</g>
<!-- 1653&#45;&gt;1656 -->
<g id="edge24" class="edge"><title>1653&#45;&gt;1656</title>
<path fill="none" stroke="black" d="M2327.76,-596.758C2318.29,-581.181 2302.7,-558.402 2284.5,-543 2249.59,-513.456 2203.21,-490.267 2167.26,-474.975"/>
<polygon fill="black" stroke="black" points="2168.47,-471.686 2157.89,-471.066 2165.77,-478.146 2168.47,-471.686"/>
<text text-anchor="middle" x="2333.5" y="-557.3" font-family="Times,serif" font-size="14.00">70313</text>
</g>
<!-- 1435&#45;&gt;1336 -->
<g id="edge28" class="edge"><title>1435&#45;&gt;1336</title>
<path fill="none" stroke="black" d="M1724.55,-795.069C1707.88,-805.531 1685.49,-818.662 1664.5,-828 1652.42,-833.376 1639.25,-838.322 1626.38,-842.699"/>
<polygon fill="black" stroke="black" points="1625.01,-839.465 1616.62,-845.932 1627.22,-846.11 1625.01,-839.465"/>
<text text-anchor="middle" x="1711.5" y="-816.8" font-family="Times,serif" font-size="14.00">60588</text>
</g>
<!-- 1435&#45;&gt;1238 -->
<g id="edge57" class="edge"><title>1435&#45;&gt;1238</title>
<path fill="none" stroke="black" d="M1800.56,-760.872C1803.57,-760.181 1806.57,-759.549 1809.5,-759 1853.58,-750.754 1973.59,-766.464 2010.5,-741 2037.41,-722.441 2072.06,-633.55 2088.31,-588.418"/>
<polygon fill="black" stroke="black" points="2091.62,-589.573 2091.68,-578.978 2085.02,-587.225 2091.62,-589.573"/>
<text text-anchor="middle" x="2080.5" y="-665.3" font-family="Times,serif" font-size="14.00">60605</text>
</g>
<!-- 1379&#45;&gt;1336 -->
<g id="edge22" class="edge"><title>1379&#45;&gt;1336</title>
<path fill="none" stroke="black" d="M1839.11,-795.233C1815.11,-809.252 1784.64,-826.896 1781.5,-828 1734.67,-844.442 1679.68,-853.172 1635.67,-857.801"/>
<polygon fill="black" stroke="black" points="1635.2,-854.331 1625.6,-858.81 1635.9,-861.296 1635.2,-854.331"/>
<text text-anchor="middle" x="1824.5" y="-816.8" font-family="Times,serif" font-size="14.00">57476</text>
</g>
<!-- 1379&#45;&gt;1238 -->
<g id="edge60" class="edge"><title>1379&#45;&gt;1238</title>
<path fill="none" stroke="black" d="M1918.57,-760.968C1921.58,-760.253 1924.57,-759.59 1927.5,-759 1961.06,-752.238 2052.94,-761.303 2080.5,-741 2126.51,-707.11 2115.41,-630.155 2105.35,-589.057"/>
<polygon fill="black" stroke="black" points="2108.69,-587.989 2102.79,-579.191 2101.91,-589.75 2108.69,-587.989"/>
<text text-anchor="middle" x="2131.5" y="-665.3" font-family="Times,serif" font-size="14.00">58299</text>
</g>
<!-- 1440&#45;&gt;1336 -->
<g id="edge34" class="edge"><title>1440&#45;&gt;1336</title>
<path fill="none" stroke="black" d="M1117.56,-741.246C1134.08,-765.362 1167.69,-808.399 1208.5,-828 1254.04,-849.877 1387.68,-858.105 1475.2,-861.182"/>
<polygon fill="black" stroke="black" points="1475.25,-864.686 1485.37,-861.524 1475.49,-857.69 1475.25,-864.686"/>
<text text-anchor="middle" x="1225.5" y="-816.8" font-family="Times,serif" font-size="14.00">60658</text>
</g>
<!-- 1440&#45;&gt;1238 -->
<g id="edge61" class="edge"><title>1440&#45;&gt;1238</title>
<path fill="none" stroke="black" d="M1107.75,-704.94C1110.95,-675.69 1122.34,-617.17 1162.5,-597 1204.91,-575.703 1969.35,-584.397 2016.5,-579 2023.21,-578.231 2030.19,-577.172 2037.12,-575.953"/>
<polygon fill="black" stroke="black" points="2038,-579.35 2047.18,-574.07 2036.71,-572.469 2038,-579.35"/>
<text text-anchor="middle" x="1136.5" y="-665.3" font-family="Times,serif" font-size="14.00">60675</text>
</g>
<!-- 1440&#45;&gt;1238 -->
<g id="edge62" class="edge"><title>1440&#45;&gt;1238</title>
<path fill="none" stroke="black" d="M1085.33,-704.662C1080.53,-699.529 1076.09,-693.52 1073.5,-687 1067.6,-672.13 1067.52,-665.839 1073.5,-651 1085.96,-620.099 1094.97,-610.349 1125.5,-597 1170.86,-577.164 1967.31,-584.609 2016.5,-579 2023.21,-578.234 2030.2,-577.176 2037.12,-575.959"/>
<polygon fill="black" stroke="black" points="2038,-579.356 2047.18,-574.077 2036.71,-572.475 2038,-579.356"/>
<text text-anchor="middle" x="1090.5" y="-665.3" font-family="Times,serif" font-size="14.00">66385</text>
</g>
<!-- 1566&#45;&gt;1336 -->
<g id="edge32" class="edge"><title>1566&#45;&gt;1336</title>
<path fill="none" stroke="black" d="M1009.9,-795.19C1023.44,-808.13 1041.4,-824.257 1050.5,-828 1125.1,-858.695 1352.42,-863.365 1475.05,-863.551"/>
<polygon fill="black" stroke="black" points="1475.14,-867.051 1485.14,-863.556 1475.14,-860.051 1475.14,-867.051"/>
<text text-anchor="middle" x="1067.5" y="-816.8" font-family="Times,serif" font-size="14.00">66392</text>
</g>
<!-- 1569 -->
<g id="node21" class="node"><title>1569</title>
<polygon fill="none" stroke="black" points="950.5,-687 828.5,-687 828.5,-651 950.5,-651 950.5,-687"/>
<text text-anchor="middle" x="889.5" y="-665.3" font-family="Times,serif" font-size="14.00">1569: /usr/bin/wget</text>
</g>
<!-- 1566&#45;&gt;1569 -->
<g id="edge31" class="edge"><title>1566&#45;&gt;1569</title>
<path fill="none" stroke="black" d="M975.951,-758.969C959.083,-741.61 932.743,-714.503 913.568,-694.769"/>
<polygon fill="black" stroke="black" points="915.829,-692.073 906.35,-687.341 910.809,-696.952 915.829,-692.073"/>
<text text-anchor="middle" x="973.5" y="-719.3" font-family="Times,serif" font-size="14.00">66395</text>
</g>
<!-- 1401&#45;&gt;1336 -->
<g id="edge26" class="edge"><title>1401&#45;&gt;1336</title>
<path fill="none" stroke="black" d="M1983.22,-795.244C1980.13,-806.481 1974.29,-820.418 1963.5,-828 1937.38,-846.359 1747.01,-856.187 1635.77,-860.416"/>
<polygon fill="black" stroke="black" points="1635.45,-856.925 1625.59,-860.796 1635.71,-863.921 1635.45,-856.925"/>
<text text-anchor="middle" x="1993.5" y="-816.8" font-family="Times,serif" font-size="14.00">58644</text>
</g>
<!-- 1401&#45;&gt;1238 -->
<g id="edge49" class="edge"><title>1401&#45;&gt;1238</title>
<path fill="none" stroke="black" d="M2036.61,-761.151C2039.61,-760.39 2042.59,-759.666 2045.5,-759 2091.65,-748.429 2113.13,-770.073 2150.5,-741 2183.17,-715.58 2183.09,-691.496 2174.5,-651 2169.05,-625.309 2167.47,-617.042 2150.5,-597 2146.29,-592.03 2141.2,-587.491 2135.87,-583.447"/>
<polygon fill="black" stroke="black" points="2137.57,-580.366 2127.36,-577.511 2133.56,-586.106 2137.57,-580.366"/>
<text text-anchor="middle" x="2196.5" y="-665.3" font-family="Times,serif" font-size="14.00">58661</text>
</g>
<!-- 1405&#45;&gt;1336 -->
<g id="edge27" class="edge"><title>1405&#45;&gt;1336</title>
<path fill="none" stroke="black" d="M2100.92,-795.33C2097.62,-806.605 2091.5,-820.553 2080.5,-828 2044.63,-852.27 1773.84,-859.789 1635.83,-862.056"/>
<polygon fill="black" stroke="black" points="1635.67,-858.558 1625.73,-862.217 1635.78,-865.557 1635.67,-858.558"/>
<text text-anchor="middle" x="2110.5" y="-816.8" font-family="Times,serif" font-size="14.00">58706</text>
</g>
<!-- 1405&#45;&gt;1238 -->
<g id="edge55" class="edge"><title>1405&#45;&gt;1238</title>
<path fill="none" stroke="black" d="M2154.5,-770.468C2176.89,-765.766 2202.28,-757.072 2220.5,-741 2251.55,-713.616 2253.09,-691.496 2244.5,-651 2239.05,-625.309 2240.33,-614.217 2220.5,-597 2206.71,-585.027 2189.08,-577.135 2171.5,-571.937"/>
<polygon fill="black" stroke="black" points="2172.33,-568.536 2161.77,-569.317 2170.51,-575.296 2172.33,-568.536"/>
<text text-anchor="middle" x="2266.5" y="-665.3" font-family="Times,serif" font-size="14.00">58723</text>
</g>
<!-- 1393&#45;&gt;1336 -->
<g id="edge33" class="edge"><title>1393&#45;&gt;1336</title>
<path fill="none" stroke="black" d="M1241.7,-795.41C1242.81,-806.423 1246.18,-820.037 1255.5,-828 1287.55,-855.38 1397.68,-862.174 1475.17,-863.44"/>
<polygon fill="black" stroke="black" points="1475.35,-866.942 1485.4,-863.578 1475.44,-859.943 1475.35,-866.942"/>
<text text-anchor="middle" x="1272.5" y="-816.8" font-family="Times,serif" font-size="14.00">58507</text>
</g>
<!-- 1393&#45;&gt;1238 -->
<g id="edge59" class="edge"><title>1393&#45;&gt;1238</title>
<path fill="none" stroke="black" d="M1236.5,-758.762C1230.23,-734.024 1221.87,-687.423 1235.5,-651 1246.65,-621.201 1253.71,-610.54 1282.5,-597 1319.41,-579.642 1975.98,-583.709 2016.5,-579 2023.21,-578.22 2030.19,-577.153 2037.12,-575.93"/>
<polygon fill="black" stroke="black" points="2038,-579.326 2047.18,-574.043 2036.71,-572.446 2038,-579.326"/>
<text text-anchor="middle" x="1252.5" y="-665.3" font-family="Times,serif" font-size="14.00">58546</text>
</g>
<!-- 1351&#45;&gt;1336 -->
<g id="edge39" class="edge"><title>1351&#45;&gt;1336</title>
<path fill="none" stroke="black" d="M1358.39,-795.08C1358.65,-805.953 1360.94,-819.536 1369.5,-828 1384.62,-842.949 1431.99,-851.728 1475.14,-856.755"/>
<polygon fill="black" stroke="black" points="1474.8,-860.24 1485.13,-857.863 1475.57,-853.282 1474.8,-860.24"/>
<text text-anchor="middle" x="1386.5" y="-816.8" font-family="Times,serif" font-size="14.00">56454</text>
</g>
<!-- 1351&#45;&gt;1238 -->
<g id="edge64" class="edge"><title>1351&#45;&gt;1238</title>
<path fill="none" stroke="black" d="M1336.04,-758.913C1316.2,-742.885 1289.19,-716.944 1277.5,-687 1259.17,-640.049 1299.07,-614.068 1346.5,-597 1416.57,-571.782 1942.54,-587.683 2016.5,-579 2023.21,-578.212 2030.19,-577.14 2037.11,-575.914"/>
<polygon fill="black" stroke="black" points="2037.99,-579.31 2047.18,-574.025 2036.7,-572.43 2037.99,-579.31"/>
<text text-anchor="middle" x="1294.5" y="-665.3" font-family="Times,serif" font-size="14.00">56471</text>
</g>
<!-- 1666&#45;&gt;1663 -->
<g id="edge23" class="edge"><title>1666&#45;&gt;1663</title>
<path fill="none" stroke="black" d="M54.8407,-210.058C59.871,-219.911 66.621,-232.411 73.5,-243 75.5877,-246.214 77.8883,-249.506 80.2394,-252.723"/>
<polygon fill="black" stroke="black" points="77.6449,-255.094 86.4687,-260.959 83.2279,-250.872 77.6449,-255.094"/>
<text text-anchor="middle" x="90.5" y="-231.8" font-family="Times,serif" font-size="14.00">70412</text>
</g>
<!-- 1672&#45;&gt;1663 -->
<g id="edge29" class="edge"><title>1672&#45;&gt;1663</title>
<path fill="none" stroke="black" d="M164.144,-210.246C167.935,-220.398 170.348,-233.137 164.5,-243 161.863,-247.448 158.439,-251.367 154.547,-254.813"/>
<polygon fill="black" stroke="black" points="152.415,-252.037 146.567,-260.872 156.648,-257.612 152.415,-252.037"/>
<text text-anchor="middle" x="185.5" y="-231.8" font-family="Times,serif" font-size="14.00">70499</text>
</g>
<!-- 1674 -->
<g id="node20" class="node"><title>1674</title>
<polygon fill="none" stroke="black" points="282.5,-123 142.5,-123 142.5,-87 282.5,-87 282.5,-123"/>
<text text-anchor="middle" x="212.5" y="-101.3" font-family="Times,serif" font-size="14.00">1674: /usr/bin/python3</text>
</g>
<!-- 1672&#45;&gt;1674 -->
<g id="edge30" class="edge"><title>1672&#45;&gt;1674</title>
<path fill="none" stroke="black" d="M175.056,-173.988C180.511,-168.604 186.133,-162.383 190.5,-156 195.394,-148.845 199.598,-140.425 202.981,-132.556"/>
<polygon fill="black" stroke="black" points="206.332,-133.603 206.817,-123.019 199.838,-130.991 206.332,-133.603"/>
<text text-anchor="middle" x="216.5" y="-144.8" font-family="Times,serif" font-size="14.00">70502</text>
</g>
<!-- 1674&#45;&gt;1672 -->
<g id="edge35" class="edge"><title>1674&#45;&gt;1672</title>
<path fill="none" stroke="black" d="M169.861,-123.192C162.913,-127.916 156.644,-133.785 152.5,-141 148.629,-147.74 147.827,-155.868 148.422,-163.593"/>
<polygon fill="black" stroke="black" points="144.995,-164.342 149.943,-173.71 151.917,-163.301 144.995,-164.342"/>
<text text-anchor="middle" x="169.5" y="-144.8" font-family="Times,serif" font-size="14.00">70503</text>
</g>
<!-- 1706 -->
<g id="node31" class="node"><title>1706</title>
<ellipse fill="none" stroke="black" cx="212.5" cy="-18" rx="139.976" ry="18"/>
<text text-anchor="middle" x="212.5" y="-14.3" font-family="Times,serif" font-size="14.00">1706: /home/feishao/sysrep_random</text>
</g>
<!-- 1674&#45;&gt;1706 -->
<g id="edge63" class="edge"><title>1674&#45;&gt;1706</title>
<path fill="none" stroke="black" d="M212.5,-86.799C212.5,-75.1626 212.5,-59.5479 212.5,-46.2368"/>
<polygon fill="black" stroke="black" points="216,-46.1754 212.5,-36.1754 209,-46.1755 216,-46.1754"/>
<text text-anchor="middle" x="229.5" y="-57.8" font-family="Times,serif" font-size="14.00">72549</text>
</g>
<!-- 1578 -->
<g id="node22" class="node"><title>1578</title>
<polygon fill="none" stroke="black" points="1537.73,-579 1066.5,-579 945.272,-543 1416.5,-543 1537.73,-579"/>
<text text-anchor="middle" x="1241.5" y="-557.3" font-family="Times,serif" font-size="14.00">1578: 129.22.31.135/32:33288&#45;&gt;162.125.6.18/32:443</text>
</g>
<!-- 1569&#45;&gt;1578 -->
<g id="edge53" class="edge"><title>1569&#45;&gt;1578</title>
<path fill="none" stroke="black" d="M874.382,-650.89C862.376,-635.188 849.704,-612.133 863.5,-597 870.154,-589.702 953.466,-581.564 1040.18,-574.973"/>
<polygon fill="black" stroke="black" points="1040.51,-578.458 1050.22,-574.218 1039.99,-571.478 1040.51,-578.458"/>
<text text-anchor="middle" x="880.5" y="-611.3" font-family="Times,serif" font-size="14.00">66454</text>
</g>
<!-- 1644 -->
<g id="node26" class="node"><title>1644</title>
<polygon fill="none" stroke="black" points="663.728,-579 192.495,-579 71.2718,-543 542.505,-543 663.728,-579"/>
<text text-anchor="middle" x="367.5" y="-557.3" font-family="Times,serif" font-size="14.00">1644: 129.22.31.135/32:36352&#45;&gt;162.125.6.15/32:443</text>
</g>
<!-- 1569&#45;&gt;1644 -->
<g id="edge52" class="edge"><title>1569&#45;&gt;1644</title>
<path fill="none" stroke="black" d="M828.251,-653.868C763.028,-638.995 656.705,-615.255 564.5,-597 536.381,-591.433 505.92,-585.818 477.549,-580.765"/>
<polygon fill="black" stroke="black" points="478.066,-577.302 467.609,-579.002 476.844,-584.194 478.066,-577.302"/>
<text text-anchor="middle" x="750.5" y="-611.3" font-family="Times,serif" font-size="14.00">70173</text>
</g>
<!-- 1651 -->
<g id="node28" class="node"><title>1651</title>
<ellipse fill="none" stroke="black" cx="1781.5" cy="-561" rx="225.56" ry="18"/>
<text text-anchor="middle" x="1781.5" y="-557.3" font-family="Times,serif" font-size="14.00">1651: /home/feishao/sysdigscripts/case1/call_others.py?dl=0</text>
</g>
<!-- 1569&#45;&gt;1651 -->
<g id="edge50" class="edge"><title>1569&#45;&gt;1651</title>
<path fill="none" stroke="black" d="M928.158,-650.924C937.07,-645.927 946.096,-639.916 953.5,-633 967.375,-620.039 959.994,-606.383 976.5,-597 1004.04,-581.342 1514.86,-580.643 1546.5,-579 1569.2,-577.821 1593.11,-576.353 1616.65,-574.777"/>
<polygon fill="black" stroke="black" points="1616.97,-578.264 1626.71,-574.096 1616.49,-571.28 1616.97,-578.264"/>
<text text-anchor="middle" x="993.5" y="-611.3" font-family="Times,serif" font-size="14.00">70298</text>
</g>
<!-- 1569&#45;&gt;1238 -->
<g id="edge54" class="edge"><title>1569&#45;&gt;1238</title>
<path fill="none" stroke="black" d="M950.643,-659.28C971.136,-654.133 993.16,-645.962 1010.5,-633 1025.71,-621.632 1016.93,-606.274 1033.5,-597 1081.16,-570.322 1962.23,-585.137 2016.5,-579 2023.31,-578.23 2030.4,-577.156 2037.42,-575.92"/>
<polygon fill="black" stroke="black" points="2038.43,-579.29 2047.62,-574.007 2037.14,-572.41 2038.43,-579.29"/>
<text text-anchor="middle" x="1050.5" y="-611.3" font-family="Times,serif" font-size="14.00">66413</text>
</g>
<!-- 1575 -->
<g id="node30" class="node"><title>1575</title>
<ellipse fill="none" stroke="black" cx="804.5" cy="-561" rx="122.379" ry="18"/>
<text text-anchor="middle" x="804.5" y="-557.3" font-family="Times,serif" font-size="14.00">1575: /home/feishao/.wget&#45;hsts</text>
</g>
<!-- 1569&#45;&gt;1575 -->
<g id="edge51" class="edge"><title>1569&#45;&gt;1575</title>
<path fill="none" stroke="black" d="M828.189,-652.599C819.252,-647.747 811.168,-641.373 805.5,-633 796.965,-620.391 796.433,-603.421 798.169,-589.233"/>
<polygon fill="black" stroke="black" points="801.675,-589.48 799.843,-579.045 794.767,-588.345 801.675,-589.48"/>
<text text-anchor="middle" x="822.5" y="-611.3" font-family="Times,serif" font-size="14.00">70308</text>
</g>
<!-- 1578&#45;&gt;1569 -->
<g id="edge40" class="edge"><title>1578&#45;&gt;1569</title>
<path fill="none" stroke="black" d="M1031.03,-568.576C982.351,-573.73 939.069,-582.441 919.5,-597 911.961,-602.609 903.665,-623.431 897.712,-641.087"/>
<polygon fill="black" stroke="black" points="894.26,-640.385 894.501,-650.977 900.918,-642.547 894.26,-640.385"/>
<text text-anchor="middle" x="936.5" y="-611.3" font-family="Times,serif" font-size="14.00">66457</text>
</g>
<!-- 1675 -->
<g id="node23" class="node"><title>1675</title>
<ellipse fill="none" stroke="black" cx="475.5" cy="-192" rx="258.854" ry="18"/>
<text text-anchor="middle" x="475.5" y="-188.3" font-family="Times,serif" font-size="14.00">1675: /home/feishao/sysrep_test_temp/python_write_random_data.py</text>
</g>
<!-- 1675&#45;&gt;1674 -->
<g id="edge41" class="edge"><title>1675&#45;&gt;1674</title>
<path fill="none" stroke="black" d="M423.853,-174.308C381.207,-160.525 320.526,-140.913 275.116,-126.237"/>
<polygon fill="black" stroke="black" points="275.971,-122.835 265.38,-123.09 273.819,-129.496 275.971,-122.835"/>
<text text-anchor="middle" x="377.5" y="-144.8" font-family="Times,serif" font-size="14.00">70575</text>
</g>
<!-- 1337 -->
<g id="node24" class="node"><title>1337</title>
<ellipse fill="none" stroke="black" cx="2479.5" cy="-951" rx="186.567" ry="18"/>
<text text-anchor="middle" x="2479.5" y="-947.3" font-family="Times,serif" font-size="14.00">1337: /home/feishao/sysdigscripts/case1/case1.py</text>
</g>
<!-- 1337&#45;&gt;1336 -->
<g id="edge42" class="edge"><title>1337&#45;&gt;1336</title>
<path fill="none" stroke="black" d="M2349.56,-938.047C2155.61,-920.205 1796.11,-887.134 1636.02,-872.407"/>
<polygon fill="black" stroke="black" points="1636.05,-868.895 1625.77,-871.464 1635.41,-875.866 1636.05,-868.895"/>
<text text-anchor="middle" x="2090.5" y="-903.8" font-family="Times,serif" font-size="14.00">56407</text>
</g>
<!-- 1438&#45;&gt;1437 -->
<g id="edge43" class="edge"><title>1438&#45;&gt;1437</title>
<path fill="none" stroke="black" d="M1664.09,-687.125C1663.27,-701.817 1660.95,-723.347 1654.5,-741 1653.37,-744.101 1651.93,-747.217 1650.34,-750.244"/>
<polygon fill="black" stroke="black" points="1647.27,-748.551 1645.23,-758.947 1653.31,-752.095 1647.27,-748.551"/>
<text text-anchor="middle" x="1679.5" y="-719.3" font-family="Times,serif" font-size="14.00">60647</text>
</g>
<!-- 1644&#45;&gt;1569 -->
<g id="edge44" class="edge"><title>1644&#45;&gt;1569</title>
<path fill="none" stroke="black" d="M398.608,-579.073C430.653,-595.804 482.548,-620.552 530.5,-633 628.189,-658.36 745.166,-665.661 818.425,-667.59"/>
<polygon fill="black" stroke="black" points="818.386,-671.09 828.466,-667.828 818.552,-664.092 818.386,-671.09"/>
<text text-anchor="middle" x="547.5" y="-611.3" font-family="Times,serif" font-size="14.00">70175</text>
</g>
<!-- 1659&#45;&gt;1663 -->
<g id="edge45" class="edge"><title>1659&#45;&gt;1663</title>
<path fill="none" stroke="black" d="M673.4,-350.677C533.514,-333.42 302.186,-304.881 180.694,-289.893"/>
<polygon fill="black" stroke="black" points="181.066,-286.413 170.713,-288.662 180.209,-293.36 181.066,-286.413"/>
<text text-anchor="middle" x="503.5" y="-318.8" font-family="Times,serif" font-size="14.00">70404</text>
</g>
<!-- 1651&#45;&gt;1656 -->
<g id="edge46" class="edge"><title>1651&#45;&gt;1656</title>
<path fill="none" stroke="black" d="M1833.06,-543.438C1893.2,-524.12 1992.31,-492.287 2054.63,-472.267"/>
<polygon fill="black" stroke="black" points="2055.86,-475.55 2064.31,-469.159 2053.72,-468.885 2055.86,-475.55"/>
<text text-anchor="middle" x="2012.5" y="-503.3" font-family="Times,serif" font-size="14.00">70324</text>
</g>
</g>
</svg>
