<?xml version="1.0" encoding="UTF-8" standalone="no"?>
<!DOCTYPE svg PUBLIC "-//W3C//DTD SVG 1.1//EN"
 "http://www.w3.org/Graphics/SVG/1.1/DTD/svg11.dtd">
<!-- Generated by graphviz version 2.38.0 (20140413.2041)
 -->
<!-- Title: G Pages: 1 -->
<svg width="2770pt" height="653pt"
 viewBox="0.00 0.00 2770.04 653.00" xmlns="http://www.w3.org/2000/svg" xmlns:xlink="http://www.w3.org/1999/xlink">
<g id="graph0" class="graph" transform="scale(1 1) rotate(0) translate(4 649)">
<title>G</title>
<polygon fill="white" stroke="none" points="-4,4 -4,-649 2766.04,-649 2766.04,4 -4,4"/>
<!-- 97473 -->
<g id="node1" class="node"><title>97473</title>
<polygon fill="none" stroke="black" points="899.804,-645 775.804,-645 775.804,-609 899.804,-609 899.804,-645"/>
<text text-anchor="middle" x="837.804" y="-623.3" font-family="Times,serif" font-size="14.00">97473: /usr/bin/curl</text>
</g>
<!-- 97442 -->
<g id="node2" class="node"><title>97442</title>
<polygon fill="none" stroke="black" points="969.304,-558 862.304,-558 862.304,-522 969.304,-522 969.304,-558"/>
<text text-anchor="middle" x="915.804" y="-536.3" font-family="Times,serif" font-size="14.00">97442: /bin/bash</text>
</g>
<!-- 97473&#45;&gt;97442 -->
<g id="edge1" class="edge"><title>97473&#45;&gt;97442</title>
<path fill="none" stroke="black" d="M833.845,-608.91C832.434,-598.568 832.503,-585.573 838.804,-576 842.655,-570.149 847.744,-565.263 853.477,-561.186"/>
<polygon fill="black" stroke="black" points="855.587,-563.997 862.267,-555.773 851.916,-558.036 855.587,-563.997"/>
<text text-anchor="middle" x="866.304" y="-579.8" font-family="Times,serif" font-size="14.00">16482708</text>
</g>
<!-- 97442&#45;&gt;97473 -->
<g id="edge6" class="edge"><title>97442&#45;&gt;97473</title>
<path fill="none" stroke="black" d="M911.085,-558.166C907.588,-568.536 901.995,-581.534 893.804,-591 889.959,-595.443 885.409,-599.51 880.59,-603.173"/>
<polygon fill="black" stroke="black" points="878.505,-600.361 872.305,-608.952 882.509,-606.102 878.505,-600.361"/>
<text text-anchor="middle" x="931.304" y="-579.8" font-family="Times,serif" font-size="14.00">16482707</text>
</g>
<!-- 97477 -->
<g id="node3" class="node"><title>97477</title>
<polygon fill="none" stroke="black" points="894.804,-471 770.804,-471 770.804,-435 894.804,-435 894.804,-471"/>
<text text-anchor="middle" x="832.804" y="-449.3" font-family="Times,serif" font-size="14.00">97477: /usr/bin/curl</text>
</g>
<!-- 97442&#45;&gt;97477 -->
<g id="edge8" class="edge"><title>97442&#45;&gt;97477</title>
<path fill="none" stroke="black" d="M862.168,-534.051C842.762,-529.364 822.713,-520.523 810.804,-504 805.51,-496.655 807.224,-487.835 811.455,-479.661"/>
<polygon fill="black" stroke="black" points="814.451,-481.472 816.822,-471.145 808.529,-477.739 814.451,-481.472"/>
<text text-anchor="middle" x="838.304" y="-492.8" font-family="Times,serif" font-size="14.00">16482907</text>
</g>
<!-- 97518 -->
<g id="node4" class="node"><title>97518</title>
<polygon fill="none" stroke="black" points="943.304,-297 842.304,-297 842.304,-261 943.304,-261 943.304,-297"/>
<text text-anchor="middle" x="892.804" y="-275.3" font-family="Times,serif" font-size="14.00">97518: /bin/mv</text>
</g>
<!-- 97442&#45;&gt;97518 -->
<g id="edge9" class="edge"><title>97442&#45;&gt;97518</title>
<path fill="none" stroke="black" d="M862.297,-538.951C672.522,-538.516 41.391,-534.755 11.8035,-504 -2.83033,-488.789 -8.28037,-466.563 25.8035,-435 143.985,-325.56 654.838,-291.274 832.016,-282.564"/>
<polygon fill="black" stroke="black" points="832.381,-286.05 842.201,-282.073 832.044,-279.058 832.381,-286.05"/>
<text text-anchor="middle" x="102.304" y="-405.8" font-family="Times,serif" font-size="14.00">16508486</text>
</g>
<!-- 97454 -->
<g id="node5" class="node"><title>97454</title>
<polygon fill="none" stroke="black" points="1036.8,-471 912.804,-471 912.804,-435 1036.8,-435 1036.8,-471"/>
<text text-anchor="middle" x="974.804" y="-449.3" font-family="Times,serif" font-size="14.00">97454: /usr/bin/curl</text>
</g>
<!-- 97442&#45;&gt;97454 -->
<g id="edge4" class="edge"><title>97442&#45;&gt;97454</title>
<path fill="none" stroke="black" d="M927.743,-521.799C936.14,-509.702 947.521,-493.305 956.988,-479.667"/>
<polygon fill="black" stroke="black" points="960.055,-481.386 962.882,-471.175 954.304,-477.395 960.055,-481.386"/>
<text text-anchor="middle" x="977.304" y="-492.8" font-family="Times,serif" font-size="14.00">16481413</text>
</g>
<!-- 97471 -->
<g id="node6" class="node"><title>97471</title>
<polygon fill="none" stroke="black" points="463.804,-471 339.804,-471 339.804,-435 463.804,-435 463.804,-471"/>
<text text-anchor="middle" x="401.804" y="-449.3" font-family="Times,serif" font-size="14.00">97471: /usr/bin/curl</text>
</g>
<!-- 97442&#45;&gt;97471 -->
<g id="edge5" class="edge"><title>97442&#45;&gt;97471</title>
<path fill="none" stroke="black" d="M862.298,-537.76C721.431,-534.234 349.845,-523.155 331.804,-504 322.06,-493.655 329.231,-484.092 342.089,-476.16"/>
<polygon fill="black" stroke="black" points="344.122,-479.039 351.239,-471.19 340.781,-472.887 344.122,-479.039"/>
<text text-anchor="middle" x="359.304" y="-492.8" font-family="Times,serif" font-size="14.00">16482650</text>
</g>
<!-- 97475 -->
<g id="node7" class="node"><title>97475</title>
<polygon fill="none" stroke="black" points="1484.8,-471 1360.8,-471 1360.8,-435 1484.8,-435 1484.8,-471"/>
<text text-anchor="middle" x="1422.8" y="-449.3" font-family="Times,serif" font-size="14.00">97475: /usr/bin/curl</text>
</g>
<!-- 97442&#45;&gt;97475 -->
<g id="edge7" class="edge"><title>97442&#45;&gt;97475</title>
<path fill="none" stroke="black" d="M969.313,-538.783C1071.82,-537.719 1291.91,-532.117 1361.8,-504 1376.12,-498.243 1389.64,-487.87 1400.31,-478.058"/>
<polygon fill="black" stroke="black" points="1402.77,-480.549 1407.54,-471.088 1397.91,-475.51 1402.77,-480.549"/>
<text text-anchor="middle" x="1414.3" y="-492.8" font-family="Times,serif" font-size="14.00">16482767</text>
</g>
<!-- 97481 -->
<g id="node8" class="node"><title>97481</title>
<polygon fill="none" stroke="black" points="158.804,-471 34.8035,-471 34.8035,-435 158.804,-435 158.804,-471"/>
<text text-anchor="middle" x="96.8035" y="-449.3" font-family="Times,serif" font-size="14.00">97481: /usr/bin/curl</text>
</g>
<!-- 97442&#45;&gt;97481 -->
<g id="edge10" class="edge"><title>97442&#45;&gt;97481</title>
<path fill="none" stroke="black" d="M862.119,-538.931C673.235,-538.426 49.0906,-534.453 19.8035,-504 9.41878,-493.202 17.0396,-483.592 30.8442,-475.755"/>
<polygon fill="black" stroke="black" points="32.7549,-478.713 40.1329,-471.109 29.6236,-472.452 32.7549,-478.713"/>
<text text-anchor="middle" x="47.3035" y="-492.8" font-family="Times,serif" font-size="14.00">16483040</text>
</g>
<!-- 97447 -->
<g id="node9" class="node"><title>97447</title>
<polygon fill="none" stroke="black" points="314.804,-471 190.804,-471 190.804,-435 314.804,-435 314.804,-471"/>
<text text-anchor="middle" x="252.804" y="-449.3" font-family="Times,serif" font-size="14.00">97447: /usr/bin/curl</text>
</g>
<!-- 97442&#45;&gt;97447 -->
<g id="edge11" class="edge"><title>97442&#45;&gt;97447</title>
<path fill="none" stroke="black" d="M862.184,-538.467C696.028,-536.554 199.439,-528.78 175.804,-504 165.463,-493.159 173.096,-483.539 186.898,-475.704"/>
<polygon fill="black" stroke="black" points="188.804,-478.664 196.183,-471.061 185.673,-472.403 188.804,-478.664"/>
<text text-anchor="middle" x="203.304" y="-492.8" font-family="Times,serif" font-size="14.00">16480444</text>
</g>
<!-- 97483 -->
<g id="node10" class="node"><title>97483</title>
<polygon fill="none" stroke="black" points="1737.3,-471 1608.3,-471 1608.3,-435 1737.3,-435 1737.3,-471"/>
<text text-anchor="middle" x="1672.8" y="-449.3" font-family="Times,serif" font-size="14.00">97483: /usr/bin/wget</text>
</g>
<!-- 97442&#45;&gt;97483 -->
<g id="edge12" class="edge"><title>97442&#45;&gt;97483</title>
<path fill="none" stroke="black" d="M969.356,-537.784C1117.27,-534.201 1524.32,-522.744 1581.8,-504 1593.41,-500.217 1594.25,-495.134 1604.8,-489 1612.48,-484.539 1620.78,-480.022 1628.86,-475.781"/>
<polygon fill="black" stroke="black" points="1630.57,-478.836 1637.84,-471.129 1627.35,-472.62 1630.57,-478.836"/>
<text text-anchor="middle" x="1632.3" y="-492.8" font-family="Times,serif" font-size="14.00">16483108</text>
</g>
<!-- 1237 -->
<g id="node11" class="node"><title>1237</title>
<polygon fill="none" stroke="black" points="1177.3,-471 1076.3,-471 1076.3,-435 1177.3,-435 1177.3,-471"/>
<text text-anchor="middle" x="1126.8" y="-449.3" font-family="Times,serif" font-size="14.00">1237: /bin/bash</text>
</g>
<!-- 97442&#45;&gt;1237 -->
<g id="edge13" class="edge"><title>97442&#45;&gt;1237</title>
<path fill="none" stroke="black" d="M969.396,-533.678C1000.36,-528.982 1039.29,-520.227 1070.8,-504 1083.24,-497.598 1095.09,-487.777 1104.66,-478.529"/>
<polygon fill="black" stroke="black" points="1107.26,-480.877 1111.81,-471.311 1102.29,-475.949 1107.26,-480.877"/>
<text text-anchor="middle" x="1121.3" y="-492.8" font-family="Times,serif" font-size="14.00">16480437</text>
</g>
<!-- 97468 -->
<g id="node12" class="node"><title>97468</title>
<polygon fill="none" stroke="black" points="1335.8,-471 1211.8,-471 1211.8,-435 1335.8,-435 1335.8,-471"/>
<text text-anchor="middle" x="1273.8" y="-449.3" font-family="Times,serif" font-size="14.00">97468: /usr/bin/curl</text>
</g>
<!-- 97442&#45;&gt;97468 -->
<g id="edge14" class="edge"><title>97442&#45;&gt;97468</title>
<path fill="none" stroke="black" d="M969.547,-536.51C1043.64,-532.437 1172.89,-522.844 1215.8,-504 1229.19,-498.121 1241.78,-488.067 1251.78,-478.509"/>
<polygon fill="black" stroke="black" points="1254.32,-480.925 1258.9,-471.374 1249.36,-475.981 1254.32,-480.925"/>
<text text-anchor="middle" x="1267.3" y="-492.8" font-family="Times,serif" font-size="14.00">16482590</text>
</g>
<!-- 97521 -->
<g id="node13" class="node"><title>97521</title>
<polygon fill="none" stroke="black" points="2679.3,-123 2578.3,-123 2578.3,-87 2679.3,-87 2679.3,-123"/>
<text text-anchor="middle" x="2628.8" y="-101.3" font-family="Times,serif" font-size="14.00">97521: /bin/mv</text>
</g>
<!-- 97442&#45;&gt;97521 -->
<g id="edge15" class="edge"><title>97442&#45;&gt;97521</title>
<path fill="none" stroke="black" d="M969.423,-539.209C1259.58,-539.994 2628.8,-539.188 2628.8,-454 2628.8,-454 2628.8,-454 2628.8,-191 2628.8,-171.753 2628.8,-150.054 2628.8,-133.397"/>
<polygon fill="black" stroke="black" points="2632.3,-133.256 2628.8,-123.256 2625.3,-133.256 2632.3,-133.256"/>
<text text-anchor="middle" x="2656.3" y="-318.8" font-family="Times,serif" font-size="14.00">16508501</text>
</g>
<!-- 97458 -->
<g id="node14" class="node"><title>97458</title>
<polygon fill="none" stroke="black" points="610.804,-471 486.804,-471 486.804,-435 610.804,-435 610.804,-471"/>
<text text-anchor="middle" x="548.804" y="-449.3" font-family="Times,serif" font-size="14.00">97458: /usr/bin/curl</text>
</g>
<!-- 97442&#45;&gt;97458 -->
<g id="edge16" class="edge"><title>97442&#45;&gt;97458</title>
<path fill="none" stroke="black" d="M862.166,-536.804C785.91,-533.032 650.448,-523.737 605.804,-504 592.694,-498.204 580.424,-488.293 570.651,-478.815"/>
<polygon fill="black" stroke="black" points="572.879,-476.088 563.381,-471.395 567.879,-480.987 572.879,-476.088"/>
<text text-anchor="middle" x="633.304" y="-492.8" font-family="Times,serif" font-size="14.00">16481566</text>
</g>
<!-- 97462 -->
<g id="node15" class="node"><title>97462</title>
<polygon fill="none" stroke="black" points="752.804,-471 628.804,-471 628.804,-435 752.804,-435 752.804,-471"/>
<text text-anchor="middle" x="690.804" y="-449.3" font-family="Times,serif" font-size="14.00">97462: /usr/bin/curl</text>
</g>
<!-- 97442&#45;&gt;97462 -->
<g id="edge17" class="edge"><title>97442&#45;&gt;97462</title>
<path fill="none" stroke="black" d="M862.036,-534.664C828.148,-530.287 784.257,-521.522 748.804,-504 736.014,-497.679 723.755,-487.871 713.829,-478.611"/>
<polygon fill="black" stroke="black" points="716.009,-475.849 706.404,-471.379 711.125,-480.863 716.009,-475.849"/>
<text text-anchor="middle" x="776.304" y="-492.8" font-family="Times,serif" font-size="14.00">16482443</text>
</g>
<!-- 97477&#45;&gt;97442 -->
<g id="edge2" class="edge"><title>97477&#45;&gt;97442</title>
<path fill="none" stroke="black" d="M849.575,-471.175C861.719,-483.612 878.31,-500.603 891.848,-514.467"/>
<polygon fill="black" stroke="black" points="889.517,-517.089 899.007,-521.799 894.525,-512.199 889.517,-517.089"/>
<text text-anchor="middle" x="907.304" y="-492.8" font-family="Times,serif" font-size="14.00">16482908</text>
</g>
<!-- 1238 -->
<g id="node22" class="node"><title>1238</title>
<ellipse fill="none" stroke="black" cx="711.804" cy="-366" rx="72.2875" ry="18"/>
<text text-anchor="middle" x="711.804" y="-362.3" font-family="Times,serif" font-size="14.00">1238: /dev/pts/11</text>
</g>
<!-- 97477&#45;&gt;1238 -->
<g id="edge38" class="edge"><title>97477&#45;&gt;1238</title>
<path fill="none" stroke="black" d="M808.499,-434.859C794.793,-425.198 777.35,-412.916 761.804,-402 755.782,-397.772 749.348,-393.263 743.169,-388.936"/>
<polygon fill="black" stroke="black" points="745.163,-386.059 734.964,-383.192 741.149,-391.794 745.163,-386.059"/>
<text text-anchor="middle" x="809.304" y="-405.8" font-family="Times,serif" font-size="14.00">16483023</text>
</g>
<!-- 97518&#45;&gt;97442 -->
<g id="edge3" class="edge"><title>97518&#45;&gt;97442</title>
<path fill="none" stroke="black" d="M872.737,-297.368C849.261,-319.705 816.507,-358.634 840.804,-384 856.882,-400.786 1235.69,-399.498 1258.8,-402 1297.38,-406.177 1306.42,-411.338 1344.8,-417 1444.25,-431.67 1626.03,-380.727 1509.8,-504 1491.84,-523.05 1129.71,-533.88 979.863,-537.56"/>
<polygon fill="black" stroke="black" points="979.361,-534.071 969.448,-537.813 979.53,-541.069 979.361,-534.071"/>
<text text-anchor="middle" x="1372.3" y="-405.8" font-family="Times,serif" font-size="14.00">16508487</text>
</g>
<!-- 97519 -->
<g id="node19" class="node"><title>97519</title>
<ellipse fill="none" stroke="black" cx="2038.8" cy="-192" rx="202.564" ry="18"/>
<text text-anchor="middle" x="2038.8" y="-188.3" font-family="Times,serif" font-size="14.00">97519: /home/feishao/sysdigscripts/case4/hide_file.txt</text>
</g>
<!-- 97518&#45;&gt;97519 -->
<g id="edge35" class="edge"><title>97518&#45;&gt;97519</title>
<path fill="none" stroke="black" d="M943.524,-274.238C1105.61,-262.216 1615.79,-224.375 1878.7,-204.875"/>
<polygon fill="black" stroke="black" points="1879,-208.363 1888.71,-204.132 1878.48,-201.382 1879,-208.363"/>
<text text-anchor="middle" x="1562.3" y="-231.8" font-family="Times,serif" font-size="14.00">16508498</text>
</g>
<!-- 97454&#45;&gt;97442 -->
<g id="edge22" class="edge"><title>97454&#45;&gt;97442</title>
<path fill="none" stroke="black" d="M998.025,-471.172C1008.21,-480.842 1016.33,-493.124 1008.8,-504 1001.52,-514.521 990.652,-521.884 978.885,-527.035"/>
<polygon fill="black" stroke="black" points="977.39,-523.86 969.308,-530.71 979.898,-530.395 977.39,-523.86"/>
<text text-anchor="middle" x="1039.3" y="-492.8" font-family="Times,serif" font-size="14.00">16481414</text>
</g>
<!-- 97454&#45;&gt;1238 -->
<g id="edge36" class="edge"><title>97454&#45;&gt;1238</title>
<path fill="none" stroke="black" d="M932.308,-434.999C906.134,-424.815 871.771,-411.955 840.804,-402 818.197,-394.733 793.052,-387.683 771.01,-381.838"/>
<polygon fill="black" stroke="black" points="771.682,-378.396 761.121,-379.241 769.904,-385.166 771.682,-378.396"/>
<text text-anchor="middle" x="909.304" y="-405.8" font-family="Times,serif" font-size="14.00">16481524</text>
</g>
<!-- 97471&#45;&gt;97442 -->
<g id="edge23" class="edge"><title>97471&#45;&gt;97442</title>
<path fill="none" stroke="black" d="M417.069,-471.094C428.438,-482.572 445.014,-496.856 462.804,-504 531.765,-531.693 744.615,-537.581 852.185,-538.76"/>
<polygon fill="black" stroke="black" points="852.224,-542.261 862.258,-538.86 852.294,-535.261 852.224,-542.261"/>
<text text-anchor="middle" x="490.304" y="-492.8" font-family="Times,serif" font-size="14.00">16482651</text>
</g>
<!-- 97475&#45;&gt;97442 -->
<g id="edge24" class="edge"><title>97475&#45;&gt;97442</title>
<path fill="none" stroke="black" d="M1439.83,-471.348C1448.04,-481.787 1454.42,-494.792 1445.8,-504 1414.56,-537.379 1113.61,-540.046 979.612,-539.553"/>
<polygon fill="black" stroke="black" points="979.502,-536.053 969.486,-539.509 979.471,-543.053 979.502,-536.053"/>
<text text-anchor="middle" x="1478.3" y="-492.8" font-family="Times,serif" font-size="14.00">16482768</text>
</g>
<!-- 97475&#45;&gt;1238 -->
<g id="edge37" class="edge"><title>97475&#45;&gt;1238</title>
<path fill="none" stroke="black" d="M1360.77,-437.777C1355.38,-436.756 1350.01,-435.811 1344.8,-435 1107.92,-398.074 1045.36,-416.261 807.804,-384 797.929,-382.659 787.519,-381.036 777.342,-379.331"/>
<polygon fill="black" stroke="black" points="777.718,-375.844 767.271,-377.606 776.536,-382.744 777.718,-375.844"/>
<text text-anchor="middle" x="1227.3" y="-405.8" font-family="Times,serif" font-size="14.00">16482897</text>
</g>
<!-- 97481&#45;&gt;97442 -->
<g id="edge25" class="edge"><title>97481&#45;&gt;97442</title>
<path fill="none" stroke="black" d="M97.4972,-471.21C98.9399,-482.432 102.808,-496.365 112.804,-504 142.018,-526.317 667.423,-535.611 852.186,-538.198"/>
<polygon fill="black" stroke="black" points="852.247,-541.699 862.294,-538.338 852.344,-534.7 852.247,-541.699"/>
<text text-anchor="middle" x="140.304" y="-492.8" font-family="Times,serif" font-size="14.00">16483041</text>
</g>
<!-- 97481&#45;&gt;1238 -->
<g id="edge39" class="edge"><title>97481&#45;&gt;1238</title>
<path fill="none" stroke="black" d="M158.968,-439.345C166.652,-437.847 174.404,-436.366 181.804,-435 268.242,-419.046 289.715,-413.906 376.804,-402 464.839,-389.964 566.39,-379.886 634.396,-373.681"/>
<polygon fill="black" stroke="black" points="634.954,-377.145 644.597,-372.756 634.322,-370.173 634.954,-377.145"/>
<text text-anchor="middle" x="404.304" y="-405.8" font-family="Times,serif" font-size="14.00">16483096</text>
</g>
<!-- 97447&#45;&gt;97442 -->
<g id="edge26" class="edge"><title>97447&#45;&gt;97442</title>
<path fill="none" stroke="black" d="M253.523,-471.176C254.977,-482.384 258.849,-496.313 268.804,-504 314.197,-539.054 697.872,-540.469 852.046,-539.595"/>
<polygon fill="black" stroke="black" points="852.324,-543.094 862.303,-539.532 852.281,-536.094 852.324,-543.094"/>
<text text-anchor="middle" x="296.304" y="-492.8" font-family="Times,serif" font-size="14.00">16480445</text>
</g>
<!-- 97447&#45;&gt;1238 -->
<g id="edge40" class="edge"><title>97447&#45;&gt;1238</title>
<path fill="none" stroke="black" d="M314.919,-438.239C320.286,-437.118 325.637,-436.024 330.804,-435 439.928,-413.378 567.265,-391.281 643.613,-378.367"/>
<polygon fill="black" stroke="black" points="644.304,-381.8 653.582,-376.684 643.138,-374.898 644.304,-381.8"/>
<text text-anchor="middle" x="525.304" y="-405.8" font-family="Times,serif" font-size="14.00">16481404</text>
</g>
<!-- 97483&#45;&gt;97442 -->
<g id="edge27" class="edge"><title>97483&#45;&gt;97442</title>
<path fill="none" stroke="black" d="M1673.19,-471.105C1672.44,-482.281 1669.41,-496.201 1659.8,-504 1633.59,-525.271 1155.02,-535.129 979.579,-538.04"/>
<polygon fill="black" stroke="black" points="979.403,-534.542 969.462,-538.206 979.518,-541.541 979.403,-534.542"/>
<text text-anchor="middle" x="1697.3" y="-492.8" font-family="Times,serif" font-size="14.00">16483109</text>
</g>
<!-- 97513 -->
<g id="node16" class="node"><title>97513</title>
<polygon fill="none" stroke="black" points="1978.97,-384 1498.29,-384 1374.64,-348 1855.31,-348 1978.97,-384"/>
<text text-anchor="middle" x="1676.8" y="-362.3" font-family="Times,serif" font-size="14.00">97513: 129.22.31.135/32:34150&#45;&gt;162.125.6.15/32:443</text>
</g>
<!-- 97483&#45;&gt;97513 -->
<g id="edge41" class="edge"><title>97483&#45;&gt;97513</title>
<path fill="none" stroke="black" d="M1666.68,-434.876C1663.99,-425.221 1661.84,-412.938 1663.8,-402 1664.29,-399.283 1664.98,-396.501 1665.78,-393.751"/>
<polygon fill="black" stroke="black" points="1669.16,-394.699 1669.07,-384.104 1662.53,-392.44 1669.16,-394.699"/>
<text text-anchor="middle" x="1691.3" y="-405.8" font-family="Times,serif" font-size="14.00">16486946</text>
</g>
<!-- 97488 -->
<g id="node17" class="node"><title>97488</title>
<polygon fill="none" stroke="black" points="2600.97,-384 2120.29,-384 1996.64,-348 2477.31,-348 2600.97,-384"/>
<text text-anchor="middle" x="2298.8" y="-362.3" font-family="Times,serif" font-size="14.00">97488: 129.22.31.135/32:59318&#45;&gt;162.125.6.18/32:443</text>
</g>
<!-- 97483&#45;&gt;97488 -->
<g id="edge44" class="edge"><title>97483&#45;&gt;97488</title>
<path fill="none" stroke="black" d="M1737.48,-436.923C1787.11,-425.835 1857.47,-411.16 1919.8,-402 1977.31,-393.549 2040.05,-386.773 2097.63,-381.519"/>
<polygon fill="black" stroke="black" points="2098.3,-384.973 2107.95,-380.589 2097.67,-378.001 2098.3,-384.973"/>
<text text-anchor="middle" x="1947.3" y="-405.8" font-family="Times,serif" font-size="14.00">16483173</text>
</g>
<!-- 97516 -->
<g id="node20" class="node"><title>97516</title>
<ellipse fill="none" stroke="black" cx="1102.8" cy="-366" rx="253.455" ry="18"/>
<text text-anchor="middle" x="1102.8" y="-362.3" font-family="Times,serif" font-size="14.00">97516: /home/feishao/sysdigscripts/case4/sysrep_random_data?dl=0</text>
</g>
<!-- 97483&#45;&gt;97516 -->
<g id="edge43" class="edge"><title>97483&#45;&gt;97516</title>
<path fill="none" stroke="black" d="M1630.55,-434.9C1600.9,-423.652 1560.05,-409.644 1522.8,-402 1498.96,-397.106 1386.42,-387.843 1283.84,-380.075"/>
<polygon fill="black" stroke="black" points="1283.87,-376.567 1273.63,-379.305 1283.34,-383.547 1283.87,-376.567"/>
<text text-anchor="middle" x="1605.3" y="-405.8" font-family="Times,serif" font-size="14.00">16487049</text>
</g>
<!-- 97483&#45;&gt;1238 -->
<g id="edge42" class="edge"><title>97483&#45;&gt;1238</title>
<path fill="none" stroke="black" d="M1608.06,-442.51C1566.66,-436.107 1511.89,-427.02 1463.8,-417 1436.89,-411.392 1431.03,-405.794 1403.8,-402 1155.85,-367.445 1090.32,-404.38 840.804,-384 821.624,-382.433 800.924,-380.027 781.839,-377.513"/>
<polygon fill="black" stroke="black" points="782.102,-374.017 771.724,-376.152 781.168,-380.954 782.102,-374.017"/>
<text text-anchor="middle" x="1491.3" y="-405.8" font-family="Times,serif" font-size="14.00">16483126</text>
</g>
<!-- 1237&#45;&gt;97442 -->
<g id="edge18" class="edge"><title>1237&#45;&gt;97442</title>
<path fill="none" stroke="black" d="M1145.54,-471.417C1154.28,-481.628 1161.11,-494.372 1152.8,-504 1130.82,-529.463 1042.01,-536.722 979.59,-538.615"/>
<polygon fill="black" stroke="black" points="979.33,-535.121 969.426,-538.884 979.515,-542.118 979.33,-535.121"/>
<text text-anchor="middle" x="1184.3" y="-492.8" font-family="Times,serif" font-size="14.00">16480436</text>
</g>
<!-- 97468&#45;&gt;97442 -->
<g id="edge19" class="edge"><title>97468&#45;&gt;97442</title>
<path fill="none" stroke="black" d="M1291.8,-471.169C1300.52,-481.54 1307.44,-494.538 1298.8,-504 1277.76,-527.058 1083.05,-535.105 979.653,-537.768"/>
<polygon fill="black" stroke="black" points="979.547,-534.27 969.637,-538.017 979.721,-541.268 979.547,-534.27"/>
<text text-anchor="middle" x="1330.3" y="-492.8" font-family="Times,serif" font-size="14.00">16482591</text>
</g>
<!-- 97521&#45;&gt;97442 -->
<g id="edge20" class="edge"><title>97521&#45;&gt;97442</title>
<path fill="none" stroke="black" d="M2659.18,-123.094C2681.08,-137.901 2706.8,-161.558 2706.8,-191 2706.8,-454 2706.8,-454 2706.8,-454 2706.8,-542.298 1299.55,-540.846 979.873,-539.377"/>
<polygon fill="black" stroke="black" points="979.421,-535.875 969.405,-539.327 979.388,-542.875 979.421,-535.875"/>
<text text-anchor="middle" x="2734.3" y="-318.8" font-family="Times,serif" font-size="14.00">16508502</text>
</g>
<!-- 97522 -->
<g id="node21" class="node"><title>97522</title>
<ellipse fill="none" stroke="black" cx="2628.8" cy="-18" rx="133.477" ry="18"/>
<text text-anchor="middle" x="2628.8" y="-14.3" font-family="Times,serif" font-size="14.00">97522: /home/feishao/hide_file.txt</text>
</g>
<!-- 97521&#45;&gt;97522 -->
<g id="edge34" class="edge"><title>97521&#45;&gt;97522</title>
<path fill="none" stroke="black" d="M2628.8,-86.799C2628.8,-75.1626 2628.8,-59.5479 2628.8,-46.2368"/>
<polygon fill="black" stroke="black" points="2632.3,-46.1754 2628.8,-36.1754 2625.3,-46.1755 2632.3,-46.1754"/>
<text text-anchor="middle" x="2656.3" y="-57.8" font-family="Times,serif" font-size="14.00">16508515</text>
</g>
<!-- 97458&#45;&gt;97442 -->
<g id="edge21" class="edge"><title>97458&#45;&gt;97442</title>
<path fill="none" stroke="black" d="M531.329,-471.227C522.875,-481.62 516.226,-494.621 524.804,-504 546.391,-527.607 746.619,-535.413 851.849,-537.897"/>
<polygon fill="black" stroke="black" points="851.959,-541.4 862.035,-538.128 852.117,-534.402 851.959,-541.4"/>
<text text-anchor="middle" x="552.304" y="-492.8" font-family="Times,serif" font-size="14.00">16481567</text>
</g>
<!-- 97458&#45;&gt;1238 -->
<g id="edge45" class="edge"><title>97458&#45;&gt;1238</title>
<path fill="none" stroke="black" d="M580.106,-434.872C598.088,-425.108 621.137,-412.719 641.804,-402 651.401,-397.022 661.795,-391.757 671.563,-386.865"/>
<polygon fill="black" stroke="black" points="673.305,-389.907 680.69,-382.31 670.179,-383.644 673.305,-389.907"/>
<text text-anchor="middle" x="669.304" y="-405.8" font-family="Times,serif" font-size="14.00">16482439</text>
</g>
<!-- 97462&#45;&gt;97442 -->
<g id="edge28" class="edge"><title>97462&#45;&gt;97442</title>
<path fill="none" stroke="black" d="M674.02,-471.127C665.905,-481.483 659.532,-494.479 667.804,-504 691.218,-530.951 786.64,-537.728 852.054,-539.122"/>
<polygon fill="black" stroke="black" points="852.219,-542.626 862.279,-539.302 852.342,-535.627 852.219,-542.626"/>
<text text-anchor="middle" x="695.304" y="-492.8" font-family="Times,serif" font-size="14.00">16482444</text>
</g>
<!-- 97462&#45;&gt;1238 -->
<g id="edge46" class="edge"><title>97462&#45;&gt;1238</title>
<path fill="none" stroke="black" d="M695.053,-434.799C697.928,-423.163 701.786,-407.548 705.074,-394.237"/>
<polygon fill="black" stroke="black" points="708.559,-394.723 707.56,-384.175 701.764,-393.044 708.559,-394.723"/>
<text text-anchor="middle" x="730.304" y="-405.8" font-family="Times,serif" font-size="14.00">16482578</text>
</g>
<!-- 97513&#45;&gt;97483 -->
<g id="edge29" class="edge"><title>97513&#45;&gt;97483</title>
<path fill="none" stroke="black" d="M1708.1,-384.161C1719.96,-393.067 1729.23,-404.655 1722.8,-417 1720.68,-421.075 1717.84,-424.774 1714.59,-428.107"/>
<polygon fill="black" stroke="black" points="1712.15,-425.597 1706.94,-434.823 1716.76,-430.859 1712.15,-425.597"/>
<text text-anchor="middle" x="1753.3" y="-405.8" font-family="Times,serif" font-size="14.00">16487025</text>
</g>
<!-- 97488&#45;&gt;97483 -->
<g id="edge30" class="edge"><title>97488&#45;&gt;97483</title>
<path fill="none" stroke="black" d="M2197,-384.001C2134.2,-394.216 2051.94,-407.108 1978.8,-417 1900,-427.659 1809.48,-437.746 1747.46,-444.328"/>
<polygon fill="black" stroke="black" points="1746.95,-440.862 1737.37,-445.394 1747.68,-447.823 1746.95,-440.862"/>
<text text-anchor="middle" x="2103.3" y="-405.8" font-family="Times,serif" font-size="14.00">16483175</text>
</g>
<!-- 97443 -->
<g id="node18" class="node"><title>97443</title>
<ellipse fill="none" stroke="black" cx="1107.8" cy="-627" rx="189.567" ry="18"/>
<text text-anchor="middle" x="1107.8" y="-623.3" font-family="Times,serif" font-size="14.00">97443: /home/feishao/sysdigscripts/case4/case4.sh</text>
</g>
<!-- 97443&#45;&gt;97442 -->
<g id="edge31" class="edge"><title>97443&#45;&gt;97442</title>
<path fill="none" stroke="black" d="M1069.87,-609.207C1039.43,-595.732 996.522,-576.735 963.714,-562.21"/>
<polygon fill="black" stroke="black" points="964.876,-558.897 954.315,-558.049 962.042,-565.298 964.876,-558.897"/>
<text text-anchor="middle" x="1051.3" y="-579.8" font-family="Times,serif" font-size="14.00">16483105</text>
</g>
<!-- 97519&#45;&gt;97521 -->
<g id="edge32" class="edge"><title>97519&#45;&gt;97521</title>
<path fill="none" stroke="black" d="M2140.23,-176.388C2263.34,-158.651 2466.99,-129.313 2568.04,-114.754"/>
<polygon fill="black" stroke="black" points="2568.68,-118.198 2578.08,-113.307 2567.69,-111.269 2568.68,-118.198"/>
<text text-anchor="middle" x="2397.3" y="-144.8" font-family="Times,serif" font-size="14.00">16508514</text>
</g>
<!-- 97516&#45;&gt;97518 -->
<g id="edge33" class="edge"><title>97516&#45;&gt;97518</title>
<path fill="none" stroke="black" d="M1061.31,-348.207C1027.74,-334.616 980.283,-315.408 944.284,-300.837"/>
<polygon fill="black" stroke="black" points="945.508,-297.557 934.925,-297.049 942.882,-304.046 945.508,-297.557"/>
<text text-anchor="middle" x="1038.3" y="-318.8" font-family="Times,serif" font-size="14.00">16508497</text>
</g>
</g>
</svg>
