<?xml version="1.0" encoding="UTF-8" standalone="no"?>
<!DOCTYPE svg PUBLIC "-//W3C//DTD SVG 1.1//EN"
 "http://www.w3.org/Graphics/SVG/1.1/DTD/svg11.dtd">
<!-- Generated by graphviz version 2.38.0 (20140413.2041)
 -->
<!-- Title: G Pages: 1 -->
<svg width="3345pt" height="392pt"
 viewBox="0.00 0.00 3344.93 392.00" xmlns="http://www.w3.org/2000/svg" xmlns:xlink="http://www.w3.org/1999/xlink">
<g id="graph0" class="graph" transform="scale(1 1) rotate(0) translate(4 388)">
<title>G</title>
<polygon fill="white" stroke="none" points="-4,4 -4,-388 3340.93,-388 3340.93,4 -4,4"/>
<!-- 115336 -->
<g id="node1" class="node"><title>115336</title>
<polygon fill="none" stroke="black" points="517.431,-384 410.431,-384 410.431,-348 517.431,-348 517.431,-384"/>
<text text-anchor="middle" x="463.931" y="-362.3" font-family="Times,serif" font-size="14.00">115336: /bin/mv</text>
</g>
<!-- 115266 -->
<g id="node2" class="node"><title>115266</title>
<polygon fill="none" stroke="black" points="817.931,-297 703.931,-297 703.931,-261 817.931,-261 817.931,-297"/>
<text text-anchor="middle" x="760.931" y="-275.3" font-family="Times,serif" font-size="14.00">115266: /bin/bash</text>
</g>
<!-- 115336&#45;&gt;115266 -->
<g id="edge1" class="edge"><title>115336&#45;&gt;115266</title>
<path fill="none" stroke="black" d="M517.485,-352.883C544.442,-346.533 577.552,-338.352 606.931,-330 638.495,-321.027 673.295,-309.84 701.816,-300.325"/>
<polygon fill="black" stroke="black" points="703.259,-303.533 711.627,-297.035 701.033,-296.896 703.259,-303.533"/>
<text text-anchor="middle" x="681.431" y="-318.8" font-family="Times,serif" font-size="14.00">25483278</text>
</g>
<!-- 115337 -->
<g id="node19" class="node"><title>115337</title>
<ellipse fill="none" stroke="black" cx="209.931" cy="-279" rx="209.863" ry="18"/>
<text text-anchor="middle" x="209.931" y="-275.3" font-family="Times,serif" font-size="14.00">115337: /home/feishao/sysdigscripts/case6/malicious.py</text>
</g>
<!-- 115336&#45;&gt;115337 -->
<g id="edge32" class="edge"><title>115336&#45;&gt;115337</title>
<path fill="none" stroke="black" d="M412.836,-347.901C371.354,-334.019 312.807,-314.427 269.257,-299.853"/>
<polygon fill="black" stroke="black" points="270.241,-296.492 259.647,-296.637 268.02,-303.13 270.241,-296.492"/>
<text text-anchor="middle" x="380.431" y="-318.8" font-family="Times,serif" font-size="14.00">25483289</text>
</g>
<!-- 115266&#45;&gt;115336 -->
<g id="edge2" class="edge"><title>115266&#45;&gt;115336</title>
<path fill="none" stroke="black" d="M703.861,-283.571C660.108,-287.679 598.802,-296.437 547.931,-315 529.673,-321.663 510.94,-332.37 495.811,-342.171"/>
<polygon fill="black" stroke="black" points="493.738,-339.346 487.35,-347.799 497.615,-345.174 493.738,-339.346"/>
<text text-anchor="middle" x="575.431" y="-318.8" font-family="Times,serif" font-size="14.00">25483277</text>
</g>
<!-- 115292 -->
<g id="node3" class="node"><title>115292</title>
<polygon fill="none" stroke="black" points="961.931,-210 825.931,-210 825.931,-174 961.931,-174 961.931,-210"/>
<text text-anchor="middle" x="893.931" y="-188.3" font-family="Times,serif" font-size="14.00">115292: /usr/bin/wget</text>
</g>
<!-- 115266&#45;&gt;115292 -->
<g id="edge3" class="edge"><title>115266&#45;&gt;115292</title>
<path fill="none" stroke="black" d="M818.2,-273.356C840.474,-268.753 864.529,-259.893 880.931,-243 886.818,-236.937 890.133,-228.564 891.971,-220.403"/>
<polygon fill="black" stroke="black" points="895.453,-220.799 893.593,-210.369 888.542,-219.682 895.453,-220.799"/>
<text text-anchor="middle" x="917.431" y="-231.8" font-family="Times,serif" font-size="14.00">25480878</text>
</g>
<!-- 1237 -->
<g id="node4" class="node"><title>1237</title>
<polygon fill="none" stroke="black" points="758.431,-210 657.431,-210 657.431,-174 758.431,-174 758.431,-210"/>
<text text-anchor="middle" x="707.931" y="-188.3" font-family="Times,serif" font-size="14.00">1237: /bin/bash</text>
</g>
<!-- 115266&#45;&gt;1237 -->
<g id="edge4" class="edge"><title>115266&#45;&gt;1237</title>
<path fill="none" stroke="black" d="M703.796,-267.704C690.546,-262.518 677.981,-254.721 669.931,-243 664.024,-234.399 667.844,-225.241 674.944,-217.144"/>
<polygon fill="black" stroke="black" points="677.495,-219.545 682.202,-210.053 672.603,-214.538 677.495,-219.545"/>
<text text-anchor="middle" x="697.431" y="-231.8" font-family="Times,serif" font-size="14.00">25480780</text>
</g>
<!-- 115269 -->
<g id="node5" class="node"><title>115269</title>
<polygon fill="none" stroke="black" points="2537.93,-210 2423.93,-210 2423.93,-174 2537.93,-174 2537.93,-210"/>
<text text-anchor="middle" x="2480.93" y="-188.3" font-family="Times,serif" font-size="14.00">115269: /bin/bash</text>
</g>
<!-- 115266&#45;&gt;115269 -->
<g id="edge5" class="edge"><title>115266&#45;&gt;115269</title>
<path fill="none" stroke="black" d="M818.159,-275.172C1076.7,-262.395 2135.17,-210.087 2413.58,-196.329"/>
<polygon fill="black" stroke="black" points="2414.11,-199.807 2423.93,-195.817 2413.77,-192.815 2414.11,-199.807"/>
<text text-anchor="middle" x="1751.43" y="-231.8" font-family="Times,serif" font-size="14.00">25480788</text>
</g>
<!-- 115292&#45;&gt;115266 -->
<g id="edge9" class="edge"><title>115292&#45;&gt;115266</title>
<path fill="none" stroke="black" d="M854.54,-210.096C843.692,-215.349 832.114,-221.479 821.931,-228 810.011,-235.633 797.772,-245.253 787.415,-254.012"/>
<polygon fill="black" stroke="black" points="784.837,-251.614 779.554,-260.798 789.411,-256.913 784.837,-251.614"/>
<text text-anchor="middle" x="849.431" y="-231.8" font-family="Times,serif" font-size="14.00">25480879</text>
</g>
<!-- 115293 -->
<g id="node16" class="node"><title>115293</title>
<polygon fill="none" stroke="black" points="1877.44,-123 1386.67,-123 1260.43,-87 1751.19,-87 1877.44,-123"/>
<text text-anchor="middle" x="1568.93" y="-101.3" font-family="Times,serif" font-size="14.00">115293: 129.22.31.135/32:36694&#45;&gt;162.125.6.18/32:443</text>
</g>
<!-- 115292&#45;&gt;115293 -->
<g id="edge36" class="edge"><title>115292&#45;&gt;115293</title>
<path fill="none" stroke="black" d="M961.966,-174.225C1009.12,-163.197 1073.5,-149.318 1130.93,-141 1203.58,-130.479 1283.49,-122.922 1354.95,-117.588"/>
<polygon fill="black" stroke="black" points="1355.26,-121.074 1364.98,-116.849 1354.75,-114.093 1355.26,-121.074"/>
<text text-anchor="middle" x="1158.43" y="-144.8" font-family="Times,serif" font-size="14.00">25480940</text>
</g>
<!-- 115333 -->
<g id="node17" class="node"><title>115333</title>
<polygon fill="none" stroke="black" points="1241.44,-123 750.674,-123 624.427,-87 1115.19,-87 1241.44,-123"/>
<text text-anchor="middle" x="932.931" y="-101.3" font-family="Times,serif" font-size="14.00">115333: 129.22.31.135/32:39758&#45;&gt;162.125.6.15/32:443</text>
</g>
<!-- 115292&#45;&gt;115333 -->
<g id="edge38" class="edge"><title>115292&#45;&gt;115333</title>
<path fill="none" stroke="black" d="M911.83,-173.783C916.421,-168.486 920.91,-162.362 923.931,-156 927.261,-148.989 929.365,-140.89 930.692,-133.279"/>
<polygon fill="black" stroke="black" points="934.162,-133.736 932.064,-123.351 927.228,-132.778 934.162,-133.736"/>
<text text-anchor="middle" x="957.431" y="-144.8" font-family="Times,serif" font-size="14.00">25483220</text>
</g>
<!-- 115334 -->
<g id="node20" class="node"><title>115334</title>
<ellipse fill="none" stroke="black" cx="279.931" cy="-105" rx="234.758" ry="18"/>
<text text-anchor="middle" x="279.931" y="-101.3" font-family="Times,serif" font-size="14.00">115334: /home/feishao/sysdigscripts/case6/call_others.py?dl=0</text>
</g>
<!-- 115292&#45;&gt;115334 -->
<g id="edge39" class="edge"><title>115292&#45;&gt;115334</title>
<path fill="none" stroke="black" d="M825.817,-180.989C806.789,-178.436 786.081,-175.884 766.931,-174 703.777,-167.786 542.16,-175.992 481.931,-156 470.349,-152.155 470.24,-145.589 458.931,-141 440.734,-133.615 420.847,-127.754 401.158,-123.113"/>
<polygon fill="black" stroke="black" points="401.73,-119.654 391.205,-120.863 400.187,-126.481 401.73,-119.654"/>
<text text-anchor="middle" x="509.431" y="-144.8" font-family="Times,serif" font-size="14.00">25483263</text>
</g>
<!-- 1238 -->
<g id="node21" class="node"><title>1238</title>
<ellipse fill="none" stroke="black" cx="2486.93" cy="-18" rx="72.2875" ry="18"/>
<text text-anchor="middle" x="2486.93" y="-14.3" font-family="Times,serif" font-size="14.00">1238: /dev/pts/11</text>
</g>
<!-- 115292&#45;&gt;1238 -->
<g id="edge37" class="edge"><title>115292&#45;&gt;1238</title>
<path fill="none" stroke="black" d="M825.617,-181.756C732.867,-168.512 576.661,-143.479 559.931,-123 549.809,-110.609 548.819,-98.5115 559.931,-87 624.879,-19.7205 2044.91,-18.0855 2404.67,-18.756"/>
<polygon fill="black" stroke="black" points="2404.74,-22.2561 2414.75,-18.7759 2404.76,-15.2561 2404.74,-22.2561"/>
<text text-anchor="middle" x="587.431" y="-101.3" font-family="Times,serif" font-size="14.00">25480896</text>
</g>
<!-- 1237&#45;&gt;115266 -->
<g id="edge6" class="edge"><title>1237&#45;&gt;115266</title>
<path fill="none" stroke="black" d="M718.641,-210.175C726.18,-222.267 736.403,-238.662 744.91,-252.305"/>
<polygon fill="black" stroke="black" points="741.945,-254.165 750.206,-260.799 747.885,-250.462 741.945,-254.165"/>
<text text-anchor="middle" x="765.431" y="-231.8" font-family="Times,serif" font-size="14.00">25480779</text>
</g>
<!-- 115269&#45;&gt;115266 -->
<g id="edge11" class="edge"><title>115269&#45;&gt;115266</title>
<path fill="none" stroke="black" d="M2423.52,-197.841C2304.27,-207.734 2021.02,-230.4 1782.93,-243 1423.4,-262.027 992.143,-272.873 828.421,-276.559"/>
<polygon fill="black" stroke="black" points="827.947,-273.068 818.028,-276.791 828.103,-280.067 827.947,-273.068"/>
<text text-anchor="middle" x="2041.43" y="-231.8" font-family="Times,serif" font-size="14.00">25480789</text>
</g>
<!-- 115290 -->
<g id="node6" class="node"><title>115290</title>
<polygon fill="none" stroke="black" points="2966.43,-123 2853.43,-123 2853.43,-87 2966.43,-87 2966.43,-123"/>
<text text-anchor="middle" x="2909.93" y="-101.3" font-family="Times,serif" font-size="14.00">115290: /bin/ping</text>
</g>
<!-- 115269&#45;&gt;115290 -->
<g id="edge20" class="edge"><title>115269&#45;&gt;115290</title>
<path fill="none" stroke="black" d="M2538.19,-189.897C2628.1,-187.452 2797.83,-179.749 2852.93,-156 2866.42,-150.187 2878.97,-139.945 2888.85,-130.238"/>
<polygon fill="black" stroke="black" points="2891.41,-132.622 2895.85,-123.002 2886.38,-127.755 2891.41,-132.622"/>
<text text-anchor="middle" x="2902.43" y="-144.8" font-family="Times,serif" font-size="14.00">25480868</text>
</g>
<!-- 115276 -->
<g id="node7" class="node"><title>115276</title>
<polygon fill="none" stroke="black" points="3122.43,-123 3009.43,-123 3009.43,-87 3122.43,-87 3122.43,-123"/>
<text text-anchor="middle" x="3065.93" y="-101.3" font-family="Times,serif" font-size="14.00">115276: /bin/ping</text>
</g>
<!-- 115269&#45;&gt;115276 -->
<g id="edge12" class="edge"><title>115269&#45;&gt;115276</title>
<path fill="none" stroke="black" d="M2538.15,-190.059C2669.9,-187.507 2986.65,-179.028 3028.93,-156 3038.99,-150.52 3047.07,-140.994 3053.08,-131.718"/>
<polygon fill="black" stroke="black" points="3056.13,-133.431 3058.2,-123.04 3050.1,-129.871 3056.13,-133.431"/>
<text text-anchor="middle" x="3072.43" y="-144.8" font-family="Times,serif" font-size="14.00">25480812</text>
</g>
<!-- 115278 -->
<g id="node8" class="node"><title>115278</title>
<polygon fill="none" stroke="black" points="3278.43,-123 3165.43,-123 3165.43,-87 3278.43,-87 3278.43,-123"/>
<text text-anchor="middle" x="3221.93" y="-101.3" font-family="Times,serif" font-size="14.00">115278: /bin/ping</text>
</g>
<!-- 115269&#45;&gt;115278 -->
<g id="edge14" class="edge"><title>115269&#45;&gt;115278</title>
<path fill="none" stroke="black" d="M2537.99,-190.946C2695.52,-190.408 3128.6,-186.17 3184.93,-156 3195.03,-150.591 3203.11,-141.078 3209.12,-131.791"/>
<polygon fill="black" stroke="black" points="3212.18,-133.491 3214.23,-123.098 3206.15,-129.941 3212.18,-133.491"/>
<text text-anchor="middle" x="3228.43" y="-144.8" font-family="Times,serif" font-size="14.00">25480820</text>
</g>
<!-- 115288 -->
<g id="node9" class="node"><title>115288</title>
<polygon fill="none" stroke="black" points="2674.43,-123 2561.43,-123 2561.43,-87 2674.43,-87 2674.43,-123"/>
<text text-anchor="middle" x="2617.93" y="-101.3" font-family="Times,serif" font-size="14.00">115288: /bin/ping</text>
</g>
<!-- 115269&#45;&gt;115288 -->
<g id="edge13" class="edge"><title>115269&#45;&gt;115288</title>
<path fill="none" stroke="black" d="M2538.31,-187.073C2582.87,-182.688 2639.43,-173.73 2653.93,-156 2660.57,-147.886 2656.85,-138.657 2649.73,-130.356"/>
<polygon fill="black" stroke="black" points="2651.98,-127.654 2642.43,-123.052 2647.02,-132.6 2651.98,-127.654"/>
<text text-anchor="middle" x="2684.43" y="-144.8" font-family="Times,serif" font-size="14.00">25480860</text>
</g>
<!-- 115282 -->
<g id="node10" class="node"><title>115282</title>
<polygon fill="none" stroke="black" points="2008.43,-123 1895.43,-123 1895.43,-87 2008.43,-87 2008.43,-123"/>
<text text-anchor="middle" x="1951.93" y="-101.3" font-family="Times,serif" font-size="14.00">115282: /bin/ping</text>
</g>
<!-- 115269&#45;&gt;115282 -->
<g id="edge15" class="edge"><title>115269&#45;&gt;115282</title>
<path fill="none" stroke="black" d="M2423.71,-190.09C2266.74,-187.316 1839.6,-177.789 1818.93,-156 1814.34,-151.163 1814.86,-146.28 1818.93,-141 1819.08,-140.811 1852.26,-132.078 1885.44,-123.383"/>
<polygon fill="black" stroke="black" points="1886.45,-126.738 1895.24,-120.818 1884.68,-119.966 1886.45,-126.738"/>
<text text-anchor="middle" x="1846.43" y="-144.8" font-family="Times,serif" font-size="14.00">25480836</text>
</g>
<!-- 115284 -->
<g id="node11" class="node"><title>115284</title>
<polygon fill="none" stroke="black" points="2139.43,-123 2026.43,-123 2026.43,-87 2139.43,-87 2139.43,-123"/>
<text text-anchor="middle" x="2082.93" y="-101.3" font-family="Times,serif" font-size="14.00">115284: /bin/ping</text>
</g>
<!-- 115269&#45;&gt;115284 -->
<g id="edge16" class="edge"><title>115269&#45;&gt;115284</title>
<path fill="none" stroke="black" d="M2423.67,-191.329C2297.64,-191.453 2005.01,-188.229 1974.93,-156 1970.38,-151.126 1971.01,-146.392 1974.93,-141 1977.91,-136.906 1995.89,-130.461 2016.35,-124.212"/>
<polygon fill="black" stroke="black" points="2017.63,-127.483 2026.21,-121.268 2015.62,-120.776 2017.63,-127.483"/>
<text text-anchor="middle" x="2002.43" y="-144.8" font-family="Times,serif" font-size="14.00">25480844</text>
</g>
<!-- 115274 -->
<g id="node12" class="node"><title>115274</title>
<polygon fill="none" stroke="black" points="2270.43,-123 2157.43,-123 2157.43,-87 2270.43,-87 2270.43,-123"/>
<text text-anchor="middle" x="2213.93" y="-101.3" font-family="Times,serif" font-size="14.00">115274: /bin/ping</text>
</g>
<!-- 115269&#45;&gt;115274 -->
<g id="edge17" class="edge"><title>115269&#45;&gt;115274</title>
<path fill="none" stroke="black" d="M2423.67,-189.395C2329.44,-186.157 2150.16,-177.252 2130.93,-156 2119.35,-143.201 2130.39,-132.629 2147.77,-124.555"/>
<polygon fill="black" stroke="black" points="2149.47,-127.639 2157.36,-120.563 2146.78,-121.178 2149.47,-127.639"/>
<text text-anchor="middle" x="2158.43" y="-144.8" font-family="Times,serif" font-size="14.00">25480804</text>
</g>
<!-- 115280 -->
<g id="node13" class="node"><title>115280</title>
<polygon fill="none" stroke="black" points="2412.43,-123 2299.43,-123 2299.43,-87 2412.43,-87 2412.43,-123"/>
<text text-anchor="middle" x="2355.93" y="-101.3" font-family="Times,serif" font-size="14.00">115280: /bin/ping</text>
</g>
<!-- 115269&#45;&gt;115280 -->
<g id="edge18" class="edge"><title>115269&#45;&gt;115280</title>
<path fill="none" stroke="black" d="M2423.58,-188.561C2372.78,-185.054 2304.1,-176.549 2286.93,-156 2278.14,-145.486 2284.75,-136.034 2296.76,-128.253"/>
<polygon fill="black" stroke="black" points="2298.82,-131.105 2305.81,-123.141 2295.38,-125.01 2298.82,-131.105"/>
<text text-anchor="middle" x="2314.43" y="-144.8" font-family="Times,serif" font-size="14.00">25480828</text>
</g>
<!-- 115286 -->
<g id="node14" class="node"><title>115286</title>
<polygon fill="none" stroke="black" points="2543.43,-123 2430.43,-123 2430.43,-87 2543.43,-87 2543.43,-123"/>
<text text-anchor="middle" x="2486.93" y="-101.3" font-family="Times,serif" font-size="14.00">115286: /bin/ping</text>
</g>
<!-- 115269&#45;&gt;115286 -->
<g id="edge19" class="edge"><title>115269&#45;&gt;115286</title>
<path fill="none" stroke="black" d="M2455.59,-173.865C2445.38,-164.703 2437.2,-152.883 2442.93,-141 2444.79,-137.143 2447.31,-133.579 2450.2,-130.323"/>
<polygon fill="black" stroke="black" points="2452.73,-132.748 2457.49,-123.286 2447.87,-127.709 2452.73,-132.748"/>
<text text-anchor="middle" x="2470.43" y="-144.8" font-family="Times,serif" font-size="14.00">25480852</text>
</g>
<!-- 115272 -->
<g id="node15" class="node"><title>115272</title>
<polygon fill="none" stroke="black" points="2810.43,-123 2697.43,-123 2697.43,-87 2810.43,-87 2810.43,-123"/>
<text text-anchor="middle" x="2753.93" y="-101.3" font-family="Times,serif" font-size="14.00">115272: /bin/ping</text>
</g>
<!-- 115269&#45;&gt;115272 -->
<g id="edge21" class="edge"><title>115269&#45;&gt;115272</title>
<path fill="none" stroke="black" d="M2538.07,-187.426C2597.76,-182.833 2686.69,-173.306 2715.93,-156 2725.74,-150.193 2733.88,-140.786 2740.07,-131.69"/>
<polygon fill="black" stroke="black" points="2743.06,-133.523 2745.41,-123.192 2737.13,-129.802 2743.06,-133.523"/>
<text text-anchor="middle" x="2759.43" y="-144.8" font-family="Times,serif" font-size="14.00">25480796</text>
</g>
<!-- 115290&#45;&gt;115269 -->
<g id="edge7" class="edge"><title>115290&#45;&gt;115269</title>
<path fill="none" stroke="black" d="M2948.8,-123.188C2964.55,-132.457 2976.76,-144.359 2965.93,-156 2938.1,-185.907 2675.1,-190.598 2548.45,-191.107"/>
<polygon fill="black" stroke="black" points="2548.09,-187.608 2538.1,-191.14 2548.11,-194.608 2548.09,-187.608"/>
<text text-anchor="middle" x="2997.43" y="-144.8" font-family="Times,serif" font-size="14.00">25480869</text>
</g>
<!-- 115290&#45;&gt;1238 -->
<g id="edge34" class="edge"><title>115290&#45;&gt;1238</title>
<path fill="none" stroke="black" d="M2855.01,-86.9994C2819.12,-76.3657 2771.07,-63.0221 2727.93,-54 2672.59,-42.4252 2609.29,-33.392 2561.46,-27.4039"/>
<polygon fill="black" stroke="black" points="2561.85,-23.9256 2551.5,-26.1725 2561,-30.8727 2561.85,-23.9256"/>
<text text-anchor="middle" x="2815.43" y="-57.8" font-family="Times,serif" font-size="14.00">25480872</text>
</g>
<!-- 115276&#45;&gt;115269 -->
<g id="edge8" class="edge"><title>115276&#45;&gt;115269</title>
<path fill="none" stroke="black" d="M3104.5,-123.038C3120.46,-132.362 3132.95,-144.359 3121.93,-156 3102.44,-176.589 2708.77,-186.563 2548.22,-189.787"/>
<polygon fill="black" stroke="black" points="2547.91,-186.292 2537.98,-189.989 2548.05,-193.29 2547.91,-186.292"/>
<text text-anchor="middle" x="3153.43" y="-144.8" font-family="Times,serif" font-size="14.00">25480813</text>
</g>
<!-- 115276&#45;&gt;1238 -->
<g id="edge35" class="edge"><title>115276&#45;&gt;1238</title>
<path fill="none" stroke="black" d="M3009.14,-88.9386C2965.16,-77.7847 2902.56,-63.0166 2846.93,-54 2751.03,-38.4548 2639.55,-28.9153 2566.35,-23.8004"/>
<polygon fill="black" stroke="black" points="2566.5,-20.3024 2556.28,-23.1079 2566.02,-27.2859 2566.5,-20.3024"/>
<text text-anchor="middle" x="2946.43" y="-57.8" font-family="Times,serif" font-size="14.00">25480816</text>
</g>
<!-- 115278&#45;&gt;115269 -->
<g id="edge10" class="edge"><title>115278&#45;&gt;115269</title>
<path fill="none" stroke="black" d="M3260.55,-123.086C3276.52,-132.423 3289.02,-144.418 3277.93,-156 3252.87,-182.191 2735.57,-188.952 2548.06,-190.546"/>
<polygon fill="black" stroke="black" points="2548.02,-187.047 2538.05,-190.629 2548.08,-194.046 2548.02,-187.047"/>
<text text-anchor="middle" x="3309.43" y="-144.8" font-family="Times,serif" font-size="14.00">25480821</text>
</g>
<!-- 115278&#45;&gt;1238 -->
<g id="edge40" class="edge"><title>115278&#45;&gt;1238</title>
<path fill="none" stroke="black" d="M3165.11,-90.1545C3115.89,-78.6918 3042.62,-62.8942 2977.93,-54 2834.43,-34.2684 2665.7,-25.3221 2568.07,-21.5291"/>
<polygon fill="black" stroke="black" points="2568.1,-18.0279 2557.97,-21.1456 2567.83,-25.0229 2568.1,-18.0279"/>
<text text-anchor="middle" x="3092.43" y="-57.8" font-family="Times,serif" font-size="14.00">25480824</text>
</g>
<!-- 115288&#45;&gt;115269 -->
<g id="edge24" class="edge"><title>115288&#45;&gt;115269</title>
<path fill="none" stroke="black" d="M2599.65,-123.08C2587.99,-133.419 2572.25,-146.413 2556.93,-156 2549.15,-160.866 2540.59,-165.462 2532.1,-169.624"/>
<polygon fill="black" stroke="black" points="2530.49,-166.513 2522.95,-173.962 2533.49,-172.838 2530.49,-166.513"/>
<text text-anchor="middle" x="2605.43" y="-144.8" font-family="Times,serif" font-size="14.00">25480861</text>
</g>
<!-- 115288&#45;&gt;1238 -->
<g id="edge43" class="edge"><title>115288&#45;&gt;1238</title>
<path fill="none" stroke="black" d="M2594.22,-86.8987C2580.32,-77.0316 2562.32,-64.5316 2545.93,-54 2538.66,-49.3257 2530.77,-44.488 2523.19,-39.9554"/>
<polygon fill="black" stroke="black" points="2524.88,-36.8915 2514.5,-34.8028 2521.32,-42.913 2524.88,-36.8915"/>
<text text-anchor="middle" x="2595.43" y="-57.8" font-family="Times,serif" font-size="14.00">25480864</text>
</g>
<!-- 115282&#45;&gt;115269 -->
<g id="edge25" class="edge"><title>115282&#45;&gt;115269</title>
<path fill="none" stroke="black" d="M1925.48,-123.068C1913.18,-133.039 1903.2,-145.654 1912.93,-156 1929.85,-173.99 2266.85,-185.229 2413.6,-189.289"/>
<polygon fill="black" stroke="black" points="2413.74,-192.794 2423.84,-189.568 2413.93,-185.796 2413.74,-192.794"/>
<text text-anchor="middle" x="1940.43" y="-144.8" font-family="Times,serif" font-size="14.00">25480837</text>
</g>
<!-- 115282&#45;&gt;1238 -->
<g id="edge44" class="edge"><title>115282&#45;&gt;1238</title>
<path fill="none" stroke="black" d="M2004.74,-86.9416C2040.77,-75.9339 2089.79,-62.1902 2133.93,-54 2226.56,-36.812 2334.54,-27.668 2406.44,-23.0919"/>
<polygon fill="black" stroke="black" points="2407.02,-26.5628 2416.78,-22.4494 2406.58,-19.5763 2407.02,-26.5628"/>
<text text-anchor="middle" x="2161.43" y="-57.8" font-family="Times,serif" font-size="14.00">25480840</text>
</g>
<!-- 115284&#45;&gt;115269 -->
<g id="edge26" class="edge"><title>115284&#45;&gt;115269</title>
<path fill="none" stroke="black" d="M2070.36,-123.151C2064.21,-133.777 2059.71,-147.058 2067.93,-156 2090.8,-180.889 2302.56,-188.097 2413.63,-190.171"/>
<polygon fill="black" stroke="black" points="2413.67,-193.672 2423.73,-190.351 2413.79,-186.673 2413.67,-193.672"/>
<text text-anchor="middle" x="2095.43" y="-144.8" font-family="Times,serif" font-size="14.00">25480845</text>
</g>
<!-- 115284&#45;&gt;1238 -->
<g id="edge45" class="edge"><title>115284&#45;&gt;1238</title>
<path fill="none" stroke="black" d="M2131.93,-86.9358C2164.26,-76.2081 2207.72,-62.7839 2246.93,-54 2301.48,-41.7805 2364,-32.8221 2411.55,-27.0287"/>
<polygon fill="black" stroke="black" points="2412.25,-30.4695 2421.76,-25.8045 2411.42,-23.5192 2412.25,-30.4695"/>
<text text-anchor="middle" x="2274.43" y="-57.8" font-family="Times,serif" font-size="14.00">25480848</text>
</g>
<!-- 115274&#45;&gt;115269 -->
<g id="edge22" class="edge"><title>115274&#45;&gt;115269</title>
<path fill="none" stroke="black" d="M2212.68,-123.224C2212.88,-134.159 2215.16,-147.755 2223.93,-156 2250.58,-181.042 2346.85,-188.397 2413.69,-190.428"/>
<polygon fill="black" stroke="black" points="2413.64,-193.928 2423.73,-190.7 2413.83,-186.93 2413.64,-193.928"/>
<text text-anchor="middle" x="2251.43" y="-144.8" font-family="Times,serif" font-size="14.00">25480805</text>
</g>
<!-- 115274&#45;&gt;1238 -->
<g id="edge41" class="edge"><title>115274&#45;&gt;1238</title>
<path fill="none" stroke="black" d="M2255.11,-86.9586C2280.92,-76.6348 2315.05,-63.6427 2345.93,-54 2371.43,-46.0372 2399.96,-38.6726 2424.66,-32.7741"/>
<polygon fill="black" stroke="black" points="2425.7,-36.1247 2434.62,-30.4218 2424.09,-29.3118 2425.7,-36.1247"/>
<text text-anchor="middle" x="2373.43" y="-57.8" font-family="Times,serif" font-size="14.00">25480808</text>
</g>
<!-- 115280&#45;&gt;115269 -->
<g id="edge27" class="edge"><title>115280&#45;&gt;115269</title>
<path fill="none" stroke="black" d="M2361.28,-123.383C2365.38,-134.103 2372.04,-147.399 2381.93,-156 2391.32,-164.163 2402.74,-170.461 2414.44,-175.308"/>
<polygon fill="black" stroke="black" points="2413.26,-178.604 2423.85,-178.893 2415.75,-172.062 2413.26,-178.604"/>
<text text-anchor="middle" x="2409.43" y="-144.8" font-family="Times,serif" font-size="14.00">25480829</text>
</g>
<!-- 115280&#45;&gt;1238 -->
<g id="edge46" class="edge"><title>115280&#45;&gt;1238</title>
<path fill="none" stroke="black" d="M2379.64,-86.8987C2393.54,-77.0316 2411.54,-64.5316 2427.93,-54 2435.2,-49.3257 2443.1,-44.488 2450.67,-39.9554"/>
<polygon fill="black" stroke="black" points="2452.55,-42.913 2459.36,-34.8028 2448.98,-36.8915 2452.55,-42.913"/>
<text text-anchor="middle" x="2455.43" y="-57.8" font-family="Times,serif" font-size="14.00">25480832</text>
</g>
<!-- 115286&#45;&gt;115269 -->
<g id="edge28" class="edge"><title>115286&#45;&gt;115269</title>
<path fill="none" stroke="black" d="M2494.5,-123.143C2497.82,-132.803 2500.44,-145.086 2497.93,-156 2497.28,-158.839 2496.36,-161.715 2495.29,-164.534"/>
<polygon fill="black" stroke="black" points="2492.05,-163.208 2491.21,-173.769 2498.45,-166.039 2492.05,-163.208"/>
<text text-anchor="middle" x="2525.43" y="-144.8" font-family="Times,serif" font-size="14.00">25480853</text>
</g>
<!-- 115286&#45;&gt;1238 -->
<g id="edge47" class="edge"><title>115286&#45;&gt;1238</title>
<path fill="none" stroke="black" d="M2486.93,-86.799C2486.93,-75.1626 2486.93,-59.5479 2486.93,-46.2368"/>
<polygon fill="black" stroke="black" points="2490.43,-46.1754 2486.93,-36.1754 2483.43,-46.1755 2490.43,-46.1754"/>
<text text-anchor="middle" x="2514.43" y="-57.8" font-family="Times,serif" font-size="14.00">25480856</text>
</g>
<!-- 115272&#45;&gt;115269 -->
<g id="edge23" class="edge"><title>115272&#45;&gt;115269</title>
<path fill="none" stroke="black" d="M2779.07,-123.037C2790.75,-132.997 2800.21,-145.612 2790.93,-156 2775.07,-173.756 2634.72,-183.633 2548.4,-188.077"/>
<polygon fill="black" stroke="black" points="2547.96,-184.595 2538.15,-188.593 2548.31,-191.586 2547.96,-184.595"/>
<text text-anchor="middle" x="2821.43" y="-144.8" font-family="Times,serif" font-size="14.00">25480797</text>
</g>
<!-- 115272&#45;&gt;1238 -->
<g id="edge42" class="edge"><title>115272&#45;&gt;1238</title>
<path fill="none" stroke="black" d="M2714.37,-86.888C2689.55,-76.5377 2656.72,-63.5424 2626.93,-54 2601.87,-45.9723 2573.81,-38.6404 2549.43,-32.7845"/>
<polygon fill="black" stroke="black" points="2550.11,-29.3503 2539.58,-30.4503 2548.5,-36.1617 2550.11,-29.3503"/>
<text text-anchor="middle" x="2696.43" y="-57.8" font-family="Times,serif" font-size="14.00">25480800</text>
</g>
<!-- 115293&#45;&gt;115292 -->
<g id="edge29" class="edge"><title>115293&#45;&gt;115292</title>
<path fill="none" stroke="black" d="M1443.08,-123.035C1369.35,-132.908 1274.39,-145.436 1189.93,-156 1116.15,-165.228 1031.94,-175.123 972.258,-182.03"/>
<polygon fill="black" stroke="black" points="971.684,-178.573 962.152,-183.198 972.487,-185.526 971.684,-178.573"/>
<text text-anchor="middle" x="1332.43" y="-144.8" font-family="Times,serif" font-size="14.00">25480941</text>
</g>
<!-- 115333&#45;&gt;115292 -->
<g id="edge30" class="edge"><title>115333&#45;&gt;115292</title>
<path fill="none" stroke="black" d="M886.864,-123.128C879.705,-127.826 873.259,-133.701 868.931,-141 864.4,-148.642 866.307,-157.213 870.626,-165.071"/>
<polygon fill="black" stroke="black" points="867.837,-167.196 876.314,-173.552 873.651,-163.297 867.837,-167.196"/>
<text text-anchor="middle" x="896.431" y="-144.8" font-family="Times,serif" font-size="14.00">25483222</text>
</g>
<!-- 115267 -->
<g id="node18" class="node"><title>115267</title>
<ellipse fill="none" stroke="black" cx="760.931" cy="-366" rx="194.166" ry="18"/>
<text text-anchor="middle" x="760.931" y="-362.3" font-family="Times,serif" font-size="14.00">115267: /home/feishao/sysdigscripts/case6/case6.sh</text>
</g>
<!-- 115267&#45;&gt;115266 -->
<g id="edge31" class="edge"><title>115267&#45;&gt;115266</title>
<path fill="none" stroke="black" d="M760.931,-347.799C760.931,-336.163 760.931,-320.548 760.931,-307.237"/>
<polygon fill="black" stroke="black" points="764.431,-307.175 760.931,-297.175 757.431,-307.175 764.431,-307.175"/>
<text text-anchor="middle" x="788.431" y="-318.8" font-family="Times,serif" font-size="14.00">25480785</text>
</g>
<!-- 115334&#45;&gt;115336 -->
<g id="edge33" class="edge"><title>115334&#45;&gt;115336</title>
<path fill="none" stroke="black" d="M301.518,-123.023C333.588,-149.372 393.801,-203.072 428.931,-261 443.533,-285.078 452.941,-316.022 458.286,-337.877"/>
<polygon fill="black" stroke="black" points="454.919,-338.855 460.588,-347.806 461.738,-337.274 454.919,-338.855"/>
<text text-anchor="middle" x="444.431" y="-231.8" font-family="Times,serif" font-size="14.00">25483288</text>
</g>
</g>
</svg>
