<?xml version="1.0" encoding="UTF-8" standalone="no"?>
<!DOCTYPE svg PUBLIC "-//W3C//DTD SVG 1.1//EN"
 "http://www.w3.org/Graphics/SVG/1.1/DTD/svg11.dtd">
<!-- Generated by graphviz version 2.38.0 (20140413.2041)
 -->
<!-- Title: G Pages: 1 -->
<svg width="3246pt" height="392pt"
 viewBox="0.00 0.00 3245.63 392.00" xmlns="http://www.w3.org/2000/svg" xmlns:xlink="http://www.w3.org/1999/xlink">
<g id="graph0" class="graph" transform="scale(1 1) rotate(0) translate(4 388)">
<title>G</title>
<polygon fill="white" stroke="none" points="-4,4 -4,-388 3241.63,-388 3241.63,4 -4,4"/>
<!-- 115336 -->
<g id="node1" class="node"><title>115336</title>
<polygon fill="none" stroke="black" points="2103.13,-384 1996.13,-384 1996.13,-348 2103.13,-348 2103.13,-384"/>
<text text-anchor="middle" x="2049.63" y="-362.3" font-family="Times,serif" font-size="14.00">115336: /bin/mv</text>
</g>
<!-- 115266 -->
<g id="node2" class="node"><title>115266</title>
<polygon fill="none" stroke="black" points="2106.63,-297 1992.63,-297 1992.63,-261 2106.63,-261 2106.63,-297"/>
<text text-anchor="middle" x="2049.63" y="-275.3" font-family="Times,serif" font-size="14.00">115266: /bin/bash</text>
</g>
<!-- 115336&#45;&gt;115266 -->
<g id="edge1" class="edge"><title>115336&#45;&gt;115266</title>
<path fill="none" stroke="black" d="M2060.56,-347.666C2065.27,-338.157 2069.18,-326.08 2066.63,-315 2065.98,-312.161 2065.06,-309.285 2063.99,-306.466"/>
<polygon fill="black" stroke="black" points="2067.15,-304.961 2059.91,-297.231 2060.75,-307.792 2067.15,-304.961"/>
<text text-anchor="middle" x="2095.13" y="-318.8" font-family="Times,serif" font-size="14.00">25483278</text>
</g>
<!-- 115337 -->
<g id="node20" class="node"><title>115337</title>
<ellipse fill="none" stroke="black" cx="2784.63" cy="-279" rx="209.863" ry="18"/>
<text text-anchor="middle" x="2784.63" y="-275.3" font-family="Times,serif" font-size="14.00">115337: /home/feishao/sysdigscripts/case6/malicious.py</text>
</g>
<!-- 115336&#45;&gt;115337 -->
<g id="edge33" class="edge"><title>115336&#45;&gt;115337</title>
<path fill="none" stroke="black" d="M2103.38,-358.784C2218.53,-345.467 2491.82,-313.862 2655.12,-294.978"/>
<polygon fill="black" stroke="black" points="2655.69,-298.434 2665.22,-293.809 2654.89,-291.481 2655.69,-298.434"/>
<text text-anchor="middle" x="2489.13" y="-318.8" font-family="Times,serif" font-size="14.00">25483289</text>
</g>
<!-- 115266&#45;&gt;115336 -->
<g id="edge2" class="edge"><title>115266&#45;&gt;115336</title>
<path fill="none" stroke="black" d="M2021.5,-297.136C2010.58,-306.12 2001.91,-317.783 2007.63,-330 2009.44,-333.868 2011.91,-337.458 2014.76,-340.747"/>
<polygon fill="black" stroke="black" points="2012.37,-343.311 2021.94,-347.868 2017.3,-338.341 2012.37,-343.311"/>
<text text-anchor="middle" x="2035.13" y="-318.8" font-family="Times,serif" font-size="14.00">25483277</text>
</g>
<!-- 115292 -->
<g id="node3" class="node"><title>115292</title>
<polygon fill="none" stroke="black" points="1244.63,-210 1108.63,-210 1108.63,-174 1244.63,-174 1244.63,-210"/>
<text text-anchor="middle" x="1176.63" y="-188.3" font-family="Times,serif" font-size="14.00">115292: /usr/bin/wget</text>
</g>
<!-- 115266&#45;&gt;115292 -->
<g id="edge3" class="edge"><title>115266&#45;&gt;115292</title>
<path fill="none" stroke="black" d="M1992.59,-273.675C1912.24,-267.478 1761.16,-255.439 1632.63,-243 1499.87,-230.152 1345.66,-212.716 1254.88,-202.193"/>
<polygon fill="black" stroke="black" points="1255.28,-198.716 1244.94,-201.04 1254.47,-205.67 1255.28,-198.716"/>
<text text-anchor="middle" x="1660.13" y="-231.8" font-family="Times,serif" font-size="14.00">25480878</text>
</g>
<!-- 1237 -->
<g id="node4" class="node"><title>1237</title>
<polygon fill="none" stroke="black" points="2069.13,-210 1968.13,-210 1968.13,-174 2069.13,-174 2069.13,-210"/>
<text text-anchor="middle" x="2018.63" y="-188.3" font-family="Times,serif" font-size="14.00">1237: /bin/bash</text>
</g>
<!-- 115266&#45;&gt;1237 -->
<g id="edge4" class="edge"><title>115266&#45;&gt;1237</title>
<path fill="none" stroke="black" d="M1999,-260.831C1991.69,-256.176 1985.13,-250.326 1980.63,-243 1975.37,-234.429 1978.83,-225.542 1985.42,-217.681"/>
<polygon fill="black" stroke="black" points="1988.27,-219.772 1992.83,-210.21 1983.3,-214.84 1988.27,-219.772"/>
<text text-anchor="middle" x="2008.13" y="-231.8" font-family="Times,serif" font-size="14.00">25480780</text>
</g>
<!-- 115269 -->
<g id="node5" class="node"><title>115269</title>
<polygon fill="none" stroke="black" points="2434.63,-210 2320.63,-210 2320.63,-174 2434.63,-174 2434.63,-210"/>
<text text-anchor="middle" x="2377.63" y="-188.3" font-family="Times,serif" font-size="14.00">115269: /bin/bash</text>
</g>
<!-- 115266&#45;&gt;115269 -->
<g id="edge5" class="edge"><title>115266&#45;&gt;115269</title>
<path fill="none" stroke="black" d="M2087.91,-260.886C2113.23,-250.138 2147.39,-236.709 2178.63,-228 2221.74,-215.978 2271.32,-207.245 2310.2,-201.509"/>
<polygon fill="black" stroke="black" points="2310.96,-204.936 2320.36,-200.043 2309.96,-198.008 2310.96,-204.936"/>
<text text-anchor="middle" x="2206.13" y="-231.8" font-family="Times,serif" font-size="14.00">25480788</text>
</g>
<!-- 115292&#45;&gt;115266 -->
<g id="edge9" class="edge"><title>115292&#45;&gt;115266</title>
<path fill="none" stroke="black" d="M1244.95,-196.181C1343.07,-201.09 1529.52,-211.686 1687.63,-228 1790.85,-238.651 1909.94,-256.101 1982.49,-267.316"/>
<polygon fill="black" stroke="black" points="1981.99,-270.78 1992.41,-268.855 1983.06,-263.863 1981.99,-270.78"/>
<text text-anchor="middle" x="1835.13" y="-231.8" font-family="Times,serif" font-size="14.00">25480879</text>
</g>
<!-- 115293 -->
<g id="node16" class="node"><title>115293</title>
<polygon fill="none" stroke="black" points="1831.13,-123 1340.37,-123 1214.12,-87 1704.89,-87 1831.13,-123"/>
<text text-anchor="middle" x="1522.63" y="-101.3" font-family="Times,serif" font-size="14.00">115293: 129.22.31.135/32:36694&#45;&gt;162.125.6.18/32:443</text>
</g>
<!-- 115292&#45;&gt;115293 -->
<g id="edge37" class="edge"><title>115292&#45;&gt;115293</title>
<path fill="none" stroke="black" d="M1244.87,-180.485C1281,-174.385 1325.98,-165.944 1365.63,-156 1398.91,-147.654 1435.47,-136.153 1464.93,-126.285"/>
<polygon fill="black" stroke="black" points="1466.28,-129.524 1474.63,-123.009 1464.04,-122.892 1466.28,-129.524"/>
<text text-anchor="middle" x="1446.13" y="-144.8" font-family="Times,serif" font-size="14.00">25480940</text>
</g>
<!-- 115333 -->
<g id="node18" class="node"><title>115333</title>
<polygon fill="none" stroke="black" points="1104.13,-123 613.372,-123 487.124,-87 977.886,-87 1104.13,-123"/>
<text text-anchor="middle" x="795.629" y="-101.3" font-family="Times,serif" font-size="14.00">115333: 129.22.31.135/32:39758&#45;&gt;162.125.6.15/32:443</text>
</g>
<!-- 115292&#45;&gt;115333 -->
<g id="edge39" class="edge"><title>115292&#45;&gt;115333</title>
<path fill="none" stroke="black" d="M1108.41,-187.931C1052.69,-184.073 972.369,-175.407 904.629,-156 880.678,-149.138 855.3,-137.765 835.063,-127.598"/>
<polygon fill="black" stroke="black" points="836.647,-124.477 826.151,-123.033 833.455,-130.707 836.647,-124.477"/>
<text text-anchor="middle" x="932.129" y="-144.8" font-family="Times,serif" font-size="14.00">25483220</text>
</g>
<!-- 115334 -->
<g id="node21" class="node"><title>115334</title>
<ellipse fill="none" stroke="black" cx="234.629" cy="-105" rx="234.758" ry="18"/>
<text text-anchor="middle" x="234.629" y="-101.3" font-family="Times,serif" font-size="14.00">115334: /home/feishao/sysdigscripts/case6/call_others.py?dl=0</text>
</g>
<!-- 115292&#45;&gt;115334 -->
<g id="edge40" class="edge"><title>115292&#45;&gt;115334</title>
<path fill="none" stroke="black" d="M1108.5,-184.853C958.916,-171.355 598.514,-138.835 390.266,-120.044"/>
<polygon fill="black" stroke="black" points="390.432,-116.545 380.158,-119.132 389.803,-123.516 390.432,-116.545"/>
<text text-anchor="middle" x="790.129" y="-144.8" font-family="Times,serif" font-size="14.00">25483263</text>
</g>
<!-- 1238 -->
<g id="node22" class="node"><title>1238</title>
<ellipse fill="none" stroke="black" cx="2429.63" cy="-18" rx="72.2875" ry="18"/>
<text text-anchor="middle" x="2429.63" y="-14.3" font-family="Times,serif" font-size="14.00">1238: /dev/pts/11</text>
</g>
<!-- 115292&#45;&gt;1238 -->
<g id="edge38" class="edge"><title>115292&#45;&gt;1238</title>
<path fill="none" stroke="black" d="M1163.75,-173.858C1148.27,-151.046 1127.04,-110.823 1149.63,-87 1190.92,-43.4567 2071.56,-25.0121 2347.62,-20.2863"/>
<polygon fill="black" stroke="black" points="2348.03,-23.78 2357.97,-20.1108 2347.91,-16.781 2348.03,-23.78"/>
<text text-anchor="middle" x="1177.13" y="-101.3" font-family="Times,serif" font-size="14.00">25480989</text>
</g>
<!-- 1237&#45;&gt;115266 -->
<g id="edge6" class="edge"><title>1237&#45;&gt;115266</title>
<path fill="none" stroke="black" d="M2027.73,-210.176C2030.49,-215.767 2033.38,-222.063 2035.63,-228 2038.4,-235.301 2040.9,-243.386 2042.99,-250.889"/>
<polygon fill="black" stroke="black" points="2039.63,-251.866 2045.58,-260.63 2046.39,-250.066 2039.63,-251.866"/>
<text text-anchor="middle" x="2069.13" y="-231.8" font-family="Times,serif" font-size="14.00">25480779</text>
</g>
<!-- 115269&#45;&gt;115266 -->
<g id="edge11" class="edge"><title>115269&#45;&gt;115266</title>
<path fill="none" stroke="black" d="M2335.09,-210.075C2306.74,-220.877 2268.44,-234.379 2233.63,-243 2185.05,-255.032 2169.37,-250.922 2116.69,-260.939"/>
<polygon fill="black" stroke="black" points="2115.91,-257.524 2106.78,-262.903 2117.27,-264.391 2115.91,-257.524"/>
<text text-anchor="middle" x="2310.13" y="-231.8" font-family="Times,serif" font-size="14.00">25480789</text>
</g>
<!-- 115290 -->
<g id="node6" class="node"><title>115290</title>
<polygon fill="none" stroke="black" points="2902.13,-123 2789.13,-123 2789.13,-87 2902.13,-87 2902.13,-123"/>
<text text-anchor="middle" x="2845.63" y="-101.3" font-family="Times,serif" font-size="14.00">115290: /bin/ping</text>
</g>
<!-- 115269&#45;&gt;115290 -->
<g id="edge20" class="edge"><title>115269&#45;&gt;115290</title>
<path fill="none" stroke="black" d="M2435,-191.337C2561.28,-191.48 2854.49,-188.291 2884.63,-156 2892.2,-147.889 2887.77,-138.415 2879.6,-129.909"/>
<polygon fill="black" stroke="black" points="2881.81,-127.181 2872.06,-123.042 2877.1,-132.36 2881.81,-127.181"/>
<text text-anchor="middle" x="2916.13" y="-144.8" font-family="Times,serif" font-size="14.00">25480868</text>
</g>
<!-- 115276 -->
<g id="node7" class="node"><title>115276</title>
<polygon fill="none" stroke="black" points="3058.13,-123 2945.13,-123 2945.13,-87 3058.13,-87 3058.13,-123"/>
<text text-anchor="middle" x="3001.63" y="-101.3" font-family="Times,serif" font-size="14.00">115276: /bin/ping</text>
</g>
<!-- 115269&#45;&gt;115276 -->
<g id="edge12" class="edge"><title>115269&#45;&gt;115276</title>
<path fill="none" stroke="black" d="M2434.73,-190.038C2589.77,-187.151 3008.35,-177.398 3028.63,-156 3035.42,-148.837 3032.78,-139.638 3027.04,-131.087"/>
<polygon fill="black" stroke="black" points="3029.74,-128.859 3020.8,-123.176 3024.25,-133.195 3029.74,-128.859"/>
<text text-anchor="middle" x="3061.13" y="-144.8" font-family="Times,serif" font-size="14.00">25480812</text>
</g>
<!-- 115278 -->
<g id="node8" class="node"><title>115278</title>
<polygon fill="none" stroke="black" points="3214.13,-123 3101.13,-123 3101.13,-87 3214.13,-87 3214.13,-123"/>
<text text-anchor="middle" x="3157.63" y="-101.3" font-family="Times,serif" font-size="14.00">115278: /bin/ping</text>
</g>
<!-- 115269&#45;&gt;115278 -->
<g id="edge14" class="edge"><title>115269&#45;&gt;115278</title>
<path fill="none" stroke="black" d="M2434.65,-190.64C2613.32,-189.235 3151.99,-182.786 3177.63,-156 3184.06,-149.283 3182.47,-140.239 3178.13,-131.689"/>
<polygon fill="black" stroke="black" points="3181.05,-129.757 3172.83,-123.077 3175.09,-133.428 3181.05,-129.757"/>
<text text-anchor="middle" x="3210.13" y="-144.8" font-family="Times,serif" font-size="14.00">25480820</text>
</g>
<!-- 115288 -->
<g id="node9" class="node"><title>115288</title>
<polygon fill="none" stroke="black" points="1962.13,-123 1849.13,-123 1849.13,-87 1962.13,-87 1962.13,-123"/>
<text text-anchor="middle" x="1905.63" y="-101.3" font-family="Times,serif" font-size="14.00">115288: /bin/ping</text>
</g>
<!-- 115269&#45;&gt;115288 -->
<g id="edge13" class="edge"><title>115269&#45;&gt;115288</title>
<path fill="none" stroke="black" d="M2320.4,-187.741C2260.03,-184.307 2162.14,-178.749 2077.63,-174 2059.69,-172.992 1766.98,-169.057 1754.63,-156 1750.05,-151.157 1750.43,-146.174 1754.63,-141 1777.42,-112.94 1799.14,-129.072 1839,-122.939"/>
<polygon fill="black" stroke="black" points="1839.8,-126.349 1848.95,-121 1838.47,-119.478 1839.8,-126.349"/>
<text text-anchor="middle" x="1782.13" y="-144.8" font-family="Times,serif" font-size="14.00">25480860</text>
</g>
<!-- 115282 -->
<g id="node10" class="node"><title>115282</title>
<polygon fill="none" stroke="black" points="2093.13,-123 1980.13,-123 1980.13,-87 2093.13,-87 2093.13,-123"/>
<text text-anchor="middle" x="2036.63" y="-101.3" font-family="Times,serif" font-size="14.00">115282: /bin/ping</text>
</g>
<!-- 115269&#45;&gt;115282 -->
<g id="edge15" class="edge"><title>115269&#45;&gt;115282</title>
<path fill="none" stroke="black" d="M2320.44,-187.724C2197.28,-180.536 1917.52,-163.431 1910.63,-156 1906.09,-151.113 1906.6,-146.308 1910.63,-141 1911.68,-139.619 1940.47,-131.573 1970.26,-123.544"/>
<polygon fill="black" stroke="black" points="1971.18,-126.92 1979.93,-120.946 1969.37,-120.16 1971.18,-126.92"/>
<text text-anchor="middle" x="1938.13" y="-144.8" font-family="Times,serif" font-size="14.00">25480836</text>
</g>
<!-- 115284 -->
<g id="node11" class="node"><title>115284</title>
<polygon fill="none" stroke="black" points="2224.13,-123 2111.13,-123 2111.13,-87 2224.13,-87 2224.13,-123"/>
<text text-anchor="middle" x="2167.63" y="-101.3" font-family="Times,serif" font-size="14.00">115284: /bin/ping</text>
</g>
<!-- 115269&#45;&gt;115284 -->
<g id="edge16" class="edge"><title>115269&#45;&gt;115284</title>
<path fill="none" stroke="black" d="M2320.58,-188.623C2235.41,-184.482 2083.22,-174.559 2066.63,-156 2062.19,-151.029 2062.76,-146.431 2066.63,-141 2069.18,-137.412 2083.73,-131.673 2101.02,-125.871"/>
<polygon fill="black" stroke="black" points="2102.44,-129.091 2110.85,-122.655 2100.26,-122.438 2102.44,-129.091"/>
<text text-anchor="middle" x="2094.13" y="-144.8" font-family="Times,serif" font-size="14.00">25480844</text>
</g>
<!-- 115274 -->
<g id="node12" class="node"><title>115274</title>
<polygon fill="none" stroke="black" points="2355.13,-123 2242.13,-123 2242.13,-87 2355.13,-87 2355.13,-123"/>
<text text-anchor="middle" x="2298.63" y="-101.3" font-family="Times,serif" font-size="14.00">115274: /bin/ping</text>
</g>
<!-- 115269&#45;&gt;115274 -->
<g id="edge17" class="edge"><title>115269&#45;&gt;115274</title>
<path fill="none" stroke="black" d="M2320.48,-185.515C2281.54,-180.459 2234.9,-171.353 2222.63,-156 2213.73,-144.868 2220.55,-135.372 2233.11,-127.741"/>
<polygon fill="black" stroke="black" points="2234.88,-130.764 2242.08,-122.997 2231.6,-124.576 2234.88,-130.764"/>
<text text-anchor="middle" x="2250.13" y="-144.8" font-family="Times,serif" font-size="14.00">25480804</text>
</g>
<!-- 115280 -->
<g id="node13" class="node"><title>115280</title>
<polygon fill="none" stroke="black" points="2486.13,-123 2373.13,-123 2373.13,-87 2486.13,-87 2486.13,-123"/>
<text text-anchor="middle" x="2429.63" y="-101.3" font-family="Times,serif" font-size="14.00">115280: /bin/ping</text>
</g>
<!-- 115269&#45;&gt;115280 -->
<g id="edge18" class="edge"><title>115269&#45;&gt;115280</title>
<path fill="none" stroke="black" d="M2416.63,-173.938C2423.45,-169.147 2429.63,-163.22 2433.63,-156 2437.4,-149.193 2438.05,-141.044 2437.3,-133.321"/>
<polygon fill="black" stroke="black" points="2440.71,-132.483 2435.57,-123.218 2433.81,-133.666 2440.71,-132.483"/>
<text text-anchor="middle" x="2465.13" y="-144.8" font-family="Times,serif" font-size="14.00">25480828</text>
</g>
<!-- 115286 -->
<g id="node14" class="node"><title>115286</title>
<polygon fill="none" stroke="black" points="2617.13,-123 2504.13,-123 2504.13,-87 2617.13,-87 2617.13,-123"/>
<text text-anchor="middle" x="2560.63" y="-101.3" font-family="Times,serif" font-size="14.00">115286: /bin/ping</text>
</g>
<!-- 115269&#45;&gt;115286 -->
<g id="edge19" class="edge"><title>115269&#45;&gt;115286</title>
<path fill="none" stroke="black" d="M2434.74,-189.616C2490.62,-186.912 2570.11,-179.005 2589.63,-156 2596.03,-148.462 2593.2,-139.321 2587.31,-130.927"/>
<polygon fill="black" stroke="black" points="2589.99,-128.67 2580.92,-123.185 2584.59,-133.125 2589.99,-128.67"/>
<text text-anchor="middle" x="2621.13" y="-144.8" font-family="Times,serif" font-size="14.00">25480852</text>
</g>
<!-- 115272 -->
<g id="node15" class="node"><title>115272</title>
<polygon fill="none" stroke="black" points="2748.13,-123 2635.13,-123 2635.13,-87 2748.13,-87 2748.13,-123"/>
<text text-anchor="middle" x="2691.63" y="-101.3" font-family="Times,serif" font-size="14.00">115272: /bin/ping</text>
</g>
<!-- 115269&#45;&gt;115272 -->
<g id="edge21" class="edge"><title>115269&#45;&gt;115272</title>
<path fill="none" stroke="black" d="M2434.69,-189.706C2532.85,-186.886 2725.15,-178.523 2745.63,-156 2754.14,-146.644 2747.99,-137.049 2737.26,-128.798"/>
<polygon fill="black" stroke="black" points="2739.01,-125.76 2728.77,-123.05 2735.09,-131.556 2739.01,-125.76"/>
<text text-anchor="middle" x="2777.13" y="-144.8" font-family="Times,serif" font-size="14.00">25480796</text>
</g>
<!-- 115290&#45;&gt;115269 -->
<g id="edge7" class="edge"><title>115290&#45;&gt;115269</title>
<path fill="none" stroke="black" d="M2837.59,-123.461C2831.39,-134.795 2821.65,-148.759 2808.63,-156 2777.69,-173.2 2558.38,-184.054 2445.07,-188.577"/>
<polygon fill="black" stroke="black" points="2444.63,-185.091 2434.78,-188.982 2444.91,-192.086 2444.63,-185.091"/>
<text text-anchor="middle" x="2853.13" y="-144.8" font-family="Times,serif" font-size="14.00">25480869</text>
</g>
<!-- 115290&#45;&gt;1238 -->
<g id="edge35" class="edge"><title>115290&#45;&gt;1238</title>
<path fill="none" stroke="black" d="M2792.87,-86.9248C2758.38,-76.2609 2712.18,-62.9117 2670.63,-54 2615.44,-42.1641 2552.27,-33.1543 2504.45,-27.242"/>
<polygon fill="black" stroke="black" points="2504.84,-23.7635 2494.49,-26.0275 2503.99,-30.712 2504.84,-23.7635"/>
<text text-anchor="middle" x="2757.13" y="-57.8" font-family="Times,serif" font-size="14.00">25480872</text>
</g>
<!-- 115276&#45;&gt;115269 -->
<g id="edge8" class="edge"><title>115276&#45;&gt;115269</title>
<path fill="none" stroke="black" d="M2988.55,-123.162C2978.68,-134.672 2964.08,-148.966 2947.63,-156 2902.5,-175.303 2586.07,-185.686 2445.1,-189.399"/>
<polygon fill="black" stroke="black" points="2444.76,-185.906 2434.86,-189.665 2444.95,-192.904 2444.76,-185.906"/>
<text text-anchor="middle" x="2997.13" y="-144.8" font-family="Times,serif" font-size="14.00">25480813</text>
</g>
<!-- 115276&#45;&gt;1238 -->
<g id="edge36" class="edge"><title>115276&#45;&gt;1238</title>
<path fill="none" stroke="black" d="M2945.09,-88.5542C2902.4,-77.4245 2842.22,-62.8616 2788.63,-54 2693.18,-38.2173 2582.2,-28.7374 2509.19,-23.7008"/>
<polygon fill="black" stroke="black" points="2509.36,-20.2043 2499.14,-23.0194 2508.88,-27.1882 2509.36,-20.2043"/>
<text text-anchor="middle" x="2887.13" y="-57.8" font-family="Times,serif" font-size="14.00">25480816</text>
</g>
<!-- 115278&#45;&gt;115269 -->
<g id="edge10" class="edge"><title>115278&#45;&gt;115269</title>
<path fill="none" stroke="black" d="M3141.47,-123.011C3129.28,-134.609 3111.47,-149.073 3092.63,-156 3032.9,-177.961 2610.99,-187.186 2444.73,-189.996"/>
<polygon fill="black" stroke="black" points="2444.57,-186.498 2434.63,-190.164 2444.69,-193.497 2444.57,-186.498"/>
<text text-anchor="middle" x="3146.13" y="-144.8" font-family="Times,serif" font-size="14.00">25480821</text>
</g>
<!-- 115278&#45;&gt;1238 -->
<g id="edge41" class="edge"><title>115278&#45;&gt;1238</title>
<path fill="none" stroke="black" d="M3101.03,-89.9082C3052.83,-78.4538 2981.6,-62.8002 2918.63,-54 2775.95,-34.0623 2608.18,-25.1889 2510.86,-21.4647"/>
<polygon fill="black" stroke="black" points="2510.93,-17.9647 2500.8,-21.0884 2510.66,-24.9598 2510.93,-17.9647"/>
<text text-anchor="middle" x="3032.13" y="-57.8" font-family="Times,serif" font-size="14.00">25480824</text>
</g>
<!-- 115288&#45;&gt;115269 -->
<g id="edge24" class="edge"><title>115288&#45;&gt;115269</title>
<path fill="none" stroke="black" d="M1866.11,-123.119C1850.09,-132.37 1837.65,-144.275 1848.63,-156 1852.53,-160.169 2168.53,-178.922 2310.21,-187.131"/>
<polygon fill="black" stroke="black" points="2310.33,-190.643 2320.51,-187.727 2310.73,-183.655 2310.33,-190.643"/>
<text text-anchor="middle" x="1876.13" y="-144.8" font-family="Times,serif" font-size="14.00">25480861</text>
</g>
<!-- 115288&#45;&gt;1238 -->
<g id="edge44" class="edge"><title>115288&#45;&gt;1238</title>
<path fill="none" stroke="black" d="M1956.35,-86.908C1990.98,-75.8857 2038.11,-62.1383 2080.63,-54 2171.84,-36.5416 2278.23,-27.4631 2349.34,-22.9759"/>
<polygon fill="black" stroke="black" points="2349.81,-26.454 2359.57,-22.3467 2349.38,-19.4672 2349.81,-26.454"/>
<text text-anchor="middle" x="2108.13" y="-57.8" font-family="Times,serif" font-size="14.00">25480864</text>
</g>
<!-- 115282&#45;&gt;115269 -->
<g id="edge25" class="edge"><title>115282&#45;&gt;115269</title>
<path fill="none" stroke="black" d="M2014.45,-123.215C2004,-133.355 1995.61,-146.094 2004.63,-156 2014.77,-167.141 2205.72,-180.494 2310.36,-187.018"/>
<polygon fill="black" stroke="black" points="2310.33,-190.522 2320.52,-187.646 2310.76,-183.535 2310.33,-190.522"/>
<text text-anchor="middle" x="2032.13" y="-144.8" font-family="Times,serif" font-size="14.00">25480837</text>
</g>
<!-- 115282&#45;&gt;1238 -->
<g id="edge45" class="edge"><title>115282&#45;&gt;1238</title>
<path fill="none" stroke="black" d="M2082.22,-86.9585C2112.57,-76.171 2153.54,-62.6714 2190.63,-54 2244.65,-41.3699 2306.66,-32.4467 2353.98,-26.7721"/>
<polygon fill="black" stroke="black" points="2354.63,-30.2202 2364.15,-25.5753 2353.81,-23.2681 2354.63,-30.2202"/>
<text text-anchor="middle" x="2218.13" y="-57.8" font-family="Times,serif" font-size="14.00">25480840</text>
</g>
<!-- 115284&#45;&gt;115269 -->
<g id="edge26" class="edge"><title>115284&#45;&gt;115269</title>
<path fill="none" stroke="black" d="M2158.7,-123.135C2154.54,-133.755 2151.99,-147.034 2159.63,-156 2178.77,-178.465 2253.78,-186.567 2310.51,-189.458"/>
<polygon fill="black" stroke="black" points="2310.36,-192.954 2320.51,-189.924 2310.68,-185.962 2310.36,-192.954"/>
<text text-anchor="middle" x="2187.13" y="-144.8" font-family="Times,serif" font-size="14.00">25480845</text>
</g>
<!-- 115284&#45;&gt;1238 -->
<g id="edge46" class="edge"><title>115284&#45;&gt;1238</title>
<path fill="none" stroke="black" d="M2205.29,-86.9181C2229.14,-76.5154 2260.81,-63.4534 2289.63,-54 2314.53,-45.8327 2342.45,-38.4969 2366.77,-32.6764"/>
<polygon fill="black" stroke="black" points="2367.67,-36.0604 2376.6,-30.3587 2366.06,-29.2472 2367.67,-36.0604"/>
<text text-anchor="middle" x="2317.13" y="-57.8" font-family="Times,serif" font-size="14.00">25480848</text>
</g>
<!-- 115274&#45;&gt;115269 -->
<g id="edge22" class="edge"><title>115274&#45;&gt;115269</title>
<path fill="none" stroke="black" d="M2300.07,-123.29C2301.7,-133.707 2305.19,-146.71 2312.63,-156 2316.32,-160.616 2320.8,-164.704 2325.65,-168.306"/>
<polygon fill="black" stroke="black" points="2323.83,-171.301 2334.1,-173.914 2327.7,-165.468 2323.83,-171.301"/>
<text text-anchor="middle" x="2340.13" y="-144.8" font-family="Times,serif" font-size="14.00">25480805</text>
</g>
<!-- 115274&#45;&gt;1238 -->
<g id="edge42" class="edge"><title>115274&#45;&gt;1238</title>
<path fill="none" stroke="black" d="M2322.34,-86.8987C2336.24,-77.0316 2354.24,-64.5316 2370.63,-54 2377.9,-49.3257 2385.8,-44.488 2393.37,-39.9554"/>
<polygon fill="black" stroke="black" points="2395.25,-42.913 2402.06,-34.8028 2391.68,-36.8915 2395.25,-42.913"/>
<text text-anchor="middle" x="2398.13" y="-57.8" font-family="Times,serif" font-size="14.00">25480808</text>
</g>
<!-- 115280&#45;&gt;115269 -->
<g id="edge27" class="edge"><title>115280&#45;&gt;115269</title>
<path fill="none" stroke="black" d="M2391.31,-123.181C2384.62,-127.963 2378.55,-133.857 2374.63,-141 2370.89,-147.813 2370.13,-155.963 2370.72,-163.687"/>
<polygon fill="black" stroke="black" points="2367.29,-164.407 2372.21,-173.788 2374.21,-163.384 2367.29,-164.407"/>
<text text-anchor="middle" x="2402.13" y="-144.8" font-family="Times,serif" font-size="14.00">25480829</text>
</g>
<!-- 115280&#45;&gt;1238 -->
<g id="edge47" class="edge"><title>115280&#45;&gt;1238</title>
<path fill="none" stroke="black" d="M2429.63,-86.799C2429.63,-75.1626 2429.63,-59.5479 2429.63,-46.2368"/>
<polygon fill="black" stroke="black" points="2433.13,-46.1754 2429.63,-36.1754 2426.13,-46.1755 2433.13,-46.1754"/>
<text text-anchor="middle" x="2457.13" y="-57.8" font-family="Times,serif" font-size="14.00">25480832</text>
</g>
<!-- 115286&#45;&gt;115269 -->
<g id="edge28" class="edge"><title>115286&#45;&gt;115269</title>
<path fill="none" stroke="black" d="M2542.6,-123.121C2530.43,-133.872 2513.56,-147.301 2496.63,-156 2480.54,-164.268 2462.19,-170.879 2444.8,-176.03"/>
<polygon fill="black" stroke="black" points="2443.37,-172.799 2434.7,-178.895 2445.28,-179.533 2443.37,-172.799"/>
<text text-anchor="middle" x="2547.13" y="-144.8" font-family="Times,serif" font-size="14.00">25480853</text>
</g>
<!-- 115286&#45;&gt;1238 -->
<g id="edge48" class="edge"><title>115286&#45;&gt;1238</title>
<path fill="none" stroke="black" d="M2536.92,-86.8987C2523.02,-77.0316 2505.02,-64.5316 2488.63,-54 2481.36,-49.3257 2473.46,-44.488 2465.89,-39.9554"/>
<polygon fill="black" stroke="black" points="2467.58,-36.8915 2457.2,-34.8028 2464.01,-42.913 2467.58,-36.8915"/>
<text text-anchor="middle" x="2539.13" y="-57.8" font-family="Times,serif" font-size="14.00">25480856</text>
</g>
<!-- 115272&#45;&gt;115269 -->
<g id="edge23" class="edge"><title>115272&#45;&gt;115269</title>
<path fill="none" stroke="black" d="M2682.83,-123.286C2676.13,-134.542 2665.83,-148.484 2652.63,-156 2618.24,-175.572 2514.6,-184.441 2444.83,-188.282"/>
<polygon fill="black" stroke="black" points="2444.6,-184.789 2434.8,-188.812 2444.97,-191.779 2444.6,-184.789"/>
<text text-anchor="middle" x="2697.13" y="-144.8" font-family="Times,serif" font-size="14.00">25480797</text>
</g>
<!-- 115272&#45;&gt;1238 -->
<g id="edge43" class="edge"><title>115272&#45;&gt;1238</title>
<path fill="none" stroke="black" d="M2654.29,-86.8841C2630.65,-76.4683 2599.24,-63.4046 2570.63,-54 2545.46,-45.7278 2517.21,-38.352 2492.65,-32.5295"/>
<polygon fill="black" stroke="black" points="2493.25,-29.0771 2482.72,-30.213 2491.66,-35.894 2493.25,-29.0771"/>
<text text-anchor="middle" x="2639.13" y="-57.8" font-family="Times,serif" font-size="14.00">25480800</text>
</g>
<!-- 115293&#45;&gt;115292 -->
<g id="edge29" class="edge"><title>115293&#45;&gt;115292</title>
<path fill="none" stroke="black" d="M1394.54,-123.044C1366.66,-127.891 1337.48,-133.845 1310.63,-141 1281.8,-148.681 1250.52,-160.166 1225.43,-170.192"/>
<polygon fill="black" stroke="black" points="1224.09,-166.957 1216.14,-173.952 1226.72,-173.445 1224.09,-166.957"/>
<text text-anchor="middle" x="1338.13" y="-144.8" font-family="Times,serif" font-size="14.00">25480987</text>
</g>
<!-- 115270 -->
<g id="node17" class="node"><title>115270</title>
<ellipse fill="none" stroke="black" cx="2340.63" cy="-279" rx="215.562" ry="18"/>
<text text-anchor="middle" x="2340.63" y="-275.3" font-family="Times,serif" font-size="14.00">115270: /home/feishao/sysdigscripts/case6/ping_others.sh</text>
</g>
<!-- 115270&#45;&gt;115269 -->
<g id="edge30" class="edge"><title>115270&#45;&gt;115269</title>
<path fill="none" stroke="black" d="M2348.12,-260.799C2353.28,-248.932 2360.25,-232.928 2366.12,-219.449"/>
<polygon fill="black" stroke="black" points="2369.37,-220.741 2370.15,-210.175 2362.95,-217.947 2369.37,-220.741"/>
<text text-anchor="middle" x="2389.13" y="-231.8" font-family="Times,serif" font-size="14.00">25480793</text>
</g>
<!-- 115333&#45;&gt;115292 -->
<g id="edge31" class="edge"><title>115333&#45;&gt;115292</title>
<path fill="none" stroke="black" d="M871.988,-123.035C937.755,-137.708 1032.27,-158.795 1098.54,-173.579"/>
<polygon fill="black" stroke="black" points="1097.99,-177.042 1108.51,-175.804 1099.52,-170.21 1097.99,-177.042"/>
<text text-anchor="middle" x="1037.13" y="-144.8" font-family="Times,serif" font-size="14.00">25483222</text>
</g>
<!-- 115267 -->
<g id="node19" class="node"><title>115267</title>
<ellipse fill="none" stroke="black" cx="2627.63" cy="-366" rx="194.166" ry="18"/>
<text text-anchor="middle" x="2627.63" y="-362.3" font-family="Times,serif" font-size="14.00">115267: /home/feishao/sysdigscripts/case6/case6.sh</text>
</g>
<!-- 115267&#45;&gt;115266 -->
<g id="edge32" class="edge"><title>115267&#45;&gt;115266</title>
<path fill="none" stroke="black" d="M2624.82,-347.61C2622,-336.307 2616.46,-322.352 2605.63,-315 2562.54,-285.74 2203.24,-303.142 2116.84,-296.57"/>
<polygon fill="black" stroke="black" points="2117.02,-293.071 2106.71,-295.505 2116.29,-300.032 2117.02,-293.071"/>
<text text-anchor="middle" x="2646.13" y="-318.8" font-family="Times,serif" font-size="14.00">25483275</text>
</g>
<!-- 115334&#45;&gt;115336 -->
<g id="edge34" class="edge"><title>115334&#45;&gt;115336</title>
<path fill="none" stroke="black" d="M340.38,-121.091C677.007,-169.127 1717.26,-317.57 1985.83,-355.896"/>
<polygon fill="black" stroke="black" points="1985.41,-359.371 1995.8,-357.319 1986.4,-352.441 1985.41,-359.371"/>
<text text-anchor="middle" x="1212.13" y="-231.8" font-family="Times,serif" font-size="14.00">25483288</text>
</g>
</g>
</svg>
