<?xml version="1.0" encoding="UTF-8" standalone="no"?>
<!DOCTYPE svg PUBLIC "-//W3C//DTD SVG 1.1//EN"
 "http://www.w3.org/Graphics/SVG/1.1/DTD/svg11.dtd">
<!-- Generated by graphviz version 2.38.0 (20140413.2041)
 -->
<!-- Title: G Pages: 1 -->
<svg width="3041pt" height="956pt"
 viewBox="0.00 0.00 3041.39 956.00" xmlns="http://www.w3.org/2000/svg" xmlns:xlink="http://www.w3.org/1999/xlink">
<g id="graph0" class="graph" transform="scale(1 1) rotate(0) translate(4 952)">
<title>G</title>
<polygon fill="white" stroke="none" points="-4,4 -4,-952 3037.39,-952 3037.39,4 -4,4"/>
<!-- 139 -->
<g id="node1" class="node"><title>139</title>
<polygon fill="none" stroke="black" points="1044.69,-948 950.694,-948 950.694,-912 1044.69,-912 1044.69,-948"/>
<text text-anchor="middle" x="997.694" y="-926.3" font-family="Times,serif" font-size="14.00">139: /bin/bash</text>
</g>
<!-- 191 -->
<g id="node2" class="node"><title>191</title>
<polygon fill="none" stroke="black" points="1108.69,-861 974.694,-861 974.694,-825 1108.69,-825 1108.69,-861"/>
<text text-anchor="middle" x="1041.69" y="-839.3" font-family="Times,serif" font-size="14.00">191: /usr/bin/python3</text>
</g>
<!-- 139&#45;&gt;191 -->
<g id="edge1" class="edge"><title>139&#45;&gt;191</title>
<path fill="none" stroke="black" d="M1009.17,-911.851C1012.73,-906.261 1016.53,-899.959 1019.69,-894 1023.63,-886.578 1027.48,-878.305 1030.83,-870.659"/>
<polygon fill="black" stroke="black" points="1034.06,-871.991 1034.77,-861.42 1027.62,-869.244 1034.06,-871.991"/>
<text text-anchor="middle" x="1038.19" y="-882.8" font-family="Times,serif" font-size="14.00">928</text>
</g>
<!-- 191&#45;&gt;139 -->
<g id="edge5" class="edge"><title>191&#45;&gt;139</title>
<path fill="none" stroke="black" d="M1009.81,-861.329C1003.72,-866.198 998.163,-872.09 994.694,-879 991.206,-885.946 990.519,-894.136 991.103,-901.855"/>
<polygon fill="black" stroke="black" points="987.662,-902.524 992.542,-911.928 994.592,-901.534 987.662,-902.524"/>
<text text-anchor="middle" x="1005.19" y="-882.8" font-family="Times,serif" font-size="14.00">929</text>
</g>
<!-- 298 -->
<g id="node3" class="node"><title>298</title>
<polygon fill="none" stroke="black" points="835.194,-774 742.194,-774 742.194,-738 835.194,-738 835.194,-774"/>
<text text-anchor="middle" x="788.694" y="-752.3" font-family="Times,serif" font-size="14.00">298: /bin/ping</text>
</g>
<!-- 191&#45;&gt;298 -->
<g id="edge6" class="edge"><title>191&#45;&gt;298</title>
<path fill="none" stroke="black" d="M974.356,-834.318C941.382,-829.099 901.584,-820.591 867.694,-807 850.602,-800.146 833.143,-789.547 819,-779.868"/>
<polygon fill="black" stroke="black" points="820.849,-776.89 810.655,-774.002 816.824,-782.616 820.849,-776.89"/>
<text text-anchor="middle" x="881.694" y="-795.8" font-family="Times,serif" font-size="14.00">1510</text>
</g>
<!-- 271 -->
<g id="node4" class="node"><title>271</title>
<polygon fill="none" stroke="black" points="946.194,-774 853.194,-774 853.194,-738 946.194,-738 946.194,-774"/>
<text text-anchor="middle" x="899.694" y="-752.3" font-family="Times,serif" font-size="14.00">271: /bin/ping</text>
</g>
<!-- 191&#45;&gt;271 -->
<g id="edge7" class="edge"><title>191&#45;&gt;271</title>
<path fill="none" stroke="black" d="M974.587,-831.749C945.625,-825.932 916.2,-817.663 906.694,-807 901.198,-800.836 898.799,-792.436 897.962,-784.281"/>
<polygon fill="black" stroke="black" points="901.46,-784.145 897.622,-774.27 894.464,-784.383 901.46,-784.145"/>
<text text-anchor="middle" x="920.694" y="-795.8" font-family="Times,serif" font-size="14.00">1073</text>
</g>
<!-- 293 -->
<g id="node5" class="node"><title>293</title>
<polygon fill="none" stroke="black" points="1057.19,-774 964.194,-774 964.194,-738 1057.19,-738 1057.19,-774"/>
<text text-anchor="middle" x="1010.69" y="-752.3" font-family="Times,serif" font-size="14.00">293: /bin/ping</text>
</g>
<!-- 191&#45;&gt;293 -->
<g id="edge8" class="edge"><title>191&#45;&gt;293</title>
<path fill="none" stroke="black" d="M1008.48,-824.901C1002.12,-820.019 996.329,-814.065 992.694,-807 988.852,-799.535 990.016,-791.059 993.112,-783.234"/>
<polygon fill="black" stroke="black" points="996.323,-784.637 997.641,-774.125 990.055,-781.521 996.323,-784.637"/>
<text text-anchor="middle" x="1006.69" y="-795.8" font-family="Times,serif" font-size="14.00">1444</text>
</g>
<!-- 384 -->
<g id="node6" class="node"><title>384</title>
<polygon fill="none" stroke="black" points="723.694,-720 643.694,-720 643.694,-684 723.694,-684 723.694,-720"/>
<text text-anchor="middle" x="683.694" y="-698.3" font-family="Times,serif" font-size="14.00">384: &lt;NA&gt;</text>
</g>
<!-- 191&#45;&gt;384 -->
<g id="edge9" class="edge"><title>191&#45;&gt;384</title>
<path fill="none" stroke="black" d="M974.281,-839.326C867.905,-834.626 670.293,-823.762 642.694,-807 615.295,-790.36 605.532,-765.683 621.694,-738 625.006,-732.326 629.616,-727.499 634.842,-723.412"/>
<polygon fill="black" stroke="black" points="637.139,-726.084 643.463,-717.584 633.219,-720.285 637.139,-726.084"/>
<text text-anchor="middle" x="656.694" y="-795.8" font-family="Times,serif" font-size="14.00">2644</text>
</g>
<!-- 295 -->
<g id="node7" class="node"><title>295</title>
<polygon fill="none" stroke="black" points="387.194,-774 294.194,-774 294.194,-738 387.194,-738 387.194,-774"/>
<text text-anchor="middle" x="340.694" y="-752.3" font-family="Times,serif" font-size="14.00">295: /bin/ping</text>
</g>
<!-- 191&#45;&gt;295 -->
<g id="edge10" class="edge"><title>191&#45;&gt;295</title>
<path fill="none" stroke="black" d="M974.513,-841.089C803.483,-838.446 363.515,-829.485 341.694,-807 335.911,-801.042 334.309,-792.559 334.571,-784.268"/>
<polygon fill="black" stroke="black" points="338.078,-784.404 335.726,-774.074 331.123,-783.616 338.078,-784.404"/>
<text text-anchor="middle" x="355.694" y="-795.8" font-family="Times,serif" font-size="14.00">1476</text>
</g>
<!-- 288 -->
<g id="node8" class="node"><title>288</title>
<polygon fill="none" stroke="black" points="574.194,-774 481.194,-774 481.194,-738 574.194,-738 574.194,-774"/>
<text text-anchor="middle" x="527.694" y="-752.3" font-family="Times,serif" font-size="14.00">288: /bin/ping</text>
</g>
<!-- 191&#45;&gt;288 -->
<g id="edge11" class="edge"><title>191&#45;&gt;288</title>
<path fill="none" stroke="black" d="M974.433,-842.657C836.823,-843.293 533.375,-840.801 501.694,-807 495.07,-799.933 497.457,-790.854 502.877,-782.377"/>
<polygon fill="black" stroke="black" points="505.828,-784.278 509.086,-774.196 500.252,-780.045 505.828,-784.278"/>
<text text-anchor="middle" x="515.694" y="-795.8" font-family="Times,serif" font-size="14.00">1387</text>
</g>
<!-- 374 -->
<g id="node9" class="node"><title>374</title>
<polygon fill="none" stroke="black" points="1223.69,-612 1143.69,-612 1143.69,-576 1223.69,-576 1223.69,-612"/>
<text text-anchor="middle" x="1183.69" y="-590.3" font-family="Times,serif" font-size="14.00">374: &lt;NA&gt;</text>
</g>
<!-- 191&#45;&gt;374 -->
<g id="edge12" class="edge"><title>191&#45;&gt;374</title>
<path fill="none" stroke="black" d="M1109.05,-840.028C1232.58,-835.983 1486.01,-825.53 1521.69,-807 1538.51,-798.267 1542.32,-791.847 1548.69,-774 1596.33,-640.546 1344.74,-606.321 1233.98,-597.765"/>
<polygon fill="black" stroke="black" points="1233.94,-594.253 1223.71,-597.014 1233.43,-601.234 1233.94,-594.253"/>
<text text-anchor="middle" x="1568.69" y="-752.3" font-family="Times,serif" font-size="14.00">2625</text>
</g>
<!-- 286 -->
<g id="node10" class="node"><title>286</title>
<polygon fill="none" stroke="black" points="724.194,-774 631.194,-774 631.194,-738 724.194,-738 724.194,-774"/>
<text text-anchor="middle" x="677.694" y="-752.3" font-family="Times,serif" font-size="14.00">286: /bin/ping</text>
</g>
<!-- 191&#45;&gt;286 -->
<g id="edge13" class="edge"><title>191&#45;&gt;286</title>
<path fill="none" stroke="black" d="M974.674,-840.054C876.183,-836.519 701.778,-827.431 681.694,-807 675.856,-801.062 673.821,-792.583 673.563,-784.291"/>
<polygon fill="black" stroke="black" points="677.069,-784.243 674.033,-774.092 670.076,-783.92 677.069,-784.243"/>
<text text-anchor="middle" x="695.694" y="-795.8" font-family="Times,serif" font-size="14.00">1356</text>
</g>
<!-- 260 -->
<g id="node11" class="node"><title>260</title>
<polygon fill="none" stroke="black" points="1168.19,-774 1075.19,-774 1075.19,-738 1168.19,-738 1168.19,-774"/>
<text text-anchor="middle" x="1121.69" y="-752.3" font-family="Times,serif" font-size="14.00">260: /bin/ping</text>
</g>
<!-- 191&#45;&gt;260 -->
<g id="edge14" class="edge"><title>191&#45;&gt;260</title>
<path fill="none" stroke="black" d="M1057.88,-824.799C1069.59,-812.356 1085.59,-795.364 1098.63,-781.504"/>
<polygon fill="black" stroke="black" points="1101.22,-783.856 1105.53,-774.175 1096.13,-779.059 1101.22,-783.856"/>
<text text-anchor="middle" x="1100.69" y="-795.8" font-family="Times,serif" font-size="14.00">1042</text>
</g>
<!-- 282 -->
<g id="node12" class="node"><title>282</title>
<polygon fill="none" stroke="black" points="1279.19,-774 1186.19,-774 1186.19,-738 1279.19,-738 1279.19,-774"/>
<text text-anchor="middle" x="1232.69" y="-752.3" font-family="Times,serif" font-size="14.00">282: /bin/ping</text>
</g>
<!-- 191&#45;&gt;282 -->
<g id="edge15" class="edge"><title>191&#45;&gt;282</title>
<path fill="none" stroke="black" d="M1108.89,-825.079C1124.89,-820.092 1141.67,-814.047 1156.69,-807 1172.41,-799.626 1188.64,-789.366 1202.05,-780.058"/>
<polygon fill="black" stroke="black" points="1204.29,-782.761 1210.42,-774.119 1200.24,-777.052 1204.29,-782.761"/>
<text text-anchor="middle" x="1197.69" y="-795.8" font-family="Times,serif" font-size="14.00">1279</text>
</g>
<!-- 334 -->
<g id="node13" class="node"><title>334</title>
<polygon fill="none" stroke="black" points="1702.69,-774 1622.69,-774 1622.69,-738 1702.69,-738 1702.69,-774"/>
<text text-anchor="middle" x="1662.69" y="-752.3" font-family="Times,serif" font-size="14.00">334: &lt;NA&gt;</text>
</g>
<!-- 191&#45;&gt;334 -->
<g id="edge16" class="edge"><title>191&#45;&gt;334</title>
<path fill="none" stroke="black" d="M1108.86,-841.917C1255.92,-841.19 1596.75,-836.32 1639.69,-807 1647.61,-801.598 1652.85,-792.758 1656.3,-784.001"/>
<polygon fill="black" stroke="black" points="1659.68,-784.93 1659.48,-774.337 1653.03,-782.742 1659.68,-784.93"/>
<text text-anchor="middle" x="1666.69" y="-795.8" font-family="Times,serif" font-size="14.00">2109</text>
</g>
<!-- 284 -->
<g id="node14" class="node"><title>284</title>
<polygon fill="none" stroke="black" points="1429.19,-774 1336.19,-774 1336.19,-738 1429.19,-738 1429.19,-774"/>
<text text-anchor="middle" x="1382.69" y="-752.3" font-family="Times,serif" font-size="14.00">284: /bin/ping</text>
</g>
<!-- 191&#45;&gt;284 -->
<g id="edge17" class="edge"><title>191&#45;&gt;284</title>
<path fill="none" stroke="black" d="M1109.01,-838.274C1180.47,-833.515 1288.18,-823.813 1325.69,-807 1332.99,-803.732 1346.18,-792.318 1358.04,-781.22"/>
<polygon fill="black" stroke="black" points="1360.73,-783.49 1365.57,-774.061 1355.91,-778.418 1360.73,-783.49"/>
<text text-anchor="middle" x="1359.69" y="-795.8" font-family="Times,serif" font-size="14.00">1325</text>
</g>
<!-- 280 -->
<g id="node15" class="node"><title>280</title>
<polygon fill="none" stroke="black" points="1540.19,-774 1447.19,-774 1447.19,-738 1540.19,-738 1540.19,-774"/>
<text text-anchor="middle" x="1493.69" y="-752.3" font-family="Times,serif" font-size="14.00">280: /bin/ping</text>
</g>
<!-- 191&#45;&gt;280 -->
<g id="edge18" class="edge"><title>191&#45;&gt;280</title>
<path fill="none" stroke="black" d="M1108.83,-839.587C1201,-835.616 1361.57,-826.158 1416.69,-807 1434.02,-800.977 1451.34,-790.261 1465.15,-780.291"/>
<polygon fill="black" stroke="black" points="1467.34,-783.017 1473.26,-774.228 1463.15,-777.41 1467.34,-783.017"/>
<text text-anchor="middle" x="1460.69" y="-795.8" font-family="Times,serif" font-size="14.00">1247</text>
</g>
<!-- 298&#45;&gt;191 -->
<g id="edge2" class="edge"><title>298&#45;&gt;191</title>
<path fill="none" stroke="black" d="M783.02,-774.268C780.681,-784.942 780.049,-798.23 787.694,-807 810.333,-832.973 898.47,-840.332 964.614,-842.092"/>
<polygon fill="black" stroke="black" points="964.537,-845.591 974.615,-842.321 964.697,-838.593 964.537,-845.591"/>
<text text-anchor="middle" x="801.694" y="-795.8" font-family="Times,serif" font-size="14.00">1511</text>
</g>
<!-- 271&#45;&gt;191 -->
<g id="edge3" class="edge"><title>271&#45;&gt;191</title>
<path fill="none" stroke="black" d="M916.929,-774.061C928.149,-784.52 943.479,-797.65 958.694,-807 966.901,-812.044 975.965,-816.687 984.997,-820.83"/>
<polygon fill="black" stroke="black" points="983.799,-824.127 994.361,-824.962 986.626,-817.723 983.799,-824.127"/>
<text text-anchor="middle" x="972.694" y="-795.8" font-family="Times,serif" font-size="14.00">1074</text>
</g>
<!-- 293&#45;&gt;191 -->
<g id="edge4" class="edge"><title>293&#45;&gt;191</title>
<path fill="none" stroke="black" d="M1016.96,-774.175C1021.24,-785.921 1027.01,-801.729 1031.89,-815.129"/>
<polygon fill="black" stroke="black" points="1028.71,-816.604 1035.42,-824.799 1035.28,-814.205 1028.71,-816.604"/>
<text text-anchor="middle" x="1042.69" y="-795.8" font-family="Times,serif" font-size="14.00">1445</text>
</g>
<!-- 384&#45;&gt;191 -->
<g id="edge19" class="edge"><title>384&#45;&gt;191</title>
<path fill="none" stroke="black" d="M723.718,-703.826C855.464,-706.737 1268.32,-717.47 1287.69,-738 1310.52,-762.193 1287.81,-790.91 1258.69,-807 1235.04,-820.07 1171.15,-829.391 1118.77,-835.11"/>
<polygon fill="black" stroke="black" points="1118.38,-831.633 1108.81,-836.171 1119.12,-838.593 1118.38,-831.633"/>
<text text-anchor="middle" x="1293.69" y="-795.8" font-family="Times,serif" font-size="14.00">2645</text>
</g>
<!-- 386 -->
<g id="node16" class="node"><title>386</title>
<polygon fill="none" stroke="black" points="1190.69,-297 1056.69,-297 1056.69,-261 1190.69,-261 1190.69,-297"/>
<text text-anchor="middle" x="1123.69" y="-275.3" font-family="Times,serif" font-size="14.00">386: /usr/bin/python3</text>
</g>
<!-- 384&#45;&gt;386 -->
<g id="edge20" class="edge"><title>384&#45;&gt;386</title>
<path fill="none" stroke="black" d="M723.927,-699.042C870.547,-691.38 1367.69,-660.566 1367.69,-595 1367.69,-595 1367.69,-595 1367.69,-365 1367.69,-329.119 1272.41,-304.89 1200.93,-291.761"/>
<polygon fill="black" stroke="black" points="1201.47,-288.303 1191.01,-289.982 1200.24,-295.193 1201.47,-288.303"/>
<text text-anchor="middle" x="1381.69" y="-492.8" font-family="Times,serif" font-size="14.00">2648</text>
</g>
<!-- 295&#45;&gt;191 -->
<g id="edge21" class="edge"><title>295&#45;&gt;191</title>
<path fill="none" stroke="black" d="M353.142,-774.191C362.568,-785.715 376.612,-800.014 392.694,-807 443.866,-829.231 803.351,-838.003 964.207,-840.842"/>
<polygon fill="black" stroke="black" points="964.45,-844.347 974.51,-841.021 964.572,-837.348 964.45,-844.347"/>
<text text-anchor="middle" x="406.694" y="-795.8" font-family="Times,serif" font-size="14.00">1477</text>
</g>
<!-- 296 -->
<g id="node25" class="node"><title>296</title>
<polygon fill="none" stroke="black" points="579.581,-666 118.435,-666 -0.193644,-630 460.952,-630 579.581,-666"/>
<text text-anchor="middle" x="289.694" y="-644.3" font-family="Times,serif" font-size="14.00">296: 129.22.31.135/32:44204&#45;&gt;129.22.104.25/32:53</text>
</g>
<!-- 295&#45;&gt;296 -->
<g id="edge58" class="edge"><title>295&#45;&gt;296</title>
<path fill="none" stroke="black" d="M337.375,-737.908C334.037,-723.045 328.032,-701.249 318.694,-684 316.897,-680.682 314.76,-677.383 312.473,-674.21"/>
<polygon fill="black" stroke="black" points="315.114,-671.906 306.196,-666.186 309.6,-676.219 315.114,-671.906"/>
<text text-anchor="middle" x="347.694" y="-698.3" font-family="Times,serif" font-size="14.00">1499</text>
</g>
<!-- 288&#45;&gt;191 -->
<g id="edge26" class="edge"><title>288&#45;&gt;191</title>
<path fill="none" stroke="black" d="M531.635,-774.332C535.165,-785.608 541.559,-799.556 552.694,-807 586.02,-829.28 835.133,-837.723 964.376,-840.628"/>
<polygon fill="black" stroke="black" points="964.532,-844.132 974.606,-840.852 964.685,-837.134 964.532,-844.132"/>
<text text-anchor="middle" x="566.694" y="-795.8" font-family="Times,serif" font-size="14.00">1388</text>
</g>
<!-- 374&#45;&gt;191 -->
<g id="edge27" class="edge"><title>374&#45;&gt;191</title>
<path fill="none" stroke="black" d="M1143.49,-599.637C995.409,-617.126 486.815,-680.997 443.694,-738 420.845,-768.203 457.787,-794.958 493.694,-807 578.616,-835.48 834.128,-841.008 964.039,-841.933"/>
<polygon fill="black" stroke="black" points="964.289,-845.435 974.311,-841.999 964.334,-838.435 964.289,-845.435"/>
<text text-anchor="middle" x="457.694" y="-752.3" font-family="Times,serif" font-size="14.00">2626</text>
</g>
<!-- 377 -->
<g id="node17" class="node"><title>377</title>
<polygon fill="none" stroke="black" points="1227.19,-471 1140.19,-471 1140.19,-435 1227.19,-435 1227.19,-471"/>
<text text-anchor="middle" x="1183.69" y="-449.3" font-family="Times,serif" font-size="14.00">377: /bin/mv</text>
</g>
<!-- 374&#45;&gt;377 -->
<g id="edge28" class="edge"><title>374&#45;&gt;377</title>
<path fill="none" stroke="black" d="M1189.65,-575.759C1191.3,-570.165 1192.87,-563.883 1193.69,-558 1197.33,-532.029 1193.67,-502.223 1189.8,-481.196"/>
<polygon fill="black" stroke="black" points="1193.22,-480.482 1187.85,-471.351 1186.35,-481.841 1193.22,-480.482"/>
<text text-anchor="middle" x="1209.69" y="-536.3" font-family="Times,serif" font-size="14.00">2629</text>
</g>
<!-- 286&#45;&gt;191 -->
<g id="edge29" class="edge"><title>286&#45;&gt;191</title>
<path fill="none" stroke="black" d="M696.978,-774.07C710.907,-785.382 730.711,-799.476 750.694,-807 788.557,-821.257 891.665,-831.307 964.352,-836.875"/>
<polygon fill="black" stroke="black" points="964.162,-840.371 974.396,-837.631 964.687,-833.39 964.162,-840.371"/>
<text text-anchor="middle" x="764.694" y="-795.8" font-family="Times,serif" font-size="14.00">1357</text>
</g>
<!-- 260&#45;&gt;191 -->
<g id="edge32" class="edge"><title>260&#45;&gt;191</title>
<path fill="none" stroke="black" d="M1124.84,-774.17C1125.79,-784.542 1125.19,-797.539 1118.69,-807 1115.52,-811.614 1111.59,-815.63 1107.19,-819.124"/>
<polygon fill="black" stroke="black" points="1105.09,-816.318 1098.83,-824.865 1109.06,-822.088 1105.09,-816.318"/>
<text text-anchor="middle" x="1138.69" y="-795.8" font-family="Times,serif" font-size="14.00">1043</text>
</g>
<!-- 282&#45;&gt;191 -->
<g id="edge33" class="edge"><title>282&#45;&gt;191</title>
<path fill="none" stroke="black" d="M1231.16,-774.235C1229.27,-785.174 1225.06,-798.771 1215.69,-807 1201.02,-819.889 1158.22,-828.595 1118.74,-834.1"/>
<polygon fill="black" stroke="black" points="1118.24,-830.636 1108.8,-835.432 1119.17,-837.574 1118.24,-830.636"/>
<text text-anchor="middle" x="1240.69" y="-795.8" font-family="Times,serif" font-size="14.00">1280</text>
</g>
<!-- 334&#45;&gt;191 -->
<g id="edge34" class="edge"><title>334&#45;&gt;191</title>
<path fill="none" stroke="black" d="M1634.63,-774.087C1625.88,-779.62 1616.28,-785.905 1607.69,-792 1598.92,-798.229 1598.74,-803.149 1588.69,-807 1505.1,-839.047 1248.9,-842.893 1118.97,-842.681"/>
<polygon fill="black" stroke="black" points="1118.71,-839.18 1108.7,-842.655 1118.69,-846.18 1118.71,-839.18"/>
<text text-anchor="middle" x="1621.69" y="-795.8" font-family="Times,serif" font-size="14.00">2110</text>
</g>
<!-- 337 -->
<g id="node21" class="node"><title>337</title>
<polygon fill="none" stroke="black" points="2205.69,-666 2089.69,-666 2089.69,-630 2205.69,-630 2205.69,-666"/>
<text text-anchor="middle" x="2147.69" y="-644.3" font-family="Times,serif" font-size="14.00">337: /usr/bin/wget</text>
</g>
<!-- 334&#45;&gt;337 -->
<g id="edge35" class="edge"><title>334&#45;&gt;337</title>
<path fill="none" stroke="black" d="M1702.73,-740.857C1705.76,-739.866 1708.77,-738.903 1711.69,-738 1799.26,-710.965 1820.98,-702.727 1910.69,-684 1967.02,-672.241 2031.69,-662.97 2079.22,-656.932"/>
<polygon fill="black" stroke="black" points="2079.92,-660.373 2089.4,-655.655 2079.04,-653.427 2079.92,-660.373"/>
<text text-anchor="middle" x="1924.69" y="-698.3" font-family="Times,serif" font-size="14.00">2113</text>
</g>
<!-- 284&#45;&gt;191 -->
<g id="edge36" class="edge"><title>284&#45;&gt;191</title>
<path fill="none" stroke="black" d="M1385.56,-774.16C1386.33,-785.067 1385.17,-798.657 1376.69,-807 1358.7,-824.723 1212.41,-834.465 1119.19,-838.927"/>
<polygon fill="black" stroke="black" points="1118.76,-835.443 1108.94,-839.407 1119.09,-842.435 1118.76,-835.443"/>
<text text-anchor="middle" x="1398.69" y="-795.8" font-family="Times,serif" font-size="14.00">1326</text>
</g>
<!-- 280&#45;&gt;191 -->
<g id="edge39" class="edge"><title>280&#45;&gt;191</title>
<path fill="none" stroke="black" d="M1493.27,-774.066C1492.02,-785.224 1488.42,-799.14 1478.69,-807 1451.41,-829.05 1236.75,-837.493 1118.77,-840.492"/>
<polygon fill="black" stroke="black" points="1118.61,-836.994 1108.7,-840.74 1118.79,-843.992 1118.61,-836.994"/>
<text text-anchor="middle" x="1503.69" y="-795.8" font-family="Times,serif" font-size="14.00">1248</text>
</g>
<!-- 386&#45;&gt;384 -->
<g id="edge24" class="edge"><title>386&#45;&gt;384</title>
<path fill="none" stroke="black" d="M1056.5,-284.174C916.757,-293.755 607.694,-320.03 607.694,-365 607.694,-595 607.694,-595 607.694,-595 607.694,-627.873 632.133,-657.55 653.294,-677.085"/>
<polygon fill="black" stroke="black" points="651.084,-679.802 660.891,-683.81 655.724,-674.561 651.084,-679.802"/>
<text text-anchor="middle" x="621.694" y="-492.8" font-family="Times,serif" font-size="14.00">2649</text>
</g>
<!-- 394 -->
<g id="node18" class="node"><title>394</title>
<polygon fill="none" stroke="black" points="1114.69,-210 1034.69,-210 1034.69,-174 1114.69,-174 1114.69,-210"/>
<text text-anchor="middle" x="1074.69" y="-188.3" font-family="Times,serif" font-size="14.00">394: &lt;NA&gt;</text>
</g>
<!-- 386&#45;&gt;394 -->
<g id="edge23" class="edge"><title>386&#45;&gt;394</title>
<path fill="none" stroke="black" d="M1067.63,-260.883C1060.12,-256.25 1053.4,-250.393 1048.69,-243 1043.75,-235.243 1045.95,-226.441 1050.7,-218.407"/>
<polygon fill="black" stroke="black" points="1053.69,-220.25 1056.65,-210.078 1047.99,-216.182 1053.69,-220.25"/>
<text text-anchor="middle" x="1062.69" y="-231.8" font-family="Times,serif" font-size="14.00">2816</text>
</g>
<!-- 388 -->
<g id="node19" class="node"><title>388</title>
<polygon fill="none" stroke="black" points="1212.69,-210 1132.69,-210 1132.69,-174 1212.69,-174 1212.69,-210"/>
<text text-anchor="middle" x="1172.69" y="-188.3" font-family="Times,serif" font-size="14.00">388: &lt;NA&gt;</text>
</g>
<!-- 386&#45;&gt;388 -->
<g id="edge25" class="edge"><title>386&#45;&gt;388</title>
<path fill="none" stroke="black" d="M1132.66,-260.72C1137.79,-251.017 1144.43,-238.737 1150.69,-228 1152.39,-225.086 1154.21,-222.063 1156.04,-219.068"/>
<polygon fill="black" stroke="black" points="1159.18,-220.647 1161.5,-210.308 1153.24,-216.948 1159.18,-220.647"/>
<text text-anchor="middle" x="1164.69" y="-231.8" font-family="Times,serif" font-size="14.00">2729</text>
</g>
<!-- 377&#45;&gt;374 -->
<g id="edge22" class="edge"><title>377&#45;&gt;374</title>
<path fill="none" stroke="black" d="M1176.48,-471.074C1168.71,-491.796 1158.36,-527.724 1165.69,-558 1166.39,-560.864 1167.36,-563.756 1168.49,-566.586"/>
<polygon fill="black" stroke="black" points="1165.41,-568.259 1172.82,-575.834 1171.75,-565.293 1165.41,-568.259"/>
<text text-anchor="middle" x="1179.69" y="-536.3" font-family="Times,serif" font-size="14.00">2630</text>
</g>
<!-- 382 -->
<g id="node22" class="node"><title>382</title>
<ellipse fill="none" stroke="black" cx="1123.69" cy="-366" rx="215.562" ry="18"/>
<text text-anchor="middle" x="1123.69" y="-362.3" font-family="Times,serif" font-size="14.00">382: /home/feishao/sysrep_test_temp/call_others.py?dl=0</text>
</g>
<!-- 377&#45;&gt;382 -->
<g id="edge53" class="edge"><title>377&#45;&gt;382</title>
<path fill="none" stroke="black" d="M1171.55,-434.799C1163.01,-422.702 1151.44,-406.305 1141.81,-392.667"/>
<polygon fill="black" stroke="black" points="1144.44,-390.327 1135.82,-384.175 1138.72,-394.364 1144.44,-390.327"/>
<text text-anchor="middle" x="1171.69" y="-405.8" font-family="Times,serif" font-size="14.00">2643</text>
</g>
<!-- 394&#45;&gt;386 -->
<g id="edge31" class="edge"><title>394&#45;&gt;386</title>
<path fill="none" stroke="black" d="M1084.59,-210.175C1091.5,-222.151 1100.84,-238.35 1108.66,-251.914"/>
<polygon fill="black" stroke="black" points="1105.75,-253.883 1113.78,-260.799 1111.82,-250.387 1105.75,-253.883"/>
<text text-anchor="middle" x="1116.69" y="-231.8" font-family="Times,serif" font-size="14.00">2817</text>
</g>
<!-- 396 -->
<g id="node20" class="node"><title>396</title>
<polygon fill="none" stroke="black" points="1192.69,-123 1058.69,-123 1058.69,-87 1192.69,-87 1192.69,-123"/>
<text text-anchor="middle" x="1125.69" y="-101.3" font-family="Times,serif" font-size="14.00">396: /usr/bin/python3</text>
</g>
<!-- 394&#45;&gt;396 -->
<g id="edge30" class="edge"><title>394&#45;&gt;396</title>
<path fill="none" stroke="black" d="M1090.45,-173.917C1095.06,-168.435 1099.88,-162.177 1103.69,-156 1108.18,-148.738 1112.23,-140.402 1115.6,-132.645"/>
<polygon fill="black" stroke="black" points="1118.89,-133.832 1119.48,-123.254 1112.42,-131.159 1118.89,-133.832"/>
<text text-anchor="middle" x="1125.69" y="-144.8" font-family="Times,serif" font-size="14.00">2820</text>
</g>
<!-- 388&#45;&gt;386 -->
<g id="edge38" class="edge"><title>388&#45;&gt;386</title>
<path fill="none" stroke="black" d="M1179.6,-210.173C1182.53,-220.299 1184.16,-233.037 1178.69,-243 1176.37,-247.241 1173.28,-251.042 1169.76,-254.432"/>
<polygon fill="black" stroke="black" points="1167.5,-251.757 1162.01,-260.819 1171.95,-257.157 1167.5,-251.757"/>
<text text-anchor="middle" x="1196.69" y="-231.8" font-family="Times,serif" font-size="14.00">2730</text>
</g>
<!-- 396&#45;&gt;394 -->
<g id="edge37" class="edge"><title>396&#45;&gt;394</title>
<path fill="none" stroke="black" d="M1088.33,-123.1C1081.65,-127.91 1075.59,-133.834 1071.69,-141 1067.98,-147.829 1067.23,-155.984 1067.82,-163.706"/>
<polygon fill="black" stroke="black" points="1064.39,-164.421 1069.31,-173.804 1071.31,-163.401 1064.39,-164.421"/>
<text text-anchor="middle" x="1085.69" y="-144.8" font-family="Times,serif" font-size="14.00">2821</text>
</g>
<!-- 414 -->
<g id="node34" class="node"><title>414</title>
<ellipse fill="none" stroke="black" cx="1125.69" cy="-18" rx="135.676" ry="18"/>
<text text-anchor="middle" x="1125.69" y="-14.3" font-family="Times,serif" font-size="14.00">414: /home/feishao/sysrep_random</text>
</g>
<!-- 396&#45;&gt;414 -->
<g id="edge54" class="edge"><title>396&#45;&gt;414</title>
<path fill="none" stroke="black" d="M1125.69,-86.799C1125.69,-75.1626 1125.69,-59.5479 1125.69,-46.2368"/>
<polygon fill="black" stroke="black" points="1129.19,-46.1754 1125.69,-36.1754 1122.19,-46.1755 1129.19,-46.1754"/>
<text text-anchor="middle" x="1139.69" y="-57.8" font-family="Times,serif" font-size="14.00">3104</text>
</g>
<!-- 355 -->
<g id="node29" class="node"><title>355</title>
<polygon fill="none" stroke="black" points="3033.58,-558 2572.44,-558 2453.81,-522 2914.95,-522 3033.58,-558"/>
<text text-anchor="middle" x="2743.69" y="-536.3" font-family="Times,serif" font-size="14.00">355: 129.22.31.135/32:53048&#45;&gt;162.125.3.18/32:443</text>
</g>
<!-- 337&#45;&gt;355 -->
<g id="edge57" class="edge"><title>337&#45;&gt;355</title>
<path fill="none" stroke="black" d="M2206.01,-647.513C2287.58,-647.017 2439.88,-641.662 2565.69,-612 2613.4,-600.751 2665.16,-578.933 2700.49,-562.438"/>
<polygon fill="black" stroke="black" points="2702.01,-565.591 2709.56,-558.154 2699.02,-559.262 2702.01,-565.591"/>
<text text-anchor="middle" x="2681.69" y="-590.3" font-family="Times,serif" font-size="14.00">2245</text>
</g>
<!-- 371 -->
<g id="node30" class="node"><title>371</title>
<polygon fill="none" stroke="black" points="2436.58,-558 1975.44,-558 1856.81,-522 2317.95,-522 2436.58,-558"/>
<text text-anchor="middle" x="2146.69" y="-536.3" font-family="Times,serif" font-size="14.00">371: 129.22.31.135/32:51262&#45;&gt;162.125.3.15/32:443</text>
</g>
<!-- 337&#45;&gt;371 -->
<g id="edge55" class="edge"><title>337&#45;&gt;371</title>
<path fill="none" stroke="black" d="M2129.36,-629.642C2125.02,-624.429 2120.99,-618.384 2118.69,-612 2113.27,-596.948 2113.4,-591.098 2118.69,-576 2119.86,-572.668 2121.5,-569.418 2123.39,-566.325"/>
<polygon fill="black" stroke="black" points="2126.31,-568.26 2129.27,-558.088 2120.61,-564.194 2126.31,-568.26"/>
<text text-anchor="middle" x="2132.69" y="-590.3" font-family="Times,serif" font-size="14.00">2563</text>
</g>
<!-- 372 -->
<g id="node33" class="node"><title>372</title>
<ellipse fill="none" stroke="black" cx="1617.69" cy="-540" rx="221.761" ry="18"/>
<text text-anchor="middle" x="1617.69" y="-536.3" font-family="Times,serif" font-size="14.00">372: /home/feishao/sysdigscripts/case1/call_others.py?dl=0</text>
</g>
<!-- 337&#45;&gt;372 -->
<g id="edge56" class="edge"><title>337&#45;&gt;372</title>
<path fill="none" stroke="black" d="M2089.46,-635.353C1997.02,-616.865 1816.03,-580.668 1707.08,-558.878"/>
<polygon fill="black" stroke="black" points="1707.59,-555.409 1697.09,-556.88 1706.21,-562.273 1707.59,-555.409"/>
<text text-anchor="middle" x="1975.69" y="-590.3" font-family="Times,serif" font-size="14.00">2613</text>
</g>
<!-- 382&#45;&gt;386 -->
<g id="edge40" class="edge"><title>382&#45;&gt;386</title>
<path fill="none" stroke="black" d="M1123.69,-347.799C1123.69,-336.163 1123.69,-320.548 1123.69,-307.237"/>
<polygon fill="black" stroke="black" points="1127.19,-307.175 1123.69,-297.175 1120.19,-307.175 1127.19,-307.175"/>
<text text-anchor="middle" x="1137.69" y="-318.8" font-family="Times,serif" font-size="14.00">2722</text>
</g>
<!-- 343 -->
<g id="node23" class="node"><title>343</title>
<ellipse fill="none" stroke="black" cx="2243.69" cy="-756" rx="67.6881" ry="18"/>
<text text-anchor="middle" x="2243.69" y="-752.3" font-family="Times,serif" font-size="14.00">343: /etc/wgetrc</text>
</g>
<!-- 343&#45;&gt;337 -->
<g id="edge41" class="edge"><title>343&#45;&gt;337</title>
<path fill="none" stroke="black" d="M2228.69,-738.438C2212.96,-721.063 2188.05,-693.563 2170.01,-673.64"/>
<polygon fill="black" stroke="black" points="2172.53,-671.211 2163.22,-666.149 2167.34,-675.91 2172.53,-671.211"/>
<text text-anchor="middle" x="2224.69" y="-698.3" font-family="Times,serif" font-size="14.00">2124</text>
</g>
<!-- 346 -->
<g id="node24" class="node"><title>346</title>
<ellipse fill="none" stroke="black" cx="2407.69" cy="-756" rx="77.9862" ry="18"/>
<text text-anchor="middle" x="2407.69" y="-752.3" font-family="Times,serif" font-size="14.00">346: /dev/urandom</text>
</g>
<!-- 346&#45;&gt;337 -->
<g id="edge42" class="edge"><title>346&#45;&gt;337</title>
<path fill="none" stroke="black" d="M2373.79,-739.78C2340.58,-725.027 2288.46,-702.261 2242.69,-684 2230.71,-679.22 2217.8,-674.304 2205.46,-669.723"/>
<polygon fill="black" stroke="black" points="2206.32,-666.309 2195.73,-666.131 2203.9,-672.876 2206.32,-666.309"/>
<text text-anchor="middle" x="2342.69" y="-698.3" font-family="Times,serif" font-size="14.00">2146</text>
</g>
<!-- 296&#45;&gt;295 -->
<g id="edge43" class="edge"><title>296&#45;&gt;295</title>
<path fill="none" stroke="black" d="M285.762,-666.137C283.233,-681.227 281.866,-703.332 290.694,-720 292.873,-724.114 295.776,-727.847 299.092,-731.208"/>
<polygon fill="black" stroke="black" points="297.042,-734.064 306.887,-737.977 301.632,-728.778 297.042,-734.064"/>
<text text-anchor="middle" x="304.694" y="-698.3" font-family="Times,serif" font-size="14.00">1500</text>
</g>
<!-- 233 -->
<g id="node26" class="node"><title>233</title>
<ellipse fill="none" stroke="black" cx="1833.69" cy="-930" rx="77.1866" ry="18"/>
<text text-anchor="middle" x="1833.69" y="-926.3" font-family="Times,serif" font-size="14.00">233: /etc/localtime</text>
</g>
<!-- 233&#45;&gt;191 -->
<g id="edge44" class="edge"><title>233&#45;&gt;191</title>
<path fill="none" stroke="black" d="M1765.14,-921.642C1618.2,-905.873 1273.75,-868.905 1119.17,-852.315"/>
<polygon fill="black" stroke="black" points="1119.14,-848.792 1108.82,-851.205 1118.39,-855.752 1119.14,-848.792"/>
<text text-anchor="middle" x="1499.69" y="-882.8" font-family="Times,serif" font-size="14.00">1008</text>
</g>
<!-- 233&#45;&gt;337 -->
<g id="edge45" class="edge"><title>233&#45;&gt;337</title>
<path fill="none" stroke="black" d="M1886.84,-916.796C1954.66,-898.254 2070.21,-856.111 2128.69,-774 2149.16,-745.274 2151.42,-703.367 2150.26,-676.14"/>
<polygon fill="black" stroke="black" points="2153.76,-675.909 2149.66,-666.139 2146.77,-676.332 2153.76,-675.909"/>
<text text-anchor="middle" x="2128.69" y="-795.8" font-family="Times,serif" font-size="14.00">2137</text>
</g>
<!-- 231 -->
<g id="node27" class="node"><title>231</title>
<ellipse fill="none" stroke="black" cx="1244.69" cy="-930" rx="181.968" ry="18"/>
<text text-anchor="middle" x="1244.69" y="-926.3" font-family="Times,serif" font-size="14.00">231: /home/feishao/sysdigscripts/case1/case1.py</text>
</g>
<!-- 231&#45;&gt;191 -->
<g id="edge46" class="edge"><title>231&#45;&gt;191</title>
<path fill="none" stroke="black" d="M1205.07,-912.409C1172.8,-898.896 1127.03,-879.731 1092.14,-865.123"/>
<polygon fill="black" stroke="black" points="1093.18,-861.765 1082.61,-861.131 1090.48,-868.222 1093.18,-861.765"/>
<text text-anchor="middle" x="1169.69" y="-882.8" font-family="Times,serif" font-size="14.00">1001</text>
</g>
<!-- 344 -->
<g id="node28" class="node"><title>344</title>
<ellipse fill="none" stroke="black" cx="1838.69" cy="-756" rx="117.779" ry="18"/>
<text text-anchor="middle" x="1838.69" y="-752.3" font-family="Times,serif" font-size="14.00">344: /home/feishao/.wget&#45;hsts</text>
</g>
<!-- 344&#45;&gt;337 -->
<g id="edge47" class="edge"><title>344&#45;&gt;337</title>
<path fill="none" stroke="black" d="M1883.21,-739.319C1924.49,-724.818 1987.67,-702.744 2042.69,-684 2056.81,-679.192 2072.01,-674.083 2086.35,-669.298"/>
<polygon fill="black" stroke="black" points="2087.73,-672.526 2096.11,-666.044 2085.52,-665.885 2087.73,-672.526"/>
<text text-anchor="middle" x="2056.69" y="-698.3" font-family="Times,serif" font-size="14.00">2135</text>
</g>
<!-- 355&#45;&gt;337 -->
<g id="edge48" class="edge"><title>355&#45;&gt;337</title>
<path fill="none" stroke="black" d="M2647.84,-558.047C2526.92,-579.554 2321.97,-616.004 2215.88,-634.873"/>
<polygon fill="black" stroke="black" points="2215.16,-631.446 2205.93,-636.643 2216.38,-638.338 2215.16,-631.446"/>
<text text-anchor="middle" x="2547.69" y="-590.3" font-family="Times,serif" font-size="14.00">2293</text>
</g>
<!-- 371&#45;&gt;337 -->
<g id="edge49" class="edge"><title>371&#45;&gt;337</title>
<path fill="none" stroke="black" d="M2149.04,-558.056C2149.71,-563.751 2150.36,-570.138 2150.69,-576 2151.6,-591.974 2151.38,-596.015 2150.69,-612 2150.58,-614.559 2150.43,-617.221 2150.25,-619.882"/>
<polygon fill="black" stroke="black" points="2146.75,-619.683 2149.45,-629.929 2153.73,-620.237 2146.75,-619.683"/>
<text text-anchor="middle" x="2165.69" y="-590.3" font-family="Times,serif" font-size="14.00">2566</text>
</g>
<!-- 397 -->
<g id="node31" class="node"><title>397</title>
<ellipse fill="none" stroke="black" cx="1484.69" cy="-192" rx="254.255" ry="18"/>
<text text-anchor="middle" x="1484.69" y="-188.3" font-family="Times,serif" font-size="14.00">397: /home/feishao/sysrep_test_temp/python_write_random_data.py</text>
</g>
<!-- 397&#45;&gt;396 -->
<g id="edge50" class="edge"><title>397&#45;&gt;396</title>
<path fill="none" stroke="black" d="M1415.47,-174.611C1354.55,-160.187 1265.96,-139.21 1202.79,-124.254"/>
<polygon fill="black" stroke="black" points="1203.41,-120.805 1192.88,-121.907 1201.8,-127.617 1203.41,-120.805"/>
<text text-anchor="middle" x="1340.69" y="-144.8" font-family="Times,serif" font-size="14.00">2896</text>
</g>
<!-- 354 -->
<g id="node32" class="node"><title>354</title>
<ellipse fill="none" stroke="black" cx="2046.69" cy="-756" rx="72.5877" ry="18"/>
<text text-anchor="middle" x="2046.69" y="-752.3" font-family="Times,serif" font-size="14.00">354: /etc/gai.conf</text>
</g>
<!-- 354&#45;&gt;337 -->
<g id="edge51" class="edge"><title>354&#45;&gt;337</title>
<path fill="none" stroke="black" d="M2059.25,-738.195C2070.68,-723.323 2088.37,-701.351 2105.69,-684 2109.45,-680.235 2113.58,-676.44 2117.73,-672.809"/>
<polygon fill="black" stroke="black" points="2120.3,-675.219 2125.66,-666.081 2115.78,-669.882 2120.3,-675.219"/>
<text text-anchor="middle" x="2119.69" y="-698.3" font-family="Times,serif" font-size="14.00">2233</text>
</g>
<!-- 372&#45;&gt;377 -->
<g id="edge52" class="edge"><title>372&#45;&gt;377</title>
<path fill="none" stroke="black" d="M1457.63,-527.54C1412.02,-522.334 1362.55,-514.818 1317.69,-504 1288.26,-496.903 1256.47,-485.224 1231.24,-474.938"/>
<polygon fill="black" stroke="black" points="1232.49,-471.668 1221.91,-471.077 1229.81,-478.135 1232.49,-471.668"/>
<text text-anchor="middle" x="1331.69" y="-492.8" font-family="Times,serif" font-size="14.00">2642</text>
</g>
</g>
</svg>
